o 4TruncatedDeltoidalIcositetrahedron2
v 0.58351358243623574 0.58351358243623574 0.58351358243623574
v 0.68759464910608381 0.22815859302578245 0.68759464910608381
v 0.84892713742059622 0 0.52626216079157129
v 0.972405678180993 0 0.22815859302578245
v 0.972405678180993 0.22815859302578245 0
v 0.84892713742059622 0.52626216079157129 0
v 0.68759464910608381 0.68759464910608381 0.22815859302578245
v 0.52626216079157129 0.84892713742059622 0
v 0.22815859302578245 0.972405678180993 0
v 0 0.972405678180993 0.22815859302578245
v 0 0.84892713742059622 0.52626216079157129
v 0.22815859302578245 0.68759464910608381 0.68759464910608381
v 0 0.52626216079157129 0.84892713742059622
v 0 0.22815859302578245 0.972405678180993
v 0.22815859302578245 0 0.972405678180993
v 0.52626216079157129 0 0.84892713742059622
v 0.58351358243623574 0.58351358243623574 -0.58351358243623574
v 0.68759464910608381 0.22815859302578245 -0.68759464910608381
v 0.52626216079157129 0 -0.84892713742059622
v 0.22815859302578245 0 -0.972405678180993
v 0 0.22815859302578245 -0.972405678180993
v 0 0.52626216079157129 -0.84892713742059622
v 0.22815859302578245 0.68759464910608381 -0.68759464910608381
v 0 0.84892713742059622 -0.52626216079157129
v 0 0.972405678180993 -0.22815859302578245
v 0.68759464910608381 0.68759464910608381 -0.22815859302578245
v 0.972405678180993 0 -0.22815859302578245
v 0.84892713742059622 0 -0.52626216079157129
v 0.58351358243623574 -0.58351358243623574 0.58351358243623574
v 0.68759464910608381 -0.22815859302578245 0.68759464910608381
v 0 -0.22815859302578245 0.972405678180993
v 0 -0.52626216079157129 0.84892713742059622
v 0.22815859302578245 -0.68759464910608381 0.68759464910608381
v 0 -0.84892713742059622 0.52626216079157129
v 0 -0.972405678180993 0.22815859302578245
v 0.22815859302578245 -0.972405678180993 0
v 0.52626216079157129 -0.84892713742059622 0
v 0.68759464910608381 -0.68759464910608381 0.22815859302578245
v 0.84892713742059622 -0.52626216079157129 0
v 0.972405678180993 -0.22815859302578245 0
v 0.58351358243623574 -0.58351358243623574 -0.58351358243623574
v 0.68759464910608381 -0.22815859302578245 -0.68759464910608381
v 0.68759464910608381 -0.68759464910608381 -0.22815859302578245
v 0 -0.972405678180993 -0.22815859302578245
v 0 -0.84892713742059622 -0.52626216079157129
v 0.22815859302578245 -0.68759464910608381 -0.68759464910608381
v 0 -0.52626216079157129 -0.84892713742059622
v 0 -0.22815859302578245 -0.972405678180993
v -0.58351358243623574 0.58351358243623574 0.58351358243623574
v -0.68759464910608381 0.22815859302578245 0.68759464910608381
v -0.52626216079157129 0 0.84892713742059622
v -0.22815859302578245 0 0.972405678180993
v -0.22815859302578245 0.68759464910608381 0.68759464910608381
v -0.22815859302578245 0.972405678180993 0
v -0.52626216079157129 0.84892713742059622 0
v -0.68759464910608381 0.68759464910608381 0.22815859302578245
v -0.84892713742059622 0.52626216079157129 0
v -0.972405678180993 0.22815859302578245 0
v -0.972405678180993 0 0.22815859302578245
v -0.84892713742059622 0 0.52626216079157129
v -0.58351358243623574 0.58351358243623574 -0.58351358243623574
v -0.68759464910608381 0.22815859302578245 -0.68759464910608381
v -0.84892713742059622 0 -0.52626216079157129
v -0.972405678180993 0 -0.22815859302578245
v -0.68759464910608381 0.68759464910608381 -0.22815859302578245
v -0.22815859302578245 0.68759464910608381 -0.68759464910608381
v -0.22815859302578245 0 -0.972405678180993
v -0.52626216079157129 0 -0.84892713742059622
v -0.58351358243623574 -0.58351358243623574 0.58351358243623574
v -0.68759464910608381 -0.22815859302578245 0.68759464910608381
v -0.972405678180993 -0.22815859302578245 0
v -0.84892713742059622 -0.52626216079157129 0
v -0.68759464910608381 -0.68759464910608381 0.22815859302578245
v -0.52626216079157129 -0.84892713742059622 0
v -0.22815859302578245 -0.972405678180993 0
v -0.22815859302578245 -0.68759464910608381 0.68759464910608381
v -0.58351358243623574 -0.58351358243623574 -0.58351358243623574
v -0.68759464910608381 -0.22815859302578245 -0.68759464910608381
v -0.22815859302578245 -0.68759464910608381 -0.68759464910608381
v -0.68759464910608381 -0.68759464910608381 -0.22815859302578245
vn 0.081077294408580872 0.03358331494455051 0.033583314944550441
vn 0.033583314944550441 0.081077294408580872 0.03358331494455051
vn 0.03358331494455051 0.033583314944550441 0.081077294408580872
vn 0.033583314944550441 0.03358331494455051 -0.081077294408580872
vn 0.03358331494455051 0.081077294408580872 -0.033583314944550441
vn 0.081077294408580872 0.033583314944550441 -0.03358331494455051
vn 0.033583314944550441 -0.03358331494455051 0.081077294408580872
vn 0.03358331494455051 -0.081077294408580872 0.033583314944550441
vn 0.081077294408580872 -0.033583314944550441 0.03358331494455051
vn 0.081077294408580872 -0.03358331494455051 -0.033583314944550441
vn 0.033583314944550441 -0.081077294408580872 -0.03358331494455051
vn 0.03358331494455051 -0.033583314944550441 -0.081077294408580872
vn -0.033583314944550441 0.03358331494455051 0.081077294408580872
vn -0.03358331494455051 0.081077294408580872 0.033583314944550441
vn -0.081077294408580872 0.033583314944550441 0.03358331494455051
vn -0.081077294408580872 0.03358331494455051 -0.033583314944550441
vn -0.033583314944550441 0.081077294408580872 -0.03358331494455051
vn -0.03358331494455051 0.033583314944550441 -0.081077294408580872
vn -0.081077294408580872 -0.03358331494455051 0.033583314944550441
vn -0.033583314944550441 -0.081077294408580872 0.03358331494455051
vn -0.03358331494455051 -0.033583314944550441 0.081077294408580872
vn -0.033583314944550441 -0.03358331494455051 -0.081077294408580872
vn -0.03358331494455051 -0.081077294408580872 -0.033583314944550441
vn -0.081077294408580872 -0.033583314944550441 -0.03358331494455051
vn 0 0 0.10411268714300925
vn 0 0 -0.10411268714300925
vn 0.10411268714300925 0 0
vn -0.10411268714300925 0 0
vn 0 0.10411268714300925 0
vn 0 -0.10411268714300925 0
vn 0.073618787086375315 3.4694469519536142E-17 0.073618787086375315
vn 0.073618787086375315 -3.4694469519536142E-17 -0.073618787086375315
vn -0.073618787086375315 -3.4694469519536142E-17 0.073618787086375315
vn -0.073618787086375315 3.4694469519536142E-17 -0.073618787086375315
vn 0.073618787086375315 0.073618787086375315 3.4694469519536142E-17
vn 0.073618787086375315 -0.073618787086375315 -3.4694469519536142E-17
vn -0.073618787086375315 0.073618787086375315 -3.4694469519536142E-17
vn -0.073618787086375315 -0.073618787086375315 3.4694469519536142E-17
vn 3.4694469519536142E-17 0.073618787086375315 0.073618787086375315
vn -3.4694469519536142E-17 0.073618787086375315 -0.073618787086375315
vn -3.4694469519536142E-17 -0.073618787086375315 0.073618787086375315
vn 3.4694469519536142E-17 -0.073618787086375315 -0.073618787086375315
g 4TruncatedDeltoidalIcositetrahedron2
f 1//1 2//1 3//1 4//1 5//1 6//1 7//1
f 1//2 7//2 8//2 9//2 10//2 11//2 12//2
f 1//3 12//3 13//3 14//3 15//3 16//3 2//3
f 17//4 18//4 19//4 20//4 21//4 22//4 23//4
f 17//5 23//5 24//5 25//5 9//5 8//5 26//5
f 17//6 26//6 6//6 5//6 27//6 28//6 18//6
f 29//7 30//7 16//7 15//7 31//7 32//7 33//7
f 29//8 33//8 34//8 35//8 36//8 37//8 38//8
f 29//9 38//9 39//9 40//9 4//9 3//9 30//9
f 41//10 42//10 28//10 27//10 40//10 39//10 43//10
f 41//11 43//11 37//11 36//11 44//11 45//11 46//11
f 41//12 46//12 47//12 48//12 20//12 19//12 42//12
f 49//13 50//13 51//13 52//13 14//13 13//13 53//13
f 49//14 53//14 11//14 10//14 54//14 55//14 56//14
f 49//15 56//15 57//15 58//15 59//15 60//15 50//15
f 61//16 62//16 63//16 64//16 58//16 57//16 65//16
f 61//17 65//17 55//17 54//17 25//17 24//17 66//17
f 61//18 66//18 22//18 21//18 67//18 68//18 62//18
f 69//19 70//19 60//19 59//19 71//19 72//19 73//19
f 69//20 73//20 74//20 75//20 35//20 34//20 76//20
f 69//21 76//21 32//21 31//21 52//21 51//21 70//21
f 77//22 78//22 68//22 67//22 48//22 47//22 79//22
f 77//23 79//23 45//23 44//23 75//23 74//23 80//23
f 77//24 80//24 72//24 71//24 64//24 63//24 78//24
f 15//25 14//25 52//25 31//25
f 20//26 48//26 67//26 21//26
f 5//27 4//27 40//27 27//27
f 58//28 64//28 71//28 59//28
f 10//29 9//29 25//29 54//29
f 35//30 75//30 44//30 36//30
f 16//31 30//31 3//31 2//31
f 19//32 18//32 28//32 42//32
f 51//33 50//33 60//33 70//33
f 68//34 78//34 63//34 62//34
f 6//35 26//35 8//35 7//35
f 39//36 38//36 37//36 43//36
f 57//37 56//37 55//37 65//37
f 72//38 80//38 74//38 73//38
f 11//39 53//39 13//39 12//39
f 24//40 23//40 22//40 66//40
f 34//41 33//41 32//41 76//41
f 45//42 79//42 47//42 46//42
