o 4TruncatedDeltoidalIcositetrahedron2
v 0.58351358243623574 0.58351358243623574 0.58351358243623574
v 0.68759464910608381 0.22815859302578245 0.68759464910608381
v 0.84892713742059622 0 0.52626216079157129
v 0.972405678180993 0 0.22815859302578245
v 0.972405678180993 0.22815859302578245 0
v 0.84892713742059622 0.52626216079157129 0
v 0.68759464910608381 0.68759464910608381 0.22815859302578245
v 0.52626216079157129 0.84892713742059622 0
v 0.22815859302578245 0.972405678180993 0
v 0 0.972405678180993 0.22815859302578245
v 0 0.84892713742059622 0.52626216079157129
v 0.22815859302578245 0.68759464910608381 0.68759464910608381
v 0 0.52626216079157129 0.84892713742059622
v 0 0.22815859302578245 0.972405678180993
v 0.22815859302578245 0 0.972405678180993
v 0.52626216079157129 0 0.84892713742059622
v 0.58351358243623574 0.58351358243623574 -0.58351358243623574
v 0.68759464910608381 0.22815859302578245 -0.68759464910608381
v 0.52626216079157129 0 -0.84892713742059622
v 0.22815859302578245 0 -0.972405678180993
v 0 0.22815859302578245 -0.972405678180993
v 0 0.52626216079157129 -0.84892713742059622
v 0.22815859302578245 0.68759464910608381 -0.68759464910608381
v 0 0.84892713742059622 -0.52626216079157129
v 0 0.972405678180993 -0.22815859302578245
v 0.68759464910608381 0.68759464910608381 -0.22815859302578245
v 0.972405678180993 0 -0.22815859302578245
v 0.84892713742059622 0 -0.52626216079157129
v 0.58351358243623574 -0.58351358243623574 0.58351358243623574
v 0.68759464910608381 -0.22815859302578245 0.68759464910608381
v 0 -0.22815859302578245 0.972405678180993
v 0 -0.52626216079157129 0.84892713742059622
v 0.22815859302578245 -0.68759464910608381 0.68759464910608381
v 0 -0.84892713742059622 0.52626216079157129
v 0 -0.972405678180993 0.22815859302578245
v 0.22815859302578245 -0.972405678180993 0
v 0.52626216079157129 -0.84892713742059622 0
v 0.68759464910608381 -0.68759464910608381 0.22815859302578245
v 0.84892713742059622 -0.52626216079157129 0
v 0.972405678180993 -0.22815859302578245 0
v 0.58351358243623574 -0.58351358243623574 -0.58351358243623574
v 0.68759464910608381 -0.22815859302578245 -0.68759464910608381
v 0.68759464910608381 -0.68759464910608381 -0.22815859302578245
v 0 -0.972405678180993 -0.22815859302578245
v 0 -0.84892713742059622 -0.52626216079157129
v 0.22815859302578245 -0.68759464910608381 -0.68759464910608381
v 0 -0.52626216079157129 -0.84892713742059622
v 0 -0.22815859302578245 -0.972405678180993
v -0.58351358243623574 0.58351358243623574 0.58351358243623574
v -0.68759464910608381 0.22815859302578245 0.68759464910608381
v -0.52626216079157129 0 0.84892713742059622
v -0.22815859302578245 0 0.972405678180993
v -0.22815859302578245 0.68759464910608381 0.68759464910608381
v -0.22815859302578245 0.972405678180993 0
v -0.52626216079157129 0.84892713742059622 0
v -0.68759464910608381 0.68759464910608381 0.22815859302578245
v -0.84892713742059622 0.52626216079157129 0
v -0.972405678180993 0.22815859302578245 0
v -0.972405678180993 0 0.22815859302578245
v -0.84892713742059622 0 0.52626216079157129
v -0.58351358243623574 0.58351358243623574 -0.58351358243623574
v -0.68759464910608381 0.22815859302578245 -0.68759464910608381
v -0.84892713742059622 0 -0.52626216079157129
v -0.972405678180993 0 -0.22815859302578245
v -0.68759464910608381 0.68759464910608381 -0.22815859302578245
v -0.22815859302578245 0.68759464910608381 -0.68759464910608381
v -0.22815859302578245 0 -0.972405678180993
v -0.52626216079157129 0 -0.84892713742059622
v -0.58351358243623574 -0.58351358243623574 0.58351358243623574
v -0.68759464910608381 -0.22815859302578245 0.68759464910608381
v -0.972405678180993 -0.22815859302578245 0
v -0.84892713742059622 -0.52626216079157129 0
v -0.68759464910608381 -0.68759464910608381 0.22815859302578245
v -0.52626216079157129 -0.84892713742059622 0
v -0.22815859302578245 -0.972405678180993 0
v -0.22815859302578245 -0.68759464910608381 0.68759464910608381
v -0.58351358243623574 -0.58351358243623574 -0.58351358243623574
v -0.68759464910608381 -0.22815859302578245 -0.68759464910608381
v -0.22815859302578245 -0.68759464910608381 -0.68759464910608381
v -0.68759464910608381 -0.68759464910608381 -0.22815859302578245
vn 0.081077294408580872 0.03358331494455051 0.033583314944550441
vn 0.033583314944550441 0.081077294408580872 0.03358331494455051
vn 0.03358331494455051 0.033583314944550441 0.081077294408580872
vn 0.033583314944550441 0.03358331494455051 -0.081077294408580872
vn 0.03358331494455051 0.081077294408580872 -0.033583314944550441
vn 0.081077294408580872 0.033583314944550441 -0.03358331494455051
vn 0.033583314944550441 -0.03358331494455051 0.081077294408580872
vn 0.03358331494455051 -0.081077294408580872 0.033583314944550441
vn 0.081077294408580872 -0.033583314944550441 0.03358331494455051
vn 0.081077294408580872 -0.03358331494455051 -0.033583314944550441
vn 0.033583314944550441 -0.081077294408580872 -0.03358331494455051
vn 0.03358331494455051 -0.033583314944550441 -0.081077294408580872
vn -0.033583314944550441 0.03358331494455051 0.081077294408580872
vn -0.03358331494455051 0.081077294408580872 0.033583314944550441
vn -0.081077294408580872 0.033583314944550441 0.03358331494455051
vn -0.081077294408580872 0.03358331494455051 -0.033583314944550441
vn -0.033583314944550441 0.081077294408580872 -0.03358331494455051
vn -0.03358331494455051 0.033583314944550441 -0.081077294408580872
vn -0.081077294408580872 -0.03358331494455051 0.033583314944550441
vn -0.033583314944550441 -0.081077294408580872 0.03358331494455051
vn -0.03358331494455051 -0.033583314944550441 0.081077294408580872
vn -0.033583314944550441 -0.03358331494455051 -0.081077294408580872
vn -0.03358331494455051 -0.081077294408580872 -0.033583314944550441
vn -0.081077294408580872 -0.033583314944550441 -0.03358331494455051
vn 0 0 0.10411268714300925
vn 0 0 -0.10411268714300925
vn 0.10411268714300925 0 0
vn -0.10411268714300925 0 0
vn 0 0.10411268714300925 0
vn 0 -0.10411268714300925 0
vn 0.073618787086375315 3.4694469519536142E-17 0.073618787086375315
vn 0.073618787086375315 -3.4694469519536142E-17 -0.073618787086375315
vn -0.073618787086375315 -3.4694469519536142E-17 0.073618787086375315
vn -0.073618787086375315 3.4694469519536142E-17 -0.073618787086375315
vn 0.073618787086375315 0.073618787086375315 3.4694469519536142E-17
vn 0.073618787086375315 -0.073618787086375315 -3.4694469519536142E-17
vn -0.073618787086375315 0.073618787086375315 -3.4694469519536142E-17
vn -0.073618787086375315 -0.073618787086375315 3.4694469519536142E-17
vn 3.4694469519536142E-17 0.073618787086375315 0.073618787086375315
vn -3.4694469519536142E-17 0.073618787086375315 -0.073618787086375315
vn -3.4694469519536142E-17 -0.073618787086375315 0.073618787086375315
vn 3.4694469519536142E-17 -0.073618787086375315 -0.073618787086375315
vt 0.99056603773584906 0.5
vt 0.95559626330658853 0.853248164298623
vt 0.87661210463983408 0.9446125457880935
vt 0.81216919583128611 0.70635931806343033
vt 0.81004288135447156 0.31511970769281827
vt 0.871809524046932 0.0609428062322417
vt 0.95167785398985594 0.132265002556842
vt 0.39622641509433965 0.5
vt 0.30188679245283018 0.95454545454545459
vt 0.20754716981132076 0.50000000000000011
vt 0.30188679245283018 0.045454545454545456
g 4TruncatedDeltoidalIcositetrahedron2
f 1/1/1 2/2/1 3/3/1 4/4/1 5/5/1 6/6/1 7/7/1
f 1/1/2 7/2/2 8/3/2 9/4/2 10/5/2 11/6/2 12/7/2
f 1/1/3 12/2/3 13/3/3 14/4/3 15/5/3 16/6/3 2/7/3
f 17/1/4 18/2/4 19/3/4 20/4/4 21/5/4 22/6/4 23/7/4
f 17/1/5 23/2/5 24/3/5 25/4/5 9/5/5 8/6/5 26/7/5
f 17/1/6 26/2/6 6/3/6 5/4/6 27/5/6 28/6/6 18/7/6
f 29/1/7 30/2/7 16/3/7 15/4/7 31/5/7 32/6/7 33/7/7
f 29/1/8 33/2/8 34/3/8 35/4/8 36/5/8 37/6/8 38/7/8
f 29/1/9 38/2/9 39/3/9 40/4/9 4/5/9 3/6/9 30/7/9
f 41/1/10 42/2/10 28/3/10 27/4/10 40/5/10 39/6/10 43/7/10
f 41/1/11 43/2/11 37/3/11 36/4/11 44/5/11 45/6/11 46/7/11
f 41/1/12 46/2/12 47/3/12 48/4/12 20/5/12 19/6/12 42/7/12
f 49/1/13 50/2/13 51/3/13 52/4/13 14/5/13 13/6/13 53/7/13
f 49/1/14 53/2/14 11/3/14 10/4/14 54/5/14 55/6/14 56/7/14
f 49/1/15 56/2/15 57/3/15 58/4/15 59/5/15 60/6/15 50/7/15
f 61/1/16 62/2/16 63/3/16 64/4/16 58/5/16 57/6/16 65/7/16
f 61/1/17 65/2/17 55/3/17 54/4/17 25/5/17 24/6/17 66/7/17
f 61/1/18 66/2/18 22/3/18 21/4/18 67/5/18 68/6/18 62/7/18
f 69/1/19 70/2/19 60/3/19 59/4/19 71/5/19 72/6/19 73/7/19
f 69/1/20 73/2/20 74/3/20 75/4/20 35/5/20 34/6/20 76/7/20
f 69/1/21 76/2/21 32/3/21 31/4/21 52/5/21 51/6/21 70/7/21
f 77/1/22 78/2/22 68/3/22 67/4/22 48/5/22 47/6/22 79/7/22
f 77/1/23 79/2/23 45/3/23 44/4/23 75/5/23 74/6/23 80/7/23
f 77/1/24 80/2/24 72/3/24 71/4/24 64/5/24 63/6/24 78/7/24
f 15/8/25 14/9/25 52/10/25 31/11/25
f 20/8/26 48/9/26 67/10/26 21/11/26
f 5/8/27 4/9/27 40/10/27 27/11/27
f 58/8/28 64/9/28 71/10/28 59/11/28
f 10/8/29 9/9/29 25/10/29 54/11/29
f 35/8/30 75/9/30 44/10/30 36/11/30
f 16/8/31 30/9/31 3/10/31 2/11/31
f 19/8/32 18/9/32 28/10/32 42/11/32
f 51/8/33 50/9/33 60/10/33 70/11/33
f 68/8/34 78/9/34 63/10/34 62/11/34
f 6/8/35 26/9/35 8/10/35 7/11/35
f 39/8/36 38/9/36 37/10/36 43/11/36
f 57/8/37 56/9/37 55/10/37 65/11/37
f 72/8/38 80/9/38 74/10/38 73/11/38
f 11/8/39 53/9/39 13/10/39 12/11/39
f 24/8/40 23/9/40 22/10/40 66/11/40
f 34/8/41 33/9/41 32/10/41 76/11/41
f 45/8/42 79/9/42 47/10/42 46/11/42
