o CanonicalRectifiedLsnubCube
v 0.335506984078155 -0.1004941564595213 0.94340984366035108
v -0.1004941564595213 -0.335506984078155 0.94340984366035108
v 0 -0.704512186405614 0.704512186405614
v 0.38471844444055336 -0.70665973361101719 0.58623121112633136
v 0.58623121112633136 -0.38471844444055336 0.70665973361101719
v 0.704512186405614 0 0.704512186405614
v 0.70665973361101719 0.38471844444055336 0.58623121112633136
v 0.38471844444055336 0.58623121112633136 0.70665973361101719
v 0.1004941564595213 0.335506984078155 0.94340984366035108
v 0.335506984078155 0.1004941564595213 -0.94340984366035108
v -0.1004941564595213 0.335506984078155 -0.94340984366035108
v 0 0.704512186405614 -0.704512186405614
v 0.38471844444055336 0.70665973361101719 -0.58623121112633136
v 0.58623121112633136 0.38471844444055336 -0.70665973361101719
v 0.704512186405614 0 -0.704512186405614
v 0.70665973361101719 -0.38471844444055336 -0.58623121112633136
v 0.38471844444055336 -0.58623121112633136 -0.70665973361101719
v 0.1004941564595213 -0.335506984078155 -0.94340984366035108
v -0.335506984078155 0.1004941564595213 0.94340984366035108
v 0 0.704512186405614 0.704512186405614
v -0.38471844444055336 0.70665973361101719 0.58623121112633136
v -0.58623121112633136 0.38471844444055336 0.70665973361101719
v -0.704512186405614 0 0.704512186405614
v -0.70665973361101719 -0.38471844444055336 0.58623121112633136
v -0.38471844444055336 -0.58623121112633136 0.70665973361101719
v -0.335506984078155 -0.1004941564595213 -0.94340984366035108
v 0 -0.704512186405614 -0.704512186405614
v -0.38471844444055336 -0.70665973361101719 -0.58623121112633136
v -0.58623121112633136 -0.38471844444055336 -0.70665973361101719
v -0.704512186405614 0 -0.704512186405614
v -0.70665973361101719 0.38471844444055336 -0.58623121112633136
v -0.38471844444055336 0.58623121112633136 -0.70665973361101719
v 0.94340984366035108 -0.335506984078155 0.1004941564595213
v 0.94340984366035108 0.1004941564595213 0.335506984078155
v 0.70665973361101719 -0.58623121112633136 0.38471844444055336
v 0.704512186405614 -0.704512186405614 0
v 0.58623121112633136 -0.70665973361101719 -0.38471844444055336
v 0.94340984366035108 -0.1004941564595213 -0.335506984078155
v 0.94340984366035108 0.335506984078155 -0.1004941564595213
v 0.70665973361101719 0.58623121112633136 -0.38471844444055336
v 0.704512186405614 0.704512186405614 0
v 0.58623121112633136 0.70665973361101719 0.38471844444055336
v -0.94340984366035108 0.335506984078155 0.1004941564595213
v -0.94340984366035108 -0.1004941564595213 0.335506984078155
v -0.70665973361101719 0.58623121112633136 0.38471844444055336
v -0.704512186405614 0.704512186405614 0
v -0.58623121112633136 0.70665973361101719 -0.38471844444055336
v -0.94340984366035108 0.1004941564595213 -0.335506984078155
v -0.94340984366035108 -0.335506984078155 -0.1004941564595213
v -0.70665973361101719 -0.58623121112633136 -0.38471844444055336
v -0.704512186405614 -0.704512186405614 0
v -0.58623121112633136 -0.70665973361101719 0.38471844444055336
v 0.1004941564595213 -0.94340984366035108 0.335506984078155
v 0.335506984078155 -0.94340984366035108 -0.1004941564595213
v -0.335506984078155 -0.94340984366035108 0.1004941564595213
v 0.1004941564595213 0.94340984366035108 -0.335506984078155
v 0.335506984078155 0.94340984366035108 0.1004941564595213
v -0.335506984078155 0.94340984366035108 -0.1004941564595213
v -0.1004941564595213 0.94340984366035108 0.335506984078155
v -0.1004941564595213 -0.94340984366035108 -0.335506984078155
vn 0.056144013942902964 -0.10415965103484426 0.18450410494780958
vn 0.080021788243633943 0.043133251218206062 0.14174729148502768
vn 0.056144013942902964 0.10415965103484426 -0.18450410494780958
vn 0.080021788243633943 -0.043133251218206062 -0.14174729148502768
vn -0.056144013942902964 0.10415965103484426 0.18450410494780958
vn -0.080021788243633943 -0.043133251218206062 0.14174729148502768
vn -0.056144013942902964 -0.10415965103484426 -0.18450410494780958
vn -0.080021788243633943 0.043133251218206062 -0.14174729148502768
vn 0.18450410494780958 -0.056144013942902964 0.10415965103484426
vn 0.14174729148502768 -0.080021788243633943 -0.043133251218206062
vn 0.18450410494780958 0.056144013942902964 -0.10415965103484426
vn 0.14174729148502768 0.080021788243633943 0.043133251218206062
vn -0.18450410494780958 0.056144013942902964 0.10415965103484426
vn -0.14174729148502768 0.080021788243633943 -0.043133251218206062
vn -0.18450410494780958 -0.056144013942902964 -0.10415965103484426
vn -0.14174729148502768 -0.080021788243633943 0.043133251218206062
vn 0.10415965103484426 -0.18450410494780958 0.056144013942902964
vn -0.043133251218206062 -0.14174729148502768 0.080021788243633943
vn 0.10415965103484426 0.18450410494780958 -0.056144013942902964
vn -0.043133251218206062 0.14174729148502768 -0.080021788243633943
vn -0.10415965103484426 0.18450410494780958 0.056144013942902964
vn 0.043133251218206062 0.14174729148502768 0.080021788243633943
vn -0.10415965103484426 -0.18450410494780958 -0.056144013942902964
vn 0.043133251218206062 -0.14174729148502768 -0.080021788243633943
vn 0 0 0.2453280236954602
vn 0 0 -0.2453280236954602
vn 0.2453280236954602 0 0
vn -0.2453280236954602 0 0
vn 0 -0.2453280236954602 0
vn 0 0.2453280236954602 0
vn 0.079378308918970741 -0.079378308918970741 0.079378308918970741
vn 0.079378308918970741 0.079378308918970741 -0.079378308918970741
vn -0.079378308918970741 0.079378308918970741 0.079378308918970741
vn -0.079378308918970741 -0.079378308918970741 -0.079378308918970741
vn 0.079378308918970741 0.079378308918970741 0.079378308918970741
vn 0.079378308918970741 -0.079378308918970741 -0.079378308918970741
vn -0.079378308918970741 -0.079378308918970741 0.079378308918970741
vn -0.079378308918970741 0.079378308918970741 -0.079378308918970741
vn 0.091692519134670941 -0.027464591800988505 0.1300765605939907
vn 0.091692519134670941 0.027464591800988505 -0.1300765605939907
vn -0.091692519134670941 0.027464591800988505 0.1300765605939907
vn -0.091692519134670941 -0.027464591800988505 -0.1300765605939907
vn 0.1300765605939907 -0.091692519134670941 0.027464591800988505
vn 0.1300765605939907 0.091692519134670941 -0.027464591800988505
vn -0.1300765605939907 0.091692519134670941 0.027464591800988505
vn -0.1300765605939907 -0.091692519134670941 -0.027464591800988505
vn 0.027464591800988505 -0.1300765605939907 0.091692519134670941
vn 0.027464591800988505 0.1300765605939907 -0.091692519134670941
vn -0.027464591800988505 0.1300765605939907 0.091692519134670941
vn -0.027464591800988505 -0.1300765605939907 -0.091692519134670941
vn 0.027464591800988505 0.091692519134670941 0.1300765605939907
vn 0.027464591800988505 -0.091692519134670941 -0.1300765605939907
vn -0.027464591800988505 -0.091692519134670941 0.1300765605939907
vn -0.027464591800988505 0.091692519134670941 -0.1300765605939907
vn 0.1300765605939907 0.027464591800988505 0.091692519134670941
vn 0.1300765605939907 -0.027464591800988505 -0.091692519134670941
vn -0.1300765605939907 -0.027464591800988505 0.091692519134670941
vn -0.1300765605939907 0.027464591800988505 -0.091692519134670941
vn 0.091692519134670941 0.1300765605939907 0.027464591800988505
vn 0.091692519134670941 -0.1300765605939907 -0.027464591800988505
vn -0.091692519134670941 -0.1300765605939907 0.027464591800988505
vn -0.091692519134670941 0.1300765605939907 -0.027464591800988505
vt 0.59433962264150941 0.5
vt 0.5291525466391459 0.9322984164977971
vt 0.42367764204009933 0.76717511467839694
vt 0.42367764204009928 0.23282488532160317
vt 0.5291525466391459 0.067701583502202886
vt 0.39622641509433965 0.5
vt 0.30188679245283018 0.95454545454545459
vt 0.20754716981132076 0.50000000000000011
vt 0.30188679245283018 0.045454545454545456
vt 0.19811320754716982 0.5
vt 0.056603773584905683 0.8936479108111085
vt 0.05660377358490562 0.10635208918889166
g CanonicalRectifiedLsnubCube
f 1/1/1 2/2/1 3/3/1 4/4/1 5/5/1
f 1/1/2 6/2/2 7/3/2 8/4/2 9/5/2
f 10/1/3 11/2/3 12/3/3 13/4/3 14/5/3
f 10/1/4 15/2/4 16/3/4 17/4/4 18/5/4
f 19/1/5 9/2/5 20/3/5 21/4/5 22/5/5
f 19/1/6 23/2/6 24/3/6 25/4/6 2/5/6
f 26/1/7 18/2/7 27/3/7 28/4/7 29/5/7
f 26/1/8 30/2/8 31/3/8 32/4/8 11/5/8
f 33/1/9 34/2/9 6/3/9 5/4/9 35/5/9
f 33/1/10 36/2/10 37/3/10 16/4/10 38/5/10
f 39/1/11 38/2/11 15/3/11 14/4/11 40/5/11
f 39/1/12 41/2/12 42/3/12 7/4/12 34/5/12
f 43/1/13 44/2/13 23/3/13 22/4/13 45/5/13
f 43/1/14 46/2/14 47/3/14 31/4/14 48/5/14
f 49/1/15 48/2/15 30/3/15 29/4/15 50/5/15
f 49/1/16 51/2/16 52/3/16 24/4/16 44/5/16
f 53/1/17 54/2/17 36/3/17 35/4/17 4/5/17
f 53/1/18 3/2/18 25/3/18 52/4/18 55/5/18
f 56/1/19 57/2/19 41/3/19 40/4/19 13/5/19
f 56/1/20 12/2/20 32/3/20 47/4/20 58/5/20
f 59/1/21 58/2/21 46/3/21 45/4/21 21/5/21
f 59/1/22 20/2/22 8/3/22 42/4/22 57/5/22
f 60/1/23 55/2/23 51/3/23 50/4/23 28/5/23
f 60/1/24 27/2/24 17/3/24 37/4/24 54/5/24
f 1/6/25 9/7/25 19/8/25 2/9/25
f 10/6/26 18/7/26 26/8/26 11/9/26
f 33/6/27 38/7/27 39/8/27 34/9/27
f 43/6/28 48/7/28 49/8/28 44/9/28
f 53/6/29 55/7/29 60/8/29 54/9/29
f 56/6/30 58/7/30 59/8/30 57/9/30
f 5/10/31 4/11/31 35/12/31
f 14/10/32 13/11/32 40/12/32
f 22/10/33 21/11/33 45/12/33
f 29/10/34 28/11/34 50/12/34
f 8/10/35 7/11/35 42/12/35
f 17/10/36 16/11/36 37/12/36
f 25/10/37 24/11/37 52/12/37
f 32/10/38 31/11/38 47/12/38
f 1/10/39 5/11/39 6/12/39
f 10/10/40 14/11/40 15/12/40
f 19/10/41 22/11/41 23/12/41
f 26/10/42 29/11/42 30/12/42
f 33/10/43 35/11/43 36/12/43
f 39/10/44 40/11/44 41/12/44
f 43/10/45 45/11/45 46/12/45
f 49/10/46 50/11/46 51/12/46
f 53/10/47 4/11/47 3/12/47
f 56/10/48 13/11/48 12/12/48
f 59/10/49 21/11/49 20/12/49
f 60/10/50 28/11/50 27/12/50
f 9/10/51 8/11/51 20/12/51
f 18/10/52 17/11/52 27/12/52
f 2/10/53 25/11/53 3/12/53
f 11/10/54 32/11/54 12/12/54
f 34/10/55 7/11/55 6/12/55
f 38/10/56 16/11/56 15/12/56
f 44/10/57 24/11/57 23/12/57
f 48/10/58 31/11/58 30/12/58
f 57/10/59 42/11/59 41/12/59
f 54/10/60 37/11/60 36/12/60
f 55/10/61 52/11/61 51/12/61
f 58/10/62 47/11/62 46/12/62
