o ChamferedIcosahedron1
v 0.57006637327867671 0 0.92238676780828377
v 0.21103395850117168 0.22189423539544817 0.92238676780828377
v -0.21103395850117168 0.22189423539544817 0.92238676780828377
v -0.57006637327867671 0 0.92238676780828377
v -0.21103395850117168 -0.22189423539544817 0.92238676780828377
v 0.21103395850117168 -0.22189423539544817 0.92238676780828377
v 0 -0.56335435303077874 0.791960608674125
v 0 -0.92238676780828377 0.57006637327867671
v 0.35903241477750508 -0.70049253241283571 0.57006637327867671
v 0.57006637327867671 -0.35903241477750508 0.70049253241283571
v 0.70049253241283571 -0.57006637327867671 0.35903241477750508
v 0.92238676780828377 -0.57006637327867671 0
v 0.92238676780828377 -0.21103395850117168 0.22189423539544817
v 0.791960608674125 0 0.56335435303077874
v 0.57006637327867671 0 -0.92238676780828377
v 0.21103395850117168 0.22189423539544817 -0.92238676780828377
v 0 0.56335435303077874 -0.791960608674125
v 0 0.92238676780828377 -0.57006637327867671
v 0.35903241477750508 0.70049253241283571 -0.57006637327867671
v 0.57006637327867671 0.35903241477750508 -0.70049253241283571
v 0.70049253241283571 0.57006637327867671 -0.35903241477750508
v 0.92238676780828377 0.57006637327867671 0
v 0.92238676780828377 0.21103395850117168 -0.22189423539544817
v 0.791960608674125 0 -0.56335435303077874
v 0.92238676780828377 -0.21103395850117168 -0.22189423539544817
v 0.70049253241283571 -0.57006637327867671 -0.35903241477750508
v 0.57006637327867671 -0.35903241477750508 -0.70049253241283571
v -0.57006637327867671 0.35903241477750508 0.70049253241283571
v -0.70049253241283571 0.57006637327867671 0.35903241477750508
v -0.92238676780828377 0.57006637327867671 0
v -0.92238676780828377 0.21103395850117168 0.22189423539544817
v -0.791960608674125 0 0.56335435303077874
v -0.92238676780828377 -0.21103395850117168 0.22189423539544817
v -0.92238676780828377 -0.57006637327867671 0
v -0.70049253241283571 -0.57006637327867671 0.35903241477750508
v -0.57006637327867671 -0.35903241477750508 0.70049253241283571
v -0.35903241477750508 -0.70049253241283571 0.57006637327867671
v -0.57006637327867671 0 -0.92238676780828377
v -0.791960608674125 0 -0.56335435303077874
v -0.92238676780828377 0.21103395850117168 -0.22189423539544817
v -0.70049253241283571 0.57006637327867671 -0.35903241477750508
v -0.57006637327867671 0.35903241477750508 -0.70049253241283571
v -0.35903241477750508 0.70049253241283571 -0.57006637327867671
v -0.21103395850117168 0.22189423539544817 -0.92238676780828377
v 0.21103395850117168 -0.22189423539544817 -0.92238676780828377
v -0.21103395850117168 -0.22189423539544817 -0.92238676780828377
v 0.56335435303077874 0.791960608674125 0
v 0.22189423539544817 0.92238676780828377 0.21103395850117168
v 0 0.92238676780828377 0.57006637327867671
v 0.35903241477750508 0.70049253241283571 0.57006637327867671
v 0.70049253241283571 0.57006637327867671 0.35903241477750508
v 0.57006637327867671 0.35903241477750508 0.70049253241283571
v 0.92238676780828377 0.21103395850117168 0.22189423539544817
v -0.92238676780828377 -0.21103395850117168 -0.22189423539544817
v -0.57006637327867671 -0.35903241477750508 -0.70049253241283571
v -0.70049253241283571 -0.57006637327867671 -0.35903241477750508
v -0.35903241477750508 -0.70049253241283571 -0.57006637327867671
v 0 -0.92238676780828377 -0.57006637327867671
v -0.22189423539544817 -0.92238676780828377 -0.21103395850117168
v -0.56335435303077874 -0.791960608674125 0
v -0.22189423539544817 0.92238676780828377 0.21103395850117168
v -0.56335435303077874 0.791960608674125 0
v -0.35903241477750508 0.70049253241283571 0.57006637327867671
v 0 0.56335435303077874 0.791960608674125
v -0.22189423539544817 0.92238676780828377 -0.21103395850117168
v 0.22189423539544817 0.92238676780828377 -0.21103395850117168
v -0.22189423539544817 -0.92238676780828377 0.21103395850117168
v 0.22189423539544817 -0.92238676780828377 -0.21103395850117168
v 0.22189423539544817 -0.92238676780828377 0.21103395850117168
v 0.56335435303077874 -0.791960608674125 0
v 0 -0.56335435303077874 -0.791960608674125
v 0.35903241477750508 -0.70049253241283571 -0.57006637327867671
vn 0 0 0.093654437728184464
vn 0.028940812856639211 -0.04682721886409217 0.075768031720731432
vn 0.075768031720731516 -0.028940812856639245 0.04682721886409226
vn 0.028940812856639211 0.04682721886409217 -0.075768031720731432
vn 0.075768031720731516 0.028940812856639245 -0.04682721886409226
vn 0.07576803172073146 -0.028940812856639332 -0.046827218864092253
vn -0.075768031720731516 0.028940812856639245 0.04682721886409226
vn -0.07576803172073146 -0.028940812856639332 0.046827218864092253
vn -0.028940812856639186 -0.04682721886409219 0.075768031720731446
vn -0.07576803172073146 0.028940812856639332 -0.046827218864092253
vn -0.028940812856639186 0.04682721886409219 -0.075768031720731446
vn 0 0 -0.093654437728184464
vn 0.046827218864092253 0.07576803172073146 0.028940812856639332
vn 0.075768031720731446 0.028940812856639186 0.04682721886409219
vn 0.093654437728184464 0 0
vn -0.093654437728184464 0 0
vn -0.075768031720731432 -0.028940812856639211 -0.04682721886409217
vn -0.04682721886409226 -0.075768031720731516 -0.028940812856639245
vn -0.04682721886409217 0.075768031720731432 0.028940812856639211
vn -0.028940812856639245 0.04682721886409226 0.075768031720731516
vn 0.028940812856639332 0.046827218864092253 0.07576803172073146
vn -0.04682721886409219 0.075768031720731446 -0.028940812856639186
vn 0 0.093654437728184464 0
vn 0.04682721886409217 0.075768031720731432 -0.028940812856639211
vn -0.04682721886409219 -0.075768031720731446 0.028940812856639186
vn 0 -0.093654437728184464 0
vn 0.04682721886409217 -0.075768031720731432 0.028940812856639211
vn -0.028940812856639245 -0.04682721886409226 -0.075768031720731516
vn 0.028940812856639332 -0.046827218864092253 -0.07576803172073146
vn 0.04682721886409219 -0.075768031720731446 -0.028940812856639186
vn 0 0.055048697308370559 0.14411936058971911
vn 0 0.055048697308370559 -0.14411936058971911
vn 0 -0.055048697308370559 0.14411936058971911
vn 0 -0.055048697308370559 -0.14411936058971911
vn 0.14411936058971911 0 0.055048697308370559
vn 0.14411936058971911 0 -0.055048697308370559
vn -0.14411936058971911 0 0.055048697308370559
vn -0.14411936058971911 0 -0.055048697308370559
vn 0.055048697308370559 0.14411936058971911 0
vn 0.055048697308370559 -0.14411936058971911 0
vn -0.055048697308370559 0.14411936058971911 0
vn -0.055048697308370559 -0.14411936058971911 0
vn 0.089070663281348522 0.089070663281348508 0.089070663281348508
vn 0.089070663281348508 0.089070663281348522 -0.089070663281348508
vn 0.089070663281348508 -0.089070663281348522 0.089070663281348508
vn 0.089070663281348522 -0.089070663281348508 -0.089070663281348508
vn -0.089070663281348508 0.089070663281348522 0.089070663281348508
vn -0.089070663281348522 0.089070663281348508 -0.089070663281348508
vn -0.089070663281348522 -0.089070663281348508 0.089070663281348508
vn -0.089070663281348508 -0.089070663281348522 -0.089070663281348508
vt 0.79245283018867929 0.5
vt 0.74528301886792447 0.89364791081110839
vt 0.65094339622641506 0.8936479108111085
vt 0.60377358490566035 0.50000000000000011
vt 0.65094339622641506 0.10635208918889166
vt 0.74528301886792447 0.10635208918889154
vt 0.19811320754716982 0.5
vt 0.056603773584905683 0.8936479108111085
vt 0.05660377358490562 0.10635208918889166
g ChamferedIcosahedron1
f 1/1/1 2/2/1 3/3/1 4/4/1 5/5/1 6/6/1
f 1/1/2 6/2/2 7/3/2 8/4/2 9/5/2 10/6/2
f 1/1/3 10/2/3 11/3/3 12/4/3 13/5/3 14/6/3
f 15/1/4 16/2/4 17/3/4 18/4/4 19/5/4 20/6/4
f 15/1/5 20/2/5 21/3/5 22/4/5 23/5/5 24/6/5
f 15/1/6 24/2/6 25/3/6 12/4/6 26/5/6 27/6/6
f 4/1/7 28/2/7 29/3/7 30/4/7 31/5/7 32/6/7
f 4/1/8 32/2/8 33/3/8 34/4/8 35/5/8 36/6/8
f 4/1/9 36/2/9 37/3/9 8/4/9 7/5/9 5/6/9
f 38/1/10 39/2/10 40/3/10 30/4/10 41/5/10 42/6/10
f 38/1/11 42/2/11 43/3/11 18/4/11 17/5/11 44/6/11
f 38/1/12 44/2/12 16/3/12 15/4/12 45/5/12 46/6/12
f 22/1/13 47/2/13 48/3/13 49/4/13 50/5/13 51/6/13
f 22/1/14 51/2/14 52/3/14 1/4/14 14/5/14 53/6/14
f 22/1/15 53/2/15 13/3/15 12/4/15 25/5/15 23/6/15
f 34/1/16 33/2/16 31/3/16 30/4/16 40/5/16 54/6/16
f 34/1/17 54/2/17 39/3/17 38/4/17 55/5/17 56/6/17
f 34/1/18 56/2/18 57/3/18 58/4/18 59/5/18 60/6/18
f 49/1/19 61/2/19 62/3/19 30/4/19 29/5/19 63/6/19
f 49/1/20 63/2/20 28/3/20 4/4/20 3/5/20 64/6/20
f 49/1/21 64/2/21 2/3/21 1/4/21 52/5/21 50/6/21
f 18/1/22 43/2/22 41/3/22 30/4/22 62/5/22 65/6/22
f 18/1/23 65/2/23 61/3/23 49/4/23 48/5/23 66/6/23
f 18/1/24 66/2/24 47/3/24 22/4/24 21/5/24 19/6/24
f 8/1/25 37/2/25 35/3/25 34/4/25 60/5/25 67/6/25
f 8/1/26 67/2/26 59/3/26 58/4/26 68/5/26 69/6/26
f 8/1/27 69/2/27 70/3/27 12/4/27 11/5/27 9/6/27
f 58/1/28 57/2/28 55/3/28 38/4/28 46/5/28 71/6/28
f 58/1/29 71/2/29 45/3/29 15/4/29 27/5/29 72/6/29
f 58/1/30 72/2/30 26/3/30 12/4/30 70/5/30 68/6/30
f 64/7/31 3/8/31 2/9/31
f 17/7/32 16/8/32 44/9/32
f 7/7/33 6/8/33 5/9/33
f 71/7/34 46/8/34 45/9/34
f 14/7/35 13/8/35 53/9/35
f 24/7/36 23/8/36 25/9/36
f 32/7/37 31/8/37 33/9/37
f 39/7/38 54/8/38 40/9/38
f 47/7/39 66/8/39 48/9/39
f 70/7/40 69/8/40 68/9/40
f 62/7/41 61/8/41 65/9/41
f 60/7/42 59/8/42 67/9/42
f 52/7/43 51/8/43 50/9/43
f 20/7/44 19/8/44 21/9/44
f 10/7/45 9/8/45 11/9/45
f 27/7/46 26/8/46 72/9/46
f 28/7/47 63/8/47 29/9/47
f 42/7/48 41/8/48 43/9/48
f 36/7/49 35/8/49 37/9/49
f 55/7/50 57/8/50 56/9/50
