o ChamferedDodecahedron1
v 0.57941975695564807 0.57941975695564807 0.57941975695564807
v 0.57941975695564807 0.28244232338755038 0.7629619047924463
v 0.75397871267064354 0 0.6550785371198915
v 0.93752086050744177 0 0.35810110355179381
v 0.93752086050744177 0.29697743356809764 0.17455895571499547
v 0.7629619047924463 0.57941975695564807 0.28244232338755038
v 0.6550785371198915 0.75397871267064354 0
v 0.35810110355179381 0.93752086050744177 0
v 0.17455895571499547 0.93752086050744177 0.29697743356809764
v 0.28244232338755038 0.7629619047924463 0.57941975695564807
v 0 0.6550785371198915 0.75397871267064354
v 0 0.35810110355179381 0.93752086050744177
v 0.29697743356809764 0.17455895571499547 0.93752086050744177
v 0.57941975695564807 0.57941975695564807 -0.57941975695564807
v 0.57941975695564807 0.28244232338755038 -0.7629619047924463
v 0.29697743356809764 0.17455895571499547 -0.93752086050744177
v 0 0.35810110355179381 -0.93752086050744177
v 0 0.6550785371198915 -0.75397871267064354
v 0.28244232338755038 0.7629619047924463 -0.57941975695564807
v 0.17455895571499547 0.93752086050744177 -0.29697743356809764
v 0.7629619047924463 0.57941975695564807 -0.28244232338755038
v 0.93752086050744177 0.29697743356809764 -0.17455895571499547
v 0.93752086050744177 0 -0.35810110355179381
v 0.75397871267064354 0 -0.6550785371198915
v 0.57941975695564807 -0.57941975695564807 0.57941975695564807
v 0.57941975695564807 -0.28244232338755038 0.7629619047924463
v 0.29697743356809764 -0.17455895571499547 0.93752086050744177
v 0 -0.35810110355179381 0.93752086050744177
v 0 -0.6550785371198915 0.75397871267064354
v 0.28244232338755038 -0.7629619047924463 0.57941975695564807
v 0.17455895571499547 -0.93752086050744177 0.29697743356809764
v 0.35810110355179381 -0.93752086050744177 0
v 0.6550785371198915 -0.75397871267064354 0
v 0.7629619047924463 -0.57941975695564807 0.28244232338755038
v 0.93752086050744177 -0.29697743356809764 0.17455895571499547
v 0.57941975695564807 -0.57941975695564807 -0.57941975695564807
v 0.57941975695564807 -0.28244232338755038 -0.7629619047924463
v 0.93752086050744177 -0.29697743356809764 -0.17455895571499547
v 0.7629619047924463 -0.57941975695564807 -0.28244232338755038
v 0.17455895571499547 -0.93752086050744177 -0.29697743356809764
v 0.28244232338755038 -0.7629619047924463 -0.57941975695564807
v 0 -0.6550785371198915 -0.75397871267064354
v 0 -0.35810110355179381 -0.93752086050744177
v 0.29697743356809764 -0.17455895571499547 -0.93752086050744177
v -0.57941975695564807 0.57941975695564807 0.57941975695564807
v -0.57941975695564807 0.28244232338755038 0.7629619047924463
v -0.29697743356809764 0.17455895571499547 0.93752086050744177
v -0.28244232338755038 0.7629619047924463 0.57941975695564807
v -0.17455895571499547 0.93752086050744177 0.29697743356809764
v -0.35810110355179381 0.93752086050744177 0
v -0.6550785371198915 0.75397871267064354 0
v -0.7629619047924463 0.57941975695564807 0.28244232338755038
v -0.93752086050744177 0.29697743356809764 0.17455895571499547
v -0.93752086050744177 0 0.35810110355179381
v -0.75397871267064354 0 0.6550785371198915
v -0.57941975695564807 0.57941975695564807 -0.57941975695564807
v -0.57941975695564807 0.28244232338755038 -0.7629619047924463
v -0.75397871267064354 0 -0.6550785371198915
v -0.93752086050744177 0 -0.35810110355179381
v -0.93752086050744177 0.29697743356809764 -0.17455895571499547
v -0.7629619047924463 0.57941975695564807 -0.28244232338755038
v -0.17455895571499547 0.93752086050744177 -0.29697743356809764
v -0.28244232338755038 0.7629619047924463 -0.57941975695564807
v -0.29697743356809764 0.17455895571499547 -0.93752086050744177
v -0.57941975695564807 -0.57941975695564807 0.57941975695564807
v -0.57941975695564807 -0.28244232338755038 0.7629619047924463
v -0.93752086050744177 -0.29697743356809764 0.17455895571499547
v -0.7629619047924463 -0.57941975695564807 0.28244232338755038
v -0.6550785371198915 -0.75397871267064354 0
v -0.35810110355179381 -0.93752086050744177 0
v -0.17455895571499547 -0.93752086050744177 0.29697743356809764
v -0.28244232338755038 -0.7629619047924463 0.57941975695564807
v -0.29697743356809764 -0.17455895571499547 0.93752086050744177
v -0.57941975695564807 -0.57941975695564807 -0.57941975695564807
v -0.57941975695564807 -0.28244232338755038 -0.7629619047924463
v -0.29697743356809764 -0.17455895571499547 -0.93752086050744177
v -0.28244232338755038 -0.7629619047924463 -0.57941975695564807
v -0.17455895571499547 -0.93752086050744177 -0.29697743356809764
v -0.7629619047924463 -0.57941975695564807 -0.28244232338755038
v -0.93752086050744177 -0.29697743356809764 -0.17455895571499547
vn 0.083878996330645342 0.032038925656078812 0.051840070674566571
vn 0.051840070674566571 0.083878996330645342 0.032038925656078812
vn 0.032038925656078812 0.051840070674566571 0.083878996330645342
vn 0.03203892565607884 0.051840070674566557 -0.083878996330645425
vn 0.051840070674566557 0.083878996330645425 -0.03203892565607884
vn 0.083878996330645425 0.03203892565607884 -0.051840070674566557
vn 0.03203892565607884 -0.051840070674566557 0.083878996330645425
vn 0.051840070674566557 -0.083878996330645425 0.03203892565607884
vn 0.083878996330645425 -0.03203892565607884 0.051840070674566557
vn 0.083878996330645342 -0.032038925656078812 -0.051840070674566571
vn 0.051840070674566571 -0.083878996330645342 -0.032038925656078812
vn 0.032038925656078812 -0.051840070674566571 -0.083878996330645342
vn -0.03203892565607884 0.051840070674566557 0.083878996330645425
vn -0.051840070674566557 0.083878996330645425 0.03203892565607884
vn -0.083878996330645425 0.03203892565607884 0.051840070674566557
vn -0.083878996330645342 0.032038925656078812 -0.051840070674566571
vn -0.051840070674566571 0.083878996330645342 -0.032038925656078812
vn -0.032038925656078812 0.051840070674566571 -0.083878996330645342
vn -0.083878996330645342 -0.032038925656078812 0.051840070674566571
vn -0.051840070674566571 -0.083878996330645342 0.032038925656078812
vn -0.032038925656078812 -0.051840070674566571 0.083878996330645342
vn -0.03203892565607884 -0.051840070674566557 -0.083878996330645425
vn -0.051840070674566557 -0.083878996330645425 -0.03203892565607884
vn -0.083878996330645425 -0.03203892565607884 -0.051840070674566557
vn 0 0 0.10368014134913313
vn 0 0 -0.10368014134913313
vn 0.10368014134913313 0 0
vn -0.10368014134913313 0 0
vn 0 0.10368014134913313 0
vn 0 -0.10368014134913313 0
vn 2.0816681711721685E-17 0.0986056740404957 0.06094165804061949
vn -2.0816681711721685E-17 0.0986056740404957 -0.06094165804061949
vn -2.0816681711721685E-17 -0.0986056740404957 0.06094165804061949
vn 2.0816681711721685E-17 -0.0986056740404957 -0.06094165804061949
vn 0.06094165804061949 2.0816681711721685E-17 0.0986056740404957
vn 0.06094165804061949 -2.0816681711721685E-17 -0.0986056740404957
vn -0.06094165804061949 -2.0816681711721685E-17 0.0986056740404957
vn -0.06094165804061949 2.0816681711721685E-17 -0.0986056740404957
vn 0.0986056740404957 0.06094165804061949 2.0816681711721685E-17
vn 0.0986056740404957 -0.06094165804061949 -2.0816681711721685E-17
vn -0.0986056740404957 0.06094165804061949 -2.0816681711721685E-17
vn -0.0986056740404957 -0.06094165804061949 2.0816681711721685E-17
g ChamferedDodecahedron1
f 1//1 2//1 3//1 4//1 5//1 6//1
f 1//2 6//2 7//2 8//2 9//2 10//2
f 1//3 10//3 11//3 12//3 13//3 2//3
f 14//4 15//4 16//4 17//4 18//4 19//4
f 14//5 19//5 20//5 8//5 7//5 21//5
f 14//6 21//6 22//6 23//6 24//6 15//6
f 25//7 26//7 27//7 28//7 29//7 30//7
f 25//8 30//8 31//8 32//8 33//8 34//8
f 25//9 34//9 35//9 4//9 3//9 26//9
f 36//10 37//10 24//10 23//10 38//10 39//10
f 36//11 39//11 33//11 32//11 40//11 41//11
f 36//12 41//12 42//12 43//12 44//12 37//12
f 45//13 46//13 47//13 12//13 11//13 48//13
f 45//14 48//14 49//14 50//14 51//14 52//14
f 45//15 52//15 53//15 54//15 55//15 46//15
f 56//16 57//16 58//16 59//16 60//16 61//16
f 56//17 61//17 51//17 50//17 62//17 63//17
f 56//18 63//18 18//18 17//18 64//18 57//18
f 65//19 66//19 55//19 54//19 67//19 68//19
f 65//20 68//20 69//20 70//20 71//20 72//20
f 65//21 72//21 29//21 28//21 73//21 66//21
f 74//22 75//22 76//22 43//22 42//22 77//22
f 74//23 77//23 78//23 70//23 69//23 79//23
f 74//24 79//24 80//24 59//24 58//24 75//24
f 28//25 27//25 13//25 12//25 47//25 73//25
f 43//26 76//26 64//26 17//26 16//26 44//26
f 4//27 35//27 38//27 23//27 22//27 5//27
f 59//28 80//28 67//28 54//28 53//28 60//28
f 8//29 20//29 62//29 50//29 49//29 9//29
f 32//30 31//30 71//30 70//30 78//30 40//30
f 11//31 10//31 9//31 49//31 48//31
f 18//32 63//32 62//32 20//32 19//32
f 29//33 72//33 71//33 31//33 30//33
f 42//34 41//34 40//34 78//34 77//34
f 3//35 2//35 13//35 27//35 26//35
f 24//36 37//36 44//36 16//36 15//36
f 55//37 66//37 73//37 47//37 46//37
f 58//38 57//38 64//38 76//38 75//38
f 7//39 6//39 5//39 22//39 21//39
f 33//40 39//40 38//40 35//40 34//40
f 51//41 61//41 60//41 53//41 52//41
f 69//42 68//42 67//42 80//42 79//42
