o DisdyakisDodecahedron
v 0 0 1.0780316584312224
v 0.66112497087794486 0 0.66112497087794486
v 0.56984266109089088 0.56984266109089088 0.56984266109089088
v 0 0.66112497087794486 0.66112497087794486
v -0.56984266109089088 0.56984266109089088 0.56984266109089088
v -0.66112497087794486 0 0.66112497087794486
v -0.56984266109089088 -0.56984266109089088 0.56984266109089088
v 0 -0.66112497087794486 0.66112497087794486
v 0.56984266109089088 -0.56984266109089088 0.56984266109089088
v 0 0 -1.0780316584312224
v 0.66112497087794486 0 -0.66112497087794486
v 0.56984266109089088 -0.56984266109089088 -0.56984266109089088
v 0 -0.66112497087794486 -0.66112497087794486
v -0.56984266109089088 -0.56984266109089088 -0.56984266109089088
v -0.66112497087794486 0 -0.66112497087794486
v -0.56984266109089088 0.56984266109089088 -0.56984266109089088
v 0 0.66112497087794486 -0.66112497087794486
v 0.56984266109089088 0.56984266109089088 -0.56984266109089088
v 1.0780316584312224 0 0
v 0.66112497087794486 -0.66112497087794486 0
v 0.66112497087794486 0.66112497087794486 0
v -1.0780316584312224 0 0
v -0.66112497087794486 0.66112497087794486 0
v -0.66112497087794486 -0.66112497087794486 0
v 0 1.0780316584312224 0
v 0 -1.0780316584312224 0
vn 0.23757121626194827 0.098405219805170419 0.37673721271872584
vn 0.0984052198051704 0.23757121626194827 0.37673721271872584
vn -0.098405219805170419 0.23757121626194827 0.37673721271872584
vn -0.23757121626194827 0.0984052198051704 0.37673721271872584
vn -0.23757121626194827 -0.098405219805170419 0.37673721271872584
vn -0.0984052198051704 -0.23757121626194827 0.37673721271872584
vn 0.098405219805170419 -0.23757121626194827 0.37673721271872584
vn 0.23757121626194827 -0.0984052198051704 0.37673721271872584
vn 0.23757121626194827 -0.098405219805170419 -0.37673721271872584
vn 0.0984052198051704 -0.23757121626194827 -0.37673721271872584
vn -0.098405219805170419 -0.23757121626194827 -0.37673721271872584
vn -0.23757121626194827 -0.0984052198051704 -0.37673721271872584
vn -0.23757121626194827 0.098405219805170419 -0.37673721271872584
vn -0.0984052198051704 0.23757121626194827 -0.37673721271872584
vn 0.098405219805170419 0.23757121626194827 -0.37673721271872584
vn 0.23757121626194827 0.0984052198051704 -0.37673721271872584
vn 0.37673721271872584 -0.098405219805170419 0.23757121626194827
vn 0.37673721271872584 -0.23757121626194827 0.0984052198051704
vn 0.37673721271872584 -0.23757121626194827 -0.098405219805170419
vn 0.37673721271872584 -0.0984052198051704 -0.23757121626194827
vn 0.37673721271872584 0.098405219805170419 -0.23757121626194827
vn 0.37673721271872584 0.23757121626194827 -0.0984052198051704
vn 0.37673721271872584 0.23757121626194827 0.098405219805170419
vn 0.37673721271872584 0.0984052198051704 0.23757121626194827
vn -0.37673721271872584 0.098405219805170419 0.23757121626194827
vn -0.37673721271872584 0.23757121626194827 0.0984052198051704
vn -0.37673721271872584 0.23757121626194827 -0.098405219805170419
vn -0.37673721271872584 0.0984052198051704 -0.23757121626194827
vn -0.37673721271872584 -0.098405219805170419 -0.23757121626194827
vn -0.37673721271872584 -0.23757121626194827 -0.0984052198051704
vn -0.37673721271872584 -0.23757121626194827 0.098405219805170419
vn -0.37673721271872584 -0.0984052198051704 0.23757121626194827
vn 0.23757121626194827 0.37673721271872584 -0.098405219805170419
vn 0.0984052198051704 0.37673721271872584 -0.23757121626194827
vn -0.098405219805170419 0.37673721271872584 -0.23757121626194827
vn -0.23757121626194827 0.37673721271872584 -0.0984052198051704
vn -0.23757121626194827 0.37673721271872584 0.098405219805170419
vn -0.0984052198051704 0.37673721271872584 0.23757121626194827
vn 0.098405219805170419 0.37673721271872584 0.23757121626194827
vn 0.23757121626194827 0.37673721271872584 0.0984052198051704
vn 0.23757121626194827 -0.37673721271872584 0.098405219805170419
vn 0.0984052198051704 -0.37673721271872584 0.23757121626194827
vn -0.098405219805170419 -0.37673721271872584 0.23757121626194827
vn -0.23757121626194827 -0.37673721271872584 0.0984052198051704
vn -0.23757121626194827 -0.37673721271872584 -0.098405219805170419
vn -0.0984052198051704 -0.37673721271872584 -0.23757121626194827
vn 0.098405219805170419 -0.37673721271872584 -0.23757121626194827
vn 0.23757121626194827 -0.37673721271872584 -0.0984052198051704
g DisdyakisDodecahedron
f 1//1 2//1 3//1
f 1//2 3//2 4//2
f 1//3 4//3 5//3
f 1//4 5//4 6//4
f 1//5 6//5 7//5
f 1//6 7//6 8//6
f 1//7 8//7 9//7
f 1//8 9//8 2//8
f 10//9 11//9 12//9
f 10//10 12//10 13//10
f 10//11 13//11 14//11
f 10//12 14//12 15//12
f 10//13 15//13 16//13
f 10//14 16//14 17//14
f 10//15 17//15 18//15
f 10//16 18//16 11//16
f 19//17 2//17 9//17
f 19//18 9//18 20//18
f 19//19 20//19 12//19
f 19//20 12//20 11//20
f 19//21 11//21 18//21
f 19//22 18//22 21//22
f 19//23 21//23 3//23
f 19//24 3//24 2//24
f 22//25 6//25 5//25
f 22//26 5//26 23//26
f 22//27 23//27 16//27
f 22//28 16//28 15//28
f 22//29 15//29 14//29
f 22//30 14//30 24//30
f 22//31 24//31 7//31
f 22//32 7//32 6//32
f 25//33 21//33 18//33
f 25//34 18//34 17//34
f 25//35 17//35 16//35
f 25//36 16//36 23//36
f 25//37 23//37 5//37
f 25//38 5//38 4//38
f 25//39 4//39 3//39
f 25//40 3//40 21//40
f 26//41 20//41 9//41
f 26//42 9//42 8//42
f 26//43 8//43 7//43
f 26//44 7//44 24//44
f 26//45 24//45 14//45
f 26//46 14//46 13//46
f 26//47 13//47 12//47
f 26//48 12//48 20//48
