o JoinedLsnubCube
v 0 0 1.0307372357382827
v 0.47033672569477575 0.25571691002581654 0.86508411006119712
v 0.16565312567708551 0.56040051004350677 0.775020325712466
v -0.25571691002581654 0.47033672569477575 0.86508411006119712
v -0.56040051004350677 0.16565312567708551 0.775020325712466
v -0.47033672569477575 -0.25571691002581654 0.86508411006119712
v -0.16565312567708551 -0.56040051004350677 0.775020325712466
v 0.25571691002581654 -0.47033672569477575 0.86508411006119712
v 0.56040051004350677 -0.16565312567708551 0.775020325712466
v 0 0 -1.0307372357382827
v 0.47033672569477575 -0.25571691002581654 -0.86508411006119712
v 0.16565312567708551 -0.56040051004350677 -0.775020325712466
v -0.25571691002581654 -0.47033672569477575 -0.86508411006119712
v -0.56040051004350677 -0.16565312567708551 -0.775020325712466
v -0.47033672569477575 0.25571691002581654 -0.86508411006119712
v -0.16565312567708551 0.56040051004350677 -0.775020325712466
v 0.25571691002581654 0.47033672569477575 -0.86508411006119712
v 0.56040051004350677 0.16565312567708551 -0.775020325712466
v 1.0307372357382827 0 0
v 0.86508411006119712 0.47033672569477575 0.25571691002581654
v 0.775020325712466 0.16565312567708551 0.56040051004350677
v 0.86508411006119712 -0.25571691002581654 0.47033672569477575
v 0.775020325712466 -0.56040051004350677 0.16565312567708551
v 0.86508411006119712 -0.47033672569477575 -0.25571691002581654
v 0.775020325712466 -0.16565312567708551 -0.56040051004350677
v 0.86508411006119712 0.25571691002581654 -0.47033672569477575
v 0.775020325712466 0.56040051004350677 -0.16565312567708551
v -1.0307372357382827 0 0
v -0.86508411006119712 -0.47033672569477575 0.25571691002581654
v -0.775020325712466 -0.16565312567708551 0.56040051004350677
v -0.86508411006119712 0.25571691002581654 0.47033672569477575
v -0.775020325712466 0.56040051004350677 0.16565312567708551
v -0.86508411006119712 0.47033672569477575 -0.25571691002581654
v -0.775020325712466 0.16565312567708551 -0.56040051004350677
v -0.86508411006119712 -0.25571691002581654 -0.47033672569477575
v -0.775020325712466 -0.56040051004350677 -0.16565312567708551
v 0 1.0307372357382827 0
v 0.25571691002581654 0.86508411006119712 0.47033672569477575
v 0.56040051004350677 0.775020325712466 0.16565312567708551
v 0.47033672569477575 0.86508411006119712 -0.25571691002581654
v 0.16565312567708551 0.775020325712466 -0.56040051004350677
v -0.25571691002581654 0.86508411006119712 -0.47033672569477575
v -0.56040051004350677 0.775020325712466 -0.16565312567708551
v -0.47033672569477575 0.86508411006119712 0.25571691002581654
v -0.16565312567708551 0.775020325712466 0.56040051004350677
v 0 -1.0307372357382827 0
v 0.25571691002581654 -0.86508411006119712 -0.47033672569477575
v 0.56040051004350677 -0.775020325712466 -0.16565312567708551
v 0.47033672569477575 -0.86508411006119712 0.25571691002581654
v 0.16565312567708551 -0.775020325712466 0.56040051004350677
v -0.25571691002581654 -0.86508411006119712 0.47033672569477575
v -0.56040051004350677 -0.775020325712466 0.16565312567708551
v -0.47033672569477575 -0.86508411006119712 -0.25571691002581654
v -0.16565312567708551 -0.775020325712466 -0.56040051004350677
v 0.56040051004350677 0.56040051004350677 0.56040051004350677
v 0.56040051004350677 0.56040051004350677 -0.56040051004350677
v 0.56040051004350677 -0.56040051004350677 0.56040051004350677
v 0.56040051004350677 -0.56040051004350677 -0.56040051004350677
v -0.56040051004350677 0.56040051004350677 0.56040051004350677
v -0.56040051004350677 0.56040051004350677 -0.56040051004350677
v -0.56040051004350677 -0.56040051004350677 0.56040051004350677
v -0.56040051004350677 -0.56040051004350677 -0.56040051004350677
vn 0.0274409580465883 0.092832096119739874 0.22121663553728271
vn -0.092832096119739874 0.0274409580465883 0.22121663553728271
vn -0.0274409580465883 -0.092832096119739874 0.22121663553728271
vn 0.092832096119739874 -0.0274409580465883 0.22121663553728271
vn 0.0274409580465883 -0.092832096119739874 -0.22121663553728271
vn -0.092832096119739874 -0.0274409580465883 -0.22121663553728271
vn -0.0274409580465883 0.092832096119739874 -0.22121663553728271
vn 0.092832096119739874 0.0274409580465883 -0.22121663553728271
vn 0.22121663553728271 0.0274409580465883 0.092832096119739874
vn 0.22121663553728271 -0.092832096119739874 0.0274409580465883
vn 0.22121663553728271 -0.0274409580465883 -0.092832096119739874
vn 0.22121663553728271 0.092832096119739874 -0.0274409580465883
vn -0.22121663553728271 -0.0274409580465883 0.092832096119739874
vn -0.22121663553728271 0.092832096119739874 0.0274409580465883
vn -0.22121663553728271 0.0274409580465883 -0.092832096119739874
vn -0.22121663553728271 -0.092832096119739874 -0.0274409580465883
vn 0.092832096119739874 0.22121663553728271 0.0274409580465883
vn 0.0274409580465883 0.22121663553728271 -0.092832096119739874
vn -0.092832096119739874 0.22121663553728271 -0.0274409580465883
vn -0.0274409580465883 0.22121663553728271 0.092832096119739874
vn 0.092832096119739874 -0.22121663553728271 -0.0274409580465883
vn 0.0274409580465883 -0.22121663553728271 0.092832096119739874
vn -0.092832096119739874 -0.22121663553728271 0.0274409580465883
vn -0.0274409580465883 -0.22121663553728271 -0.092832096119739874
vn 0.12027305416632816 0.065391138073151611 0.10094358137095461
vn 0.10094358137095461 0.12027305416632816 0.065391138073151611
vn 0.065391138073151611 0.10094358137095461 0.12027305416632816
vn 0.065391138073151611 0.12027305416632816 -0.10094358137095461
vn 0.12027305416632816 0.10094358137095461 -0.065391138073151611
vn 0.10094358137095461 0.065391138073151611 -0.12027305416632816
vn 0.065391138073151611 -0.12027305416632816 0.10094358137095461
vn 0.12027305416632816 -0.10094358137095461 0.065391138073151611
vn 0.10094358137095461 -0.065391138073151611 0.12027305416632816
vn 0.12027305416632816 -0.065391138073151611 -0.10094358137095461
vn 0.10094358137095461 -0.12027305416632816 -0.065391138073151611
vn 0.065391138073151611 -0.10094358137095461 -0.12027305416632816
vn -0.065391138073151611 0.12027305416632816 0.10094358137095461
vn -0.12027305416632816 0.10094358137095461 0.065391138073151611
vn -0.10094358137095461 0.065391138073151611 0.12027305416632816
vn -0.12027305416632816 0.065391138073151611 -0.10094358137095461
vn -0.10094358137095461 0.12027305416632816 -0.065391138073151611
vn -0.065391138073151611 0.10094358137095461 -0.12027305416632816
vn -0.12027305416632816 -0.065391138073151611 0.10094358137095461
vn -0.10094358137095461 -0.12027305416632816 0.065391138073151611
vn -0.065391138073151611 -0.10094358137095461 0.12027305416632816
vn -0.065391138073151611 -0.12027305416632816 -0.10094358137095461
vn -0.12027305416632816 -0.10094358137095461 -0.065391138073151611
vn -0.10094358137095461 -0.065391138073151611 -0.12027305416632816
vn 0.12027305416632815 -2.0816681711721685E-17 0.12027305416632818
vn 0.12027305416632815 2.0816681711721685E-17 -0.12027305416632818
vn -0.12027305416632815 2.0816681711721685E-17 0.12027305416632818
vn -0.12027305416632815 -2.0816681711721685E-17 -0.12027305416632818
vn 0.12027305416632818 0.12027305416632815 -2.0816681711721685E-17
vn 0.12027305416632818 -0.12027305416632815 2.0816681711721685E-17
vn -0.12027305416632818 -0.12027305416632815 -2.0816681711721685E-17
vn -0.12027305416632818 0.12027305416632815 2.0816681711721685E-17
vn -2.0816681711721685E-17 0.12027305416632818 0.12027305416632815
vn -2.0816681711721685E-17 -0.12027305416632818 -0.12027305416632815
vn 2.0816681711721685E-17 -0.12027305416632818 0.12027305416632815
vn 2.0816681711721685E-17 0.12027305416632818 -0.12027305416632815
g JoinedLsnubCube
f 1//1 2//1 3//1 4//1
f 1//2 4//2 5//2 6//2
f 1//3 6//3 7//3 8//3
f 1//4 8//4 9//4 2//4
f 10//5 11//5 12//5 13//5
f 10//6 13//6 14//6 15//6
f 10//7 15//7 16//7 17//7
f 10//8 17//8 18//8 11//8
f 19//9 20//9 21//9 22//9
f 19//10 22//10 23//10 24//10
f 19//11 24//11 25//11 26//11
f 19//12 26//12 27//12 20//12
f 28//13 29//13 30//13 31//13
f 28//14 31//14 32//14 33//14
f 28//15 33//15 34//15 35//15
f 28//16 35//16 36//16 29//16
f 37//17 38//17 39//17 40//17
f 37//18 40//18 41//18 42//18
f 37//19 42//19 43//19 44//19
f 37//20 44//20 45//20 38//20
f 46//21 47//21 48//21 49//21
f 46//22 49//22 50//22 51//22
f 46//23 51//23 52//23 53//23
f 46//24 53//24 54//24 47//24
f 55//25 2//25 21//25 20//25
f 55//26 20//26 39//26 38//26
f 55//27 38//27 3//27 2//27
f 56//28 17//28 41//28 40//28
f 56//29 40//29 27//29 26//29
f 56//30 26//30 18//30 17//30
f 57//31 8//31 50//31 49//31
f 57//32 49//32 23//32 22//32
f 57//33 22//33 9//33 8//33
f 58//34 11//34 25//34 24//34
f 58//35 24//35 48//35 47//35
f 58//36 47//36 12//36 11//36
f 59//37 4//37 45//37 44//37
f 59//38 44//38 32//38 31//38
f 59//39 31//39 5//39 4//39
f 60//40 15//40 34//40 33//40
f 60//41 33//41 43//41 42//41
f 60//42 42//42 16//42 15//42
f 61//43 6//43 30//43 29//43
f 61//44 29//44 52//44 51//44
f 61//45 51//45 7//45 6//45
f 62//46 13//46 54//46 53//46
f 62//47 53//47 36//47 35//47
f 62//48 35//48 14//48 13//48
f 2//49 9//49 22//49 21//49
f 11//50 18//50 26//50 25//50
f 6//51 5//51 31//51 30//51
f 15//52 14//52 35//52 34//52
f 20//53 27//53 40//53 39//53
f 24//54 23//54 49//54 48//54
f 29//55 36//55 53//55 52//55
f 33//56 32//56 44//56 43//56
f 38//57 45//57 4//57 3//57
f 47//58 54//58 13//58 12//58
f 51//59 50//59 8//59 7//59
f 42//60 41//60 17//60 16//60
