o LpentagonalHexecontahedron
v -0.54595419353692165 0 -0.88337244144327742
v -0.26556452985971635 0.38589665951163277 -0.87259293785222092
v 0 0.35339065780777179 -0.9251887534474299
v 0.090231356280323111 0.10220162530478953 -0.98095479847967082
v -0.090231356280323111 -0.10220162530478953 -0.98095479847967082
v -0.7146252675151904 0.34069887702802404 -0.59505813896803816
v -0.57179809563965822 0.57179809563965822 -0.57179809563965822
v -0.34069887702802404 0.59505813896803816 -0.7146252675151904
v -0.81682689281997989 -0.17533317357939321 -0.53189406082419688
v -0.9251887534474299 0 -0.35339065780777179
v -0.87259293785222092 0.26556452985971635 -0.38589665951163277
v -0.43093023330834712 -0.44906073765547411 -0.77039131254743132
v -0.57179809563965822 -0.57179809563965822 -0.57179809563965822
v -0.77039131254743132 -0.43093023330834712 -0.44906073765547411
v 0 -0.35339065780777179 -0.9251887534474299
v -0.17533317357939321 -0.53189406082419688 -0.81682689281997989
v -0.54595419353692165 0 0.88337244144327742
v -0.26556452985971635 -0.38589665951163277 0.87259293785222092
v 0 -0.35339065780777179 0.9251887534474299
v 0.090231356280323111 -0.10220162530478953 0.98095479847967082
v -0.090231356280323111 0.10220162530478953 0.98095479847967082
v -0.7146252675151904 -0.34069887702802404 0.59505813896803816
v -0.57179809563965822 -0.57179809563965822 0.57179809563965822
v -0.34069887702802404 -0.59505813896803816 0.7146252675151904
v -0.81682689281997989 0.17533317357939321 0.53189406082419688
v -0.9251887534474299 0 0.35339065780777179
v -0.87259293785222092 -0.26556452985971635 0.38589665951163277
v -0.43093023330834712 0.44906073765547411 0.77039131254743132
v -0.57179809563965822 0.57179809563965822 0.57179809563965822
v -0.77039131254743132 0.43093023330834712 0.44906073765547411
v 0 0.35339065780777179 0.9251887534474299
v -0.17533317357939321 0.53189406082419688 0.81682689281997989
v 0.54595419353692165 0 -0.88337244144327742
v 0.26556452985971635 -0.38589665951163277 -0.87259293785222092
v 0.7146252675151904 -0.34069887702802404 -0.59505813896803816
v 0.57179809563965822 -0.57179809563965822 -0.57179809563965822
v 0.34069887702802404 -0.59505813896803816 -0.7146252675151904
v 0.81682689281997989 0.17533317357939321 -0.53189406082419688
v 0.9251887534474299 0 -0.35339065780777179
v 0.87259293785222092 -0.26556452985971635 -0.38589665951163277
v 0.43093023330834712 0.44906073765547411 -0.77039131254743132
v 0.57179809563965822 0.57179809563965822 -0.57179809563965822
v 0.77039131254743132 0.43093023330834712 -0.44906073765547411
v 0.17533317357939321 0.53189406082419688 -0.81682689281997989
v 0.54595419353692165 0 0.88337244144327742
v 0.26556452985971635 0.38589665951163277 0.87259293785222092
v 0.7146252675151904 0.34069887702802404 0.59505813896803816
v 0.57179809563965822 0.57179809563965822 0.57179809563965822
v 0.34069887702802404 0.59505813896803816 0.7146252675151904
v 0.81682689281997989 -0.17533317357939321 0.53189406082419688
v 0.9251887534474299 0 0.35339065780777179
v 0.87259293785222092 0.26556452985971635 0.38589665951163277
v 0.43093023330834712 -0.44906073765547411 0.77039131254743132
v 0.57179809563965822 -0.57179809563965822 0.57179809563965822
v 0.77039131254743132 -0.43093023330834712 0.44906073765547411
v 0.17533317357939321 -0.53189406082419688 0.81682689281997989
v -0.88337244144327742 -0.54595419353692165 0
v -0.98095479847967082 0.090231356280323111 0.10220162530478953
v -0.98095479847967082 -0.090231356280323111 -0.10220162530478953
v -0.59505813896803816 -0.7146252675151904 0.34069887702802404
v -0.53189406082419688 -0.81682689281997989 -0.17533317357939321
v -0.35339065780777179 -0.9251887534474299 0
v -0.38589665951163277 -0.87259293785222092 0.26556452985971635
v -0.44906073765547411 -0.77039131254743132 -0.43093023330834712
v -0.88337244144327742 0.54595419353692165 0
v -0.59505813896803816 0.7146252675151904 -0.34069887702802404
v -0.53189406082419688 0.81682689281997989 0.17533317357939321
v -0.35339065780777179 0.9251887534474299 0
v -0.38589665951163277 0.87259293785222092 -0.26556452985971635
v -0.44906073765547411 0.77039131254743132 0.43093023330834712
v 0.88337244144327742 -0.54595419353692165 0
v 0.98095479847967082 0.090231356280323111 -0.10220162530478953
v 0.98095479847967082 -0.090231356280323111 0.10220162530478953
v 0.59505813896803816 -0.7146252675151904 -0.34069887702802404
v 0.53189406082419688 -0.81682689281997989 0.17533317357939321
v 0.35339065780777179 -0.9251887534474299 0
v 0.38589665951163277 -0.87259293785222092 -0.26556452985971635
v 0.44906073765547411 -0.77039131254743132 0.43093023330834712
v 0.88337244144327742 0.54595419353692165 0
v 0.59505813896803816 0.7146252675151904 0.34069887702802404
v 0.53189406082419688 0.81682689281997989 -0.17533317357939321
v 0.35339065780777179 0.9251887534474299 0
v 0.38589665951163277 0.87259293785222092 0.26556452985971635
v 0.44906073765547411 0.77039131254743132 -0.43093023330834712
v 0 -0.88337244144327742 -0.54595419353692165
v 0.10220162530478953 -0.98095479847967082 0.090231356280323111
v -0.10220162530478953 -0.98095479847967082 -0.090231356280323111
v 0 -0.88337244144327742 0.54595419353692165
v 0 0.88337244144327742 -0.54595419353692165
v -0.10220162530478953 0.98095479847967082 0.090231356280323111
v 0.10220162530478953 0.98095479847967082 -0.090231356280323111
v 0 0.88337244144327742 0.54595419353692165
vn -0.019946150980383326 0.017609976848849 -0.11159481184287803
vn -0.058704539374983912 0.04510241292278408 -0.087640810465845431
vn -0.092923388064080514 0.010264847312064028 -0.06649239892009394
vn -0.075313411215231441 -0.038758388394600531 -0.077375963153781452
vn -0.030210998292447343 -0.034218848689096582 -0.10525078731469448
vn -0.019946150980383326 -0.017609976848849 0.11159481184287803
vn -0.058704539374983912 -0.04510241292278408 0.087640810465845431
vn -0.092923388064080514 -0.010264847312064028 0.06649239892009394
vn -0.075313411215231441 0.038758388394600531 0.077375963153781452
vn -0.030210998292447343 0.034218848689096582 0.10525078731469448
vn 0.019946150980383326 -0.017609976848849 -0.11159481184287803
vn 0.058704539374983912 -0.04510241292278408 -0.087640810465845431
vn 0.092923388064080514 -0.010264847312064028 -0.06649239892009394
vn 0.075313411215231441 0.038758388394600531 -0.077375963153781452
vn 0.030210998292447343 0.034218848689096582 -0.10525078731469448
vn 0.019946150980383326 0.017609976848849 0.11159481184287803
vn 0.058704539374983912 0.04510241292278408 0.087640810465845431
vn 0.092923388064080514 0.010264847312064028 0.06649239892009394
vn 0.075313411215231441 -0.038758388394600531 0.077375963153781452
vn 0.030210998292447343 -0.034218848689096582 0.10525078731469448
vn -0.11159481184287803 -0.019946150980383326 0.017609976848849
vn -0.087640810465845431 -0.058704539374983912 0.04510241292278408
vn -0.06649239892009394 -0.092923388064080514 0.010264847312064028
vn -0.077375963153781452 -0.075313411215231441 -0.038758388394600531
vn -0.10525078731469448 -0.030210998292447343 -0.034218848689096582
vn -0.11159481184287803 0.019946150980383326 -0.017609976848849
vn -0.087640810465845431 0.058704539374983912 -0.04510241292278408
vn -0.06649239892009394 0.092923388064080514 -0.010264847312064028
vn -0.077375963153781452 0.075313411215231441 0.038758388394600531
vn -0.10525078731469448 0.030210998292447343 0.034218848689096582
vn 0.11159481184287803 -0.019946150980383326 -0.017609976848849
vn 0.087640810465845431 -0.058704539374983912 -0.04510241292278408
vn 0.06649239892009394 -0.092923388064080514 -0.010264847312064028
vn 0.077375963153781452 -0.075313411215231441 0.038758388394600531
vn 0.10525078731469448 -0.030210998292447343 0.034218848689096582
vn 0.11159481184287803 0.019946150980383326 0.017609976848849
vn 0.087640810465845431 0.058704539374983912 0.04510241292278408
vn 0.06649239892009394 0.092923388064080514 0.010264847312064028
vn 0.077375963153781452 0.075313411215231441 -0.038758388394600531
vn 0.10525078731469448 0.030210998292447343 -0.034218848689096582
vn 0.017609976848849 -0.11159481184287803 -0.019946150980383326
vn 0.04510241292278408 -0.087640810465845431 -0.058704539374983912
vn 0.010264847312064028 -0.06649239892009394 -0.092923388064080514
vn -0.038758388394600531 -0.077375963153781452 -0.075313411215231441
vn -0.034218848689096582 -0.10525078731469448 -0.030210998292447343
vn -0.017609976848849 -0.11159481184287803 0.019946150980383326
vn -0.04510241292278408 -0.087640810465845431 0.058704539374983912
vn -0.010264847312064028 -0.06649239892009394 0.092923388064080514
vn 0.038758388394600531 -0.077375963153781452 0.075313411215231441
vn 0.034218848689096582 -0.10525078731469448 0.030210998292447343
vn -0.017609976848849 0.11159481184287803 -0.019946150980383326
vn -0.04510241292278408 0.087640810465845431 -0.058704539374983912
vn -0.010264847312064028 0.06649239892009394 -0.092923388064080514
vn 0.038758388394600531 0.077375963153781452 -0.075313411215231441
vn 0.034218848689096582 0.10525078731469448 -0.030210998292447343
vn 0.017609976848849 0.11159481184287803 0.019946150980383326
vn 0.04510241292278408 0.087640810465845431 0.058704539374983912
vn 0.010264847312064028 0.06649239892009394 0.092923388064080514
vn -0.038758388394600531 0.077375963153781452 0.075313411215231441
vn -0.034218848689096582 0.10525078731469448 0.030210998292447343
g LpentagonalHexecontahedron
f 1//1 2//1 3//1 4//1 5//1
f 1//2 6//2 7//2 8//2 2//2
f 1//3 9//3 10//3 11//3 6//3
f 1//4 12//4 13//4 14//4 9//4
f 1//5 5//5 15//5 16//5 12//5
f 17//6 18//6 19//6 20//6 21//6
f 17//7 22//7 23//7 24//7 18//7
f 17//8 25//8 26//8 27//8 22//8
f 17//9 28//9 29//9 30//9 25//9
f 17//10 21//10 31//10 32//10 28//10
f 33//11 34//11 15//11 5//11 4//11
f 33//12 35//12 36//12 37//12 34//12
f 33//13 38//13 39//13 40//13 35//13
f 33//14 41//14 42//14 43//14 38//14
f 33//15 4//15 3//15 44//15 41//15
f 45//16 46//16 31//16 21//16 20//16
f 45//17 47//17 48//17 49//17 46//17
f 45//18 50//18 51//18 52//18 47//18
f 45//19 53//19 54//19 55//19 50//19
f 45//20 20//20 19//20 56//20 53//20
f 57//21 27//21 26//21 58//21 59//21
f 57//22 60//22 23//22 22//22 27//22
f 57//23 61//23 62//23 63//23 60//23
f 57//24 14//24 13//24 64//24 61//24
f 57//25 59//25 10//25 9//25 14//25
f 65//26 11//26 10//26 59//26 58//26
f 65//27 66//27 7//27 6//27 11//27
f 65//28 67//28 68//28 69//28 66//28
f 65//29 30//29 29//29 70//29 67//29
f 65//30 58//30 26//30 25//30 30//30
f 71//31 40//31 39//31 72//31 73//31
f 71//32 74//32 36//32 35//32 40//32
f 71//33 75//33 76//33 77//33 74//33
f 71//34 55//34 54//34 78//34 75//34
f 71//35 73//35 51//35 50//35 55//35
f 79//36 52//36 51//36 73//36 72//36
f 79//37 80//37 48//37 47//37 52//37
f 79//38 81//38 82//38 83//38 80//38
f 79//39 43//39 42//39 84//39 81//39
f 79//40 72//40 39//40 38//40 43//40
f 85//41 77//41 76//41 86//41 87//41
f 85//42 37//42 36//42 74//42 77//42
f 85//43 16//43 15//43 34//43 37//43
f 85//44 64//44 13//44 12//44 16//44
f 85//45 87//45 62//45 61//45 64//45
f 88//46 63//46 62//46 87//46 86//46
f 88//47 24//47 23//47 60//47 63//47
f 88//48 56//48 19//48 18//48 24//48
f 88//49 78//49 54//49 53//49 56//49
f 88//50 86//50 76//50 75//50 78//50
f 89//51 69//51 68//51 90//51 91//51
f 89//52 8//52 7//52 66//52 69//52
f 89//53 44//53 3//53 2//53 8//53
f 89//54 84//54 42//54 41//54 44//54
f 89//55 91//55 82//55 81//55 84//55
f 92//56 83//56 82//56 91//56 90//56
f 92//57 49//57 48//57 80//57 83//57
f 92//58 32//58 31//58 46//58 49//58
f 92//59 70//59 29//59 28//59 32//59
f 92//60 90//60 68//60 67//60 70//60
