o LpentagonalHexecontahedron
v -0.54595419353692165 0 -0.88337244144327742
v -0.26556452985971635 0.38589665951163277 -0.87259293785222092
v 0 0.35339065780777179 -0.9251887534474299
v 0.090231356280323111 0.10220162530478953 -0.98095479847967082
v -0.090231356280323111 -0.10220162530478953 -0.98095479847967082
v -0.7146252675151904 0.34069887702802404 -0.59505813896803816
v -0.57179809563965822 0.57179809563965822 -0.57179809563965822
v -0.34069887702802404 0.59505813896803816 -0.7146252675151904
v -0.81682689281997989 -0.17533317357939321 -0.53189406082419688
v -0.9251887534474299 0 -0.35339065780777179
v -0.87259293785222092 0.26556452985971635 -0.38589665951163277
v -0.43093023330834712 -0.44906073765547411 -0.77039131254743132
v -0.57179809563965822 -0.57179809563965822 -0.57179809563965822
v -0.77039131254743132 -0.43093023330834712 -0.44906073765547411
v 0 -0.35339065780777179 -0.9251887534474299
v -0.17533317357939321 -0.53189406082419688 -0.81682689281997989
v -0.54595419353692165 0 0.88337244144327742
v -0.26556452985971635 -0.38589665951163277 0.87259293785222092
v 0 -0.35339065780777179 0.9251887534474299
v 0.090231356280323111 -0.10220162530478953 0.98095479847967082
v -0.090231356280323111 0.10220162530478953 0.98095479847967082
v -0.7146252675151904 -0.34069887702802404 0.59505813896803816
v -0.57179809563965822 -0.57179809563965822 0.57179809563965822
v -0.34069887702802404 -0.59505813896803816 0.7146252675151904
v -0.81682689281997989 0.17533317357939321 0.53189406082419688
v -0.9251887534474299 0 0.35339065780777179
v -0.87259293785222092 -0.26556452985971635 0.38589665951163277
v -0.43093023330834712 0.44906073765547411 0.77039131254743132
v -0.57179809563965822 0.57179809563965822 0.57179809563965822
v -0.77039131254743132 0.43093023330834712 0.44906073765547411
v 0 0.35339065780777179 0.9251887534474299
v -0.17533317357939321 0.53189406082419688 0.81682689281997989
v 0.54595419353692165 0 -0.88337244144327742
v 0.26556452985971635 -0.38589665951163277 -0.87259293785222092
v 0.7146252675151904 -0.34069887702802404 -0.59505813896803816
v 0.57179809563965822 -0.57179809563965822 -0.57179809563965822
v 0.34069887702802404 -0.59505813896803816 -0.7146252675151904
v 0.81682689281997989 0.17533317357939321 -0.53189406082419688
v 0.9251887534474299 0 -0.35339065780777179
v 0.87259293785222092 -0.26556452985971635 -0.38589665951163277
v 0.43093023330834712 0.44906073765547411 -0.77039131254743132
v 0.57179809563965822 0.57179809563965822 -0.57179809563965822
v 0.77039131254743132 0.43093023330834712 -0.44906073765547411
v 0.17533317357939321 0.53189406082419688 -0.81682689281997989
v 0.54595419353692165 0 0.88337244144327742
v 0.26556452985971635 0.38589665951163277 0.87259293785222092
v 0.7146252675151904 0.34069887702802404 0.59505813896803816
v 0.57179809563965822 0.57179809563965822 0.57179809563965822
v 0.34069887702802404 0.59505813896803816 0.7146252675151904
v 0.81682689281997989 -0.17533317357939321 0.53189406082419688
v 0.9251887534474299 0 0.35339065780777179
v 0.87259293785222092 0.26556452985971635 0.38589665951163277
v 0.43093023330834712 -0.44906073765547411 0.77039131254743132
v 0.57179809563965822 -0.57179809563965822 0.57179809563965822
v 0.77039131254743132 -0.43093023330834712 0.44906073765547411
v 0.17533317357939321 -0.53189406082419688 0.81682689281997989
v -0.88337244144327742 -0.54595419353692165 0
v -0.98095479847967082 0.090231356280323111 0.10220162530478953
v -0.98095479847967082 -0.090231356280323111 -0.10220162530478953
v -0.59505813896803816 -0.7146252675151904 0.34069887702802404
v -0.53189406082419688 -0.81682689281997989 -0.17533317357939321
v -0.35339065780777179 -0.9251887534474299 0
v -0.38589665951163277 -0.87259293785222092 0.26556452985971635
v -0.44906073765547411 -0.77039131254743132 -0.43093023330834712
v -0.88337244144327742 0.54595419353692165 0
v -0.59505813896803816 0.7146252675151904 -0.34069887702802404
v -0.53189406082419688 0.81682689281997989 0.17533317357939321
v -0.35339065780777179 0.9251887534474299 0
v -0.38589665951163277 0.87259293785222092 -0.26556452985971635
v -0.44906073765547411 0.77039131254743132 0.43093023330834712
v 0.88337244144327742 -0.54595419353692165 0
v 0.98095479847967082 0.090231356280323111 -0.10220162530478953
v 0.98095479847967082 -0.090231356280323111 0.10220162530478953
v 0.59505813896803816 -0.7146252675151904 -0.34069887702802404
v 0.53189406082419688 -0.81682689281997989 0.17533317357939321
v 0.35339065780777179 -0.9251887534474299 0
v 0.38589665951163277 -0.87259293785222092 -0.26556452985971635
v 0.44906073765547411 -0.77039131254743132 0.43093023330834712
v 0.88337244144327742 0.54595419353692165 0
v 0.59505813896803816 0.7146252675151904 0.34069887702802404
v 0.53189406082419688 0.81682689281997989 -0.17533317357939321
v 0.35339065780777179 0.9251887534474299 0
v 0.38589665951163277 0.87259293785222092 0.26556452985971635
v 0.44906073765547411 0.77039131254743132 -0.43093023330834712
v 0 -0.88337244144327742 -0.54595419353692165
v 0.10220162530478953 -0.98095479847967082 0.090231356280323111
v -0.10220162530478953 -0.98095479847967082 -0.090231356280323111
v 0 -0.88337244144327742 0.54595419353692165
v 0 0.88337244144327742 -0.54595419353692165
v -0.10220162530478953 0.98095479847967082 0.090231356280323111
v 0.10220162530478953 0.98095479847967082 -0.090231356280323111
v 0 0.88337244144327742 0.54595419353692165
vn -0.019946150980383326 0.017609976848849 -0.11159481184287803
vn -0.058704539374983912 0.04510241292278408 -0.087640810465845431
vn -0.092923388064080514 0.010264847312064028 -0.06649239892009394
vn -0.075313411215231441 -0.038758388394600531 -0.077375963153781452
vn -0.030210998292447343 -0.034218848689096582 -0.10525078731469448
vn -0.019946150980383326 -0.017609976848849 0.11159481184287803
vn -0.058704539374983912 -0.04510241292278408 0.087640810465845431
vn -0.092923388064080514 -0.010264847312064028 0.06649239892009394
vn -0.075313411215231441 0.038758388394600531 0.077375963153781452
vn -0.030210998292447343 0.034218848689096582 0.10525078731469448
vn 0.019946150980383326 -0.017609976848849 -0.11159481184287803
vn 0.058704539374983912 -0.04510241292278408 -0.087640810465845431
vn 0.092923388064080514 -0.010264847312064028 -0.06649239892009394
vn 0.075313411215231441 0.038758388394600531 -0.077375963153781452
vn 0.030210998292447343 0.034218848689096582 -0.10525078731469448
vn 0.019946150980383326 0.017609976848849 0.11159481184287803
vn 0.058704539374983912 0.04510241292278408 0.087640810465845431
vn 0.092923388064080514 0.010264847312064028 0.06649239892009394
vn 0.075313411215231441 -0.038758388394600531 0.077375963153781452
vn 0.030210998292447343 -0.034218848689096582 0.10525078731469448
vn -0.11159481184287803 -0.019946150980383326 0.017609976848849
vn -0.087640810465845431 -0.058704539374983912 0.04510241292278408
vn -0.06649239892009394 -0.092923388064080514 0.010264847312064028
vn -0.077375963153781452 -0.075313411215231441 -0.038758388394600531
vn -0.10525078731469448 -0.030210998292447343 -0.034218848689096582
vn -0.11159481184287803 0.019946150980383326 -0.017609976848849
vn -0.087640810465845431 0.058704539374983912 -0.04510241292278408
vn -0.06649239892009394 0.092923388064080514 -0.010264847312064028
vn -0.077375963153781452 0.075313411215231441 0.038758388394600531
vn -0.10525078731469448 0.030210998292447343 0.034218848689096582
vn 0.11159481184287803 -0.019946150980383326 -0.017609976848849
vn 0.087640810465845431 -0.058704539374983912 -0.04510241292278408
vn 0.06649239892009394 -0.092923388064080514 -0.010264847312064028
vn 0.077375963153781452 -0.075313411215231441 0.038758388394600531
vn 0.10525078731469448 -0.030210998292447343 0.034218848689096582
vn 0.11159481184287803 0.019946150980383326 0.017609976848849
vn 0.087640810465845431 0.058704539374983912 0.04510241292278408
vn 0.06649239892009394 0.092923388064080514 0.010264847312064028
vn 0.077375963153781452 0.075313411215231441 -0.038758388394600531
vn 0.10525078731469448 0.030210998292447343 -0.034218848689096582
vn 0.017609976848849 -0.11159481184287803 -0.019946150980383326
vn 0.04510241292278408 -0.087640810465845431 -0.058704539374983912
vn 0.010264847312064028 -0.06649239892009394 -0.092923388064080514
vn -0.038758388394600531 -0.077375963153781452 -0.075313411215231441
vn -0.034218848689096582 -0.10525078731469448 -0.030210998292447343
vn -0.017609976848849 -0.11159481184287803 0.019946150980383326
vn -0.04510241292278408 -0.087640810465845431 0.058704539374983912
vn -0.010264847312064028 -0.06649239892009394 0.092923388064080514
vn 0.038758388394600531 -0.077375963153781452 0.075313411215231441
vn 0.034218848689096582 -0.10525078731469448 0.030210998292447343
vn -0.017609976848849 0.11159481184287803 -0.019946150980383326
vn -0.04510241292278408 0.087640810465845431 -0.058704539374983912
vn -0.010264847312064028 0.06649239892009394 -0.092923388064080514
vn 0.038758388394600531 0.077375963153781452 -0.075313411215231441
vn 0.034218848689096582 0.10525078731469448 -0.030210998292447343
vn 0.017609976848849 0.11159481184287803 0.019946150980383326
vn 0.04510241292278408 0.087640810465845431 0.058704539374983912
vn 0.010264847312064028 0.06649239892009394 0.092923388064080514
vn -0.038758388394600531 0.077375963153781452 0.075313411215231441
vn -0.034218848689096582 0.10525078731469448 0.030210998292447343
vt 0.59433962264150941 0.5
vt 0.5291525466391459 0.9322984164977971
vt 0.42367764204009933 0.76717511467839694
vt 0.42367764204009928 0.23282488532160317
vt 0.5291525466391459 0.067701583502202886
g LpentagonalHexecontahedron
f 1/1/1 2/2/1 3/3/1 4/4/1 5/5/1
f 1/1/2 6/2/2 7/3/2 8/4/2 2/5/2
f 1/1/3 9/2/3 10/3/3 11/4/3 6/5/3
f 1/1/4 12/2/4 13/3/4 14/4/4 9/5/4
f 1/1/5 5/2/5 15/3/5 16/4/5 12/5/5
f 17/1/6 18/2/6 19/3/6 20/4/6 21/5/6
f 17/1/7 22/2/7 23/3/7 24/4/7 18/5/7
f 17/1/8 25/2/8 26/3/8 27/4/8 22/5/8
f 17/1/9 28/2/9 29/3/9 30/4/9 25/5/9
f 17/1/10 21/2/10 31/3/10 32/4/10 28/5/10
f 33/1/11 34/2/11 15/3/11 5/4/11 4/5/11
f 33/1/12 35/2/12 36/3/12 37/4/12 34/5/12
f 33/1/13 38/2/13 39/3/13 40/4/13 35/5/13
f 33/1/14 41/2/14 42/3/14 43/4/14 38/5/14
f 33/1/15 4/2/15 3/3/15 44/4/15 41/5/15
f 45/1/16 46/2/16 31/3/16 21/4/16 20/5/16
f 45/1/17 47/2/17 48/3/17 49/4/17 46/5/17
f 45/1/18 50/2/18 51/3/18 52/4/18 47/5/18
f 45/1/19 53/2/19 54/3/19 55/4/19 50/5/19
f 45/1/20 20/2/20 19/3/20 56/4/20 53/5/20
f 57/1/21 27/2/21 26/3/21 58/4/21 59/5/21
f 57/1/22 60/2/22 23/3/22 22/4/22 27/5/22
f 57/1/23 61/2/23 62/3/23 63/4/23 60/5/23
f 57/1/24 14/2/24 13/3/24 64/4/24 61/5/24
f 57/1/25 59/2/25 10/3/25 9/4/25 14/5/25
f 65/1/26 11/2/26 10/3/26 59/4/26 58/5/26
f 65/1/27 66/2/27 7/3/27 6/4/27 11/5/27
f 65/1/28 67/2/28 68/3/28 69/4/28 66/5/28
f 65/1/29 30/2/29 29/3/29 70/4/29 67/5/29
f 65/1/30 58/2/30 26/3/30 25/4/30 30/5/30
f 71/1/31 40/2/31 39/3/31 72/4/31 73/5/31
f 71/1/32 74/2/32 36/3/32 35/4/32 40/5/32
f 71/1/33 75/2/33 76/3/33 77/4/33 74/5/33
f 71/1/34 55/2/34 54/3/34 78/4/34 75/5/34
f 71/1/35 73/2/35 51/3/35 50/4/35 55/5/35
f 79/1/36 52/2/36 51/3/36 73/4/36 72/5/36
f 79/1/37 80/2/37 48/3/37 47/4/37 52/5/37
f 79/1/38 81/2/38 82/3/38 83/4/38 80/5/38
f 79/1/39 43/2/39 42/3/39 84/4/39 81/5/39
f 79/1/40 72/2/40 39/3/40 38/4/40 43/5/40
f 85/1/41 77/2/41 76/3/41 86/4/41 87/5/41
f 85/1/42 37/2/42 36/3/42 74/4/42 77/5/42
f 85/1/43 16/2/43 15/3/43 34/4/43 37/5/43
f 85/1/44 64/2/44 13/3/44 12/4/44 16/5/44
f 85/1/45 87/2/45 62/3/45 61/4/45 64/5/45
f 88/1/46 63/2/46 62/3/46 87/4/46 86/5/46
f 88/1/47 24/2/47 23/3/47 60/4/47 63/5/47
f 88/1/48 56/2/48 19/3/48 18/4/48 24/5/48
f 88/1/49 78/2/49 54/3/49 53/4/49 56/5/49
f 88/1/50 86/2/50 76/3/50 75/4/50 78/5/50
f 89/1/51 69/2/51 68/3/51 90/4/51 91/5/51
f 89/1/52 8/2/52 7/3/52 66/4/52 69/5/52
f 89/1/53 44/2/53 3/3/53 2/4/53 8/5/53
f 89/1/54 84/2/54 42/3/54 41/4/54 44/5/54
f 89/1/55 91/2/55 82/3/55 81/4/55 84/5/55
f 92/1/56 83/2/56 82/3/56 91/4/56 90/5/56
f 92/1/57 49/2/57 48/3/57 80/4/57 83/5/57
f 92/1/58 32/2/58 31/3/58 46/4/58 49/5/58
f 92/1/59 70/2/59 29/3/59 28/4/59 32/5/59
f 92/1/60 90/2/60 68/3/60 67/4/60 70/5/60
