o OrthokisPropelloCube
v 0.56010214517305157 0.56010214517305157 0.56010214517305157
v 0.45899166095594995 0.16163577712983207 0.88858125624282014
v 0.88858125624282014 -0.16163577712983207 0.45899166095594995
v 0.88858125624282014 0.45899166095594995 0.16163577712983207
v 0.45899166095594995 0.88858125624282014 -0.16163577712983207
v 0.16163577712983207 0.88858125624282014 0.45899166095594995
v -0.16163577712983207 0.45899166095594995 0.88858125624282014
v 0.56010214517305157 0.56010214517305157 -0.56010214517305157
v 0.16163577712983207 0.45899166095594995 -0.88858125624282014
v -0.16163577712983207 0.88858125624282014 -0.45899166095594995
v 0.88858125624282014 0.16163577712983207 -0.45899166095594995
v 0.45899166095594995 -0.16163577712983207 -0.88858125624282014
v 0.56010214517305157 -0.56010214517305157 0.56010214517305157
v 0.16163577712983207 -0.45899166095594995 0.88858125624282014
v -0.16163577712983207 -0.88858125624282014 0.45899166095594995
v 0.45899166095594995 -0.88858125624282014 0.16163577712983207
v 0.88858125624282014 -0.45899166095594995 -0.16163577712983207
v 0.56010214517305157 -0.56010214517305157 -0.56010214517305157
v 0.16163577712983207 -0.88858125624282014 -0.45899166095594995
v -0.16163577712983207 -0.45899166095594995 -0.88858125624282014
v -0.56010214517305157 0.56010214517305157 0.56010214517305157
v -0.45899166095594995 0.88858125624282014 0.16163577712983207
v -0.88858125624282014 0.45899166095594995 -0.16163577712983207
v -0.88858125624282014 0.16163577712983207 0.45899166095594995
v -0.45899166095594995 -0.16163577712983207 0.88858125624282014
v -0.56010214517305157 0.56010214517305157 -0.56010214517305157
v -0.45899166095594995 0.16163577712983207 -0.88858125624282014
v -0.88858125624282014 -0.16163577712983207 -0.45899166095594995
v -0.56010214517305157 -0.56010214517305157 0.56010214517305157
v -0.88858125624282014 -0.45899166095594995 0.16163577712983207
v -0.45899166095594995 -0.88858125624282014 -0.16163577712983207
v -0.56010214517305157 -0.56010214517305157 -0.56010214517305157
v 0 0 0.9643635023254532
v 0 0 -0.9643635023254532
v 0.9643635023254532 0 0
v -0.9643635023254532 0 0
v 0 0.9643635023254532 0
v 0 -0.9643635023254532 0
vn 0.27736495856047266 0.097675196390568611 0.20386314916792542
vn 0.20386314916792542 0.27736495856047266 0.097675196390568611
vn 0.097675196390568611 0.20386314916792542 0.27736495856047266
vn 0.097675196390568611 0.27736495856047266 -0.20386314916792542
vn 0.27736495856047266 0.20386314916792542 -0.097675196390568611
vn 0.20386314916792542 0.097675196390568611 -0.27736495856047266
vn 0.097675196390568611 -0.27736495856047266 0.20386314916792542
vn 0.27736495856047266 -0.20386314916792542 0.097675196390568611
vn 0.20386314916792542 -0.097675196390568611 0.27736495856047266
vn 0.27736495856047266 -0.097675196390568611 -0.20386314916792542
vn 0.20386314916792542 -0.27736495856047266 -0.097675196390568611
vn 0.097675196390568611 -0.20386314916792542 -0.27736495856047266
vn -0.097675196390568611 0.27736495856047266 0.20386314916792542
vn -0.27736495856047266 0.20386314916792542 0.097675196390568611
vn -0.20386314916792542 0.097675196390568611 0.27736495856047266
vn -0.27736495856047266 0.097675196390568611 -0.20386314916792542
vn -0.20386314916792542 0.27736495856047266 -0.097675196390568611
vn -0.097675196390568611 0.20386314916792542 -0.27736495856047266
vn -0.27736495856047266 -0.097675196390568611 0.20386314916792542
vn -0.20386314916792542 -0.27736495856047266 0.097675196390568611
vn -0.097675196390568611 -0.20386314916792542 0.27736495856047266
vn -0.097675196390568611 -0.27736495856047266 -0.20386314916792542
vn -0.27736495856047266 -0.20386314916792542 -0.097675196390568611
vn -0.20386314916792542 -0.097675196390568611 -0.27736495856047266
vn 0.022534296762229716 0.047032541238650846 0.23679946927546644
vn -0.047032541238650846 0.022534296762229716 0.23679946927546644
vn -0.022534296762229716 -0.047032541238650846 0.23679946927546644
vn 0.047032541238650846 -0.022534296762229716 0.23679946927546644
vn 0.022534296762229716 -0.047032541238650846 -0.23679946927546644
vn -0.047032541238650846 -0.022534296762229716 -0.23679946927546644
vn -0.022534296762229716 0.047032541238650846 -0.23679946927546644
vn 0.047032541238650846 0.022534296762229716 -0.23679946927546644
vn 0.23679946927546644 0.022534296762229716 0.047032541238650846
vn 0.23679946927546644 -0.047032541238650846 0.022534296762229716
vn 0.23679946927546644 -0.022534296762229716 -0.047032541238650846
vn 0.23679946927546644 0.047032541238650846 -0.022534296762229716
vn -0.23679946927546644 -0.022534296762229716 0.047032541238650846
vn -0.23679946927546644 0.047032541238650846 0.022534296762229716
vn -0.23679946927546644 0.022534296762229716 -0.047032541238650846
vn -0.23679946927546644 -0.047032541238650846 -0.022534296762229716
vn 0.047032541238650846 0.23679946927546644 0.022534296762229716
vn 0.022534296762229716 0.23679946927546644 -0.047032541238650846
vn -0.047032541238650846 0.23679946927546644 -0.022534296762229716
vn -0.022534296762229716 0.23679946927546644 0.047032541238650846
vn 0.047032541238650846 -0.23679946927546644 -0.022534296762229716
vn 0.022534296762229716 -0.23679946927546644 0.047032541238650846
vn -0.047032541238650846 -0.23679946927546644 0.022534296762229716
vn -0.022534296762229716 -0.23679946927546644 -0.047032541238650846
vt 0.39622641509433965 0.5
vt 0.30188679245283018 0.95454545454545459
vt 0.20754716981132076 0.50000000000000011
vt 0.30188679245283018 0.045454545454545456
vt 0.19811320754716982 0.5
vt 0.056603773584905683 0.8936479108111085
vt 0.05660377358490562 0.10635208918889166
g OrthokisPropelloCube
f 1/1/1 2/2/1 3/3/1 4/4/1
f 1/1/2 4/2/2 5/3/2 6/4/2
f 1/1/3 6/2/3 7/3/3 2/4/3
f 8/1/4 9/2/4 10/3/4 5/4/4
f 8/1/5 5/2/5 4/3/5 11/4/5
f 8/1/6 11/2/6 12/3/6 9/4/6
f 13/1/7 14/2/7 15/3/7 16/4/7
f 13/1/8 16/2/8 17/3/8 3/4/8
f 13/1/9 3/2/9 2/3/9 14/4/9
f 18/1/10 12/2/10 11/3/10 17/4/10
f 18/1/11 17/2/11 16/3/11 19/4/11
f 18/1/12 19/2/12 20/3/12 12/4/12
f 21/1/13 7/2/13 6/3/13 22/4/13
f 21/1/14 22/2/14 23/3/14 24/4/14
f 21/1/15 24/2/15 25/3/15 7/4/15
f 26/1/16 27/2/16 28/3/16 23/4/16
f 26/1/17 23/2/17 22/3/17 10/4/17
f 26/1/18 10/2/18 9/3/18 27/4/18
f 29/1/19 25/2/19 24/3/19 30/4/19
f 29/1/20 30/2/20 31/3/20 15/4/20
f 29/1/21 15/2/21 14/3/21 25/4/21
f 32/1/22 20/2/22 19/3/22 31/4/22
f 32/1/23 31/2/23 30/3/23 28/4/23
f 32/1/24 28/2/24 27/3/24 20/4/24
f 33/5/25 2/6/25 7/7/25
f 33/5/26 7/6/26 25/7/26
f 33/5/27 25/6/27 14/7/27
f 33/5/28 14/6/28 2/7/28
f 34/5/29 12/6/29 20/7/29
f 34/5/30 20/6/30 27/7/30
f 34/5/31 27/6/31 9/7/31
f 34/5/32 9/6/32 12/7/32
f 35/5/33 4/6/33 3/7/33
f 35/5/34 3/6/34 17/7/34
f 35/5/35 17/6/35 11/7/35
f 35/5/36 11/6/36 4/7/36
f 36/5/37 30/6/37 24/7/37
f 36/5/38 24/6/38 23/7/38
f 36/5/39 23/6/39 28/7/39
f 36/5/40 28/6/40 30/7/40
f 37/5/41 6/6/41 5/7/41
f 37/5/42 5/6/42 10/7/42
f 37/5/43 10/6/43 22/7/43
f 37/5/44 22/6/44 6/7/44
f 38/5/45 19/6/45 16/7/45
f 38/5/46 16/6/46 15/7/46
f 38/5/47 15/6/47 31/7/47
f 38/5/48 31/6/48 19/7/48
