o TriakisIcosahedron
v 0 0.32052970369544559 0.83915765867860936
v 0.55246717617025665 0 0.89391066871215119
v 0 0.89391066871215119 0.55246717617025665
v -0.55246717617025665 0 0.89391066871215119
v 0 0.32052970369544559 -0.83915765867860936
v 0.55246717617025665 0 -0.89391066871215119
v -0.55246717617025665 0 -0.89391066871215119
v 0 0.89391066871215119 -0.55246717617025665
v 0 -0.32052970369544559 0.83915765867860936
v 0 -0.89391066871215119 0.55246717617025665
v 0 -0.32052970369544559 -0.83915765867860936
v 0 -0.89391066871215119 -0.55246717617025665
v 0.83915765867860936 0 0.32052970369544559
v 0.89391066871215119 -0.55246717617025665 0
v 0.89391066871215119 0.55246717617025665 0
v 0.83915765867860936 0 -0.32052970369544559
v -0.83915765867860936 0 0.32052970369544559
v -0.89391066871215119 0.55246717617025665 0
v -0.89391066871215119 -0.55246717617025665 0
v -0.83915765867860936 0 -0.32052970369544559
v 0.32052970369544559 0.83915765867860936 0
v 0.32052970369544559 -0.83915765867860936 0
v -0.32052970369544559 0.83915765867860936 0
v -0.32052970369544559 -0.83915765867860936 0
v 0.51862795498316372 0.51862795498316372 0.51862795498316372
v 0.51862795498316372 0.51862795498316372 -0.51862795498316372
v 0.51862795498316372 -0.51862795498316372 0.51862795498316372
v 0.51862795498316372 -0.51862795498316372 -0.51862795498316372
v -0.51862795498316372 0.51862795498316372 0.51862795498316372
v -0.51862795498316372 0.51862795498316372 -0.51862795498316372
v -0.51862795498316372 -0.51862795498316372 0.51862795498316372
v -0.51862795498316372 -0.51862795498316372 -0.51862795498316372
vn 0.060498481680105048 0.15838708130627796 0.31677416261255603
vn -0.060498481680105021 0.158387081306278 0.31677416261255609
vn 0 0.060498481680105166 0.35416428055862381
vn 0 0.060498481680105166 -0.35416428055862381
vn -0.060498481680105048 0.15838708130627796 -0.31677416261255603
vn 0.060498481680105021 0.158387081306278 -0.31677416261255609
vn 0 -0.060498481680105166 0.35416428055862381
vn -0.060498481680105048 -0.15838708130627796 0.31677416261255603
vn 0.060498481680105021 -0.158387081306278 0.31677416261255609
vn 0.060498481680105048 -0.15838708130627796 -0.31677416261255603
vn -0.060498481680105021 -0.158387081306278 -0.31677416261255609
vn 0 -0.060498481680105166 -0.35416428055862381
vn 0.31677416261255609 -0.060498481680105021 0.158387081306278
vn 0.35416428055862381 0 0.060498481680105166
vn 0.31677416261255603 0.060498481680105048 0.15838708130627796
vn 0.31677416261255609 0.060498481680105021 -0.158387081306278
vn 0.35416428055862381 0 -0.060498481680105166
vn 0.31677416261255603 -0.060498481680105048 -0.15838708130627796
vn -0.31677416261255609 0.060498481680105021 0.158387081306278
vn -0.35416428055862381 0 0.060498481680105166
vn -0.31677416261255603 -0.060498481680105048 0.15838708130627796
vn -0.31677416261255609 -0.060498481680105021 -0.158387081306278
vn -0.35416428055862381 0 -0.060498481680105166
vn -0.31677416261255603 0.060498481680105048 -0.15838708130627796
vn 0.158387081306278 0.31677416261255609 -0.060498481680105021
vn 0.060498481680105166 0.35416428055862381 0
vn 0.15838708130627796 0.31677416261255603 0.060498481680105048
vn 0.158387081306278 -0.31677416261255609 0.060498481680105021
vn 0.060498481680105166 -0.35416428055862381 0
vn 0.15838708130627796 -0.31677416261255603 -0.060498481680105048
vn -0.158387081306278 0.31677416261255609 0.060498481680105021
vn -0.060498481680105166 0.35416428055862381 0
vn -0.15838708130627796 0.31677416261255603 -0.060498481680105048
vn -0.158387081306278 -0.31677416261255609 -0.060498481680105021
vn -0.060498481680105166 -0.35416428055862381 0
vn -0.15838708130627796 -0.31677416261255603 0.060498481680105048
vn 0.25627568093245079 0.1583870813062781 0.19577719925234582
vn 0.19577719925234582 0.25627568093245079 0.1583870813062781
vn 0.1583870813062781 0.19577719925234582 0.25627568093245079
vn 0.15838708130627813 0.19577719925234585 -0.25627568093245079
vn 0.19577719925234585 0.25627568093245079 -0.15838708130627813
vn 0.25627568093245079 0.15838708130627813 -0.19577719925234585
vn 0.15838708130627813 -0.19577719925234585 0.25627568093245079
vn 0.19577719925234585 -0.25627568093245079 0.15838708130627813
vn 0.25627568093245079 -0.15838708130627813 0.19577719925234585
vn 0.25627568093245079 -0.1583870813062781 -0.19577719925234582
vn 0.19577719925234582 -0.25627568093245079 -0.1583870813062781
vn 0.1583870813062781 -0.19577719925234582 -0.25627568093245079
vn -0.15838708130627813 0.19577719925234585 0.25627568093245079
vn -0.19577719925234585 0.25627568093245079 0.15838708130627813
vn -0.25627568093245079 0.15838708130627813 0.19577719925234585
vn -0.25627568093245079 0.1583870813062781 -0.19577719925234582
vn -0.19577719925234582 0.25627568093245079 -0.1583870813062781
vn -0.1583870813062781 0.19577719925234582 -0.25627568093245079
vn -0.25627568093245079 -0.1583870813062781 0.19577719925234582
vn -0.19577719925234582 -0.25627568093245079 0.1583870813062781
vn -0.1583870813062781 -0.19577719925234582 0.25627568093245079
vn -0.15838708130627813 -0.19577719925234585 -0.25627568093245079
vn -0.19577719925234585 -0.25627568093245079 -0.15838708130627813
vn -0.25627568093245079 -0.15838708130627813 -0.19577719925234585
g TriakisIcosahedron
f 1//1 2//1 3//1
f 1//2 3//2 4//2
f 1//3 4//3 2//3
f 5//4 6//4 7//4
f 5//5 7//5 8//5
f 5//6 8//6 6//6
f 9//7 2//7 4//7
f 9//8 4//8 10//8
f 9//9 10//9 2//9
f 11//10 6//10 12//10
f 11//11 12//11 7//11
f 11//12 7//12 6//12
f 13//13 2//13 14//13
f 13//14 14//14 15//14
f 13//15 15//15 2//15
f 16//16 6//16 15//16
f 16//17 15//17 14//17
f 16//18 14//18 6//18
f 17//19 4//19 18//19
f 17//20 18//20 19//20
f 17//21 19//21 4//21
f 20//22 7//22 19//22
f 20//23 19//23 18//23
f 20//24 18//24 7//24
f 21//25 15//25 8//25
f 21//26 8//26 3//26
f 21//27 3//27 15//27
f 22//28 14//28 10//28
f 22//29 10//29 12//29
f 22//30 12//30 14//30
f 23//31 18//31 3//31
f 23//32 3//32 8//32
f 23//33 8//33 18//33
f 24//34 19//34 12//34
f 24//35 12//35 10//35
f 24//36 10//36 19//36
f 25//37 2//37 15//37
f 25//38 15//38 3//38
f 25//39 3//39 2//39
f 26//40 6//40 8//40
f 26//41 8//41 15//41
f 26//42 15//42 6//42
f 27//43 2//43 10//43
f 27//44 10//44 14//44
f 27//45 14//45 2//45
f 28//46 6//46 14//46
f 28//47 14//47 12//47
f 28//48 12//48 6//48
f 29//49 4//49 3//49
f 29//50 3//50 18//50
f 29//51 18//51 4//51
f 30//52 7//52 18//52
f 30//53 18//53 8//53
f 30//54 8//54 7//54
f 31//55 4//55 19//55
f 31//56 19//56 10//56
f 31//57 10//57 4//57
f 32//58 7//58 12//58
f 32//59 12//59 19//59
f 32//60 19//60 7//60
