o Arrow
v 0.75 0.4 2
v 1.5 0.4 2
v 1.5 0 2
v 0.75 0 2
v 0 0.4 4
v 0 0 4
v -1.5 0.4 2
v -1.5 0 2
v -0.75 0.4 2
v -0.75 0 2
v -1 0.4 0
v -1 0 0
v 1 0.4 0
v 1 0 0
vn 0 0 -0.75
vn 2 0 1.5
vn -2 0 1.5
vn -2 0 0.25
vn 0 0 -2
vn 2 0 0.25
vn 0 1 0
vn 0 -1 0
g Arrow
f 1//1 2//1 3//1 4//1
f 2//2 5//2 6//2 3//2
f 5//3 7//3 8//3 6//3
f 7//1 9//1 10//1 8//1
f 9//4 11//4 12//4 10//4
f 11//5 13//5 14//5 12//5
f 13//6 1//6 4//6 14//6
f 1//7 13//7 11//7
f 1//7 11//7 9//7
f 9//7 7//7 5//7
f 1//7 9//7 5//7
f 5//7 2//7 1//7
f 12//8 14//8 4//8
f 10//8 12//8 4//8
f 6//8 8//8 10//8
f 6//8 10//8 4//8
f 4//8 3//8 6//8
