o Button
v -0.9 0.1 -0.4
v -0.93152 0.094080000000000052 -0.43152
v -0.93152 0.094080000000000052 0.43152
v -0.9 0.1 0.4
v 0.93152 0.094080000000000052 0.43152
v 0.9 0.1 0.4
v 0.93152 0.094080000000000052 -0.43152
v 0.9 0.1 -0.4
v -0.95896 0.074240000000000014 -0.45896
v -0.95896 0.074240000000000014 0.45896
v 0.95896 0.074240000000000014 0.45896
v 0.95896 0.074240000000000014 -0.45896
v -0.98064 0.037360000000000018 -0.48064
v -0.98064 0.037360000000000018 0.48064
v 0.98064 0.037360000000000018 0.48064
v 0.98064 0.037360000000000018 -0.48064
v -0.99488 -0.019680000000000024 -0.49488
v -0.99488 -0.019680000000000024 0.49488
v 0.99488 -0.019680000000000024 0.49488
v 0.99488 -0.019680000000000024 -0.49488
v -1 -0.1 -0.5
v -1 -0.1 0.5
v 1 -0.1 0.5
v 1 -0.1 -0.5
v 0 0.1 0
vn 0 1 0
vn -0.40036220582067661 0.91635697419204609 0
vn 0 0.91635697419204587 0.40036220582067689
vn 0.40036220582067661 0.91635697419204609 0
vn 0 0.91635697419204587 -0.40036220582067689
vn -0.755935283518023 0.65464635272223592 0
vn 0 0.65464635272223637 0.75593528351802264
vn 0.755935283518023 0.65464635272223592 0
vn 0 0.65464635272223637 -0.75593528351802264
vn -0.93402060819533916 0.35721912528084032 0
vn 0 0.35721912528084077 0.934020608195339
vn 0.93402060819533916 0.35721912528084032 0
vn 0 0.35721912528084077 -0.934020608195339
vn -0.9902130390388344 0.13956409752323731 0
vn 0 0.1395640975232369 0.99021303903883451
vn 0.9902130390388344 0.13956409752323731 0
vn 0 0.1395640975232369 -0.99021303903883451
vn -0.99797445711671429 0.0636159016488744 0
vn 0 0.0636159016488744 0.99797445711671429
vn 0.99797445711671429 0.0636159016488744 0
vn 0 0.0636159016488744 -0.99797445711671429
vn 0.19611613513818402 -0.98058067569092011 0
vn 0 -0.92847669088525919 -0.37139067635410367
vn -0.19611613513818402 -0.98058067569092011 0
vn 0 -0.92847669088525919 0.37139067635410367
vt 0.049999999999999989 0.099999999999999978
vt 0.034239999999999993 0.068479999999999985
vt 0.034239999999999993 0.93152
vt 0.049999999999999989 0.9
vt 0.96576 0.93152
vt 0.95 0.9
vt 0.96576 0.068479999999999985
vt 0.95 0.099999999999999978
vt 0.020519999999999983 0.041040000000000021
vt 0.020519999999999983 0.95896
vt 0.97948 0.95896
vt 0.97948 0.041040000000000021
vt 0.0096800000000000219 0.019359999999999988
vt 0.0096800000000000219 0.98064
vt 0.99032 0.98064
vt 0.99032 0.019359999999999988
vt 0.0025600000000000067 0.0051200000000000134
vt 0.0025600000000000067 0.99488
vt 0.99744 0.99488
vt 0.99744 0.0051200000000000134
vt 0 0
vt 0 1
vt 1 1
vt 1 0
vt 0.5 0.5
g Button
f 1/1/1 2/2/2 3/3/2 4/4/1
f 4/4/1 3/3/3 5/5/3 6/6/1
f 6/6/1 5/5/4 7/7/4 8/8/1
f 8/8/1 7/7/5 2/2/5 1/1/1
f 2/2/2 9/9/6 10/10/6 3/3/2
f 3/3/3 10/10/7 11/11/7 5/5/3
f 5/5/4 11/11/8 12/12/8 7/7/4
f 7/7/5 12/12/9 9/9/9 2/2/5
f 9/9/6 13/13/10 14/14/10 10/10/6
f 10/10/7 14/14/11 15/15/11 11/11/7
f 11/11/8 15/15/12 16/16/12 12/12/8
f 12/12/9 16/16/13 13/13/13 9/9/9
f 13/13/10 17/17/14 18/18/14 14/14/10
f 14/14/11 18/18/15 19/19/15 15/15/11
f 15/15/12 19/19/16 20/20/16 16/16/12
f 16/16/13 20/20/17 17/17/17 13/13/13
f 17/17/14 21/21/18 22/22/18 18/18/14
f 18/18/15 22/22/19 23/23/19 19/19/15
f 19/19/16 23/23/20 24/24/20 20/20/16
f 20/20/17 24/24/21 21/21/21 17/17/17
f 21/21/22 25/25/1 22/22/22
f 22/22/23 25/25/1 23/23/23
f 23/23/24 25/25/1 24/24/24
f 24/24/25 25/25/1 21/21/25
f 25/25/1 1/1/1 4/4/1
f 25/25/1 4/4/1 6/6/1
f 25/25/1 6/6/1 8/8/1
f 25/25/1 8/8/1 1/1/1
