o PentagonalHexecontahedron
v -1.167123436475334 0 -1.8884453892836692
v -0.56771536946692136 0.8249575526762758 -1.8654013108176957
v 0 0.75546726051659563 -1.9778389654202186
v 0.19289371135235903 0.21848337012732122 -2.0970538352520878
v -0.19289371135235903 -0.21848337012732122 -2.0970538352520878
v -1.5277030708585051 0.72833517695719152 -1.2720962825758122
v -1.2223717049036231 1.2223717049036231 -1.2223717049036231
v -0.72833517695719152 1.2720962825758122 -1.5277030708585051
v -1.7461864409858263 -0.37482165811456231 -1.1370661338605042
v -1.9778389654202186 0 -0.75546726051659563
v -1.8654013108176957 0.56771536946692136 -0.8249575526762758
v -0.92122888830955052 -0.95998770139158385 -1.6469179406903745
v -1.2223717049036231 -1.2223717049036231 -1.2223717049036231
v -1.6469179406903745 -0.92122888830955052 -0.95998770139158385
v 0 -0.75546726051659563 -1.9778389654202186
v -0.37482165811456231 -1.1370661338605042 -1.7461864409858263
v -1.167123436475334 0 1.8884453892836692
v -0.56771536946692136 -0.8249575526762758 1.8654013108176957
v 0 -0.75546726051659563 1.9778389654202186
v 0.19289371135235903 -0.21848337012732122 2.0970538352520878
v -0.19289371135235903 0.21848337012732122 2.0970538352520878
v -1.5277030708585051 -0.72833517695719152 1.2720962825758122
v -1.2223717049036231 -1.2223717049036231 1.2223717049036231
v -0.72833517695719152 -1.2720962825758122 1.5277030708585051
v -1.7461864409858263 0.37482165811456231 1.1370661338605042
v -1.9778389654202186 0 0.75546726051659563
v -1.8654013108176957 -0.56771536946692136 0.8249575526762758
v -0.92122888830955052 0.95998770139158385 1.6469179406903745
v -1.2223717049036231 1.2223717049036231 1.2223717049036231
v -1.6469179406903745 0.92122888830955052 0.95998770139158385
v 0 0.75546726051659563 1.9778389654202186
v -0.37482165811456231 1.1370661338605042 1.7461864409858263
v 1.167123436475334 0 -1.8884453892836692
v 0.56771536946692136 -0.8249575526762758 -1.8654013108176957
v 1.5277030708585051 -0.72833517695719152 -1.2720962825758122
v 1.2223717049036231 -1.2223717049036231 -1.2223717049036231
v 0.72833517695719152 -1.2720962825758122 -1.5277030708585051
v 1.7461864409858263 0.37482165811456231 -1.1370661338605042
v 1.9778389654202186 0 -0.75546726051659563
v 1.8654013108176957 -0.56771536946692136 -0.8249575526762758
v 0.92122888830955052 0.95998770139158385 -1.6469179406903745
v 1.2223717049036231 1.2223717049036231 -1.2223717049036231
v 1.6469179406903745 0.92122888830955052 -0.95998770139158385
v 0.37482165811456231 1.1370661338605042 -1.7461864409858263
v 1.167123436475334 0 1.8884453892836692
v 0.56771536946692136 0.8249575526762758 1.8654013108176957
v 1.5277030708585051 0.72833517695719152 1.2720962825758122
v 1.2223717049036231 1.2223717049036231 1.2223717049036231
v 0.72833517695719152 1.2720962825758122 1.5277030708585051
v 1.7461864409858263 -0.37482165811456231 1.1370661338605042
v 1.9778389654202186 0 0.75546726051659563
v 1.8654013108176957 0.56771536946692136 0.8249575526762758
v 0.92122888830955052 -0.95998770139158385 1.6469179406903745
v 1.2223717049036231 -1.2223717049036231 1.2223717049036231
v 1.6469179406903745 -0.92122888830955052 0.95998770139158385
v 0.37482165811456231 -1.1370661338605042 1.7461864409858263
v -1.8884453892836692 -1.167123436475334 0
v -2.0970538352520878 0.19289371135235903 0.21848337012732122
v -2.0970538352520878 -0.19289371135235903 -0.21848337012732122
v -1.2720962825758122 -1.5277030708585051 0.72833517695719152
v -1.1370661338605042 -1.7461864409858263 -0.37482165811456231
v -0.75546726051659563 -1.9778389654202186 0
v -0.8249575526762758 -1.8654013108176957 0.56771536946692136
v -0.95998770139158385 -1.6469179406903745 -0.92122888830955052
v -1.8884453892836692 1.167123436475334 0
v -1.2720962825758122 1.5277030708585051 -0.72833517695719152
v -1.1370661338605042 1.7461864409858263 0.37482165811456231
v -0.75546726051659563 1.9778389654202186 0
v -0.8249575526762758 1.8654013108176957 -0.56771536946692136
v -0.95998770139158385 1.6469179406903745 0.92122888830955052
v 1.8884453892836692 -1.167123436475334 0
v 2.0970538352520878 0.19289371135235903 -0.21848337012732122
v 2.0970538352520878 -0.19289371135235903 0.21848337012732122
v 1.2720962825758122 -1.5277030708585051 -0.72833517695719152
v 1.1370661338605042 -1.7461864409858263 0.37482165811456231
v 0.75546726051659563 -1.9778389654202186 0
v 0.8249575526762758 -1.8654013108176957 -0.56771536946692136
v 0.95998770139158385 -1.6469179406903745 0.92122888830955052
v 1.8884453892836692 1.167123436475334 0
v 1.2720962825758122 1.5277030708585051 0.72833517695719152
v 1.1370661338605042 1.7461864409858263 -0.37482165811456231
v 0.75546726051659563 1.9778389654202186 0
v 0.8249575526762758 1.8654013108176957 0.56771536946692136
v 0.95998770139158385 1.6469179406903745 -0.92122888830955052
v 0 -1.8884453892836692 -1.167123436475334
v 0.21848337012732122 -2.0970538352520878 0.19289371135235903
v -0.21848337012732122 -2.0970538352520878 -0.19289371135235903
v 0 -1.8884453892836692 1.167123436475334
v 0 1.8884453892836692 -1.167123436475334
v -0.21848337012732122 2.0970538352520878 0.19289371135235903
v 0.21848337012732122 2.0970538352520878 -0.19289371135235903
v 0 1.8884453892836692 1.167123436475334
vn -0.091154952624406649 0.080478514724592762 -0.50999412351142293
vn -0.2682828136028389 0.20612038469307681 -0.40052308507218559
vn -0.42466474083200861 0.046910888789932215 -0.30387373881834612
vn -0.34418622610741584 -0.17712786097843225 -0.35361219628225332
vn -0.13806584141433881 -0.15638192722916941 -0.48100159979677842
vn -0.091154952624406649 -0.080478514724592762 0.50999412351142293
vn -0.2682828136028389 -0.20612038469307681 0.40052308507218559
vn -0.42466474083200861 -0.046910888789932215 0.30387373881834612
vn -0.34418622610741584 0.17712786097843225 0.35361219628225332
vn -0.13806584141433881 0.15638192722916941 0.48100159979677842
vn 0.091154952624406649 -0.080478514724592762 -0.50999412351142293
vn 0.2682828136028389 -0.20612038469307681 -0.40052308507218559
vn 0.42466474083200861 -0.046910888789932215 -0.30387373881834612
vn 0.34418622610741584 0.17712786097843225 -0.35361219628225332
vn 0.13806584141433881 0.15638192722916941 -0.48100159979677842
vn 0.091154952624406649 0.080478514724592762 0.50999412351142293
vn 0.2682828136028389 0.20612038469307681 0.40052308507218559
vn 0.42466474083200861 0.046910888789932215 0.30387373881834612
vn 0.34418622610741584 -0.17712786097843225 0.35361219628225332
vn 0.13806584141433881 -0.15638192722916941 0.48100159979677842
vn -0.50999412351142293 -0.091154952624406649 0.080478514724592762
vn -0.40052308507218559 -0.2682828136028389 0.20612038469307681
vn -0.30387373881834612 -0.42466474083200861 0.046910888789932215
vn -0.35361219628225332 -0.34418622610741584 -0.17712786097843225
vn -0.48100159979677842 -0.13806584141433881 -0.15638192722916941
vn -0.50999412351142293 0.091154952624406649 -0.080478514724592762
vn -0.40052308507218559 0.2682828136028389 -0.20612038469307681
vn -0.30387373881834612 0.42466474083200861 -0.046910888789932215
vn -0.35361219628225332 0.34418622610741584 0.17712786097843225
vn -0.48100159979677842 0.13806584141433881 0.15638192722916941
vn 0.50999412351142293 -0.091154952624406649 -0.080478514724592762
vn 0.40052308507218559 -0.2682828136028389 -0.20612038469307681
vn 0.30387373881834612 -0.42466474083200861 -0.046910888789932215
vn 0.35361219628225332 -0.34418622610741584 0.17712786097843225
vn 0.48100159979677842 -0.13806584141433881 0.15638192722916941
vn 0.50999412351142293 0.091154952624406649 0.080478514724592762
vn 0.40052308507218559 0.2682828136028389 0.20612038469307681
vn 0.30387373881834612 0.42466474083200861 0.046910888789932215
vn 0.35361219628225332 0.34418622610741584 -0.17712786097843225
vn 0.48100159979677842 0.13806584141433881 -0.15638192722916941
vn 0.080478514724592762 -0.50999412351142293 -0.091154952624406649
vn 0.20612038469307681 -0.40052308507218559 -0.2682828136028389
vn 0.046910888789932215 -0.30387373881834612 -0.42466474083200861
vn -0.17712786097843225 -0.35361219628225332 -0.34418622610741584
vn -0.15638192722916941 -0.48100159979677842 -0.13806584141433881
vn -0.080478514724592762 -0.50999412351142293 0.091154952624406649
vn -0.20612038469307681 -0.40052308507218559 0.2682828136028389
vn -0.046910888789932215 -0.30387373881834612 0.42466474083200861
vn 0.17712786097843225 -0.35361219628225332 0.34418622610741584
vn 0.15638192722916941 -0.48100159979677842 0.13806584141433881
vn -0.080478514724592762 0.50999412351142293 -0.091154952624406649
vn -0.20612038469307681 0.40052308507218559 -0.2682828136028389
vn -0.046910888789932215 0.30387373881834612 -0.42466474083200861
vn 0.17712786097843225 0.35361219628225332 -0.34418622610741584
vn 0.15638192722916941 0.48100159979677842 -0.13806584141433881
vn 0.080478514724592762 0.50999412351142293 0.091154952624406649
vn 0.20612038469307681 0.40052308507218559 0.2682828136028389
vn 0.046910888789932215 0.30387373881834612 0.42466474083200861
vn -0.17712786097843225 0.35361219628225332 0.34418622610741584
vn -0.15638192722916941 0.48100159979677842 0.13806584141433881
g PentagonalHexecontahedron
f 1//1 2//1 3//1 4//1 5//1
f 1//2 6//2 7//2 8//2 2//2
f 1//3 9//3 10//3 11//3 6//3
f 1//4 12//4 13//4 14//4 9//4
f 1//5 5//5 15//5 16//5 12//5
f 17//6 18//6 19//6 20//6 21//6
f 17//7 22//7 23//7 24//7 18//7
f 17//8 25//8 26//8 27//8 22//8
f 17//9 28//9 29//9 30//9 25//9
f 17//10 21//10 31//10 32//10 28//10
f 33//11 34//11 15//11 5//11 4//11
f 33//12 35//12 36//12 37//12 34//12
f 33//13 38//13 39//13 40//13 35//13
f 33//14 41//14 42//14 43//14 38//14
f 33//15 4//15 3//15 44//15 41//15
f 45//16 46//16 31//16 21//16 20//16
f 45//17 47//17 48//17 49//17 46//17
f 45//18 50//18 51//18 52//18 47//18
f 45//19 53//19 54//19 55//19 50//19
f 45//20 20//20 19//20 56//20 53//20
f 57//21 27//21 26//21 58//21 59//21
f 57//22 60//22 23//22 22//22 27//22
f 57//23 61//23 62//23 63//23 60//23
f 57//24 14//24 13//24 64//24 61//24
f 57//25 59//25 10//25 9//25 14//25
f 65//26 11//26 10//26 59//26 58//26
f 65//27 66//27 7//27 6//27 11//27
f 65//28 67//28 68//28 69//28 66//28
f 65//29 30//29 29//29 70//29 67//29
f 65//30 58//30 26//30 25//30 30//30
f 71//31 40//31 39//31 72//31 73//31
f 71//32 74//32 36//32 35//32 40//32
f 71//33 75//33 76//33 77//33 74//33
f 71//34 55//34 54//34 78//34 75//34
f 71//35 73//35 51//35 50//35 55//35
f 79//36 52//36 51//36 73//36 72//36
f 79//37 80//37 48//37 47//37 52//37
f 79//38 81//38 82//38 83//38 80//38
f 79//39 43//39 42//39 84//39 81//39
f 79//40 72//40 39//40 38//40 43//40
f 85//41 77//41 76//41 86//41 87//41
f 85//42 37//42 36//42 74//42 77//42
f 85//43 16//43 15//43 34//43 37//43
f 85//44 64//44 13//44 12//44 16//44
f 85//45 87//45 62//45 61//45 64//45
f 88//46 63//46 62//46 87//46 86//46
f 88//47 24//47 23//47 60//47 63//47
f 88//48 56//48 19//48 18//48 24//48
f 88//49 78//49 54//49 53//49 56//49
f 88//50 86//50 76//50 75//50 78//50
f 89//51 69//51 68//51 90//51 91//51
f 89//52 8//52 7//52 66//52 69//52
f 89//53 44//53 3//53 2//53 8//53
f 89//54 84//54 42//54 41//54 44//54
f 89//55 91//55 82//55 81//55 84//55
f 92//56 83//56 82//56 91//56 90//56
f 92//57 49//57 48//57 80//57 83//57
f 92//58 32//58 31//58 46//58 49//58
f 92//59 70//59 29//59 28//59 32//59
f 92//60 90//60 68//60 67//60 70//60
