o 4-Truncated Deltoidal Icositetrahedron
v 0 0 0
v 0.32256697878156237 -1.1013125537297244 0.32256697878156237
v 0.82256697878156237 -1.8084193349162721 -0.17743302121843785
v 1.205250411146652 -1.8084193349162721 -1.1013125537297244
v 1.205250411146652 -1.1013125537297244 -1.8084193349162721
v 0.82256697878156237 -0.17743302121843785 -1.8084193349162721
v 0.32256697878156237 0.32256697878156237 -1.1013125537297244
v -0.17743302121843785 0.82256697878156237 -1.8084193349162721
v -1.1013125537297244 1.205250411146652 -1.8084193349162721
v -1.8084193349162721 1.205250411146652 -1.1013125537297244
v -1.8084193349162721 0.82256697878156237 -0.17743302121843785
v -1.1013125537297244 0.32256697878156237 0.32256697878156237
v -1.8084193349162721 -0.17743302121843785 0.82256697878156237
v -1.8084193349162721 -1.1013125537297244 1.205250411146652
v -1.1013125537297244 -1.8084193349162721 1.205250411146652
v -0.17743302121843785 -1.8084193349162721 0.82256697878156237
v 0 0 -3.6168386698325441
v 0.32256697878156237 -1.1013125537297244 -3.9394056486141062
v -0.17743302121843785 -1.8084193349162721 -4.4394056486141062
v -1.1013125537297244 -1.8084193349162721 -4.8220890809791959
v -1.8084193349162721 -1.1013125537297244 -4.8220890809791959
v -1.8084193349162721 -0.17743302121843785 -4.4394056486141062
v -1.1013125537297244 0.32256697878156237 -3.9394056486141062
v -1.8084193349162721 0.82256697878156237 -3.4394056486141062
v -1.8084193349162721 1.205250411146652 -2.5155261161028197
v 0.32256697878156237 0.32256697878156237 -2.5155261161028197
v 1.205250411146652 -1.8084193349162721 -2.5155261161028197
v 0.82256697878156237 -1.8084193349162721 -3.4394056486141062
v 0 -3.6168386698325441 0
v 0.32256697878156237 -2.5155261161028197 0.32256697878156237
v -1.8084193349162721 -2.5155261161028197 1.205250411146652
v -1.8084193349162721 -3.4394056486141062 0.82256697878156237
v -1.1013125537297244 -3.9394056486141062 0.32256697878156237
v -1.8084193349162721 -4.4394056486141062 -0.17743302121843785
v -1.8084193349162721 -4.8220890809791959 -1.1013125537297244
v -1.1013125537297244 -4.8220890809791959 -1.8084193349162721
v -0.17743302121843785 -4.4394056486141062 -1.8084193349162721
v 0.32256697878156237 -3.9394056486141062 -1.1013125537297244
v 0.82256697878156237 -3.4394056486141062 -1.8084193349162721
v 1.205250411146652 -2.5155261161028197 -1.8084193349162721
v 0 -3.6168386698325441 -3.6168386698325441
v 0.32256697878156237 -2.5155261161028197 -3.9394056486141062
v 0.32256697878156237 -3.9394056486141062 -2.5155261161028197
v -1.8084193349162721 -4.8220890809791959 -2.5155261161028197
v -1.8084193349162721 -4.4394056486141062 -3.4394056486141062
v -1.1013125537297244 -3.9394056486141062 -3.9394056486141062
v -1.8084193349162721 -3.4394056486141062 -4.4394056486141062
v -1.8084193349162721 -2.5155261161028197 -4.8220890809791959
v -3.6168386698325441 0 0
v -3.9394056486141062 -1.1013125537297244 0.32256697878156237
v -3.4394056486141062 -1.8084193349162721 0.82256697878156237
v -2.5155261161028197 -1.8084193349162721 1.205250411146652
v -2.5155261161028197 0.32256697878156237 0.32256697878156237
v -2.5155261161028197 1.205250411146652 -1.8084193349162721
v -3.4394056486141062 0.82256697878156237 -1.8084193349162721
v -3.9394056486141062 0.32256697878156237 -1.1013125537297244
v -4.4394056486141062 -0.17743302121843785 -1.8084193349162721
v -4.8220890809791959 -1.1013125537297244 -1.8084193349162721
v -4.8220890809791959 -1.8084193349162721 -1.1013125537297244
v -4.4394056486141062 -1.8084193349162721 -0.17743302121843785
v -3.6168386698325441 0 -3.6168386698325441
v -3.9394056486141062 -1.1013125537297244 -3.9394056486141062
v -4.4394056486141062 -1.8084193349162721 -3.4394056486141062
v -4.8220890809791959 -1.8084193349162721 -2.5155261161028197
v -3.9394056486141062 0.32256697878156237 -2.5155261161028197
v -2.5155261161028197 0.32256697878156237 -3.9394056486141062
v -2.5155261161028197 -1.8084193349162721 -4.8220890809791959
v -3.4394056486141062 -1.8084193349162721 -4.4394056486141062
v -3.6168386698325441 -3.6168386698325441 0
v -3.9394056486141062 -2.5155261161028197 0.32256697878156237
v -4.8220890809791959 -2.5155261161028197 -1.8084193349162721
v -4.4394056486141062 -3.4394056486141062 -1.8084193349162721
v -3.9394056486141062 -3.9394056486141062 -1.1013125537297244
v -3.4394056486141062 -4.4394056486141062 -1.8084193349162721
v -2.5155261161028197 -4.8220890809791959 -1.8084193349162721
v -2.5155261161028197 -3.9394056486141062 0.32256697878156237
v -3.6168386698325441 -3.6168386698325441 -3.6168386698325441
v -3.9394056486141062 -2.5155261161028197 -3.9394056486141062
v -2.5155261161028197 -3.9394056486141062 -3.9394056486141062
v -3.9394056486141062 -3.9394056486141062 -2.5155261161028197
vn 0.77874557494816243 0.32256697878156249 0.32256697878156215
vn 0.32256697878156215 0.77874557494816243 0.32256697878156249
vn 0.32256697878156249 0.32256697878156215 0.77874557494816243
vn 0.32256697878156237 0.32256697878156237 -0.77874557494816243
vn 0.32256697878156226 0.778745574948162 -0.32256697878156215
vn 0.77874557494816243 0.32256697878156215 -0.32256697878156249
vn 0.32256697878156215 -0.32256697878156249 0.77874557494816243
vn 0.32256697878156237 -0.77874557494816243 0.32256697878156237
vn 0.778745574948162 -0.32256697878156215 0.32256697878156226
vn 0.778745574948162 -0.32256697878156226 -0.32256697878156215
vn 0.32256697878156237 -0.77874557494816243 -0.32256697878156237
vn 0.32256697878156215 -0.32256697878156237 -0.778745574948162
vn -0.32256697878156215 0.32256697878156226 0.778745574948162
vn -0.32256697878156249 0.77874557494816243 0.32256697878156215
vn -0.77874557494816243 0.32256697878156237 0.32256697878156237
vn -0.778745574948162 0.32256697878156215 -0.32256697878156237
vn -0.32256697878156215 0.778745574948162 -0.32256697878156226
vn -0.32256697878156237 0.32256697878156237 -0.77874557494816243
vn -0.77874557494816243 -0.32256697878156237 0.32256697878156237
vn -0.32256697878156237 -0.778745574948162 0.32256697878156215
vn -0.32256697878156226 -0.32256697878156215 0.778745574948162
vn -0.32256697878156237 -0.32256697878156215 -0.778745574948162
vn -0.32256697878156215 -0.778745574948162 -0.32256697878156237
vn -0.778745574948162 -0.32256697878156237 -0.32256697878156215
vn 0 0 1.0000000000000004
vn 0 0 -1.0000000000000004
vn 1.0000000000000004 0 0
vn -1.0000000000000004 0 0
vn 0 1.0000000000000004 0
vn 0 -1.0000000000000004 0
vn 0.70710678118654791 2.2204460492503131E-16 0.70710678118654791
vn 0.70710678118654768 -1.1102230246251565E-16 -0.70710678118654791
vn -0.70710678118654791 -1.1102230246251565E-16 0.70710678118654768
vn -0.70710678118654768 0 -0.70710678118654768
vn 0.70710678118654791 0.70710678118654791 2.2204460492503131E-16
vn 0.70710678118654768 -0.70710678118654791 -1.1102230246251565E-16
vn -0.70710678118654791 0.70710678118654768 -1.1102230246251565E-16
vn -0.70710678118654768 -0.70710678118654768 0
vn 2.2204460492503131E-16 0.70710678118654791 0.70710678118654791
vn -1.1102230246251565E-16 0.70710678118654768 -0.70710678118654791
vn -1.1102230246251565E-16 -0.70710678118654791 0.70710678118654768
vn 0 -0.70710678118654768 -0.70710678118654768
g 4-Truncated Deltoidal Icositetrahedron
f 1//1 2//1 3//1 4//1 5//1 6//1 7//1
f 1//2 7//2 8//2 9//2 10//2 11//2 12//2
f 1//3 12//3 13//3 14//3 15//3 16//3 2//3
f 17//4 18//4 19//4 20//4 21//4 22//4 23//4
f 17//5 23//5 24//5 25//5 9//5 8//5 26//5
f 17//6 26//6 6//6 5//6 27//6 28//6 18//6
f 29//7 30//7 16//7 15//7 31//7 32//7 33//7
f 29//8 33//8 34//8 35//8 36//8 37//8 38//8
f 29//9 38//9 39//9 40//9 4//9 3//9 30//9
f 41//10 42//10 28//10 27//10 40//10 39//10 43//10
f 41//11 43//11 37//11 36//11 44//11 45//11 46//11
f 41//12 46//12 47//12 48//12 20//12 19//12 42//12
f 49//13 50//13 51//13 52//13 14//13 13//13 53//13
f 49//14 53//14 11//14 10//14 54//14 55//14 56//14
f 49//15 56//15 57//15 58//15 59//15 60//15 50//15
f 61//16 62//16 63//16 64//16 58//16 57//16 65//16
f 61//17 65//17 55//17 54//17 25//17 24//17 66//17
f 61//18 66//18 22//18 21//18 67//18 68//18 62//18
f 69//19 70//19 60//19 59//19 71//19 72//19 73//19
f 69//20 73//20 74//20 75//20 35//20 34//20 76//20
f 69//21 76//21 32//21 31//21 52//21 51//21 70//21
f 77//22 78//22 68//22 67//22 48//22 47//22 79//22
f 77//23 79//23 45//23 44//23 75//23 74//23 80//23
f 77//24 80//24 72//24 71//24 64//24 63//24 78//24
f 15//25 14//25 52//25 31//25
f 20//26 48//26 67//26 21//26
f 5//27 4//27 40//27 27//27
f 58//28 64//28 71//28 59//28
f 10//29 9//29 25//29 54//29
f 35//30 75//30 44//30 36//30
f 16//31 30//31 3//31 2//31
f 19//32 18//32 28//32 42//32
f 51//33 50//33 60//33 70//33
f 68//34 78//34 63//34 62//34
f 6//35 26//35 8//35 7//35
f 39//36 38//36 37//36 43//36
f 57//37 56//37 55//37 65//37
f 72//38 80//38 74//38 73//38
f 11//39 53//39 13//39 12//39
f 24//40 23//40 22//40 66//40
f 34//41 33//41 32//41 76//41
f 45//42 79//42 47//42 46//42
