o 6-Truncated Joined Truncated Tetrahedron
v 0 0 0
v -0.753525097135825 -0.753525097135825 0
v -0.753525097135825 -1.5070501942716503 -0.75352509713582516
v 0 -1.5070501942716503 -1.5070501942716503
v 0.75352509713582516 -0.753525097135825 -1.5070501942716503
v 0.75352509713582516 0 -0.75352509713582516
v 0 0.49294980572834984 -3.5070501942716503
v -0.753525097135825 1.2464749028641748 -3.5070501942716503
v -0.753525097135825 2 -2.7535250971358254
v 0 2 -2
v 0.75352509713582516 1.2464749028641748 -2
v 0.75352509713582516 0.49294980572834984 -2.7535250971358254
v -2 0.49294980572834984 0
v -1.2464749028641748 1.2464749028641748 0
v -1.2464749028641748 2 -0.75352509713582516
v -2 2 -1.5070501942716503
v -2.7535250971358254 1.2464749028641748 -1.5070501942716503
v -2.7535250971358254 0.49294980572834984 -0.75352509713582516
v -2 0 -3.5070501942716503
v -1.2464749028641748 -0.753525097135825 -3.5070501942716503
v -1.2464749028641748 -1.5070501942716503 -2.7535250971358254
v -2 -1.5070501942716503 -2
v -2.7535250971358254 -0.753525097135825 -2
v -2.7535250971358254 0 -2.7535250971358254
v -1.7038583597108121 -0.45738345684663717 0
v -0.29614164028918788 0.95033326257498707 0
v -1.7038583597108121 0.95033326257498707 -3.5070501942716503
v -0.29614164028918788 -0.45738345684663717 -3.5070501942716503
v 0.75352509713582516 -0.45738345684663717 -2.4573834568466371
v 0.75352509713582516 0.95033326257498707 -1.049666737425013
v -2.7535250971358254 -0.45738345684663717 -1.049666737425013
v -2.7535250971358254 0.95033326257498707 -2.4573834568466371
v -1.7038583597108121 -1.5070501942716503 -1.049666737425013
v -0.29614164028918788 -1.5070501942716503 -2.4573834568466371
v -1.7038583597108121 2 -2.4573834568466371
v -0.29614164028918788 2 -1.049666737425013
v 0.15794134742318655 1.4044162502873614 -0.59558374971263861
v 0.15794134742318655 -0.9114664445590116 -2.9114664445590117
v -2.1579413474231863 -0.9114664445590116 -0.59558374971263861
v -2.1579413474231863 1.4044162502873614 -2.9114664445590117
vn 0.56780007201355465 -0.56780007201355465 0.56780007201355476
vn 0.56780007201355442 0.56780007201355454 -0.56780007201355465
vn -0.56780007201355454 0.56780007201355476 0.56780007201355476
vn -0.56780007201355454 -0.56780007201355454 -0.56780007201355487
vn 0 0 0.81543343884324837
vn 0 0 -0.81543343884324859
vn 0.815433438843248 0 0
vn -0.81543343884324837 0 0
vn 0 -0.81543343884324837 0
vn 0 0.81543343884324815 0
vn 0.56600304800105639 0.17637714856948594 0.56600304800105627
vn 0.566003048001056 0.56600304800105627 0.17637714856948586
vn 0.17637714856948594 0.56600304800105616 0.56600304800105627
vn 0.56600304800105627 -0.17637714856948594 -0.56600304800105616
vn 0.56600304800105616 -0.56600304800105616 -0.17637714856948594
vn 0.17637714856948622 -0.56600304800105661 -0.56600304800105639
vn -0.56600304800105627 -0.17637714856948594 0.566003048001056
vn -0.56600304800105616 -0.56600304800105672 0.17637714856948605
vn -0.17637714856948597 -0.56600304800105616 0.5660030480010565
vn -0.56600304800105639 0.17637714856948594 -0.566003048001056
vn -0.566003048001056 0.56600304800105661 -0.176377148569486
vn -0.17637714856948619 0.56600304800105661 -0.56600304800105639
g 6-Truncated Joined Truncated Tetrahedron
f 1//1 2//1 3//1 4//1 5//1 6//1
f 7//2 8//2 9//2 10//2 11//2 12//2
f 13//3 14//3 15//3 16//3 17//3 18//3
f 19//4 20//4 21//4 22//4 23//4 24//4
f 13//5 25//5 2//5 1//5 26//5 14//5
f 19//6 27//6 8//6 7//6 28//6 20//6
f 5//7 29//7 12//7 11//7 30//7 6//7
f 23//8 31//8 18//8 17//8 32//8 24//8
f 3//9 33//9 22//9 21//9 34//9 4//9
f 9//10 35//10 16//10 15//10 36//10 10//10
f 37//11 26//11 1//11 6//11 30//11
f 37//12 30//12 11//12 10//12 36//12
f 37//13 36//13 15//13 14//13 26//13
f 38//14 28//14 7//14 12//14 29//14
f 38//15 29//15 5//15 4//15 34//15
f 38//16 34//16 21//16 20//16 28//16
f 39//17 25//17 13//17 18//17 31//17
f 39//18 31//18 23//18 22//18 33//18
f 39//19 33//19 3//19 2//19 25//19
f 40//20 27//20 19//20 24//20 32//20
f 40//21 32//21 17//21 16//21 35//21
f 40//22 35//22 9//22 8//22 27//22
