o 8-Truncated Triakis Octahedron
v 0 0 0
v -0.38268343236508984 0.92387953251128674 0
v -1.3065629648763766 1.3065629648763766 0
v -2.2304424973876635 0.92387953251128674 0
v -2.6131259297527532 0 0
v -2.2304424973876635 -0.92387953251128674 0
v -1.3065629648763766 -1.3065629648763766 0
v -0.38268343236508984 -0.92387953251128674 0
v 0 0 -4.0273394921258481
v -0.38268343236508984 -0.92387953251128674 -4.0273394921258481
v -1.3065629648763766 -1.3065629648763766 -4.0273394921258481
v -2.2304424973876635 -0.92387953251128674 -4.0273394921258481
v -2.6131259297527532 0 -4.0273394921258481
v -2.2304424973876635 0.92387953251128674 -4.0273394921258481
v -1.3065629648763766 1.3065629648763766 -4.0273394921258481
v -0.38268343236508984 0.92387953251128674 -4.0273394921258481
v 0.70710678118654746 1.3065629648763766 -2.013669746062924
v 0.70710678118654746 0.92387953251128674 -1.0897902135516373
v 0.70710678118654746 0 -0.70710678118654746
v 0.70710678118654746 -0.92387953251128674 -1.0897902135516373
v 0.70710678118654746 -1.3065629648763766 -2.013669746062924
v 0.70710678118654746 -0.92387953251128674 -2.9375492785742106
v 0.70710678118654746 0 -3.3202327109393006
v 0.70710678118654746 0.92387953251128674 -2.9375492785742106
v -3.3202327109393006 1.3065629648763766 -2.013669746062924
v -3.3202327109393006 0.92387953251128674 -2.9375492785742106
v -3.3202327109393006 0 -3.3202327109393006
v -3.3202327109393006 -0.92387953251128674 -2.9375492785742106
v -3.3202327109393006 -1.3065629648763766 -2.013669746062924
v -3.3202327109393006 -0.92387953251128674 -1.0897902135516373
v -3.3202327109393006 0 -0.70710678118654746
v -3.3202327109393006 0.92387953251128674 -1.0897902135516373
v -1.3065629648763766 2.013669746062924 -0.70710678118654746
v -0.38268343236508984 2.013669746062924 -1.0897902135516373
v 0 2.013669746062924 -2.013669746062924
v -0.38268343236508984 2.013669746062924 -2.9375492785742106
v -1.3065629648763766 2.013669746062924 -3.3202327109393006
v -2.2304424973876635 2.013669746062924 -2.9375492785742106
v -2.6131259297527532 2.013669746062924 -2.013669746062924
v -2.2304424973876635 2.013669746062924 -1.0897902135516373
v -1.3065629648763766 -2.013669746062924 -0.70710678118654746
v -2.2304424973876635 -2.013669746062924 -1.0897902135516373
v -2.6131259297527532 -2.013669746062924 -2.013669746062924
v -2.2304424973876635 -2.013669746062924 -2.9375492785742106
v -1.3065629648763766 -2.013669746062924 -3.3202327109393006
v -0.38268343236508984 -2.013669746062924 -2.9375492785742106
v 0 -2.013669746062924 -2.013669746062924
v -0.38268343236508984 -2.013669746062924 -1.0897902135516373
v 0.068722454229469765 1.3752854191058463 -0.6383843269570777
v 0.068722454229469765 1.3752854191058463 -3.3889551651687704
v 0.068722454229469765 -1.3752854191058463 -0.6383843269570777
v 0.068722454229469765 -1.3752854191058463 -3.3889551651687704
v -2.6818483839822229 1.3752854191058463 -0.6383843269570777
v -2.6818483839822229 1.3752854191058463 -3.3889551651687704
v -2.6818483839822229 -1.3752854191058463 -0.6383843269570777
v -2.6818483839822229 -1.3752854191058463 -3.3889551651687704
vn 0 0 0.70710678118654746
vn 0 0 -0.70710678118654746
vn 0.70710678118654746 0 0
vn -0.70710678118654713 0 0
vn 0 0.70710678118654746 0
vn 0 -0.70710678118654768 0
vn 0.58979021355163741 0.24429910540801225 0.58979021355163719
vn 0.58979021355163719 0.58979021355163741 0.24429910540801225
vn 0.24429910540801225 0.58979021355163719 0.58979021355163741
vn 0.24429910540801225 0.58979021355163741 -0.58979021355163719
vn 0.58979021355163719 0.58979021355163719 -0.24429910540801225
vn 0.58979021355163752 0.24429910540801239 -0.58979021355163741
vn 0.24429910540801225 -0.58979021355163741 0.58979021355163719
vn 0.58979021355163741 -0.58979021355163719 0.24429910540801225
vn 0.58979021355163719 -0.24429910540801225 0.58979021355163741
vn 0.58979021355163741 -0.24429910540801225 -0.58979021355163719
vn 0.58979021355163719 -0.58979021355163719 -0.24429910540801225
vn 0.24429910540801239 -0.58979021355163752 -0.58979021355163741
vn -0.24429910540801225 0.58979021355163752 0.58979021355163719
vn -0.58979021355163741 0.58979021355163685 0.24429910540801209
vn -0.58979021355163719 0.24429910540801225 0.58979021355163741
vn -0.58979021355163741 0.24429910540801209 -0.58979021355163685
vn -0.58979021355163719 0.58979021355163719 -0.24429910540801225
vn -0.24429910540801239 0.58979021355163752 -0.58979021355163752
vn -0.58979021355163741 -0.24429910540801209 0.58979021355163685
vn -0.58979021355163719 -0.58979021355163741 0.24429910540801225
vn -0.24429910540801225 -0.58979021355163719 0.58979021355163752
vn -0.24429910540801225 -0.58979021355163752 -0.58979021355163719
vn -0.58979021355163719 -0.58979021355163685 -0.24429910540801209
vn -0.58979021355163752 -0.24429910540801239 -0.58979021355163741
g 8-Truncated Triakis Octahedron
f 1//1 2//1 3//1 4//1 5//1 6//1 7//1 8//1
f 9//2 10//2 11//2 12//2 13//2 14//2 15//2 16//2
f 17//3 18//3 19//3 20//3 21//3 22//3 23//3 24//3
f 25//4 26//4 27//4 28//4 29//4 30//4 31//4 32//4
f 33//5 34//5 35//5 36//5 37//5 38//5 39//5 40//5
f 41//6 42//6 43//6 44//6 45//6 46//6 47//6 48//6
f 49//7 2//7 1//7 19//7 18//7
f 49//8 18//8 17//8 35//8 34//8
f 49//9 34//9 33//9 3//9 2//9
f 50//10 16//10 15//10 37//10 36//10
f 50//11 36//11 35//11 17//11 24//11
f 50//12 24//12 23//12 9//12 16//12
f 51//13 8//13 7//13 41//13 48//13
f 51//14 48//14 47//14 21//14 20//14
f 51//15 20//15 19//15 1//15 8//15
f 52//16 10//16 9//16 23//16 22//16
f 52//17 22//17 21//17 47//17 46//17
f 52//18 46//18 45//18 11//18 10//18
f 53//19 4//19 3//19 33//19 40//19
f 53//20 40//20 39//20 25//20 32//20
f 53//21 32//21 31//21 5//21 4//21
f 54//22 14//22 13//22 27//22 26//22
f 54//23 26//23 25//23 39//23 38//23
f 54//24 38//24 37//24 15//24 14//24
f 55//25 6//25 5//25 31//25 30//25
f 55//26 30//26 29//26 43//26 42//26
f 55//27 42//27 41//27 7//27 6//27
f 56//28 12//28 11//28 45//28 44//28
f 56//29 44//29 43//29 29//29 28//29
f 56//30 28//30 27//30 13//30 12//30
