o Chamfered Octahedron
v 0 0 0
v 0.57735026918962573 0.57735026918962573 -0.577350269189626
v 0.57735026918962573 1.2844570503761732 -1.2844570503761734
v 0 1.8618073195657992 -1.8618073195657992
v -0.57735026918962573 1.2844570503761732 -1.2844570503761734
v -0.57735026918962573 0.57735026918962573 -0.577350269189626
v -1.2844570503761732 0.57735026918962573 -1.2844570503761734
v -1.8618073195657992 0 -1.8618073195657992
v -1.2844570503761732 -0.57735026918962573 -1.2844570503761734
v -0.57735026918962573 -0.57735026918962573 -0.577350269189626
v -0.57735026918962573 -1.2844570503761732 -1.2844570503761734
v 0 -1.8618073195657992 -1.8618073195657992
v 0.57735026918962573 -1.2844570503761732 -1.2844570503761734
v 0.57735026918962573 -0.57735026918962573 -0.577350269189626
v 1.2844570503761732 -0.57735026918962573 -1.2844570503761734
v 1.8618073195657992 0 -1.8618073195657992
v 1.2844570503761732 0.57735026918962573 -1.2844570503761734
v 0 0 -3.7236146391315983
v 0.57735026918962573 0.57735026918962573 -3.1462643699419726
v 1.2844570503761732 0.57735026918962573 -2.4391575887554247
v 1.2844570503761732 -0.57735026918962573 -2.4391575887554247
v 0.57735026918962573 -0.57735026918962573 -3.1462643699419726
v 0.57735026918962573 -1.2844570503761732 -2.4391575887554247
v -0.57735026918962573 -1.2844570503761732 -2.4391575887554247
v -0.57735026918962573 -0.57735026918962573 -3.1462643699419726
v -1.2844570503761732 -0.57735026918962573 -2.4391575887554247
v -1.2844570503761732 0.57735026918962573 -2.4391575887554247
v -0.57735026918962573 0.57735026918962573 -3.1462643699419726
v -0.57735026918962573 1.2844570503761732 -2.4391575887554247
v 0.57735026918962573 1.2844570503761732 -2.4391575887554247
vn 1.6653345369377348E-16 0.40824829046386296 0.40824829046386296
vn -0.40824829046386296 1.6653345369377348E-16 0.40824829046386296
vn -1.6653345369377348E-16 -0.40824829046386296 0.40824829046386296
vn 0.40824829046386296 -1.6653345369377348E-16 0.40824829046386296
vn 0.40824829046386324 -2.7755575615628914E-16 -0.40824829046386296
vn -2.7755575615628914E-16 -0.40824829046386324 -0.40824829046386296
vn -0.40824829046386324 2.7755575615628914E-16 -0.40824829046386296
vn 2.7755575615628914E-16 0.40824829046386324 -0.40824829046386296
vn 0.4082482904638628 0.4082482904638628 -1.6653345369377348E-16
vn 0.40824829046386296 -0.40824829046386296 1.6653345369377348E-16
vn -0.40824829046386296 0.40824829046386296 1.6653345369377348E-16
vn -0.4082482904638628 -0.4082482904638628 -1.6653345369377348E-16
vn 0.49999999999999989 0.49999999999999989 0.49999999999999989
vn 0.50000000000000022 0.50000000000000022 -0.49999999999999989
vn 0.49999999999999989 -0.49999999999999989 0.49999999999999989
vn 0.50000000000000022 -0.50000000000000022 -0.49999999999999989
vn -0.49999999999999989 0.49999999999999989 0.49999999999999989
vn -0.50000000000000022 0.50000000000000022 -0.49999999999999989
vn -0.49999999999999989 -0.49999999999999989 0.49999999999999989
vn -0.50000000000000022 -0.50000000000000022 -0.49999999999999989
g Chamfered Octahedron
f 1//1 2//1 3//1 4//1 5//1 6//1
f 1//2 6//2 7//2 8//2 9//2 10//2
f 1//3 10//3 11//3 12//3 13//3 14//3
f 1//4 14//4 15//4 16//4 17//4 2//4
f 18//5 19//5 20//5 16//5 21//5 22//5
f 18//6 22//6 23//6 12//6 24//6 25//6
f 18//7 25//7 26//7 8//7 27//7 28//7
f 18//8 28//8 29//8 4//8 30//8 19//8
f 16//9 20//9 30//9 4//9 3//9 17//9
f 16//10 15//10 13//10 12//10 23//10 21//10
f 8//11 7//11 5//11 4//11 29//11 27//11
f 8//12 26//12 24//12 12//12 11//12 9//12
f 2//13 17//13 3//13
f 19//14 30//14 20//14
f 14//15 13//15 15//15
f 22//16 21//16 23//16
f 6//17 5//17 7//17
f 28//18 27//18 29//18
f 10//19 9//19 11//19
f 25//20 24//20 26//20
