o Chamfered Icosahedron
v 0 0 0
v -0.85065080835203988 0.52573111211913359 0
v -1.8506508083520399 0.52573111211913359 0
v -2.7013016167040798 0 0
v -1.8506508083520399 -0.52573111211913359 0
v -0.85065080835203988 -0.52573111211913359 0
v -1.3506508083520399 -1.3347481064940809 -0.30901699437494723
v -1.3506508083520399 -2.1853989148461208 -0.83474810649408093
v -0.5 -1.6596678027269873 -0.83474810649408093
v 0 -0.85065080835203988 -0.52573111211913348
v 0.30901699437494745 -1.3506508083520399 -1.3347481064940809
v 0.83474810649408093 -1.3506508083520399 -2.1853989148461208
v 0.83474810649408093 -0.5 -1.6596678027269873
v 0.5257311121191337 0 -0.85065080835203988
v 0 0 -4.3707978296922416
v -0.85065080835203988 0.52573111211913359 -4.3707978296922416
v -1.3506508083520399 1.3347481064940809 -4.0617808353172942
v -1.3506508083520399 2.1853989148461208 -3.5360497231981607
v -0.5 1.6596678027269873 -3.5360497231981607
v 0 0.85065080835203988 -3.8450667175731081
v 0.30901699437494745 1.3506508083520399 -3.0360497231981607
v 0.83474810649408093 1.3506508083520399 -2.1853989148461208
v 0.83474810649408093 0.5 -2.7111300269652543
v 0.5257311121191337 0 -3.5201470213402017
v 0.83474810649408093 -0.5 -2.7111300269652543
v 0.30901699437494745 -1.3506508083520399 -3.0360497231981607
v 0 -0.85065080835203988 -3.8450667175731081
v -2.7013016167040798 0.85065080835203988 -0.52573111211913348
v -3.0103186110790272 1.3506508083520399 -1.3347481064940809
v -3.5360497231981607 1.3506508083520399 -2.1853989148461208
v -3.5360497231981607 0.5 -1.6596678027269873
v -3.2270327288232137 0 -0.85065080835203988
v -3.5360497231981607 -0.5 -1.6596678027269873
v -3.5360497231981607 -1.3506508083520399 -2.1853989148461208
v -3.0103186110790272 -1.3506508083520399 -1.3347481064940809
v -2.7013016167040798 -0.85065080835203988 -0.52573111211913348
v -2.2013016167040798 -1.6596678027269873 -0.83474810649408093
v -2.7013016167040798 0 -4.3707978296922416
v -3.2270327288232137 0 -3.5201470213402017
v -3.5360497231981607 0.5 -2.7111300269652543
v -3.0103186110790272 1.3506508083520399 -3.0360497231981607
v -2.7013016167040798 0.85065080835203988 -3.8450667175731081
v -2.2013016167040798 1.6596678027269873 -3.5360497231981607
v -1.8506508083520399 0.52573111211913359 -4.3707978296922416
v -0.85065080835203988 -0.52573111211913359 -4.3707978296922416
v -1.8506508083520399 -0.52573111211913359 -4.3707978296922416
v -0.015902701857958945 1.8763819204711736 -2.1853989148461208
v -0.82491969623290629 2.1853989148461208 -1.6853989148461208
v -1.3506508083520399 2.1853989148461208 -0.83474810649408093
v -0.5 1.6596678027269873 -0.83474810649408093
v 0.30901699437494745 1.3506508083520399 -1.3347481064940809
v 0 0.85065080835203988 -0.52573111211913348
v 0.83474810649408093 0.5 -1.6596678027269873
v -3.5360497231981607 -0.5 -2.7111300269652543
v -2.7013016167040798 -0.85065080835203988 -3.8450667175731081
v -3.0103186110790272 -1.3506508083520399 -3.0360497231981607
v -2.2013016167040798 -1.6596678027269873 -3.5360497231981607
v -1.3506508083520399 -2.1853989148461208 -3.5360497231981607
v -1.8763819204711734 -2.1853989148461208 -2.6853989148461208
v -2.6853989148461208 -1.8763819204711736 -2.1853989148461208
v -1.8763819204711734 2.1853989148461208 -1.6853989148461208
v -2.6853989148461208 1.8763819204711736 -2.1853989148461208
v -2.2013016167040798 1.6596678027269873 -0.83474810649408093
v -1.3506508083520399 1.3347481064940809 -0.30901699437494723
v -1.8763819204711734 2.1853989148461208 -2.6853989148461208
v -0.82491969623290629 2.1853989148461208 -2.6853989148461208
v -1.8763819204711734 -2.1853989148461208 -1.6853989148461208
v -0.82491969623290629 -2.1853989148461208 -2.6853989148461208
v -0.82491969623290629 -2.1853989148461208 -1.6853989148461208
v -0.015902701857958945 -1.8763819204711736 -2.1853989148461208
v -1.3506508083520399 -1.3347481064940809 -4.0617808353172942
v -0.5 -1.6596678027269873 -3.5360497231981607
vn 0 0 0.52573111211913359
vn 0.16245984811645306 -0.26286555605956663 0.42532540417601988
vn 0.42532540417602005 -0.16245984811645314 0.2628655560595668
vn 0.16245984811645317 0.2628655560595668 -0.42532540417601988
vn 0.42532540417602005 0.16245984811645314 -0.2628655560595668
vn 0.42532540417601994 -0.16245984811645342 -0.26286555605956685
vn -0.42532540417602005 0.16245984811645314 0.2628655560595668
vn -0.42532540417601994 -0.16245984811645381 0.26286555605956696
vn -0.16245984811645309 -0.26286555605956674 0.42532540417601994
vn -0.42532540417601994 0.16245984811645381 -0.26286555605956696
vn -0.16245984811645309 0.26286555605956674 -0.42532540417601994
vn 0 0 -0.52573111211913359
vn 0.26286555605956685 0.42532540417601994 0.16245984811645337
vn 0.42532540417601994 0.16245984811645309 0.26286555605956674
vn 0.52573111211913348 0 0
vn -0.52573111211913348 0 0
vn -0.42532540417602005 -0.16245984811645289 -0.26286555605956641
vn -0.2628655560595668 -0.42532540417602005 -0.16245984811645314
vn -0.26286555605956663 0.42532540417602005 0.16245984811645303
vn -0.16245984811645314 0.2628655560595668 0.42532540417602005
vn 0.16245984811645337 0.26286555605956685 0.42532540417601994
vn -0.26286555605956674 0.42532540417601994 -0.16245984811645309
vn 0 0.52573111211913348 0
vn 0.26286555605956663 0.42532540417601988 -0.16245984811645306
vn -0.26286555605956674 -0.42532540417601994 0.16245984811645309
vn 0 -0.52573111211913348 0
vn 0.26286555605956663 -0.42532540417601988 0.16245984811645306
vn -0.16245984811645314 -0.2628655560595668 -0.42532540417602005
vn 0.16245984811645303 -0.26286555605956674 -0.42532540417601994
vn 0.26286555605956674 -0.42532540417601994 -0.16245984811645309
vn 0 0.30901699437494723 0.80901699437494734
vn 0 0.30901699437494745 -0.80901699437494734
vn 0 -0.30901699437494723 0.80901699437494734
vn 0 -0.30901699437494745 -0.80901699437494734
vn 0.80901699437494745 0 0.30901699437494723
vn 0.80901699437494745 0 -0.30901699437494723
vn -0.80901699437494745 0 0.309016994374947
vn -0.80901699437494745 0 -0.309016994374947
vn 0.30901699437494723 0.80901699437494734 0
vn 0.30901699437494723 -0.80901699437494734 0
vn -0.30901699437494723 0.80901699437494745 0
vn -0.30901699437494723 -0.80901699437494745 0
vn 0.5 0.5 0.5
vn 0.5 0.5 -0.5
vn 0.5 -0.5 0.5
vn 0.5 -0.5 -0.5
vn -0.5 0.5 0.5
vn -0.5 0.5 -0.5
vn -0.5 -0.5 0.5
vn -0.5 -0.5 -0.5
g Chamfered Icosahedron
f 1//1 2//1 3//1 4//1 5//1 6//1
f 1//2 6//2 7//2 8//2 9//2 10//2
f 1//3 10//3 11//3 12//3 13//3 14//3
f 15//4 16//4 17//4 18//4 19//4 20//4
f 15//5 20//5 21//5 22//5 23//5 24//5
f 15//6 24//6 25//6 12//6 26//6 27//6
f 4//7 28//7 29//7 30//7 31//7 32//7
f 4//8 32//8 33//8 34//8 35//8 36//8
f 4//9 36//9 37//9 8//9 7//9 5//9
f 38//10 39//10 40//10 30//10 41//10 42//10
f 38//11 42//11 43//11 18//11 17//11 44//11
f 38//12 44//12 16//12 15//12 45//12 46//12
f 22//13 47//13 48//13 49//13 50//13 51//13
f 22//14 51//14 52//14 1//14 14//14 53//14
f 22//15 53//15 13//15 12//15 25//15 23//15
f 34//16 33//16 31//16 30//16 40//16 54//16
f 34//17 54//17 39//17 38//17 55//17 56//17
f 34//18 56//18 57//18 58//18 59//18 60//18
f 49//19 61//19 62//19 30//19 29//19 63//19
f 49//20 63//20 28//20 4//20 3//20 64//20
f 49//21 64//21 2//21 1//21 52//21 50//21
f 18//22 43//22 41//22 30//22 62//22 65//22
f 18//23 65//23 61//23 49//23 48//23 66//23
f 18//24 66//24 47//24 22//24 21//24 19//24
f 8//25 37//25 35//25 34//25 60//25 67//25
f 8//26 67//26 59//26 58//26 68//26 69//26
f 8//27 69//27 70//27 12//27 11//27 9//27
f 58//28 57//28 55//28 38//28 46//28 71//28
f 58//29 71//29 45//29 15//29 27//29 72//29
f 58//30 72//30 26//30 12//30 70//30 68//30
f 64//31 3//31 2//31
f 17//32 16//32 44//32
f 7//33 6//33 5//33
f 71//34 46//34 45//34
f 14//35 13//35 53//35
f 24//36 23//36 25//36
f 32//37 31//37 33//37
f 39//38 54//38 40//38
f 47//39 66//39 48//39
f 70//40 69//40 68//40
f 62//41 61//41 65//41
f 60//42 59//42 67//42
f 52//43 51//43 50//43
f 20//44 19//44 21//44
f 10//45 9//45 11//45
f 27//46 26//46 72//46
f 28//47 63//47 29//47
f 42//48 41//48 43//48
f 36//49 35//49 37//49
f 55//50 57//50 56//50
