o Chamfered Cube
v 0 0 0
v -0.57735026918962573 -0.57735026918962573 0.57735026918962573
v -0.57735026918962573 -1.5773502691896257 0.57735026918962573
v 0 -2.1547005383792515 0
v 0.57735026918962573 -1.5773502691896257 -0.57735026918962573
v 0.57735026918962573 -0.57735026918962573 -0.57735026918962573
v 0.57735026918962573 -0.57735026918962573 -1.5773502691896257
v 0 0 -2.1547005383792515
v -0.57735026918962573 0.57735026918962573 -1.5773502691896257
v -0.57735026918962573 0.57735026918962573 -0.57735026918962573
v -1.5773502691896257 0.57735026918962573 -0.57735026918962573
v -2.1547005383792515 0 0
v -1.5773502691896257 -0.57735026918962573 0.57735026918962573
v 0 -2.1547005383792515 -2.1547005383792515
v -0.57735026918962573 -1.5773502691896257 -2.7320508075688772
v -0.57735026918962573 -0.57735026918962573 -2.7320508075688772
v 0.57735026918962573 -1.5773502691896257 -1.5773502691896257
v -0.57735026918962573 -2.7320508075688772 -0.57735026918962573
v -0.57735026918962573 -2.7320508075688772 -1.5773502691896257
v -1.5773502691896257 -2.7320508075688772 -1.5773502691896257
v -2.1547005383792515 -2.1547005383792515 -2.1547005383792515
v -1.5773502691896257 -1.5773502691896257 -2.7320508075688772
v -2.1547005383792515 0 -2.1547005383792515
v -1.5773502691896257 -0.57735026918962573 -2.7320508075688772
v -2.7320508075688772 -1.5773502691896257 -1.5773502691896257
v -2.7320508075688772 -0.57735026918962573 -1.5773502691896257
v -2.7320508075688772 -0.57735026918962573 -0.57735026918962573
v -1.5773502691896257 0.57735026918962573 -1.5773502691896257
v -2.1547005383792515 -2.1547005383792515 0
v -1.5773502691896257 -1.5773502691896257 0.57735026918962573
v -2.7320508075688772 -1.5773502691896257 -0.57735026918962573
v -1.5773502691896257 -2.7320508075688772 -0.57735026918962573
vn 0.57735026918962573 0 0.57735026918962573
vn 0.57735026918962573 0.57735026918962573 0
vn 0 0.57735026918962573 0.57735026918962573
vn 0.57735026918962573 0 -0.57735026918962573
vn 0.57735026918962573 -0.57735026918962573 0
vn 0 -0.57735026918962573 -0.57735026918962573
vn -0.57735026918962573 0 -0.57735026918962573
vn -0.57735026918962573 0.57735026918962573 0
vn 0 0.57735026918962573 -0.57735026918962573
vn -0.57735026918962573 0 0.57735026918962573
vn -0.57735026918962573 -0.57735026918962573 0
vn 0 -0.57735026918962573 0.57735026918962573
vn 0 0 1
vn 0 0 -1
vn 1 0 0
vn -1 0 0
vn 0 1 0
vn 0 -1 0
g Chamfered Cube
f 1//1 2//1 3//1 4//1 5//1 6//1
f 1//2 6//2 7//2 8//2 9//2 10//2
f 1//3 10//3 11//3 12//3 13//3 2//3
f 14//4 15//4 16//4 8//4 7//4 17//4
f 14//5 17//5 5//5 4//5 18//5 19//5
f 14//6 19//6 20//6 21//6 22//6 15//6
f 23//7 24//7 22//7 21//7 25//7 26//7
f 23//8 26//8 27//8 12//8 11//8 28//8
f 23//9 28//9 9//9 8//9 16//9 24//9
f 29//10 30//10 13//10 12//10 27//10 31//10
f 29//11 31//11 25//11 21//11 20//11 32//11
f 29//12 32//12 18//12 4//12 3//12 30//12
f 2//13 13//13 30//13 3//13
f 16//14 15//14 22//14 24//14
f 6//15 5//15 17//15 7//15
f 27//16 26//16 25//16 31//16
f 10//17 9//17 28//17 11//17
f 18//18 32//18 20//18 19//18
