o Chamfered Tetrahedron
v 0 0 0
v 0 0 -1
v 0 0.70710678118654746 -1.7071067811865475
v 0 1.7071067811865475 -1.7071067811865475
v 0 1.7071067811865475 -0.70710678118654746
v 0 1 0
v -1 0 0
v -1.7071067811865475 0 -0.70710678118654746
v -1.7071067811865475 0 -1.7071067811865475
v -0.70710678118654746 0 -1.7071067811865475
v -1.7071067811865475 1 -1.7071067811865475
v -1 1.7071067811865475 -1.7071067811865475
v -1.7071067811865475 1.7071067811865475 -1
v -1.7071067811865475 1.7071067811865475 0
v -0.70710678118654746 1.7071067811865475 0
v -1.7071067811865475 0.70710678118654746 0
vn 0.70710678118654746 0 0
vn 0 -0.70710678118654746 0
vn 0 0 -0.70710678118654746
vn 0 0.70710678118654746 0
vn 0 0 0.70710678118654746
vn -0.70710678118654746 0 0
vn 0.49999999999999989 0.49999999999999989 0.49999999999999989
vn 0.49999999999999989 -0.49999999999999989 -0.49999999999999989
vn -0.49999999999999989 -0.49999999999999989 0.49999999999999989
vn -0.49999999999999989 0.49999999999999989 -0.49999999999999989
g Chamfered Tetrahedron
f 1//1 2//1 3//1 4//1 5//1 6//1
f 1//2 7//2 8//2 9//2 10//2 2//2
f 4//3 3//3 10//3 9//3 11//3 12//3
f 4//4 12//4 13//4 14//4 15//4 5//4
f 14//5 16//5 7//5 1//5 6//5 15//5
f 14//6 13//6 11//6 9//6 8//6 16//6
f 6//7 5//7 15//7
f 3//8 2//8 10//8
f 16//9 8//9 7//9
f 11//10 13//10 12//10
