o Cuboctahedron
v 0 0 0
v 0 -0.70710678118654757 -0.70710678118654757
v 0 0 -1.4142135623730952
v 0 0.70710678118654757 -0.70710678118654757
v -0.70710678118654757 0.70710678118654757 0
v -1.4142135623730952 0 0
v -0.70710678118654757 -0.70710678118654757 0
v -1.4142135623730952 -0.70710678118654757 -0.70710678118654757
v -1.4142135623730952 0.70710678118654757 -0.70710678118654757
v -1.4142135623730952 0 -1.4142135623730952
v -0.70710678118654757 -0.70710678118654757 -1.4142135623730952
v -0.70710678118654757 0.70710678118654757 -1.4142135623730952
vn 1.0000000000000002 0 0
vn 0 0 1.0000000000000002
vn -1.0000000000000002 0 0
vn 0 -1.0000000000000002 0
vn 0 0 -1.0000000000000002
vn 0 1.0000000000000002 0
vn 0.50000000000000011 0.50000000000000011 0.50000000000000011
vn 0.50000000000000011 -0.50000000000000011 -0.50000000000000011
vn -0.50000000000000011 -0.50000000000000011 0.50000000000000011
vn -0.50000000000000011 0.50000000000000011 -0.50000000000000011
vn 0.50000000000000011 0.50000000000000011 -0.50000000000000011
vn 0.50000000000000011 -0.50000000000000011 0.50000000000000011
vn -0.50000000000000011 0.50000000000000011 0.50000000000000011
vn -0.50000000000000011 -0.50000000000000011 -0.50000000000000011
g Cuboctahedron
f 1//1 2//1 3//1 4//1
f 1//2 5//2 6//2 7//2
f 8//3 6//3 9//3 10//3
f 8//4 11//4 2//4 7//4
f 12//5 3//5 11//5 10//5
f 12//6 9//6 5//6 4//6
f 1//7 4//7 5//7
f 3//8 2//8 11//8
f 6//9 8//9 7//9
f 10//10 9//10 12//10
f 4//11 3//11 12//11
f 2//12 1//12 7//12
f 9//13 6//13 5//13
f 8//14 10//14 11//14
