o Dodecahedron
v 0 0 0
v 0 -1 0
v 0.80901699437494745 -1.3090169943749475 -0.5
v 1.3090169943749475 -0.5 -0.80901699437494745
v 0.80901699437494745 0.30901699437494745 -0.5
v 0.5 0.80901699437494745 -1.3090169943749475
v -0.5 0.80901699437494745 -1.3090169943749475
v -0.80901699437494745 0.30901699437494745 -0.5
v -1.3090169943749475 -0.5 -0.80901699437494745
v -0.80901699437494745 -1.3090169943749475 -0.5
v -1.3090169943749475 -0.5 -1.8090169943749475
v -0.80901699437494745 0.30901699437494745 -2.1180339887498949
v 0 0 -2.6180339887498949
v 0 -1 -2.6180339887498949
v -0.80901699437494745 -1.3090169943749475 -2.1180339887498949
v -0.5 -1.8090169943749475 -1.3090169943749475
v 0.5 -1.8090169943749475 -1.3090169943749475
v 0.80901699437494745 -1.3090169943749475 -2.1180339887498949
v 1.3090169943749475 -0.5 -1.8090169943749475
v 0.80901699437494745 0.30901699437494745 -2.1180339887498949
vn 0.5 0 0.80901699437494745
vn -5.5511151231257827E-17 0.80901699437494745 0.5
vn -0.5 -5.5511151231257827E-17 0.80901699437494745
vn -0.80901699437494745 0.5 0
vn -0.5 -5.5511151231257827E-17 -0.80901699437494745
vn -0.80901699437494745 -0.5 5.5511151231257827E-17
vn 0 -0.80901699437494745 -0.5
vn 0.80901699437494745 -0.5 5.5511151231257827E-17
vn -5.5511151231257827E-17 -0.80901699437494745 0.5
vn 0 0.80901699437494745 -0.50000000000000011
vn 0.80901699437494745 0.50000000000000011 0
vn 0.50000000000000011 0 -0.80901699437494745
g Dodecahedron
f 1//1 2//1 3//1 4//1 5//1
f 1//2 5//2 6//2 7//2 8//2
f 1//3 8//3 9//3 10//3 2//3
f 11//4 9//4 8//4 7//4 12//4
f 11//5 12//5 13//5 14//5 15//5
f 11//6 15//6 16//6 10//6 9//6
f 17//7 16//7 15//7 14//7 18//7
f 17//8 18//8 19//8 4//8 3//8
f 17//9 3//9 2//9 10//9 16//9
f 20//10 13//10 12//10 7//10 6//10
f 20//11 6//11 5//11 4//11 19//11
f 20//12 19//12 18//12 14//12 13//12
