o Elongated Square Gyrobicupola
v 0 0 0
v -0.70710678118654757 -0.70710678118654757 0
v -0.20710678118654757 -1.2071067811865475 -0.70710678118654746
v 0.49999999999999989 -0.5 -0.70710678118654746
v -1.4142135623730952 0 0
v -0.70710678118654757 0.70710678118654757 0
v -1.2071067811865475 1.2071067811865475 -0.70710678118654746
v -1.9142135623730949 0.5 -0.70710678118654746
v 0.49999999999999989 0.5 -0.70710678118654746
v -0.20710678118654757 1.2071067811865475 -0.70710678118654746
v -1.9142135623730949 -0.5 -0.70710678118654746
v -1.2071067811865475 -1.2071067811865475 -0.70710678118654746
v -0.20710678118654757 0.5 -2.4142135623730949
v -1.2071067811865475 0.5 -2.4142135623730949
v -1.2071067811865475 1.2071067811865475 -1.7071067811865475
v -0.20710678118654757 1.2071067811865475 -1.7071067811865475
v -0.20710678118654757 -0.5 -2.4142135623730949
v 0.49999999999999989 0.5 -1.7071067811865475
v 0.49999999999999989 -0.5 -1.7071067811865475
v -1.2071067811865475 -0.5 -2.4142135623730949
v -1.9142135623730949 -0.5 -1.7071067811865475
v -1.9142135623730949 0.5 -1.7071067811865475
v -0.20710678118654757 -1.2071067811865475 -1.7071067811865475
v -1.2071067811865475 -1.2071067811865475 -1.7071067811865475
vn 0.5 -0.5 0.70710678118654746
vn -0.5 0.5 0.70710678118654746
vn 0.5 0.5 0.70710678118654746
vn -0.5 -0.5 0.70710678118654746
vn 0 0.70710678118654735 -0.70710678118654735
vn 0.70710678118654746 0 -0.70710678118654746
vn -0.70710678118654746 0 -0.70710678118654746
vn 0 -0.70710678118654735 -0.70710678118654735
vn 0 0.99999999999999989 0
vn 0.70710678118654746 0.70710678118654746 0
vn 0.70710678118654746 -0.70710678118654746 0
vn 0 -0.99999999999999989 0
vn 1 0 0
vn -1 0 0
vn -0.70710678118654746 0.70710678118654746 0
vn -0.70710678118654746 -0.70710678118654746 0
vn 0 0 1.0000000000000002
vn 0 0 -0.99999999999999989
vn 0.70710678118654746 0 0.49999999999999989
vn -0.70710678118654746 0 0.49999999999999978
vn 0 0.70710678118654735 0.49999999999999983
vn 0 -0.70710678118654735 0.49999999999999983
vn 0.49999999999999989 0.49999999999999989 -0.49999999999999989
vn 0.49999999999999989 -0.49999999999999989 -0.49999999999999989
vn -0.49999999999999989 0.49999999999999989 -0.49999999999999989
vn -0.49999999999999989 -0.49999999999999989 -0.49999999999999989
g Elongated Square Gyrobicupola
f 1//1 2//1 3//1 4//1
f 5//2 6//2 7//2 8//2
f 6//3 1//3 9//3 10//3
f 2//4 5//4 11//4 12//4
f 13//5 14//5 15//5 16//5
f 17//6 13//6 18//6 19//6
f 14//7 20//7 21//7 22//7
f 20//8 17//8 23//8 24//8
f 10//9 16//9 15//9 7//9
f 16//10 10//10 9//10 18//10
f 3//11 23//11 19//11 4//11
f 23//12 3//12 12//12 24//12
f 9//13 4//13 19//13 18//13
f 21//14 11//14 8//14 22//14
f 7//15 15//15 22//15 8//15
f 24//16 12//16 11//16 21//16
f 1//17 6//17 5//17 2//17
f 20//18 14//18 13//18 17//18
f 1//19 4//19 9//19
f 5//20 8//20 11//20
f 6//21 10//21 7//21
f 2//22 12//22 3//22
f 13//23 16//23 18//23
f 17//24 19//24 23//24
f 14//25 22//25 15//25
f 20//26 24//26 21//26
