o Icosidodecahedron
v 0 0 0
v 0.5 -0.80901699437494745 -0.30901699437494745
v 1.3090169943749475 -0.5 -0.80901699437494745
v 1.3090169943749475 0.5 -0.80901699437494745
v 0.5 0.80901699437494745 -0.30901699437494745
v -0.5 0.80901699437494745 -0.30901699437494745
v -1.3090169943749475 0.5 -0.80901699437494745
v -1.3090169943749475 -0.5 -0.80901699437494745
v -0.5 -0.80901699437494745 -0.30901699437494745
v 0 0 -3.23606797749979
v 0.5 0.80901699437494745 -2.9270509831248424
v 1.3090169943749475 0.5 -2.4270509831248424
v 1.3090169943749475 -0.5 -2.4270509831248424
v 0.5 -0.80901699437494745 -2.9270509831248424
v -0.5 -0.80901699437494745 -2.9270509831248424
v -1.3090169943749475 -0.5 -2.4270509831248424
v -1.3090169943749475 0.5 -2.4270509831248424
v -0.5 0.80901699437494745 -2.9270509831248424
v 1.6180339887498949 0 -1.6180339887498949
v 0.80901699437494745 1.3090169943749475 -2.1180339887498949
v 0.80901699437494745 1.3090169943749475 -1.1180339887498949
v 0.80901699437494745 -1.3090169943749475 -1.1180339887498949
v 0.80901699437494745 -1.3090169943749475 -2.1180339887498949
v -1.6180339887498949 0 -1.6180339887498949
v -0.80901699437494745 1.3090169943749475 -1.1180339887498949
v -0.80901699437494745 1.3090169943749475 -2.1180339887498949
v -0.80901699437494745 -1.3090169943749475 -2.1180339887498949
v -0.80901699437494745 -1.3090169943749475 -1.1180339887498949
v 0 1.6180339887498949 -1.6180339887498949
v 0 -1.6180339887498949 -1.6180339887498949
vn 0.5 -5.5511151231257827E-17 0.80901699437494745
vn -0.5 5.5511151231257827E-17 0.80901699437494745
vn 0.5 5.5511151231257827E-17 -0.80901699437494745
vn -0.5 -5.5511151231257827E-17 -0.80901699437494745
vn 0.80901699437494745 0.5 -5.5511151231257827E-17
vn 0.80901699437494745 -0.5 5.5511151231257827E-17
vn -0.80901699437494745 0.5 5.5511151231257827E-17
vn -0.80901699437494745 -0.5 -5.5511151231257827E-17
vn 5.5511151231257827E-17 0.80901699437494745 -0.5
vn -5.5511151231257827E-17 0.80901699437494745 0.5
vn 5.5511151231257827E-17 -0.80901699437494745 0.5
vn -5.5511151231257827E-17 -0.80901699437494745 -0.5
vn 0 0.30901699437494745 0.80901699437494745
vn 0 -0.30901699437494745 0.80901699437494745
vn 0 -0.30901699437494745 -0.80901699437494745
vn 0 0.30901699437494745 -0.80901699437494745
vn 0.80901699437494745 0 0.30901699437494745
vn 0.80901699437494745 0 -0.30901699437494745
vn -0.80901699437494745 0 -0.30901699437494745
vn -0.80901699437494745 0 0.30901699437494745
vn 0.30901699437494745 0.80901699437494745 0
vn -0.30901699437494745 0.80901699437494745 0
vn 0.30901699437494745 -0.80901699437494745 0
vn -0.30901699437494745 -0.80901699437494745 0
vn 0.5 0.5 0.5
vn 0.5 0.5 -0.5
vn 0.5 -0.5 0.5
vn 0.5 -0.5 -0.5
vn -0.5 0.5 0.5
vn -0.5 0.5 -0.5
vn -0.5 -0.5 0.5
vn -0.5 -0.5 -0.5
g Icosidodecahedron
f 1//1 2//1 3//1 4//1 5//1
f 1//2 6//2 7//2 8//2 9//2
f 10//3 11//3 12//3 13//3 14//3
f 10//4 15//4 16//4 17//4 18//4
f 19//5 12//5 20//5 21//5 4//5
f 19//6 3//6 22//6 23//6 13//6
f 24//7 7//7 25//7 26//7 17//7
f 24//8 16//8 27//8 28//8 8//8
f 29//9 20//9 11//9 18//9 26//9
f 29//10 25//10 6//10 5//10 21//10
f 30//11 22//11 2//11 9//11 28//11
f 30//12 27//12 15//12 14//12 23//12
f 1//13 5//13 6//13
f 1//14 9//14 2//14
f 10//15 14//15 15//15
f 10//16 18//16 11//16
f 19//17 4//17 3//17
f 19//18 13//18 12//18
f 24//19 17//19 16//19
f 24//20 8//20 7//20
f 29//21 21//21 20//21
f 29//22 26//22 25//22
f 30//23 23//23 22//23
f 30//24 28//24 27//24
f 5//25 4//25 21//25
f 11//26 20//26 12//26
f 2//27 22//27 3//27
f 14//28 13//28 23//28
f 6//29 25//29 7//29
f 18//30 17//30 26//30
f 9//31 8//31 28//31
f 15//32 27//32 16//32
