o Joined Icosidodecahedron
v 0 0 0
v -0.90450849718747373 0 0.15450849718747373
v -0.90450849718747373 -0.55901699437494745 0
v -0.40450849718747373 -0.80901699437494745 -0.15450849718747373
v 0 -0.90450849718747373 -0.55901699437494745
v 0.40450849718747373 -0.5 -0.65450849718747373
v 0.55901699437494745 0 -0.90450849718747373
v 0.40450849718747373 0.5 -0.65450849718747373
v 0 0.90450849718747373 -0.55901699437494745
v -0.40450849718747373 0.80901699437494745 -0.15450849718747373
v -0.90450849718747373 0.55901699437494745 0
v 0 0 -2.9270509831248424
v -0.90450849718747373 0 -3.0815594803123161
v -0.90450849718747373 0.55901699437494745 -2.9270509831248424
v -0.40450849718747373 0.80901699437494745 -2.7725424859373686
v 0 0.90450849718747373 -2.3680339887498949
v 0.40450849718747373 0.5 -2.2725424859373686
v 0.55901699437494745 0 -2.0225424859373686
v 0.40450849718747373 -0.5 -2.2725424859373686
v 0 -0.90450849718747373 -2.3680339887498949
v -0.40450849718747373 -0.80901699437494745 -2.7725424859373686
v -0.90450849718747373 -0.55901699437494745 -2.9270509831248424
v -1.8090169943749475 0 0
v -1.4045084971874737 0.80901699437494745 -0.15450849718747373
v -1.8090169943749475 0.90450849718747373 -0.55901699437494745
v -2.2135254915624212 0.5 -0.65450849718747373
v -2.3680339887498949 0 -0.90450849718747373
v -2.2135254915624212 -0.5 -0.65450849718747373
v -1.8090169943749475 -0.90450849718747373 -0.55901699437494745
v -1.4045084971874737 -0.80901699437494745 -0.15450849718747373
v -1.8090169943749475 0 -2.9270509831248424
v -1.4045084971874737 -0.80901699437494745 -2.7725424859373686
v -1.8090169943749475 -0.90450849718747373 -2.3680339887498949
v -2.2135254915624212 -0.5 -2.2725424859373686
v -2.3680339887498949 0 -2.0225424859373686
v -2.2135254915624212 0.5 -2.2725424859373686
v -1.8090169943749475 0.90450849718747373 -2.3680339887498949
v -1.4045084971874737 0.80901699437494745 -2.7725424859373686
v 0.55901699437494745 0.90450849718747373 -1.4635254915624212
v 0.71352549156242118 0 -1.4635254915624212
v -0.095491502812526274 1.3090169943749475 -1.9635254915624212
v -0.34549150281252627 1.4635254915624212 -1.4635254915624212
v -0.095491502812526274 1.3090169943749475 -0.96352549156242118
v 0.55901699437494745 -0.90450849718747373 -1.4635254915624212
v -0.095491502812526274 -1.3090169943749475 -0.96352549156242118
v -0.34549150281252627 -1.4635254915624212 -1.4635254915624212
v -0.095491502812526274 -1.3090169943749475 -1.9635254915624212
v -2.3680339887498949 0.90450849718747373 -1.4635254915624212
v -2.5225424859373686 0 -1.4635254915624212
v -1.7135254915624212 1.3090169943749475 -0.96352549156242118
v -1.4635254915624212 1.4635254915624212 -1.4635254915624212
v -1.7135254915624212 1.3090169943749475 -1.9635254915624212
v -2.3680339887498949 -0.90450849718747373 -1.4635254915624212
v -1.7135254915624212 -1.3090169943749475 -1.9635254915624212
v -1.4635254915624212 -1.4635254915624212 -1.4635254915624212
v -1.7135254915624212 -1.3090169943749475 -0.96352549156242118
v -0.90450849718747373 1.4635254915624212 -0.55901699437494745
v -0.90450849718747373 1.6180339887498949 -1.4635254915624212
v -0.90450849718747373 1.4635254915624212 -2.3680339887498949
v -0.90450849718747373 -1.4635254915624212 -0.55901699437494745
v -0.90450849718747373 -1.6180339887498949 -1.4635254915624212
v -0.90450849718747373 -1.4635254915624212 -2.3680339887498949
vn 0.086372875703131582 -0.13975424859373686 0.50563562148434216
vn 0.3125 -0.22612712429686843 0.36588137289060529
vn 0.45225424859373686 -1.3877787807814457E-17 0.27950849718747373
vn 0.3125 0.22612712429686843 0.36588137289060529
vn 0.0863728757031316 0.13975424859373686 0.50563562148434216
vn 0.086372875703131582 0.13975424859373686 -0.50563562148434216
vn 0.3125 0.22612712429686843 -0.36588137289060529
vn 0.45225424859373686 1.3877787807814457E-17 -0.27950849718747373
vn 0.3125 -0.22612712429686843 -0.36588137289060529
vn 0.0863728757031316 -0.13975424859373686 -0.50563562148434216
vn -0.086372875703131582 0.13975424859373686 0.50563562148434216
vn -0.3125 0.22612712429686843 0.36588137289060529
vn -0.45225424859373686 1.3877787807814457E-17 0.27950849718747373
vn -0.3125 -0.22612712429686843 0.36588137289060529
vn -0.0863728757031316 -0.13975424859373686 0.50563562148434216
vn -0.086372875703131582 -0.13975424859373686 -0.50563562148434216
vn -0.3125 -0.22612712429686843 -0.36588137289060529
vn -0.45225424859373686 -1.3877787807814457E-17 -0.27950849718747373
vn -0.3125 0.22612712429686843 -0.36588137289060529
vn -0.0863728757031316 0.13975424859373686 -0.50563562148434216
vn 0.50563562148434216 0.086372875703131582 -0.13975424859373686
vn 0.36588137289060529 0.3125 -0.22612712429686843
vn 0.27950849718747373 0.45225424859373686 -1.3877787807814457E-17
vn 0.36588137289060529 0.3125 0.22612712429686843
vn 0.50563562148434216 0.0863728757031316 0.13975424859373686
vn 0.50563562148434216 -0.086372875703131582 0.13975424859373686
vn 0.36588137289060529 -0.3125 0.22612712429686843
vn 0.27950849718747373 -0.45225424859373686 1.3877787807814457E-17
vn 0.36588137289060529 -0.3125 -0.22612712429686843
vn 0.50563562148434216 -0.0863728757031316 -0.13975424859373686
vn -0.50563562148434216 0.086372875703131582 0.13975424859373686
vn -0.36588137289060529 0.3125 0.22612712429686843
vn -0.27950849718747373 0.45225424859373686 1.3877787807814457E-17
vn -0.36588137289060529 0.3125 -0.22612712429686843
vn -0.50563562148434216 0.0863728757031316 -0.13975424859373686
vn -0.50563562148434216 -0.086372875703131582 -0.13975424859373686
vn -0.36588137289060529 -0.3125 -0.22612712429686843
vn -0.27950849718747373 -0.45225424859373686 -1.3877787807814457E-17
vn -0.36588137289060529 -0.3125 0.22612712429686843
vn -0.50563562148434216 -0.0863728757031316 0.13975424859373686
vn -0.13975424859373686 0.50563562148434216 0.086372875703131582
vn -0.22612712429686843 0.36588137289060529 0.3125
vn -1.3877787807814457E-17 0.27950849718747373 0.45225424859373686
vn 0.22612712429686843 0.36588137289060529 0.3125
vn 0.13975424859373686 0.50563562148434216 0.0863728757031316
vn 0.13975424859373686 0.50563562148434216 -0.086372875703131582
vn 0.22612712429686843 0.36588137289060529 -0.3125
vn 1.3877787807814457E-17 0.27950849718747373 -0.45225424859373686
vn -0.22612712429686843 0.36588137289060529 -0.3125
vn -0.13975424859373686 0.50563562148434216 -0.0863728757031316
vn 0.13975424859373686 -0.50563562148434216 0.086372875703131582
vn 0.22612712429686843 -0.36588137289060529 0.3125
vn 1.3877787807814457E-17 -0.27950849718747373 0.45225424859373686
vn -0.22612712429686843 -0.36588137289060529 0.3125
vn -0.13975424859373686 -0.50563562148434216 0.0863728757031316
vn -0.13975424859373686 -0.50563562148434216 -0.086372875703131582
vn -0.22612712429686843 -0.36588137289060529 -0.3125
vn -1.3877787807814457E-17 -0.27950849718747373 -0.45225424859373686
vn 0.22612712429686843 -0.36588137289060529 -0.3125
vn 0.13975424859373686 -0.50563562148434216 -0.0863728757031316
g Joined Icosidodecahedron
f 1//1 2//1 3//1 4//1
f 1//2 4//2 5//2 6//2
f 1//3 6//3 7//3 8//3
f 1//4 8//4 9//4 10//4
f 1//5 10//5 11//5 2//5
f 12//6 13//6 14//6 15//6
f 12//7 15//7 16//7 17//7
f 12//8 17//8 18//8 19//8
f 12//9 19//9 20//9 21//9
f 12//10 21//10 22//10 13//10
f 23//11 2//11 11//11 24//11
f 23//12 24//12 25//12 26//12
f 23//13 26//13 27//13 28//13
f 23//14 28//14 29//14 30//14
f 23//15 30//15 3//15 2//15
f 31//16 13//16 22//16 32//16
f 31//17 32//17 33//17 34//17
f 31//18 34//18 35//18 36//18
f 31//19 36//19 37//19 38//19
f 31//20 38//20 14//20 13//20
f 39//21 40//21 18//21 17//21
f 39//22 17//22 16//22 41//22
f 39//23 41//23 42//23 43//23
f 39//24 43//24 9//24 8//24
f 39//25 8//25 7//25 40//25
f 44//26 40//26 7//26 6//26
f 44//27 6//27 5//27 45//27
f 44//28 45//28 46//28 47//28
f 44//29 47//29 20//29 19//29
f 44//30 19//30 18//30 40//30
f 48//31 49//31 27//31 26//31
f 48//32 26//32 25//32 50//32
f 48//33 50//33 51//33 52//33
f 48//34 52//34 37//34 36//34
f 48//35 36//35 35//35 49//35
f 53//36 49//36 35//36 34//36
f 53//37 34//37 33//37 54//37
f 53//38 54//38 55//38 56//38
f 53//39 56//39 29//39 28//39
f 53//40 28//40 27//40 49//40
f 57//41 58//41 51//41 50//41
f 57//42 50//42 25//42 24//42
f 57//43 24//43 11//43 10//43
f 57//44 10//44 9//44 43//44
f 57//45 43//45 42//45 58//45
f 59//46 58//46 42//46 41//46
f 59//47 41//47 16//47 15//47
f 59//48 15//48 14//48 38//48
f 59//49 38//49 37//49 52//49
f 59//50 52//50 51//50 58//50
f 60//51 61//51 46//51 45//51
f 60//52 45//52 5//52 4//52
f 60//53 4//53 3//53 30//53
f 60//54 30//54 29//54 56//54
f 60//55 56//55 55//55 61//55
f 62//56 61//56 55//56 54//56
f 62//57 54//57 33//57 32//57
f 62//58 32//58 22//58 21//58
f 62//59 21//59 20//59 47//59
f 62//60 47//60 46//60 61//60
