o Joined Rhombicuboctahedron
v 0 0 0
v 0.5 0.5 -0.20710678118654768
v 0 1 -0.41421356237309515
v -0.5 0.5 -0.20710678118654768
v -1 0 -0.41421356237309515
v -0.5 -0.5 -0.20710678118654768
v 0 -1 -0.41421356237309515
v 0.5 -0.5 -0.20710678118654768
v 1 0 -0.41421356237309515
v 0 0 -2.8284271247461903
v 0.5 0.5 -2.6213203435596428
v 1 0 -2.4142135623730949
v 0.5 -0.5 -2.6213203435596428
v 0 -1 -2.4142135623730949
v -0.5 -0.5 -2.6213203435596428
v -1 0 -2.4142135623730949
v -0.5 0.5 -2.6213203435596428
v 0 1 -2.4142135623730949
v 1.4142135623730952 0 -1.4142135623730952
v 1.2071067811865475 0.5 -0.91421356237309515
v 1.2071067811865475 -0.5 -0.91421356237309515
v 1 -1 -1.4142135623730952
v 1.2071067811865475 -0.5 -1.9142135623730952
v 1.2071067811865475 0.5 -1.9142135623730952
v 1 1 -1.4142135623730952
v -1.4142135623730952 0 -1.4142135623730952
v -1.2071067811865475 0.5 -0.91421356237309515
v -1 1 -1.4142135623730952
v -1.2071067811865475 0.5 -1.9142135623730952
v -1.2071067811865475 -0.5 -1.9142135623730952
v -1 -1 -1.4142135623730952
v -1.2071067811865475 -0.5 -0.91421356237309515
v 0 1.4142135623730952 -1.4142135623730952
v 0.5 1.2071067811865475 -0.91421356237309515
v 0.5 1.2071067811865475 -1.9142135623730952
v -0.5 1.2071067811865475 -1.9142135623730952
v -0.5 1.2071067811865475 -0.91421356237309515
v 0 -1.4142135623730952 -1.4142135623730952
v 0.5 -1.2071067811865475 -0.91421356237309515
v -0.5 -1.2071067811865475 -0.91421356237309515
v -0.5 -1.2071067811865475 -1.9142135623730952
v 0.5 -1.2071067811865475 -1.9142135623730952
v 0.77345908033901356 0.77345908033901356 -0.64075448203408158
v 0.77345908033901356 0.77345908033901356 -2.1876726427121085
v 0.77345908033901356 -0.77345908033901356 -0.64075448203408158
v 0.77345908033901356 -0.77345908033901356 -2.1876726427121085
v -0.77345908033901356 0.77345908033901356 -0.64075448203408158
v -0.77345908033901356 0.77345908033901356 -2.1876726427121085
v -0.77345908033901356 -0.77345908033901356 -0.64075448203408158
v -0.77345908033901356 -0.77345908033901356 -2.1876726427121085
vn 1.1102230246251565E-16 0.20710678118654757 0.5
vn -0.20710678118654757 1.1102230246251565E-16 0.5
vn -1.1102230246251565E-16 -0.20710678118654757 0.5
vn 0.20710678118654757 -1.1102230246251565E-16 0.5
vn 0.20710678118654768 -2.2204460492503131E-16 -0.5
vn -2.2204460492503131E-16 -0.20710678118654768 -0.5
vn -0.20710678118654768 2.2204460492503131E-16 -0.5
vn 2.2204460492503131E-16 0.20710678118654768 -0.5
vn 0.5 1.1102230246251565E-16 0.20710678118654757
vn 0.5 -0.20710678118654757 1.1102230246251565E-16
vn 0.49999999999999989 -6.9388939039072284E-17 -0.20710678118654757
vn 0.5 0.20710678118654757 -1.1102230246251565E-16
vn -0.5 0.20710678118654757 1.1102230246251565E-16
vn -0.49999999999999989 6.9388939039072284E-17 -0.20710678118654757
vn -0.5 -0.20710678118654757 -1.1102230246251565E-16
vn -0.5 -1.1102230246251565E-16 0.20710678118654757
vn 0.20710678118654757 0.5 1.1102230246251565E-16
vn 6.9388939039072284E-17 0.49999999999999989 -0.20710678118654757
vn -0.20710678118654757 0.5 -1.1102230246251565E-16
vn -1.1102230246251565E-16 0.5 0.20710678118654757
vn 1.1102230246251565E-16 -0.5 0.20710678118654757
vn -0.20710678118654757 -0.5 1.1102230246251565E-16
vn -6.9388939039072284E-17 -0.49999999999999989 -0.20710678118654757
vn 0.20710678118654757 -0.5 -1.1102230246251565E-16
vn 0.27345908033901356 0.16018862050852037 0.27345908033901356
vn 0.27345908033901356 0.27345908033901356 0.16018862050852037
vn 0.16018862050852037 0.27345908033901356 0.27345908033901356
vn 0.16018862050852045 0.27345908033901389 -0.27345908033901356
vn 0.2734590803390135 0.27345908033901345 -0.16018862050852037
vn 0.27345908033901339 0.16018862050852034 -0.27345908033901356
vn 0.16018862050852037 -0.27345908033901356 0.27345908033901356
vn 0.27345908033901356 -0.27345908033901356 0.16018862050852037
vn 0.27345908033901356 -0.16018862050852037 0.27345908033901356
vn 0.27345908033901389 -0.16018862050852045 -0.27345908033901356
vn 0.27345908033901345 -0.2734590803390135 -0.16018862050852037
vn 0.16018862050852034 -0.27345908033901339 -0.27345908033901356
vn -0.16018862050852037 0.27345908033901356 0.27345908033901356
vn -0.27345908033901356 0.27345908033901356 0.16018862050852037
vn -0.27345908033901356 0.16018862050852037 0.27345908033901356
vn -0.27345908033901389 0.16018862050852045 -0.27345908033901356
vn -0.27345908033901345 0.2734590803390135 -0.16018862050852037
vn -0.16018862050852034 0.27345908033901339 -0.27345908033901356
vn -0.27345908033901356 -0.16018862050852037 0.27345908033901356
vn -0.27345908033901356 -0.27345908033901356 0.16018862050852037
vn -0.16018862050852037 -0.27345908033901356 0.27345908033901356
vn -0.16018862050852045 -0.27345908033901389 -0.27345908033901356
vn -0.2734590803390135 -0.27345908033901345 -0.16018862050852037
vn -0.27345908033901339 -0.16018862050852034 -0.27345908033901356
g Joined Rhombicuboctahedron
f 1//1 2//1 3//1 4//1
f 1//2 4//2 5//2 6//2
f 1//3 6//3 7//3 8//3
f 1//4 8//4 9//4 2//4
f 10//5 11//5 12//5 13//5
f 10//6 13//6 14//6 15//6
f 10//7 15//7 16//7 17//7
f 10//8 17//8 18//8 11//8
f 19//9 20//9 9//9 21//9
f 19//10 21//10 22//10 23//10
f 19//11 23//11 12//11 24//11
f 19//12 24//12 25//12 20//12
f 26//13 27//13 28//13 29//13
f 26//14 29//14 16//14 30//14
f 26//15 30//15 31//15 32//15
f 26//16 32//16 5//16 27//16
f 33//17 34//17 25//17 35//17
f 33//18 35//18 18//18 36//18
f 33//19 36//19 28//19 37//19
f 33//20 37//20 3//20 34//20
f 38//21 39//21 7//21 40//21
f 38//22 40//22 31//22 41//22
f 38//23 41//23 14//23 42//23
f 38//24 42//24 22//24 39//24
f 43//25 2//25 9//25 20//25
f 43//26 20//26 25//26 34//26
f 43//27 34//27 3//27 2//27
f 44//28 11//28 18//28 35//28
f 44//29 35//29 25//29 24//29
f 44//30 24//30 12//30 11//30
f 45//31 8//31 7//31 39//31
f 45//32 39//32 22//32 21//32
f 45//33 21//33 9//33 8//33
f 46//34 13//34 12//34 23//34
f 46//35 23//35 22//35 42//35
f 46//36 42//36 14//36 13//36
f 47//37 4//37 3//37 37//37
f 47//38 37//38 28//38 27//38
f 47//39 27//39 5//39 4//39
f 48//40 17//40 16//40 29//40
f 48//41 29//41 28//41 36//41
f 48//42 36//42 18//42 17//42
f 49//43 6//43 5//43 32//43
f 49//44 32//44 31//44 40//44
f 49//45 40//45 7//45 6//45
f 50//46 15//46 14//46 41//46
f 50//47 41//47 31//47 30//47
f 50//48 30//48 16//48 15//48
