o Joined Truncated Cube
v 0 0 0
v 0.20710678118654746 -0.5 0.20710678118654746
v 1.4142135623730949 -1 -1
v 0.20710678118654746 0.20710678118654746 -0.5
v -1 1.4142135623730949 -1
v -0.5 0.20710678118654746 0.20710678118654746
v -1 -1 1.4142135623730949
v 0 0 -2
v 0.20710678118654746 -0.5 -2.2071067811865475
v -1 -1 -3.4142135623730949
v -0.5 0.20710678118654746 -2.2071067811865475
v 0.20710678118654746 0.20710678118654746 -1.5
v 0 -2 0
v 0.20710678118654746 -1.5 0.20710678118654746
v -0.5 -2.2071067811865475 0.20710678118654746
v -1 -3.4142135623730949 -1
v 0.20710678118654746 -2.2071067811865475 -0.5
v 0 -2 -2
v 0.20710678118654746 -1.5 -2.2071067811865475
v 0.20710678118654746 -2.2071067811865475 -1.5
v -0.5 -2.2071067811865475 -2.2071067811865475
v -2 0 0
v -2.2071067811865475 -0.5 0.20710678118654746
v -1.5 0.20710678118654746 0.20710678118654746
v -2.2071067811865475 0.20710678118654746 -0.5
v -3.4142135623730949 -1 -1
v -2 0 -2
v -2.2071067811865475 -0.5 -2.2071067811865475
v -2.2071067811865475 0.20710678118654746 -1.5
v -1.5 0.20710678118654746 -2.2071067811865475
v -2 -2 0
v -2.2071067811865475 -1.5 0.20710678118654746
v -2.2071067811865475 -2.2071067811865475 -0.5
v -1.5 -2.2071067811865475 0.20710678118654746
v -2 -2 -2
v -2.2071067811865475 -1.5 -2.2071067811865475
v -1.5 -2.2071067811865475 -2.2071067811865475
v -2.2071067811865475 -2.2071067811865475 -1.5
vn 0.70710678118654746 0.49999999999999983 0.5
vn 0.5 0.70710678118654746 0.49999999999999983
vn 0.49999999999999983 0.5 0.70710678118654746
vn 0.5 0.49999999999999983 -0.70710678118654746
vn 0.49999999999999983 0.70710678118654746 -0.5
vn 0.70710678118654746 0.5 -0.49999999999999983
vn 0.5 -0.49999999999999983 0.70710678118654746
vn 0.49999999999999983 -0.70710678118654746 0.5
vn 0.70710678118654746 -0.5 0.49999999999999983
vn 0.70710678118654746 -0.49999999999999983 -0.5
vn 0.5 -0.70710678118654746 -0.49999999999999983
vn 0.49999999999999983 -0.5 -0.70710678118654746
vn -0.5 0.49999999999999983 0.70710678118654746
vn -0.49999999999999983 0.70710678118654746 0.5
vn -0.70710678118654746 0.5 0.49999999999999983
vn -0.70710678118654746 0.49999999999999983 -0.5
vn -0.5 0.70710678118654746 -0.49999999999999983
vn -0.49999999999999983 0.5 -0.70710678118654746
vn -0.70710678118654746 -0.49999999999999983 0.5
vn -0.5 -0.70710678118654746 0.49999999999999983
vn -0.49999999999999983 -0.5 0.70710678118654746
vn -0.5 -0.49999999999999983 -0.70710678118654746
vn -0.49999999999999983 -0.70710678118654746 -0.5
vn -0.70710678118654746 -0.5 -0.49999999999999983
vn 1.2071067811865475 0 1.2071067811865475
vn -1.2071067811865475 0 1.2071067811865475
vn 1.2071067811865475 0 -1.2071067811865475
vn -1.2071067811865475 0 -1.2071067811865475
vn 1.2071067811865475 1.2071067811865475 0
vn 1.2071067811865475 -1.2071067811865475 0
vn -1.2071067811865475 1.2071067811865475 0
vn -1.2071067811865475 -1.2071067811865475 0
vn 0 1.2071067811865475 1.2071067811865475
vn 0 1.2071067811865475 -1.2071067811865475
vn 0 -1.2071067811865475 1.2071067811865475
vn 0 -1.2071067811865475 -1.2071067811865475
g Joined Truncated Cube
f 1//1 2//1 3//1 4//1
f 1//2 4//2 5//2 6//2
f 1//3 6//3 7//3 2//3
f 8//4 9//4 10//4 11//4
f 8//5 11//5 5//5 12//5
f 8//6 12//6 3//6 9//6
f 13//7 14//7 7//7 15//7
f 13//8 15//8 16//8 17//8
f 13//9 17//9 3//9 14//9
f 18//10 19//10 3//10 20//10
f 18//11 20//11 16//11 21//11
f 18//12 21//12 10//12 19//12
f 22//13 23//13 7//13 24//13
f 22//14 24//14 5//14 25//14
f 22//15 25//15 26//15 23//15
f 27//16 28//16 26//16 29//16
f 27//17 29//17 5//17 30//17
f 27//18 30//18 10//18 28//18
f 31//19 32//19 26//19 33//19
f 31//20 33//20 16//20 34//20
f 31//21 34//21 7//21 32//21
f 35//22 36//22 10//22 37//22
f 35//23 37//23 16//23 38//23
f 35//24 38//24 26//24 36//24
f 7//25 14//25 3//25 2//25
f 7//26 23//26 26//26 32//26
f 10//27 9//27 3//27 19//27
f 10//28 36//28 26//28 28//28
f 3//29 12//29 5//29 4//29
f 3//30 17//30 16//30 20//30
f 26//31 25//31 5//31 29//31
f 26//32 38//32 16//32 33//32
f 5//33 24//33 7//33 6//33
f 5//34 11//34 10//34 30//34
f 16//35 15//35 7//35 34//35
f 16//36 37//36 10//36 21//36
