o Joined Truncated Octahedron
v 0 0 0
v 0 -0.70710678118654757 -0.17677669529663675
v 1.0606601717798212 -1.0606601717798212 -0.53033008588991071
v 0.70710678118654757 0 -0.17677669529663675
v 1.0606601717798212 1.0606601717798212 -0.53033008588991071
v 0 0.70710678118654757 -0.17677669529663675
v -1.0606601717798212 1.0606601717798212 -0.53033008588991071
v -0.70710678118654757 0 -0.17677669529663675
v -1.0606601717798212 -1.0606601717798212 -0.53033008588991071
v 0 0 -3.1819805153394638
v 0 0.70710678118654757 -3.0052038200428273
v 1.0606601717798212 1.0606601717798212 -2.6516504294495533
v 0.70710678118654757 0 -3.0052038200428273
v 1.0606601717798212 -1.0606601717798212 -2.6516504294495533
v 0 -0.70710678118654757 -3.0052038200428273
v -1.0606601717798212 -1.0606601717798212 -2.6516504294495533
v -0.70710678118654757 0 -3.0052038200428273
v -1.0606601717798212 1.0606601717798212 -2.6516504294495533
v 1.5909902576697319 0 -1.5909902576697319
v 1.4142135623730952 0 -2.2980970388562794
v 1.4142135623730952 0.70710678118654757 -1.5909902576697319
v 1.4142135623730952 0 -0.88388347648318433
v 1.4142135623730952 -0.70710678118654757 -1.5909902576697319
v -1.5909902576697319 0 -1.5909902576697319
v -1.4142135623730952 0 -0.88388347648318433
v -1.4142135623730952 0.70710678118654757 -1.5909902576697319
v -1.4142135623730952 0 -2.2980970388562794
v -1.4142135623730952 -0.70710678118654757 -1.5909902576697319
v 0 1.5909902576697319 -1.5909902576697319
v -0.70710678118654757 1.4142135623730952 -1.5909902576697319
v 0 1.4142135623730952 -0.88388347648318433
v 0.70710678118654757 1.4142135623730952 -1.5909902576697319
v 0 1.4142135623730952 -2.2980970388562794
v 0 -1.5909902576697319 -1.5909902576697319
v 0.70710678118654757 -1.4142135623730952 -1.5909902576697319
v 0 -1.4142135623730952 -0.88388347648318433
v -0.70710678118654757 -1.4142135623730952 -1.5909902576697319
v 0 -1.4142135623730952 -2.2980970388562794
vn 0.18750000000000022 -0.18749999999999986 0.75
vn 0.18749999999999986 0.18750000000000022 0.75
vn -0.18750000000000022 0.18749999999999986 0.75
vn -0.18749999999999986 -0.18750000000000022 0.75
vn 0.18750000000000031 0.18749999999999961 -0.75
vn 0.18749999999999961 -0.18750000000000031 -0.75
vn -0.18750000000000031 -0.18749999999999961 -0.75
vn -0.18749999999999961 0.18750000000000031 -0.75
vn 0.74999999999999989 0.18750000000000011 -0.18749999999999986
vn 0.75 0.18749999999999986 0.18750000000000022
vn 0.75 -0.18750000000000022 0.18749999999999986
vn 0.75000000000000011 -0.18749999999999989 -0.18750000000000022
vn -0.75 0.18750000000000022 0.18749999999999986
vn -0.75000000000000011 0.18749999999999989 -0.18750000000000022
vn -0.74999999999999989 -0.18750000000000011 -0.18749999999999986
vn -0.75 -0.18749999999999986 0.18750000000000022
vn -0.18749999999999986 0.75 0.18750000000000022
vn 0.18750000000000022 0.75 0.18749999999999986
vn 0.18749999999999989 0.75000000000000011 -0.18750000000000022
vn -0.18750000000000011 0.74999999999999989 -0.18749999999999986
vn 0.18749999999999986 -0.75 0.18750000000000022
vn -0.18750000000000022 -0.75 0.18749999999999986
vn -0.18749999999999989 -0.75000000000000011 -0.18750000000000022
vn 0.18750000000000011 -0.74999999999999989 -0.18749999999999986
vn 0.75 -2.3592239273284576E-16 0.75
vn 0.75000000000000033 1.1102230246251565E-16 -0.75
vn -0.75 2.3592239273284576E-16 0.75
vn -0.75000000000000033 -1.1102230246251565E-16 -0.75
vn 0.75000000000000011 0.75000000000000011 -2.3592239273284576E-16
vn 0.75 -0.75 2.3592239273284576E-16
vn -0.75 0.75 2.3592239273284576E-16
vn -0.75000000000000011 -0.75000000000000011 -2.3592239273284576E-16
vn -2.3592239273284576E-16 0.75 0.75
vn 1.1102230246251565E-16 0.75000000000000033 -0.75
vn 2.3592239273284576E-16 -0.75 0.75
vn -1.1102230246251565E-16 -0.75000000000000033 -0.75
g Joined Truncated Octahedron
f 1//1 2//1 3//1 4//1
f 1//2 4//2 5//2 6//2
f 1//3 6//3 7//3 8//3
f 1//4 8//4 9//4 2//4
f 10//5 11//5 12//5 13//5
f 10//6 13//6 14//6 15//6
f 10//7 15//7 16//7 17//7
f 10//8 17//8 18//8 11//8
f 19//9 20//9 12//9 21//9
f 19//10 21//10 5//10 22//10
f 19//11 22//11 3//11 23//11
f 19//12 23//12 14//12 20//12
f 24//13 25//13 7//13 26//13
f 24//14 26//14 18//14 27//14
f 24//15 27//15 16//15 28//15
f 24//16 28//16 9//16 25//16
f 29//17 30//17 7//17 31//17
f 29//18 31//18 5//18 32//18
f 29//19 32//19 12//19 33//19
f 29//20 33//20 18//20 30//20
f 34//21 35//21 3//21 36//21
f 34//22 36//22 9//22 37//22
f 34//23 37//23 16//23 38//23
f 34//24 38//24 14//24 35//24
f 4//25 3//25 22//25 5//25
f 13//26 12//26 20//26 14//26
f 8//27 7//27 25//27 9//27
f 17//28 16//28 27//28 18//28
f 21//29 12//29 32//29 5//29
f 23//30 3//30 35//30 14//30
f 26//31 7//31 30//31 18//31
f 28//32 16//32 37//32 9//32
f 31//33 7//33 6//33 5//33
f 33//34 12//34 11//34 18//34
f 36//35 3//35 2//35 9//35
f 38//36 16//36 15//36 14//36
