o Joined Snub Cube (laevo)
v 0 0 0
v 0.62122641055658534 0.33775397381375233 -0.21879664300048041
v 0.21879664300048043 0.74018374136985721 -0.33775397381375227
v -0.33775397381375233 0.62122641055658534 -0.21879664300048041
v -0.74018374136985721 0.21879664300048043 -0.33775397381375227
v -0.62122641055658534 -0.33775397381375233 -0.21879664300048041
v -0.21879664300048043 -0.74018374136985721 -0.33775397381375227
v 0.33775397381375233 -0.62122641055658534 -0.21879664300048041
v 0.74018374136985721 -0.21879664300048043 -0.33775397381375227
v 0 0 -2.7228203038528851
v 0.62122641055658534 -0.33775397381375233 -2.5040236608524049
v 0.21879664300048043 -0.74018374136985721 -2.385066330039133
v -0.33775397381375233 -0.62122641055658534 -2.5040236608524049
v -0.74018374136985721 -0.21879664300048043 -2.385066330039133
v -0.62122641055658534 0.33775397381375233 -2.5040236608524049
v -0.21879664300048043 0.74018374136985721 -2.385066330039133
v 0.33775397381375233 0.62122641055658534 -2.5040236608524049
v 0.74018374136985721 0.21879664300048043 -2.385066330039133
v 1.3614101519264426 0 -1.3614101519264426
v 1.1426135089259621 0.62122641055658534 -1.0236561781126903
v 1.0236561781126903 0.21879664300048043 -0.62122641055658534
v 1.1426135089259621 -0.33775397381375233 -0.74018374136985721
v 1.0236561781126903 -0.74018374136985721 -1.1426135089259621
v 1.1426135089259621 -0.62122641055658534 -1.6991641257401948
v 1.0236561781126903 -0.21879664300048043 -2.1015938932963
v 1.1426135089259621 0.33775397381375233 -1.982636562483028
v 1.0236561781126903 0.74018374136985721 -1.580206794926923
v -1.3614101519264426 0 -1.3614101519264426
v -1.1426135089259621 -0.62122641055658534 -1.0236561781126903
v -1.0236561781126903 -0.21879664300048043 -0.62122641055658534
v -1.1426135089259621 0.33775397381375233 -0.74018374136985721
v -1.0236561781126903 0.74018374136985721 -1.1426135089259621
v -1.1426135089259621 0.62122641055658534 -1.6991641257401948
v -1.0236561781126903 0.21879664300048043 -2.1015938932963
v -1.1426135089259621 -0.33775397381375233 -1.982636562483028
v -1.0236561781126903 -0.74018374136985721 -1.580206794926923
v 0 1.3614101519264426 -1.3614101519264426
v 0.33775397381375233 1.1426135089259621 -0.74018374136985721
v 0.74018374136985721 1.0236561781126903 -1.1426135089259621
v 0.62122641055658534 1.1426135089259621 -1.6991641257401948
v 0.21879664300048043 1.0236561781126903 -2.1015938932963
v -0.33775397381375233 1.1426135089259621 -1.982636562483028
v -0.74018374136985721 1.0236561781126903 -1.580206794926923
v -0.62122641055658534 1.1426135089259621 -1.0236561781126903
v -0.21879664300048043 1.0236561781126903 -0.62122641055658534
v 0 -1.3614101519264426 -1.3614101519264426
v 0.33775397381375233 -1.1426135089259621 -1.982636562483028
v 0.74018374136985721 -1.0236561781126903 -1.580206794926923
v 0.62122641055658534 -1.1426135089259621 -1.0236561781126903
v 0.21879664300048043 -1.0236561781126903 -0.62122641055658534
v -0.33775397381375233 -1.1426135089259621 -0.74018374136985721
v -0.74018374136985721 -1.0236561781126903 -1.1426135089259621
v -0.62122641055658534 -1.1426135089259621 -1.6991641257401948
v -0.21879664300048043 -1.0236561781126903 -2.1015938932963
v 0.74018374136985721 0.74018374136985721 -0.62122641055658534
v 0.74018374136985721 0.74018374136985721 -2.1015938932963
v 0.74018374136985721 -0.74018374136985721 -0.62122641055658534
v 0.74018374136985721 -0.74018374136985721 -2.1015938932963
v -0.74018374136985721 0.74018374136985721 -0.62122641055658534
v -0.74018374136985721 0.74018374136985721 -2.1015938932963
v -0.74018374136985721 -0.74018374136985721 -0.62122641055658534
v -0.74018374136985721 -0.74018374136985721 -2.1015938932963
vn 0.0478719709882797 0.16194971781526057 0.38592225317301909
vn -0.16194971781526057 0.0478719709882797 0.38592225317301909
vn -0.0478719709882797 -0.16194971781526057 0.38592225317301909
vn 0.16194971781526057 -0.0478719709882797 0.38592225317301909
vn 0.047871970988279604 -0.16194971781526046 -0.38592225317301909
vn -0.16194971781526046 -0.047871970988279604 -0.38592225317301909
vn -0.047871970988279604 0.16194971781526046 -0.38592225317301909
vn 0.16194971781526046 0.047871970988279604 -0.38592225317301909
vn 0.38592225317301915 0.047871970988279708 0.16194971781526057
vn 0.38592225317301909 -0.16194971781526057 0.0478719709882797
vn 0.3859222531730192 -0.047871970988279736 -0.16194971781526057
vn 0.3859222531730192 0.1619497178152606 -0.0478719709882797
vn -0.38592225317301915 -0.047871970988279708 0.16194971781526057
vn -0.38592225317301909 0.16194971781526057 0.0478719709882797
vn -0.3859222531730192 0.047871970988279736 -0.16194971781526057
vn -0.3859222531730192 -0.1619497178152606 -0.0478719709882797
vn 0.16194971781526057 0.38592225317301909 0.0478719709882797
vn 0.047871970988279736 0.3859222531730192 -0.16194971781526057
vn -0.1619497178152606 0.3859222531730192 -0.0478719709882797
vn -0.047871970988279708 0.38592225317301915 0.16194971781526057
vn 0.1619497178152606 -0.3859222531730192 -0.0478719709882797
vn 0.047871970988279708 -0.38592225317301915 0.16194971781526057
vn -0.16194971781526057 -0.38592225317301909 0.0478719709882797
vn -0.047871970988279736 -0.3859222531730192 -0.16194971781526057
vn 0.20982168880354032 0.11407774682698099 0.17610056436947882
vn 0.17610056436947885 0.20982168880354032 0.11407774682698099
vn 0.11407774682698099 0.17610056436947882 0.20982168880354032
vn 0.11407774682698099 0.20982168880354035 -0.17610056436947882
vn 0.20982168880354035 0.17610056436947888 -0.11407774682698099
vn 0.17610056436947885 0.11407774682698102 -0.20982168880354032
vn 0.11407774682698099 -0.20982168880354032 0.17610056436947882
vn 0.20982168880354032 -0.17610056436947885 0.11407774682698099
vn 0.17610056436947882 -0.11407774682698099 0.20982168880354032
vn 0.20982168880354035 -0.11407774682698099 -0.17610056436947882
vn 0.17610056436947888 -0.20982168880354035 -0.11407774682698099
vn 0.11407774682698102 -0.17610056436947885 -0.20982168880354032
vn -0.11407774682698099 0.20982168880354032 0.17610056436947882
vn -0.20982168880354032 0.17610056436947885 0.11407774682698099
vn -0.17610056436947882 0.11407774682698099 0.20982168880354032
vn -0.20982168880354035 0.11407774682698099 -0.17610056436947882
vn -0.17610056436947888 0.20982168880354035 -0.11407774682698099
vn -0.11407774682698102 0.17610056436947885 -0.20982168880354032
vn -0.20982168880354032 -0.11407774682698099 0.17610056436947882
vn -0.17610056436947885 -0.20982168880354032 0.11407774682698099
vn -0.11407774682698099 -0.17610056436947882 0.20982168880354032
vn -0.11407774682698099 -0.20982168880354035 -0.17610056436947882
vn -0.20982168880354035 -0.17610056436947888 -0.11407774682698099
vn -0.17610056436947885 -0.11407774682698102 -0.20982168880354032
vn 0.20982168880354032 0 0.20982168880354032
vn 0.20982168880354041 -1.3877787807814457E-17 -0.20982168880354032
vn -0.20982168880354032 0 0.20982168880354032
vn -0.20982168880354041 1.3877787807814457E-17 -0.20982168880354032
vn 0.2098216888035403 0.2098216888035403 0
vn 0.2098216888035403 -0.2098216888035403 0
vn -0.2098216888035403 -0.2098216888035403 0
vn -0.2098216888035403 0.2098216888035403 0
vn 0 0.20982168880354032 0.20982168880354032
vn -1.3877787807814457E-17 -0.20982168880354041 -0.20982168880354032
vn 0 -0.20982168880354032 0.20982168880354032
vn 1.3877787807814457E-17 0.20982168880354041 -0.20982168880354032
g Joined Snub Cube (laevo)
f 1//1 2//1 3//1 4//1
f 1//2 4//2 5//2 6//2
f 1//3 6//3 7//3 8//3
f 1//4 8//4 9//4 2//4
f 10//5 11//5 12//5 13//5
f 10//6 13//6 14//6 15//6
f 10//7 15//7 16//7 17//7
f 10//8 17//8 18//8 11//8
f 19//9 20//9 21//9 22//9
f 19//10 22//10 23//10 24//10
f 19//11 24//11 25//11 26//11
f 19//12 26//12 27//12 20//12
f 28//13 29//13 30//13 31//13
f 28//14 31//14 32//14 33//14
f 28//15 33//15 34//15 35//15
f 28//16 35//16 36//16 29//16
f 37//17 38//17 39//17 40//17
f 37//18 40//18 41//18 42//18
f 37//19 42//19 43//19 44//19
f 37//20 44//20 45//20 38//20
f 46//21 47//21 48//21 49//21
f 46//22 49//22 50//22 51//22
f 46//23 51//23 52//23 53//23
f 46//24 53//24 54//24 47//24
f 55//25 2//25 21//25 20//25
f 55//26 20//26 39//26 38//26
f 55//27 38//27 3//27 2//27
f 56//28 17//28 41//28 40//28
f 56//29 40//29 27//29 26//29
f 56//30 26//30 18//30 17//30
f 57//31 8//31 50//31 49//31
f 57//32 49//32 23//32 22//32
f 57//33 22//33 9//33 8//33
f 58//34 11//34 25//34 24//34
f 58//35 24//35 48//35 47//35
f 58//36 47//36 12//36 11//36
f 59//37 4//37 45//37 44//37
f 59//38 44//38 32//38 31//38
f 59//39 31//39 5//39 4//39
f 60//40 15//40 34//40 33//40
f 60//41 33//41 43//41 42//41
f 60//42 42//42 16//42 15//42
f 61//43 6//43 30//43 29//43
f 61//44 29//44 52//44 51//44
f 61//45 51//45 7//45 6//45
f 62//46 13//46 54//46 53//46
f 62//47 53//47 36//47 35//47
f 62//48 35//48 14//48 13//48
f 2//49 9//49 22//49 21//49
f 11//50 18//50 26//50 25//50
f 6//51 5//51 31//51 30//51
f 15//52 14//52 35//52 34//52
f 20//53 27//53 40//53 39//53
f 24//54 23//54 49//54 48//54
f 29//55 36//55 53//55 52//55
f 33//56 32//56 44//56 43//56
f 38//57 45//57 4//57 3//57
f 47//58 54//58 13//58 12//58
f 51//59 50//59 8//59 7//59
f 42//60 41//60 17//60 16//60
