o Snub Dodecahedron (laevo)
v 0 0 0
v 0.72833517695719152 -0.51662902205921646 -0.45013589456171332
v 1.3713647828712641 0.13802731337748522 -0.84755004678906065
v 1.0404437581414199 1.0592562016870357 -0.64302960591407232
v 0.19289371135235905 0.97395063064391674 -0.11921486983186913
v 0 0.6618420494596885 -4.1941076705041755
v 0.72833517695719152 1.1784710715189051 -3.7439717759424624
v 1.3713647828712641 0.5238147360822033 -3.3465576237151149
v 1.0404437581414199 -0.39741415222734727 -3.5510780645901034
v 0.19289371135235905 -0.3121085811842283 -4.0748928006723064
v -0.74964331622912461 0.6618420494596885 0
v -1.477978493186316 1.1784710715189051 -0.45013589456171332
v -2.1210080991003886 0.5238147360822033 -0.84755004678906065
v -1.7900870743705444 -0.39741415222734727 -0.64302960591407232
v -0.94253702758148372 -0.3121085811842283 -0.11921486983186913
v -0.74964331622912461 0 -4.1941076705041755
v -1.477978493186316 -0.51662902205921646 -3.7439717759424624
v -2.1210080991003886 0.13802731337748522 -3.3465576237151149
v -1.7900870743705444 1.0592562016870357 -3.5510780645901034
v -0.94253702758148372 0.97395063064391674 -4.0748928006723064
v 1.7222321771375255 -0.043900633384718057 -1.7661328105222436
v 1.2720962825758122 -0.77223581034190958 -1.2495037884630271
v 0.87468213034846487 -1.4152654162559821 -1.9041601238997288
v 1.0792025712234532 -1.0843443915261379 -2.8253890122092793
v 1.6030173073056564 -0.23679434473707711 -2.7400834411661603
v 1.7222321771375255 0.70574268284440655 -2.4279748599819322
v 1.2720962825758122 1.434077859801598 -2.9446038820411484
v 0.87468213034846487 2.0771074657156707 -2.2899475466044468
v 1.0792025712234532 1.7461864409858263 -1.3687186582948963
v 1.6030173073056564 0.89863639419676566 -1.4540242293380152
v -2.47187549336665 0.70574268284440655 -1.7661328105222436
v -2.0217395988049369 1.434077859801598 -1.2495037884630271
v -1.6243254465775894 2.0771074657156707 -1.9041601238997288
v -1.8288458874525777 1.7461864409858263 -2.8253890122092793
v -2.3526606235347809 0.89863639419676566 -2.7400834411661603
v -2.47187549336665 -0.043900633384718057 -2.4279748599819322
v -2.0217395988049369 -0.77223581034190958 -2.9446038820411484
v -1.6243254465775894 -1.4152654162559821 -2.2899475466044468
v -1.8288458874525777 -1.0843443915261379 -1.3687186582948963
v -2.3526606235347809 -0.23679434473707711 -1.4540242293380152
v -0.043900633384718057 -1.7661328105222436 -1.7222321771375255
v 0.47272838867449846 -1.3159969159605303 -0.993897000180334
v -0.18192794676220328 -0.91858276373318293 -0.35086739426626146
v -1.1031568350717538 -1.1231032046081713 -0.68178841899610565
v -1.0178512640286348 -1.6469179406903745 -1.5293384657851665
v -0.043900633384718057 2.4279748599819322 -2.47187549336665
v 0.47272838867449846 1.9778389654202186 -3.2002106703238415
v -0.18192794676220328 1.5804248131928713 -3.8432402762379141
v -1.1031568350717538 1.7849452540678596 -3.51231925150807
v -1.0178512640286348 2.3087599901500631 -2.664769204719009
v -0.70574268284440655 2.4279748599819322 -1.7222321771375255
v -1.2223717049036231 1.9778389654202186 -0.993897000180334
v -0.56771536946692136 1.5804248131928713 -0.35086739426626146
v 0.35351351884262922 1.7849452540678596 -0.68178841899610565
v 0.26820794779951024 2.3087599901500631 -1.5293384657851665
v -0.70574268284440655 -1.7661328105222436 -2.47187549336665
v -1.2223717049036231 -1.3159969159605303 -3.2002106703238415
v -0.56771536946692136 -0.91858276373318293 -3.8432402762379141
v 0.35351351884262922 -1.1231032046081713 -3.51231925150807
v 0.26820794779951024 -1.6469179406903745 -2.664769204719009
vn 0.49999999999999978 2.7755575615628914E-16 0.80901699437494723
vn 0.49999999999999983 -5.5511151231257827E-16 -0.80901699437494745
vn -0.49999999999999989 -2.2204460492503131E-16 0.80901699437494734
vn -0.49999999999999978 4.9960036108132044E-16 -0.80901699437494723
vn 0.80901699437494723 -0.49999999999999978 -2.7755575615628914E-16
vn 0.80901699437494723 0.49999999999999972 1.1102230246251565E-16
vn -0.80901699437494723 0.49999999999999978 -3.8857805861880479E-16
vn -0.80901699437494723 -0.49999999999999967 5.5511151231257827E-16
vn -2.7755575615628914E-16 -0.80901699437494734 0.49999999999999989
vn -1.1102230246251565E-16 0.80901699437494734 -0.5
vn 1.1102230246251565E-16 0.80901699437494745 0.5
vn 2.7755575615628914E-16 -0.80901699437494745 -0.49999999999999989
vn -0.078901413775594259 -0.0893686303645858 0.85778074984868391
vn -0.078901413775594259 0.0893686303645858 -0.85778074984868391
vn 0.078901413775594259 0.0893686303645858 0.85778074984868391
vn 0.078901413775594259 -0.0893686303645858 -0.85778074984868391
vn 0.85778074984868424 0.078901413775594273 0.0893686303645858
vn 0.85778074984868391 -0.078901413775594273 -0.0893686303645858
vn -0.85778074984868413 -0.078901413775594273 0.0893686303645858
vn -0.857780749848684 0.078901413775594273 -0.0893686303645858
vn 0.089368630364585783 -0.8577807498486838 -0.078901413775594259
vn 0.089368630364585783 0.8577807498486838 0.078901413775594259
vn -0.089368630364585783 0.8577807498486838 -0.078901413775594259
vn -0.089368630364585783 -0.8577807498486838 0.078901413775594259
vn 0.37682027676768909 0.39267421584634649 0.6736567666298463
vn 0.37682027676768892 -0.39267421584634632 -0.6736567666298463
vn -0.37682027676768909 -0.39267421584634649 0.67365676662984619
vn -0.37682027676768892 0.39267421584634632 -0.67365676662984619
vn 0.67365676662984619 0.37682027676768909 0.39267421584634649
vn 0.67365676662984653 -0.3768202767676892 -0.39267421584634649
vn -0.6736567666298463 -0.37682027676768909 0.39267421584634649
vn -0.6736567666298463 0.3768202767676892 -0.39267421584634649
vn 0.39267421584634665 0.6736567666298463 0.3768202767676892
vn 0.3926742158463466 -0.67365676662984653 -0.37682027676768909
vn -0.39267421584634649 -0.6736567666298463 0.37682027676768909
vn -0.39267421584634676 0.67365676662984653 -0.3768202767676892
vn 0.29791886299209475 -0.52033938509567745 0.62489301115610985
vn 0.29791886299209458 0.52033938509567756 -0.62489301115610973
vn -0.29791886299209464 0.52033938509567734 0.62489301115610962
vn -0.29791886299209469 -0.52033938509567745 -0.62489301115610973
vn 0.62489301115610973 -0.29791886299209475 0.52033938509567745
vn 0.62489301115611 0.29791886299209475 -0.52033938509567734
vn -0.62489301115610973 0.29791886299209469 0.52033938509567745
vn -0.62489301115611 -0.29791886299209469 -0.52033938509567756
vn 0.52033938509567745 -0.62489301115610973 0.29791886299209475
vn 0.52033938509567745 0.62489301115610973 -0.29791886299209497
vn -0.52033938509567745 0.62489301115610985 0.29791886299209486
vn -0.52033938509567745 -0.62489301115610985 -0.29791886299209464
vn 0.23221879530976305 -0.33744136475300635 0.76302539699443206
vn 0.2322187953097628 0.33744136475300629 -0.76302539699443206
vn -0.23221879530976297 0.33744136475300629 0.763025396994432
vn -0.23221879530976283 -0.33744136475300623 -0.76302539699443206
vn 0.76302539699443206 -0.23221879530976305 0.33744136475300635
vn 0.76302539699443184 0.23221879530976303 -0.33744136475300629
vn -0.76302539699443206 0.23221879530976283 0.33744136475300623
vn -0.763025396994432 -0.23221879530976286 -0.33744136475300629
vn 0.33744136475300635 -0.76302539699443206 0.23221879530976305
vn 0.33744136475300635 0.76302539699443206 -0.23221879530976328
vn -0.33744136475300635 0.76302539699443206 0.23221879530976319
vn -0.33744136475300635 -0.76302539699443206 -0.23221879530976297
vn 0.71426164152069571 0.15331738153416871 0.46510653400233737
vn 0.71426164152069593 -0.15331738153416866 -0.46510653400233737
vn -0.71426164152069571 -0.15331738153416871 0.46510653400233737
vn -0.71426164152069593 0.15331738153416866 -0.46510653400233737
vn 0.46510653400233748 0.71426164152069571 0.15331738153416885
vn 0.46510653400233737 -0.71426164152069571 -0.15331738153416871
vn -0.46510653400233737 -0.71426164152069571 0.15331738153416871
vn -0.46510653400233748 0.71426164152069571 -0.15331738153416885
vn 0.15331738153416871 0.46510653400233737 0.71426164152069571
vn 0.15331738153416857 -0.46510653400233726 -0.71426164152069571
vn -0.15331738153416871 -0.46510653400233737 0.71426164152069571
vn -0.15331738153416857 0.46510653400233726 -0.71426164152069571
vn 1.1102230246251565E-16 -0.30901699437494728 0.80901699437494745
vn 9.71445146547012E-17 0.30901699437494728 -0.80901699437494734
vn -9.71445146547012E-17 0.30901699437494728 0.80901699437494745
vn -1.1102230246251565E-16 -0.30901699437494728 -0.80901699437494745
vn 0.80901699437494745 -1.2490009027033011E-16 0.30901699437494728
vn 0.80901699437494734 8.3266726846886741E-17 -0.30901699437494728
vn -0.80901699437494745 1.2490009027033011E-16 0.30901699437494728
vn -0.80901699437494734 -8.3266726846886741E-17 -0.30901699437494728
vn 0.30901699437494723 -0.80901699437494723 1.1102230246251565E-16
vn 0.30901699437494723 0.80901699437494723 -1.1102230246251565E-16
vn -0.30901699437494723 0.80901699437494723 9.71445146547012E-17
vn -0.30901699437494723 -0.80901699437494723 -9.71445146547012E-17
vn 0.50000000000000022 -0.50000000000000011 0.50000000000000022
vn 0.50000000000000022 0.50000000000000033 -0.5
vn -0.50000000000000011 0.50000000000000011 0.50000000000000011
vn -0.50000000000000033 -0.50000000000000022 -0.50000000000000033
vn 0.5 0.49999999999999994 0.5
vn 0.50000000000000011 -0.50000000000000022 -0.5
vn -0.5 -0.49999999999999994 0.5
vn -0.50000000000000011 0.50000000000000022 -0.5
g Snub Dodecahedron (laevo)
f 1//1 2//1 3//1 4//1 5//1
f 6//2 7//2 8//2 9//2 10//2
f 11//3 12//3 13//3 14//3 15//3
f 16//4 17//4 18//4 19//4 20//4
f 21//5 22//5 23//5 24//5 25//5
f 26//6 27//6 28//6 29//6 30//6
f 31//7 32//7 33//7 34//7 35//7
f 36//8 37//8 38//8 39//8 40//8
f 41//9 42//9 43//9 44//9 45//9
f 46//10 47//10 48//10 49//10 50//10
f 51//11 52//11 53//11 54//11 55//11
f 56//12 57//12 58//12 59//12 60//12
f 1//13 11//13 15//13
f 6//14 16//14 20//14
f 11//15 1//15 5//15
f 16//16 6//16 10//16
f 21//17 26//17 30//17
f 26//18 21//18 25//18
f 31//19 36//19 40//19
f 36//20 31//20 35//20
f 41//21 56//21 60//21
f 46//22 51//22 55//22
f 51//23 46//23 50//23
f 56//24 41//24 45//24
f 5//25 4//25 54//25
f 10//26 9//26 59//26
f 15//27 14//27 44//27
f 20//28 19//28 49//28
f 30//29 29//29 4//29
f 25//30 24//30 9//30
f 40//31 39//31 14//31
f 35//32 34//32 19//32
f 55//33 54//33 29//33
f 60//34 59//34 24//34
f 45//35 44//35 39//35
f 50//36 49//36 34//36
f 43//37 42//37 2//37
f 48//38 47//38 7//38
f 53//39 52//39 12//39
f 58//40 57//40 17//40
f 3//41 2//41 22//41
f 8//42 7//42 27//42
f 13//43 12//43 32//43
f 18//44 17//44 37//44
f 23//45 22//45 42//45
f 28//46 27//46 47//46
f 33//47 32//47 52//47
f 38//48 37//48 57//48
f 2//49 1//49 43//49
f 7//50 6//50 48//50
f 12//51 11//51 53//51
f 17//52 16//52 58//52
f 22//53 21//53 3//53
f 27//54 26//54 8//54
f 32//55 31//55 13//55
f 37//56 36//56 18//56
f 42//57 41//57 23//57
f 47//58 46//58 28//58
f 52//59 51//59 33//59
f 57//60 56//60 38//60
f 4//61 3//61 30//61
f 9//62 8//62 25//62
f 14//63 13//63 40//63
f 19//64 18//64 35//64
f 29//65 28//65 55//65
f 24//66 23//66 60//66
f 39//67 38//67 45//67
f 34//68 33//68 50//68
f 54//69 53//69 5//69
f 59//70 58//70 10//70
f 44//71 43//71 15//71
f 49//72 48//72 20//72
f 43//73 1//73 15//73
f 48//74 6//74 20//74
f 53//75 11//75 5//75
f 58//76 16//76 10//76
f 3//77 21//77 30//77
f 8//78 26//78 25//78
f 13//79 31//79 40//79
f 18//80 36//80 35//80
f 23//81 41//81 60//81
f 28//82 46//82 55//82
f 33//83 51//83 50//83
f 38//84 56//84 45//84
f 2//85 42//85 22//85
f 7//86 47//86 27//86
f 12//87 52//87 32//87
f 17//88 57//88 37//88
f 4//89 29//89 54//89
f 9//90 24//90 59//90
f 14//91 39//91 44//91
f 19//92 34//92 49//92
