o Orthotruncated Propello Octahedron
v 0 0 0
v 0.21600412368383426 -0.3120608305430243 -0.52806495422685851
v 0.38898529608713472 0.090791825650937269 -0.72108028078690889
v 0.38898529608713472 0.38107245104316179 -0.61885677987779586
v 0.21600412368383426 0.57408777760321217 -0.21600412368383426
v -0.3120608305430243 0.88614860814623642 0
v -0.50507615710307463 0.48329595195227493 0.17298117240330047
v -0.4028526561939616 0.19301532656005035 0.17298117240330047
v -0.69313328158618615 0.090791825650937269 0.17298117240330047
v -0.88614860814623642 -0.3120608305430243 0
v -0.3120608305430243 -0.52806495422685851 -0.21600412368383426
v 0 0.57408777760321217 -1.6302176860569293
v 0.21600412368383426 0.88614860814623642 -1.1021527318300708
v 0.38898529608713472 0.48329595195227493 -0.9091374052700204
v 0.38898529608713472 0.19301532656005035 -1.0113609061791336
v 0.21600412368383426 0 -1.4142135623730949
v -0.3120608305430243 -0.3120608305430243 -1.6302176860569293
v -0.50507615710307463 0.090791825650937269 -1.8031988584602297
v -0.4028526561939616 0.38107245104316179 -1.8031988584602297
v -0.69313328158618615 0.48329595195227493 -1.8031988584602297
v -0.88614860814623642 0.88614860814623642 -1.6302176860569293
v -0.3120608305430243 1.1021527318300708 -1.4142135623730949
v -1.1982094386892608 0.57408777760321217 0
v -1.4142135623730949 0.88614860814623642 -0.52806495422685851
v -1.5871947347763955 0.48329595195227493 -0.72108028078690889
v -1.5871947347763955 0.19301532656005035 -0.61885677987779586
v -1.4142135623730949 0 -0.21600412368383426
v -0.79535678249529917 0.38107245104316179 0.17298117240330047
v -0.88614860814623642 1.1021527318300708 -0.21600412368383426
v -1.1982094386892608 0 -1.6302176860569293
v -1.4142135623730949 -0.3120608305430243 -1.1021527318300708
v -1.5871947347763955 0.090791825650937269 -0.9091374052700204
v -1.5871947347763955 0.38107245104316179 -1.0113609061791336
v -1.4142135623730949 0.57408777760321217 -1.4142135623730949
v -0.79535678249529917 0.19301532656005035 -1.8031988584602297
v -0.88614860814623642 -0.52806495422685851 -1.4142135623730949
v 0 1.1021527318300708 -0.52806495422685851
v -0.50507615710307463 1.2751339042333711 -1.0113609061791336
v -0.4028526561939616 1.2751339042333711 -0.72108028078690889
v -0.69313328158618615 1.2751339042333711 -0.61885677987779586
v 0 -0.52806495422685851 -1.1021527318300708
v -0.50507615710307463 -0.70104612663015908 -0.61885677987779586
v -0.4028526561939616 -0.70104612663015908 -0.9091374052700204
v -0.69313328158618615 -0.70104612663015908 -1.0113609061791336
v -1.1982094386892608 -0.52806495422685851 -0.52806495422685851
v -0.79535678249529917 -0.70104612663015908 -0.72108028078690889
v -1.1982094386892608 1.1021527318300708 -1.1021527318300708
v -0.79535678249529917 1.2751339042333711 -0.9091374052700204
vn 0.27296489256709511 -0.049653188416104395 0.14099848330336165
vn 0.19141175355627724 0.067406426237495445 0.37056206223973465
vn 0.017682741034428233 -0.050213082906310276 0.097209618570817918
vn 0.272964892567095 0.049653188416104395 -0.14099848330336162
vn 0.19141175355627735 -0.067406426237495487 -0.37056206223973465
vn 0.017682741034428229 0.050213082906310241 -0.097209618570817946
vn -0.272964892567095 0.049653188416104471 0.14099848330336162
vn -0.19141175355627724 -0.067406426237495473 0.37056206223973459
vn -0.017682741034428243 0.050213082906310276 0.097209618570817946
vn -0.27296489256709511 -0.049653188416104471 -0.14099848330336165
vn -0.19141175355627732 0.067406426237495515 -0.37056206223973459
vn -0.017682741034428223 -0.050213082906310241 -0.097209618570817918
vn 0.27296489256709511 0.14099848330336165 0.049653188416104423
vn 0.19141175355627732 0.37056206223973465 -0.067406426237495487
vn 0.017682741034428212 0.0972096185708179 0.050213082906310241
vn 0.27296489256709494 -0.14099848330336159 -0.0496531884161044
vn 0.19141175355627721 -0.37056206223973465 0.067406426237495431
vn 0.017682741034428254 -0.097209618570817946 -0.050213082906310304
vn -0.27296489256709505 -0.14099848330336162 0.049653188416104478
vn -0.19141175355627718 -0.37056206223973459 -0.067406426237495459
vn -0.017682741034428233 -0.0972096185708179 0.050213082906310304
vn -0.272964892567095 0.14099848330336157 -0.0496531884161045
vn -0.19141175355627735 0.37056206223973465 0.067406426237495515
vn -0.017682741034428229 0.097209618570817946 -0.050213082906310241
vn 0 0 0.094712485616216438
vn 0 0 -0.094712485616216438
vn 0.09471248561621648 0 0
vn -0.094712485616216438 0 0
vn 0 -0.094712485616216466 0
vn 0 0.094712485616216438 0
vn 0.2114461696451187 -0.21144616964511873 0.21144616964511875
vn 0.21144616964511875 0.21144616964511875 -0.21144616964511875
vn -0.21144616964511878 0.21144616964511875 0.21144616964511873
vn -0.21144616964511867 -0.21144616964511881 -0.2114461696451187
vn 0.21144616964511875 0.21144616964511873 0.21144616964511878
vn 0.21144616964511875 -0.2114461696451187 -0.21144616964511873
vn -0.21144616964511873 -0.2114461696451187 0.21144616964511875
vn -0.21144616964511875 0.21144616964511867 -0.21144616964511881
g Orthotruncated Propello Octahedron
f 1//1 2//1 3//1 4//1 5//1
f 1//2 5//2 6//2 7//2 8//2
f 1//3 8//3 9//3 10//3 11//3
f 12//4 13//4 14//4 15//4 16//4
f 12//5 16//5 17//5 18//5 19//5
f 12//6 19//6 20//6 21//6 22//6
f 23//7 24//7 25//7 26//7 27//7
f 23//8 27//8 10//8 9//8 28//8
f 23//9 28//9 7//9 6//9 29//9
f 30//10 31//10 32//10 33//10 34//10
f 30//11 34//11 21//11 20//11 35//11
f 30//12 35//12 18//12 17//12 36//12
f 37//13 5//13 4//13 14//13 13//13
f 37//14 13//14 22//14 38//14 39//14
f 37//15 39//15 40//15 29//15 6//15
f 41//16 16//16 15//16 3//16 2//16
f 41//17 2//17 11//17 42//17 43//17
f 41//18 43//18 44//18 36//18 17//18
f 45//19 27//19 26//19 32//19 31//19
f 45//20 31//20 36//20 44//20 46//20
f 45//21 46//21 42//21 11//21 10//21
f 47//22 34//22 33//22 25//22 24//22
f 47//23 24//23 29//23 40//23 48//23
f 47//24 48//24 38//24 22//24 21//24
f 28//25 9//25 8//25 7//25
f 35//26 20//26 19//26 18//26
f 3//27 15//27 14//27 4//27
f 32//28 26//28 25//28 33//28
f 42//29 46//29 44//29 43//29
f 38//30 48//30 40//30 39//30
f 11//31 2//31 1//31
f 22//32 13//32 12//32
f 29//33 24//33 23//33
f 36//34 31//34 30//34
f 6//35 5//35 37//35
f 17//36 16//36 41//36
f 10//37 27//37 45//37
f 21//38 34//38 47//38
