o Propello Truncated Octahedron
v 0 0 0
v -0.10456188592510046 -0.23554005553801649 0.34010194146311695
v 0.13587710062911329 -0.57412309540111028 0.43824599477199705
v 0.47597904209223024 -0.6786849813262108 0.20270593923398056
v 0.57412309540111028 -0.43824599477199705 -0.13587710062911329
v 0.33858303986309385 -0.0981440533088801 -0.24043898655421375
v 0 -1.7478976712199916 -0.87140568167599752
v -0.10456188592510046 -1.5123576156819751 -1.2115076231391144
v 0.13587710062911329 -1.1737745758188813 -1.3096516764479946
v 0.47597904209223024 -1.0692126898937808 -1.0741116209099781
v 0.57412309540111028 -1.3096516764479946 -0.73552858104688423
v 0.33858303986309385 -1.6497536179111116 -0.63096669512178383
v -0.59965148041777094 -1.7478976712199916 0
v -0.49508959449267048 -1.5123576156819751 0.34010194146311695
v -0.73552858104688423 -1.1737745758188813 0.43824599477199705
v -1.0756305225100011 -1.0692126898937808 0.20270593923398056
v -1.1737745758188813 -1.3096516764479946 -0.13587710062911329
v -0.93823452028086485 -1.6497536179111116 -0.24043898655421375
v -0.59965148041777094 0 -0.87140568167599752
v -0.49508959449267048 -0.23554005553801649 -1.2115076231391144
v -0.73552858104688423 -0.57412309540111028 -1.3096516764479946
v -1.0756305225100011 -0.6786849813262108 -1.0741116209099781
v -1.1737745758188813 -0.43824599477199705 -0.73552858104688423
v -0.93823452028086485 -0.0981440533088801 -0.63096669512178383
v 0 -1.3096516764479946 0.43824599477199705
v -0.10456188592510046 -1.6497536179111116 0.20270593923398056
v 0.13587710062911329 -1.7478976712199916 -0.13587710062911329
v 0.47597904209223024 -1.5123576156819751 -0.24043898655421375
v 0.57412309540111028 -1.1737745758188813 0
v 0.33858303986309385 -1.0692126898937808 0.34010194146311695
v 0 -0.43824599477199705 -1.3096516764479946
v -0.10456188592510046 -0.0981440533088801 -1.0741116209099781
v 0.13587710062911329 0 -0.73552858104688423
v 0.47597904209223024 -0.23554005553801649 -0.63096669512178383
v 0.57412309540111028 -0.57412309540111028 -0.87140568167599752
v 0.33858303986309385 -0.6786849813262108 -1.2115076231391144
v -0.59965148041777094 -0.43824599477199705 0.43824599477199705
v -0.49508959449267048 -0.0981440533088801 0.20270593923398056
v -0.73552858104688423 0 -0.13587710062911329
v -1.0756305225100011 -0.23554005553801649 -0.24043898655421375
v -1.1737745758188813 -0.57412309540111028 0
v -0.93823452028086485 -0.6786849813262108 0.34010194146311695
v -0.59965148041777094 -1.3096516764479946 -1.3096516764479946
v -0.49508959449267048 -1.6497536179111116 -1.0741116209099781
v -0.73552858104688423 -1.7478976712199916 -0.73552858104688423
v -1.0756305225100011 -1.5123576156819751 -0.63096669512178383
v -1.1737745758188813 -1.1737745758188813 -0.87140568167599752
v -0.93823452028086485 -1.0692126898937808 -1.2115076231391144
v -0.50411827531574882 -0.77602183515892065 0.55138248036839688
v -0.39775274065996064 -1.0782413707168592 0.55138248036839688
v -0.095533205102022151 -0.971875836061071 0.55138248036839688
v -0.20189873975781031 -0.66965630050313252 0.55138248036839688
v -0.50411827531574882 -0.971875836061071 -1.4227881620443943
v -0.39775274065996064 -0.66965630050313252 -1.4227881620443943
v -0.095533205102022151 -0.77602183515892065 -1.4227881620443943
v -0.20189873975781031 -1.0782413707168592 -1.4227881620443943
v 0.68725958099751017 -1.0782413707168592 -0.3377758403869236
v 0.68725958099751017 -0.971875836061071 -0.63999537594486211
v 0.68725958099751017 -0.66965630050313252 -0.533629841289074
v 0.68725958099751017 -0.77602183515892065 -0.23141030573113544
v -1.286911061415281 -1.0782413707168592 -0.533629841289074
v -1.286911061415281 -0.971875836061071 -0.23141030573113544
v -1.286911061415281 -0.66965630050313252 -0.3377758403869236
v -1.286911061415281 -0.77602183515892065 -0.63999537594486211
v -0.20189873975781031 -1.8610341568163915 -0.23141030573113544
v -0.50411827531574882 -1.8610341568163915 -0.3377758403869236
v -0.39775274065996064 -1.8610341568163915 -0.63999537594486211
v -0.095533205102022151 -1.8610341568163915 -0.533629841289074
v -0.20189873975781031 0.11313648559639977 -0.63999537594486211
v -0.50411827531574882 0.11313648559639977 -0.533629841289074
v -0.39775274065996064 0.11313648559639977 -0.23141030573113544
v -0.095533205102022151 0.11313648559639977 -0.3377758403869236
v 0.12892490753098101 -0.87666225474465442 0.47279943127677376
v 0.12892490753098101 -0.8712354164753372 -1.3442051129527712
v -0.7285763879487519 -0.8712354164753372 0.47279943127677376
v -0.7285763879487519 -0.87666225474465442 -1.3442051129527712
v 0.60867653190588711 -1.3026994833498624 -0.43298942170334009
v 0.60867653190588711 -0.44519818787012932 -0.43841625997265743
v -1.2083280123236579 -0.44519818787012932 -0.43298942170334009
v -1.2083280123236579 -1.3026994833498624 -0.43841625997265743
v -0.2971123210742268 -1.7824511077247682 -0.0069521930981322755
v -0.2971123210742268 0.034553436504776713 -0.86445348857786519
v -0.30253915934354414 0.034553436504776713 -0.0069521930981322755
v -0.30253915934354414 -1.7824511077247682 -0.86445348857786519
v -0.2971123210742268 -0.44519818787012932 0.47279943127677376
v -0.2971123210742268 -1.3026994833498624 -1.3442051129527712
v -0.30253915934354414 -1.3026994833498624 0.47279943127677376
v -0.30253915934354414 -0.44519818787012932 -1.3442051129527712
v 0.60867653190588711 -0.8712354164753372 -0.0069521930981322755
v 0.60867653190588711 -0.87666225474465442 -0.86445348857786519
v -1.2083280123236579 -0.87666225474465442 -0.0069521930981322755
v -1.2083280123236579 -0.8712354164753372 -0.86445348857786519
v 0.12892490753098101 0.034553436504776713 -0.43298942170334009
v 0.12892490753098101 -1.7824511077247682 -0.43841625997265743
v -0.7285763879487519 -1.7824511077247682 -0.43298942170334009
v -0.7285763879487519 0.034553436504776713 -0.43841625997265743
vn 0.092035893436822447 0.092035893436822461 0.092035893436822461
vn 0.0920358934368224 -0.092035893436822475 -0.092035893436822461
vn -0.092035893436822447 -0.092035893436822461 0.092035893436822461
vn -0.0920358934368224 0.092035893436822475 -0.092035893436822461
vn 0.092035893436822516 -0.092035893436822475 0.092035893436822461
vn 0.092035893436822488 0.092035893436822475 -0.092035893436822461
vn -0.092035893436822475 0.092035893436822475 0.092035893436822461
vn -0.09203589343682253 -0.092035893436822475 -0.092035893436822461
vn 0 0 0.10265027463546773
vn 0 0 -0.10265027463546769
vn 0.10265027463546772 0 0
vn -0.10265027463546773 0 0
vn 0 -0.10265027463546773 0
vn 0 0.10265027463546775 0
vn 0.060353112024489786 -0.028930079238355146 0.13733507784752186
vn 0.060353112024489779 0.028930079238355076 -0.13733507784752183
vn -0.060353112024489786 0.028930079238355152 0.13733507784752183
vn -0.060353112024489793 -0.02893007923835509 -0.13733507784752186
vn 0.1373350778475218 -0.060353112024489772 0.028930079238355166
vn 0.1373350778475218 0.060353112024489758 -0.028930079238355156
vn -0.13733507784752183 0.060353112024489779 0.028930079238355062
vn -0.13733507784752178 -0.060353112024489765 -0.028930079238355076
vn 0.028930079238355177 -0.13733507784752183 0.060353112024489758
vn 0.028930079238355139 0.13733507784752183 -0.060353112024489772
vn -0.028930079238355132 0.13733507784752183 0.060353112024489772
vn -0.028930079238355187 -0.13733507784752183 -0.060353112024489758
vn 0.028930079238355139 0.060353112024489786 0.13733507784752183
vn 0.028930079238355076 -0.060353112024489779 -0.1373350778475218
vn -0.028930079238355146 -0.060353112024489786 0.1373350778475218
vn -0.028930079238355062 0.060353112024489779 -0.13733507784752183
vn 0.13733507784752183 0.028930079238355173 0.060353112024489772
vn 0.13733507784752186 -0.02893007923835518 -0.060353112024489786
vn -0.13733507784752186 -0.028930079238355076 0.060353112024489793
vn -0.13733507784752183 0.02893007923835509 -0.060353112024489779
vn 0.060353112024489772 0.13733507784752183 0.028930079238355132
vn 0.060353112024489744 -0.1373350778475218 -0.028930079238355177
vn -0.060353112024489758 -0.13733507784752183 0.028930079238355187
vn -0.060353112024489758 0.13733507784752183 -0.028930079238355139
vn 0.078277706646566414 0.01057408461102155 0.10833297001918694
vn 0.078277706646566386 -0.01057408461102153 -0.10833297001918694
vn -0.078277706646566414 -0.010574084611021585 0.10833297001918696
vn -0.078277706646566386 0.010574084611021561 -0.10833297001918696
vn 0.10833297001918693 -0.078277706646566428 -0.010574084611021516
vn 0.10833297001918696 0.078277706646566442 0.010574084611021543
vn -0.10833297001918694 0.078277706646566386 -0.01057408461102153
vn -0.10833297001918693 -0.0782777066465664 0.010574084611021498
vn -0.010574084611021606 -0.10833297001918693 0.078277706646566345
vn -0.010574084611021585 0.10833297001918696 -0.0782777066465664
vn 0.01057408461102155 0.10833297001918693 0.0782777066465664
vn 0.010574084611021637 -0.10833297001918696 -0.078277706646566345
vn -0.01057408461102155 0.0782777066465664 0.10833297001918693
vn -0.010574084611021498 -0.078277706646566386 -0.10833297001918692
vn 0.010574084611021523 -0.0782777066465664 0.10833297001918692
vn 0.01057408461102153 0.078277706646566386 -0.10833297001918693
vn 0.10833297001918694 -0.010574084611021543 0.078277706646566428
vn 0.10833297001918696 0.010574084611021575 -0.078277706646566428
vn -0.10833297001918694 0.01057408461102153 0.078277706646566386
vn -0.10833297001918696 -0.010574084611021561 -0.078277706646566386
vn 0.078277706646566414 0.10833297001918694 -0.01057408461102155
vn 0.078277706646566358 -0.10833297001918696 0.010574084611021606
vn -0.078277706646566345 -0.10833297001918697 -0.010574084611021637
vn -0.078277706646566414 0.10833297001918697 0.010574084611021585
vn 0.034192056131601346 0.012033822779537944 0.11224389804248607
vn 0.034192056131601312 -0.012033822779537925 -0.11224389804248609
vn -0.03419205613160136 -0.012033822779537946 0.11224389804248609
vn -0.0341920561316013 0.012033822779537929 -0.11224389804248607
vn 0.11224389804248609 0.034192056131601381 0.012033822779537946
vn 0.11224389804248611 -0.034192056131601374 -0.012033822779537958
vn -0.11224389804248612 -0.034192056131601312 0.012033822779537936
vn -0.11224389804248608 0.034192056131601305 -0.012033822779537923
vn 0.012033822779537937 0.11224389804248605 0.034192056131601332
vn 0.012033822779537946 -0.11224389804248604 -0.034192056131601367
vn -0.012033822779537949 -0.11224389804248608 0.034192056131601374
vn -0.012033822779537934 0.11224389804248605 -0.034192056131601339
vn 0.012033822779537953 -0.034192056131601346 0.11224389804248608
vn 0.012033822779537923 0.0341920561316013 -0.11224389804248605
vn -0.012033822779537941 0.034192056131601353 0.11224389804248608
vn -0.012033822779537936 -0.034192056131601305 -0.11224389804248611
vn 0.11224389804248609 -0.012033822779537949 0.034192056131601381
vn 0.11224389804248605 0.012033822779537946 -0.034192056131601367
vn -0.11224389804248607 0.012033822779537925 0.0341920561316013
vn -0.11224389804248608 -0.012033822779537923 -0.034192056131601312
vn 0.034192056131601381 -0.11224389804248609 0.012033822779537949
vn 0.034192056131601339 0.11224389804248608 -0.012033822779537937
vn -0.034192056131601346 0.11224389804248609 0.012033822779537941
vn -0.034192056131601374 -0.11224389804248608 -0.012033822779537953
g Propello Truncated Octahedron
f 1//1 2//1 3//1 4//1 5//1 6//1
f 7//2 8//2 9//2 10//2 11//2 12//2
f 13//3 14//3 15//3 16//3 17//3 18//3
f 19//4 20//4 21//4 22//4 23//4 24//4
f 25//5 26//5 27//5 28//5 29//5 30//5
f 31//6 32//6 33//6 34//6 35//6 36//6
f 37//7 38//7 39//7 40//7 41//7 42//7
f 43//8 44//8 45//8 46//8 47//8 48//8
f 49//9 50//9 51//9 52//9
f 53//10 54//10 55//10 56//10
f 57//11 58//11 59//11 60//11
f 61//12 62//12 63//12 64//12
f 65//13 66//13 67//13 68//13
f 69//14 70//14 71//14 72//14
f 51//15 25//15 30//15 73//15
f 55//16 31//16 36//16 74//16
f 49//17 37//17 42//17 75//17
f 53//18 43//18 48//18 76//18
f 57//19 29//19 28//19 77//19
f 59//20 35//20 34//20 78//20
f 63//21 41//21 40//21 79//21
f 61//22 47//22 46//22 80//22
f 65//23 27//23 26//23 81//23
f 69//24 33//24 32//24 82//24
f 71//25 39//25 38//25 83//25
f 67//26 45//26 44//26 84//26
f 52//27 3//27 2//27 85//27
f 56//28 9//28 8//28 86//28
f 50//29 15//29 14//29 87//29
f 54//30 21//30 20//30 88//30
f 60//31 5//31 4//31 89//31
f 58//32 11//32 10//32 90//32
f 62//33 17//33 16//33 91//33
f 64//34 23//34 22//34 92//34
f 72//35 1//35 6//35 93//35
f 68//36 7//36 12//36 94//36
f 66//37 13//37 18//37 95//37
f 70//38 19//38 24//38 96//38
f 73//39 30//39 4//39 3//39
f 74//40 36//40 10//40 9//40
f 75//41 42//41 16//41 15//41
f 76//42 48//42 22//42 21//42
f 77//43 28//43 12//43 11//43
f 78//44 34//44 6//44 5//44
f 79//45 40//45 24//45 23//45
f 80//46 46//46 18//46 17//46
f 81//47 26//47 14//47 13//47
f 82//48 32//48 20//48 19//48
f 83//49 38//49 2//49 1//49
f 84//50 44//50 8//50 7//50
f 85//51 2//51 38//51 37//51
f 86//52 8//52 44//52 43//52
f 87//53 14//53 26//53 25//53
f 88//54 20//54 32//54 31//54
f 89//55 4//55 30//55 29//55
f 90//56 10//56 36//56 35//56
f 91//57 16//57 42//57 41//57
f 92//58 22//58 48//58 47//58
f 93//59 6//59 34//59 33//59
f 94//60 12//60 28//60 27//60
f 95//61 18//61 46//61 45//61
f 96//62 24//62 40//62 39//62
f 3//63 52//63 51//63 73//63
f 9//64 56//64 55//64 74//64
f 15//65 50//65 49//65 75//65
f 21//66 54//66 53//66 76//66
f 5//67 60//67 59//67 78//67
f 11//68 58//68 57//68 77//68
f 17//69 62//69 61//69 80//69
f 23//70 64//70 63//70 79//70
f 1//71 72//71 71//71 83//71
f 7//72 68//72 67//72 84//72
f 13//73 66//73 65//73 81//73
f 19//74 70//74 69//74 82//74
f 25//75 51//75 50//75 87//75
f 31//76 55//76 54//76 88//76
f 37//77 49//77 52//77 85//77
f 43//78 53//78 56//78 86//78
f 29//79 57//79 60//79 89//79
f 35//80 59//80 58//80 90//80
f 41//81 63//81 62//81 91//81
f 47//82 61//82 64//82 92//82
f 27//83 65//83 68//83 94//83
f 33//84 69//84 72//84 93//84
f 39//85 71//85 70//85 96//85
f 45//86 67//86 66//86 95//86
