o Propello Cube
v 0 0 0
v 0.65131892227863653 -0.31206083054302436 0
v 0.96337975282166088 0.33925809173561222 0
v 0.31206083054302436 0.65131892227863653 0
v 0 0.33925809173561222 -1.8650473719245293
v 0.65131892227863653 0.65131892227863653 -1.8650473719245293
v 0.96337975282166088 0 -1.8650473719245293
v 0.31206083054302436 -0.31206083054302436 -1.8650473719245293
v 1.4142135623730952 0.65131892227863653 -0.76289464009445851
v 1.4142135623730952 0 -0.45083380955143421
v 1.4142135623730952 -0.31206083054302436 -1.1021527318300708
v 1.4142135623730952 0.33925809173561222 -1.4142135623730952
v -0.45083380955143421 0.65131892227863653 -1.1021527318300708
v -0.45083380955143421 0 -1.4142135623730952
v -0.45083380955143421 -0.31206083054302436 -0.76289464009445851
v -0.45083380955143421 0.33925809173561222 -0.45083380955143421
v 0.65131892227863653 1.1021527318300708 -0.45083380955143421
v 0.96337975282166088 1.1021527318300708 -1.1021527318300708
v 0.31206083054302436 1.1021527318300708 -1.4142135623730952
v 0 1.1021527318300708 -0.76289464009445851
v 0.65131892227863653 -0.76289464009445851 -1.4142135623730952
v 0.96337975282166088 -0.76289464009445851 -0.76289464009445851
v 0.31206083054302436 -0.76289464009445851 -0.45083380955143421
v 0 -0.76289464009445851 -1.1021527318300708
v 1.0694903879145479 0.75742955737152362 -0.34472317445854717
v 1.0694903879145479 0.75742955737152362 -1.5203241974659822
v 1.0694903879145479 -0.41817146563591134 -0.34472317445854717
v 1.0694903879145479 -0.41817146563591134 -1.5203241974659822
v -0.10611063509288704 0.75742955737152362 -0.34472317445854717
v -0.10611063509288704 0.75742955737152362 -1.5203241974659822
v -0.10611063509288704 -0.41817146563591134 -0.34472317445854717
v -0.10611063509288704 -0.41817146563591134 -1.5203241974659822
vn 0 0 0.52159830047740674
vn 0 0 -0.52159830047740674
vn 0.52159830047740674 0 0
vn -0.52159830047740674 0 0
vn 0 0.52159830047740674 0
vn 0 -0.52159830047740674 0
vn 0.30547596124219384 0.10757460012896217 0.22452472647281135
vn 0.22452472647281135 0.30547596124219389 0.10757460012896217
vn 0.10757460012896211 0.2245247264728113 0.30547596124219384
vn 0.10757460012896206 0.30547596124219373 -0.22452472647281135
vn 0.30547596124219389 0.22452472647281138 -0.10757460012896217
vn 0.22452472647281133 0.10757460012896211 -0.30547596124219389
vn 0.10757460012896211 -0.30547596124219378 0.22452472647281127
vn 0.30547596124219378 -0.22452472647281133 0.10757460012896217
vn 0.2245247264728113 -0.10757460012896217 0.30547596124219389
vn 0.30547596124219378 -0.10757460012896211 -0.22452472647281133
vn 0.22452472647281133 -0.30547596124219395 -0.10757460012896217
vn 0.10757460012896206 -0.2245247264728113 -0.30547596124219378
vn -0.10757460012896211 0.30547596124219384 0.22452472647281138
vn -0.30547596124219389 0.22452472647281133 0.10757460012896211
vn -0.22452472647281135 0.10757460012896211 0.30547596124219384
vn -0.30547596124219378 0.10757460012896206 -0.22452472647281135
vn -0.22452472647281141 0.30547596124219389 -0.10757460012896211
vn -0.10757460012896206 0.22452472647281133 -0.30547596124219384
vn -0.30547596124219384 -0.10757460012896211 0.2245247264728113
vn -0.22452472647281127 -0.30547596124219384 0.10757460012896211
vn -0.10757460012896211 -0.22452472647281133 0.30547596124219378
vn -0.10757460012896208 -0.30547596124219378 -0.2245247264728113
vn -0.30547596124219389 -0.22452472647281138 -0.10757460012896211
vn -0.2245247264728113 -0.10757460012896206 -0.30547596124219384
g Propello Cube
f 1//1 2//1 3//1 4//1
f 5//2 6//2 7//2 8//2
f 9//3 10//3 11//3 12//3
f 13//4 14//4 15//4 16//4
f 17//5 18//5 19//5 20//5
f 21//6 22//6 23//6 24//6
f 25//7 3//7 10//7 9//7
f 25//8 9//8 18//8 17//8
f 25//9 17//9 4//9 3//9
f 26//10 6//10 19//10 18//10
f 26//11 18//11 9//11 12//11
f 26//12 12//12 7//12 6//12
f 27//13 2//13 23//13 22//13
f 27//14 22//14 11//14 10//14
f 27//15 10//15 3//15 2//15
f 28//16 7//16 12//16 11//16
f 28//17 11//17 22//17 21//17
f 28//18 21//18 8//18 7//18
f 29//19 4//19 17//19 20//19
f 29//20 20//20 13//20 16//20
f 29//21 16//21 1//21 4//21
f 30//22 5//22 14//22 13//22
f 30//23 13//23 20//23 19//23
f 30//24 19//24 6//24 5//24
f 31//25 1//25 16//25 15//25
f 31//26 15//26 24//26 23//26
f 31//27 23//27 2//27 1//27
f 32//28 8//28 21//28 24//28
f 32//29 24//29 15//29 14//29
f 32//30 14//30 5//30 8//30
