o Propello Tetrahedron
v 0 0 0
v -0.096512538368092926 0.745948452857585 0.39373212913852151
v -1.1160232033548641 0.46658728886537193 0.39373212913852151
v -0.745948452857585 -0.39373212913852151 -0.096512538368092926
v -0.46658728886537193 -0.39373212913852151 -1.1160232033548641
v 0.39373212913852151 0.096512538368092926 -0.745948452857585
v 0.39373212913852151 1.1160232033548641 -0.46658728886537193
v 0 1.212535741722957 -1.212535741722957
v -0.096512538368092926 0.46658728886537193 -1.6062678708614784
v -1.1160232033548641 0.745948452857585 -1.6062678708614784
v -0.745948452857585 1.6062678708614784 -1.1160232033548641
v -0.46658728886537193 1.6062678708614784 -0.096512538368092926
v -1.212535741722957 1.212535741722957 0
v -1.6062678708614784 1.1160232033548641 -0.745948452857585
v -1.6062678708614784 0.096512538368092926 -0.46658728886537193
v -1.212535741722957 0 -1.212535741722957
vn 0.10999346589726974 -0.40141410480467132 0.78746425827704314
vn 0.40141410480467132 -0.78746425827704314 0.10999346589726974
vn 0.78746425827704314 -0.10999346589726974 0.40141410480467132
vn 0.10999346589726972 0.40141410480467121 -0.78746425827704314
vn 0.40141410480467121 0.78746425827704314 -0.10999346589726972
vn 0.78746425827704314 0.10999346589726974 -0.40141410480467132
vn -0.10999346589726974 0.40141410480467132 0.78746425827704314
vn -0.40141410480467121 0.78746425827704314 0.10999346589726972
vn -0.78746425827704314 0.10999346589726972 0.40141410480467121
vn -0.10999346589726972 -0.40141410480467121 -0.78746425827704314
vn -0.40141410480467132 -0.78746425827704314 -0.10999346589726974
vn -0.78746425827704314 -0.10999346589726972 -0.40141410480467121
vn 0.558722327984426 0.558722327984426 0.558722327984426
vn 0.558722327984426 -0.558722327984426 -0.55872232798442611
vn -0.558722327984426 -0.558722327984426 0.558722327984426
vn -0.558722327984426 0.558722327984426 -0.558722327984426
g Propello Tetrahedron
f 1//1 2//1 3//1 4//1
f 1//2 4//2 5//2 6//2
f 1//3 6//3 7//3 2//3
f 8//4 9//4 10//4 11//4
f 8//5 11//5 12//5 7//5
f 8//6 7//6 6//6 9//6
f 13//7 3//7 2//7 12//7
f 13//8 12//8 11//8 14//8
f 13//9 14//9 15//9 3//9
f 16//10 10//10 9//10 5//10
f 16//11 5//11 4//11 15//11
f 16//12 15//12 14//12 10//12
f 2//13 7//13 12//13
f 9//14 6//14 5//14
f 3//15 15//15 4//15
f 10//16 14//16 11//16
