o Propello Octahedron
v 0 0 0
v 0.59910471934463039 -0.28704388880160608 -0.25724997750713074
v 0.81510884302846465 0.28704388880160608 -0.473254101190965
v 0.28704388880160608 0.59910471934463039 -0.25724997750713074
v -0.28704388880160608 0.81510884302846465 -0.473254101190965
v -0.59910471934463039 0.28704388880160608 -0.25724997750713074
v -0.81510884302846465 -0.28704388880160608 -0.473254101190965
v -0.28704388880160608 -0.59910471934463039 -0.25724997750713074
v 0.28704388880160608 -0.81510884302846465 -0.473254101190965
v 0 0 -2.1447176410711908
v 0.59910471934463039 0.28704388880160608 -1.8874676635640602
v 0.81510884302846465 -0.28704388880160608 -1.6714635398802258
v 0.28704388880160608 -0.59910471934463039 -1.8874676635640602
v -0.28704388880160608 -0.81510884302846465 -1.6714635398802258
v -0.59910471934463039 -0.28704388880160608 -1.8874676635640602
v -0.81510884302846465 0.28704388880160608 -1.6714635398802258
v -0.28704388880160608 0.59910471934463039 -1.8874676635640602
v 0.28704388880160608 0.81510884302846465 -1.6714635398802258
v 1.0723588205355954 0 -1.0723588205355954
v 0.81510884302846465 -0.59910471934463039 -0.78531493173398936
v 0.59910471934463039 -0.81510884302846465 -1.3594027093372014
v 0.81510884302846465 0.59910471934463039 -1.3594027093372014
v 0.59910471934463039 0.81510884302846465 -0.78531493173398936
v -1.0723588205355954 0 -1.0723588205355954
v -0.81510884302846465 0.59910471934463039 -0.78531493173398936
v -0.59910471934463039 0.81510884302846465 -1.3594027093372014
v -0.81510884302846465 -0.59910471934463039 -1.3594027093372014
v -0.59910471934463039 -0.81510884302846465 -0.78531493173398936
v 0 1.0723588205355954 -1.0723588205355954
v 0 -1.0723588205355954 -1.0723588205355954
vn 0.20968673153493589 0.0738420339377725 0.40594136053954588
vn -0.0738420339377725 0.20968673153493589 0.40594136053954588
vn -0.20968673153493589 -0.0738420339377725 0.40594136053954588
vn 0.0738420339377725 -0.20968673153493589 0.40594136053954588
vn 0.20968673153493586 -0.073842033937772611 -0.40594136053954588
vn -0.073842033937772611 -0.20968673153493586 -0.40594136053954588
vn -0.20968673153493586 0.073842033937772611 -0.40594136053954588
vn 0.073842033937772611 0.20968673153493586 -0.40594136053954588
vn 0.40594136053954583 -0.20968673153493583 -0.0738420339377725
vn 0.40594136053954594 0.073842033937772472 -0.20968673153493589
vn 0.40594136053954583 0.20968673153493583 0.0738420339377725
vn 0.40594136053954588 -0.0738420339377725 0.20968673153493589
vn -0.40594136053954583 0.20968673153493583 -0.0738420339377725
vn -0.40594136053954594 -0.073842033937772472 -0.20968673153493589
vn -0.40594136053954583 -0.20968673153493583 0.0738420339377725
vn -0.40594136053954588 0.0738420339377725 0.20968673153493589
vn -0.073842033937772472 0.40594136053954594 -0.20968673153493589
vn -0.20968673153493583 0.40594136053954583 0.0738420339377725
vn 0.0738420339377725 0.40594136053954588 0.20968673153493589
vn 0.20968673153493583 0.40594136053954583 -0.0738420339377725
vn -0.0738420339377725 -0.40594136053954588 0.20968673153493589
vn -0.20968673153493583 -0.40594136053954583 -0.0738420339377725
vn 0.073842033937772472 -0.40594136053954594 -0.20968673153493589
vn 0.20968673153493583 -0.40594136053954583 0.0738420339377725
vn 0.21144616964511881 -0.21144616964511875 0.21144616964511875
vn 0.21144616964511881 0.21144616964511881 -0.21144616964511875
vn -0.21144616964511881 0.21144616964511875 0.21144616964511875
vn -0.21144616964511881 -0.21144616964511881 -0.21144616964511875
vn 0.21144616964511875 0.21144616964511878 0.21144616964511873
vn 0.21144616964511884 -0.21144616964511881 -0.21144616964511873
vn -0.21144616964511875 -0.21144616964511878 0.21144616964511873
vn -0.21144616964511884 0.21144616964511881 -0.21144616964511873
g Propello Octahedron
f 1//1 2//1 3//1 4//1
f 1//2 4//2 5//2 6//2
f 1//3 6//3 7//3 8//3
f 1//4 8//4 9//4 2//4
f 10//5 11//5 12//5 13//5
f 10//6 13//6 14//6 15//6
f 10//7 15//7 16//7 17//7
f 10//8 17//8 18//8 11//8
f 19//9 20//9 21//9 12//9
f 19//10 12//10 11//10 22//10
f 19//11 22//11 23//11 3//11
f 19//12 3//12 2//12 20//12
f 24//13 25//13 26//13 16//13
f 24//14 16//14 15//14 27//14
f 24//15 27//15 28//15 7//15
f 24//16 7//16 6//16 25//16
f 29//17 18//17 17//17 26//17
f 29//18 26//18 25//18 5//18
f 29//19 5//19 4//19 23//19
f 29//20 23//20 22//20 18//20
f 30//21 9//21 8//21 28//21
f 30//22 28//22 27//22 14//22
f 30//23 14//23 13//23 21//23
f 30//24 21//24 20//24 9//24
f 9//25 20//25 2//25
f 18//26 22//26 11//26
f 5//27 25//27 6//27
f 14//28 27//28 15//28
f 4//29 3//29 23//29
f 13//30 12//30 21//30
f 8//31 7//31 28//31
f 17//32 16//32 26//32
