o Rectified Truncated Dodecahedron
v 0 0 0
v 0.5 -1.8090169943749475 -0.30901699437494745
v 1.8090169943749475 -2.9270509831248424 -1.1180339887498949
v 3.4270509831248424 -2.9270509831248424 -2.1180339887498949
v 4.73606797749979 -1.8090169943749475 -2.9270509831248424
v 5.23606797749979 0 -3.23606797749979
v 4.73606797749979 1.8090169943749475 -2.9270509831248424
v 3.4270509831248424 2.9270509831248424 -2.1180339887498949
v 1.8090169943749475 2.9270509831248424 -1.1180339887498949
v 0.5 1.8090169943749475 -0.30901699437494745
v -0.5 1.8090169943749475 -0.30901699437494745
v -1.8090169943749475 2.9270509831248424 -1.1180339887498949
v -3.4270509831248424 2.9270509831248424 -2.1180339887498949
v -4.73606797749979 1.8090169943749475 -2.9270509831248424
v -5.23606797749979 0 -3.23606797749979
v -4.73606797749979 -1.8090169943749475 -2.9270509831248424
v -3.4270509831248424 -2.9270509831248424 -2.1180339887498949
v -1.8090169943749475 -2.9270509831248424 -1.1180339887498949
v -0.5 -1.8090169943749475 -0.30901699437494745
v 0 0 -11.708203932499369
v 0.5 1.8090169943749475 -11.399186938124423
v 1.8090169943749475 2.9270509831248424 -10.590169943749475
v 3.4270509831248424 2.9270509831248424 -9.5901699437494745
v 4.73606797749979 1.8090169943749475 -8.7811529493745262
v 5.23606797749979 0 -8.47213595499958
v 4.73606797749979 -1.8090169943749475 -8.7811529493745262
v 3.4270509831248424 -2.9270509831248424 -9.5901699437494745
v 1.8090169943749475 -2.9270509831248424 -10.590169943749475
v 0.5 -1.8090169943749475 -11.399186938124423
v -0.5 -1.8090169943749475 -11.399186938124423
v -1.8090169943749475 -2.9270509831248424 -10.590169943749475
v -3.4270509831248424 -2.9270509831248424 -9.5901699437494745
v -4.73606797749979 -1.8090169943749475 -8.7811529493745262
v -5.23606797749979 0 -8.47213595499958
v -4.73606797749979 1.8090169943749475 -8.7811529493745262
v -3.4270509831248424 2.9270509831248424 -9.5901699437494745
v -1.8090169943749475 2.9270509831248424 -10.590169943749475
v -0.5 1.8090169943749475 -11.399186938124423
v 5.8541019662496847 0 -5.8541019662496847
v 5.5450849718747373 0.5 -7.6631189606246322
v 3.73606797749979 3.4270509831248424 -8.7811529493745262
v 2.9270509831248424 4.73606797749979 -7.6631189606246322
v 2.6180339887498949 5.23606797749979 -5.8541019662496847
v 2.9270509831248424 4.73606797749979 -4.0450849718747373
v 3.73606797749979 3.4270509831248424 -2.9270509831248424
v 5.5450849718747373 0.5 -4.0450849718747373
v 5.5450849718747373 -0.5 -4.0450849718747373
v 3.73606797749979 -3.4270509831248424 -2.9270509831248424
v 2.9270509831248424 -4.73606797749979 -4.0450849718747373
v 2.6180339887498949 -5.23606797749979 -5.8541019662496847
v 2.9270509831248424 -4.73606797749979 -7.6631189606246322
v 3.73606797749979 -3.4270509831248424 -8.7811529493745262
v 5.5450849718747373 -0.5 -7.6631189606246322
v -5.8541019662496847 0 -5.8541019662496847
v -5.5450849718747373 0.5 -4.0450849718747373
v -3.73606797749979 3.4270509831248424 -2.9270509831248424
v -2.9270509831248424 4.73606797749979 -4.0450849718747373
v -2.6180339887498949 5.23606797749979 -5.8541019662496847
v -2.9270509831248424 4.73606797749979 -7.6631189606246322
v -3.73606797749979 3.4270509831248424 -8.7811529493745262
v -5.5450849718747373 0.5 -7.6631189606246322
v -5.5450849718747373 -0.5 -7.6631189606246322
v -3.73606797749979 -3.4270509831248424 -8.7811529493745262
v -2.9270509831248424 -4.73606797749979 -7.6631189606246322
v -2.6180339887498949 -5.23606797749979 -5.8541019662496847
v -2.9270509831248424 -4.73606797749979 -4.0450849718747373
v -3.73606797749979 -3.4270509831248424 -2.9270509831248424
v -5.5450849718747373 -0.5 -4.0450849718747373
v 0 5.8541019662496847 -5.8541019662496847
v 1.8090169943749475 5.5450849718747373 -6.3541019662496847
v 2.9270509831248424 3.73606797749979 -9.2811529493745262
v 0 2.6180339887498949 -11.090169943749475
v -2.9270509831248424 3.73606797749979 -9.2811529493745262
v -1.8090169943749475 5.5450849718747373 -6.3541019662496847
v -1.8090169943749475 5.5450849718747373 -5.3541019662496847
v -2.9270509831248424 3.73606797749979 -2.4270509831248424
v 0 2.6180339887498949 -0.6180339887498949
v 2.9270509831248424 3.73606797749979 -2.4270509831248424
v 1.8090169943749475 5.5450849718747373 -5.3541019662496847
v 0 -5.8541019662496847 -5.8541019662496847
v 1.8090169943749475 -5.5450849718747373 -5.3541019662496847
v 2.9270509831248424 -3.73606797749979 -2.4270509831248424
v 0 -2.6180339887498949 -0.6180339887498949
v -2.9270509831248424 -3.73606797749979 -2.4270509831248424
v -1.8090169943749475 -5.5450849718747373 -5.3541019662496847
v -1.8090169943749475 -5.5450849718747373 -6.3541019662496847
v -2.9270509831248424 -3.73606797749979 -9.2811529493745262
v 0 -2.6180339887498949 -11.090169943749475
v 2.9270509831248424 -3.73606797749979 -9.2811529493745262
v 1.8090169943749475 -5.5450849718747373 -6.3541019662496847
vn 1.1180339887498949 -5.5511151231257827E-17 1.8090169943749475
vn -1.1180339887498949 5.5511151231257827E-17 1.8090169943749475
vn 1.1180339887498973 -1.5543122344752192E-15 -1.8090169943749475
vn -1.1180339887498973 1.5543122344752192E-15 -1.8090169943749475
vn 1.8090169943749479 1.1180339887498951 -5.5511151231257827E-17
vn 1.8090169943749475 -1.1180339887498949 5.5511151231257827E-17
vn -1.8090169943749475 1.1180339887498949 5.5511151231257827E-17
vn -1.8090169943749479 -1.1180339887498951 -5.5511151231257827E-17
vn 5.5511151231257827E-17 1.8090169943749475 -1.1180339887498949
vn -5.5511151231257827E-17 1.8090169943749475 1.1180339887498949
vn 5.5511151231257827E-17 -1.8090169943749475 1.1180339887498949
vn -5.5511151231257827E-17 -1.8090169943749475 -1.1180339887498949
vn 0 0.30901699437494745 0.80901699437494745
vn 0 0.30901699437494834 -0.80901699437494745
vn 0 -0.30901699437494745 0.80901699437494745
vn 0 -0.30901699437494834 -0.80901699437494745
vn 0.80901699437494745 0 0.30901699437494745
vn 0.80901699437494745 0 -0.30901699437494745
vn -0.80901699437494745 0 0.30901699437494745
vn -0.80901699437494745 0 -0.30901699437494745
vn 0.30901699437494745 0.80901699437494745 0
vn 0.30901699437494745 -0.80901699437494745 0
vn -0.30901699437494745 0.80901699437494745 0
vn -0.30901699437494745 -0.80901699437494745 0
vn 0.5 0.5 0.5
vn 0.50000000000000033 0.50000000000000067 -0.5
vn 0.5 -0.5 0.5
vn 0.50000000000000022 -0.50000000000000078 -0.5
vn -0.5 0.5 0.5
vn -0.50000000000000022 0.50000000000000078 -0.5
vn -0.5 -0.5 0.5
vn -0.50000000000000033 -0.50000000000000067 -0.5
vn 0 0.30901699437494745 1.8090169943749475
vn 0 -0.30901699437494745 1.8090169943749475
vn 0 -0.30901699437494656 -1.8090169943749475
vn 0 0.30901699437494656 -1.8090169943749475
vn 1.8090169943749475 0 0.30901699437494745
vn 1.8090169943749475 0 -0.30901699437494745
vn -1.8090169943749475 0 -0.30901699437494745
vn -1.8090169943749475 0 0.30901699437494745
vn 0.30901699437494745 1.8090169943749475 0
vn -0.30901699437494745 1.8090169943749475 0
vn 0.30901699437494745 -1.8090169943749475 0
vn -0.30901699437494745 -1.8090169943749475 0
vn 0.3090169943749474 0.80901699437494745 1.6180339887498949
vn 0.30901699437494712 0.80901699437494912 -1.6180339887498949
vn 0.30901699437494745 -0.80901699437494745 1.6180339887498949
vn 0.30901699437494717 -0.809016994374949 -1.6180339887498949
vn -0.30901699437494745 0.80901699437494745 1.6180339887498949
vn -0.30901699437494717 0.809016994374949 -1.6180339887498949
vn -0.3090169943749474 -0.80901699437494745 1.6180339887498949
vn -0.30901699437494712 -0.80901699437494912 -1.6180339887498949
vn 1.6180339887498949 0.3090169943749474 0.80901699437494745
vn 1.6180339887498945 0.30901699437494767 -0.80901699437494745
vn 1.6180339887498949 -0.30901699437494745 0.80901699437494745
vn 1.6180339887498947 -0.30901699437494767 -0.80901699437494745
vn -1.6180339887498949 0.30901699437494745 0.80901699437494745
vn -1.6180339887498947 0.30901699437494767 -0.80901699437494745
vn -1.6180339887498949 -0.3090169943749474 0.80901699437494745
vn -1.6180339887498945 -0.30901699437494767 -0.80901699437494745
vn 0.80901699437494745 1.6180339887498949 0.3090169943749474
vn 0.80901699437494745 1.6180339887498949 -0.30901699437494745
vn 0.80901699437494745 -1.6180339887498949 0.30901699437494745
vn 0.80901699437494745 -1.6180339887498949 -0.3090169943749474
vn -0.80901699437494745 1.6180339887498949 0.30901699437494745
vn -0.80901699437494745 1.6180339887498949 -0.3090169943749474
vn -0.80901699437494745 -1.6180339887498949 0.3090169943749474
vn -0.80901699437494745 -1.6180339887498949 -0.30901699437494745
vn 0.80901699437494745 1 1.3090169943749475
vn 0.80901699437494745 1.0000000000000016 -1.3090169943749475
vn 0.80901699437494745 -1 1.3090169943749475
vn 0.80901699437494745 -1.0000000000000013 -1.3090169943749475
vn -0.80901699437494745 1 1.3090169943749475
vn -0.80901699437494745 1.0000000000000013 -1.3090169943749475
vn -0.80901699437494745 -1 1.3090169943749475
vn -0.80901699437494745 -1.0000000000000016 -1.3090169943749475
vn 1.3090169943749475 0.80901699437494745 1
vn 1.3090169943749488 0.80901699437494834 -1
vn 1.3090169943749475 -0.80901699437494745 1
vn 1.309016994374949 -0.80901699437494834 -1
vn -1.3090169943749475 0.80901699437494745 1
vn -1.309016994374949 0.80901699437494834 -1
vn -1.3090169943749475 -0.80901699437494745 1
vn -1.3090169943749488 -0.80901699437494834 -1
vn 1 1.3090169943749475 0.80901699437494745
vn 0.99999999999999978 1.3090169943749468 -0.80901699437494745
vn 1 -1.3090169943749475 0.80901699437494745
vn 0.99999999999999978 -1.3090169943749468 -0.80901699437494745
vn -1 1.3090169943749475 0.80901699437494745
vn -0.99999999999999978 1.3090169943749468 -0.80901699437494745
vn -1 -1.3090169943749475 0.80901699437494745
vn -0.99999999999999978 -1.3090169943749468 -0.80901699437494745
g Rectified Truncated Dodecahedron
f 1//1 2//1 3//1 4//1 5//1 6//1 7//1 8//1 9//1 10//1
f 1//2 11//2 12//2 13//2 14//2 15//2 16//2 17//2 18//2 19//2
f 20//3 21//3 22//3 23//3 24//3 25//3 26//3 27//3 28//3 29//3
f 20//4 30//4 31//4 32//4 33//4 34//4 35//4 36//4 37//4 38//4
f 39//5 40//5 24//5 41//5 42//5 43//5 44//5 45//5 7//5 46//5
f 39//6 47//6 5//6 48//6 49//6 50//6 51//6 52//6 26//6 53//6
f 54//7 55//7 14//7 56//7 57//7 58//7 59//7 60//7 35//7 61//7
f 54//8 62//8 33//8 63//8 64//8 65//8 66//8 67//8 16//8 68//8
f 69//9 70//9 42//9 71//9 22//9 72//9 37//9 73//9 59//9 74//9
f 69//10 75//10 57//10 76//10 12//10 77//10 9//10 78//10 44//10 79//10
f 80//11 81//11 49//11 82//11 3//11 83//11 18//11 84//11 66//11 85//11
f 80//12 86//12 64//12 87//12 31//12 88//12 28//12 89//12 51//12 90//12
f 10//13 77//13 11//13
f 21//14 38//14 72//14
f 2//15 19//15 83//15
f 29//16 88//16 30//16
f 46//17 6//17 47//17
f 40//18 53//18 25//18
f 55//19 68//19 15//19
f 61//20 34//20 62//20
f 79//21 43//21 70//21
f 81//22 90//22 50//22
f 75//23 74//23 58//23
f 85//24 65//24 86//24
f 8//25 45//25 78//25
f 23//26 71//26 41//26
f 4//27 82//27 48//27
f 27//28 52//28 89//28
f 13//29 76//29 56//29
f 36//30 60//30 73//30
f 17//31 67//31 84//31
f 32//32 87//32 63//32
f 1//33 10//33 11//33
f 1//34 19//34 2//34
f 20//35 29//35 30//35
f 20//36 38//36 21//36
f 39//37 46//37 47//37
f 39//38 53//38 40//38
f 54//39 61//39 62//39
f 54//40 68//40 55//40
f 69//41 79//41 70//41
f 69//42 74//42 75//42
f 80//43 90//43 81//43
f 80//44 85//44 86//44
f 10//45 9//45 77//45
f 21//46 72//46 22//46
f 2//47 83//47 3//47
f 29//48 28//48 88//48
f 11//49 77//49 12//49
f 38//50 37//50 72//50
f 19//51 18//51 83//51
f 30//52 88//52 31//52
f 46//53 7//53 6//53
f 40//54 25//54 24//54
f 47//55 6//55 5//55
f 53//56 26//56 25//56
f 55//57 15//57 14//57
f 61//58 35//58 34//58
f 68//59 16//59 15//59
f 62//60 34//60 33//60
f 79//61 44//61 43//61
f 70//62 43//62 42//62
f 81//63 50//63 49//63
f 90//64 51//64 50//64
f 75//65 58//65 57//65
f 74//66 59//66 58//66
f 85//67 66//67 65//67
f 86//68 65//68 64//68
f 9//69 8//69 78//69
f 22//70 71//70 23//70
f 3//71 82//71 4//71
f 28//72 27//72 89//72
f 12//73 76//73 13//73
f 37//74 36//74 73//74
f 18//75 17//75 84//75
f 31//76 87//76 32//76
f 7//77 45//77 8//77
f 24//78 23//78 41//78
f 5//79 4//79 48//79
f 26//80 52//80 27//80
f 14//81 13//81 56//81
f 35//82 60//82 36//82
f 16//83 67//83 17//83
f 33//84 32//84 63//84
f 44//85 78//85 45//85
f 42//86 41//86 71//86
f 49//87 48//87 82//87
f 51//88 89//88 52//88
f 57//89 56//89 76//89
f 59//90 73//90 60//90
f 66//91 84//91 67//91
f 64//92 63//92 87//92
