o Rectified Truncated Octahedron
v 0 0 0
v 1 -0.5 -0.5
v 1.5 0 -1.5
v 1 1 -2
v 0 1.5 -1.5
v -0.5 1 -0.5
v 0 0 -4
v -0.5 1 -3.5
v 0 1.5 -2.5
v 1.5 0 -2.5
v 1 -0.5 -3.5
v 0 -1 0
v -0.5 -2 -0.5
v 0 -2.5 -1.5
v 1 -2 -2
v 1.5 -1 -1.5
v 0 -1 -4
v 1.5 -1 -2.5
v 0 -2.5 -2.5
v -0.5 -2 -3.5
v -1 0 0
v -1 1.5 -1.5
v -2 1 -2
v -2.5 0 -1.5
v -2 -0.5 -0.5
v -1 0 -4
v -2 -0.5 -3.5
v -2.5 0 -2.5
v -1 1.5 -2.5
v -1 -1 0
v -2.5 -1 -1.5
v -2 -2 -2
v -1 -2.5 -1.5
v -1 -1 -4
v -1 -2.5 -2.5
v -2.5 -1 -2.5
vn 0.75 0.75 0.75
vn 0.75 0.75 -0.75
vn 0.75 -0.75 0.75
vn 0.75 -0.75 -0.75
vn -0.75 0.75 0.75
vn -0.75 0.75 -0.75
vn -0.75 -0.75 0.75
vn -0.75 -0.75 -0.75
vn 0 0 1
vn 0 0 -1
vn 1 0 0
vn -1 0 0
vn 0 1 0
vn 0 -1 0
vn 0.5 0 1
vn 0 0.5 1
vn 0 0.5 -1
vn 0.5 0 -1
vn 0 -0.5 1
vn 0 -0.5 -1
vn -0.5 0 1
vn -0.5 0 -1
vn 1 0.5 0
vn 1 0 0.5
vn 1 0 -0.5
vn 1 -0.5 0
vn -1 0 0.5
vn -1 0.5 0
vn -1 0 -0.5
vn -1 -0.5 0
vn 0 1 0.5
vn 0.5 1 0
vn 0 1 -0.5
vn 0.5 -1 0
vn 0 -1 0.5
vn 0 -1 -0.5
vn -0.5 1 0
vn -0.5 -1 0
g Rectified Truncated Octahedron
f 1//1 2//1 3//1 4//1 5//1 6//1
f 7//2 8//2 9//2 4//2 10//2 11//2
f 12//3 13//3 14//3 15//3 16//3 2//3
f 17//4 11//4 18//4 15//4 19//4 20//4
f 21//5 6//5 22//5 23//5 24//5 25//5
f 26//6 27//6 28//6 23//6 29//6 8//6
f 30//7 25//7 31//7 32//7 33//7 13//7
f 34//8 20//8 35//8 32//8 36//8 27//8
f 1//9 21//9 30//9 12//9
f 7//10 17//10 34//10 26//10
f 3//11 16//11 18//11 10//11
f 24//12 28//12 36//12 31//12
f 5//13 9//13 29//13 22//13
f 14//14 33//14 35//14 19//14
f 1//15 12//15 2//15
f 1//16 6//16 21//16
f 7//17 26//17 8//17
f 7//18 11//18 17//18
f 12//19 30//19 13//19
f 17//20 20//20 34//20
f 21//21 25//21 30//21
f 26//22 34//22 27//22
f 3//23 10//23 4//23
f 3//24 2//24 16//24
f 10//25 18//25 11//25
f 16//26 15//26 18//26
f 24//27 31//27 25//27
f 24//28 23//28 28//28
f 28//29 27//29 36//29
f 31//30 36//30 32//30
f 5//31 22//31 6//31
f 5//32 4//32 9//32
f 9//33 8//33 29//33
f 14//34 19//34 15//34
f 14//35 13//35 33//35
f 19//36 35//36 20//36
f 22//37 29//37 23//37
f 33//38 32//38 35//38
