o Rectified Snub Cube (laevo)
v 0 0 0
v -1.2424528211131705 -0.67550794762750466 0
v -0.95898038437033761 -1.4803674827397144 -0.52138709836937691
v 0 -1.4803674827397144 -0.80485953511220987
v 0.5213870983693768 -0.67550794762750466 -0.52138709836937691
v 0.80485953511220976 0.28347243674283296 -0.52138709836937691
v 0.80485953511220976 1.2424528211131705 -0.80485953511220987
v 0 1.7638399194825474 -0.52138709836937691
v -0.67550794762750466 1.2424528211131705 0
v 0 0.56694487348566591 -4.5704540357038486
v -1.2424528211131705 1.2424528211131705 -4.5704540357038486
v -0.95898038437033761 2.0473123562253805 -4.0490669373344712
v 0 2.0473123562253805 -3.7655945005916385
v 0.5213870983693768 1.2424528211131705 -4.0490669373344712
v 0.80485953511220976 0.28347243674283296 -4.0490669373344712
v 0.80485953511220976 -0.67550794762750466 -3.7655945005916385
v 0 -1.1968950459968815 -4.0490669373344712
v -0.67550794762750466 -0.67550794762750466 -4.5704540357038486
v -1.9179607687406752 0.56694487348566591 0
v -0.95898038437033761 2.0473123562253805 -0.52138709836937691
v -1.9179607687406752 2.0473123562253805 -0.80485953511220987
v -2.4393478671100519 1.2424528211131705 -0.52138709836937691
v -2.7228203038528851 0.28347243674283296 -0.52138709836937691
v -2.7228203038528851 -0.67550794762750466 -0.80485953511220987
v -1.9179607687406752 -1.1968950459968815 -0.52138709836937691
v -1.9179607687406752 0 -4.5704540357038486
v -0.95898038437033761 -1.4803674827397144 -4.0490669373344712
v -1.9179607687406752 -1.4803674827397144 -3.7655945005916385
v -2.4393478671100519 -0.67550794762750466 -4.0490669373344712
v -2.7228203038528851 0.28347243674283296 -4.0490669373344712
v -2.7228203038528851 1.2424528211131705 -3.7655945005916385
v -1.9179607687406752 1.7638399194825474 -4.0490669373344712
v 1.3262466334815866 -0.67550794762750466 -2.0017545811090915
v 1.3262466334815866 0.56694487348566591 -1.3262466334815866
v 0.80485953511220976 -1.1968950459968815 -1.3262466334815866
v 0.80485953511220976 -1.4803674827397144 -2.2852270178519243
v 0.5213870983693768 -1.4803674827397144 -3.244207402222262
v 1.3262466334815866 0 -3.244207402222262
v 1.3262466334815866 1.2424528211131705 -2.568699454594757
v 0.80485953511220976 1.7638399194825474 -3.244207402222262
v 0.80485953511220976 2.0473123562253805 -2.2852270178519243
v 0.5213870983693768 2.0473123562253805 -1.3262466334815866
v -3.244207402222262 1.2424528211131705 -2.0017545811090915
v -3.244207402222262 0 -1.3262466334815866
v -2.7228203038528851 1.7638399194825474 -1.3262466334815866
v -2.7228203038528851 2.0473123562253805 -2.2852270178519243
v -2.4393478671100519 2.0473123562253805 -3.244207402222262
v -3.244207402222262 0.56694487348566591 -3.244207402222262
v -3.244207402222262 -0.67550794762750466 -2.568699454594757
v -2.7228203038528851 -1.1968950459968815 -3.244207402222262
v -2.7228203038528851 -1.4803674827397144 -2.2852270178519243
v -2.4393478671100519 -1.4803674827397144 -1.3262466334815866
v -0.67550794762750466 -2.0017545811090915 -1.3262466334815866
v 0 -2.0017545811090915 -2.568699454594757
v -1.9179607687406752 -2.0017545811090915 -2.0017545811090915
v -0.67550794762750466 2.568699454594757 -3.244207402222262
v 0 2.568699454594757 -2.0017545811090915
v -1.9179607687406752 2.568699454594757 -2.568699454594757
v -1.2424528211131705 2.568699454594757 -1.3262466334815866
v -1.2424528211131705 -2.0017545811090915 -3.244207402222262
vn 0.3522011287389577 -0.64779887126104241 1.1914878839531187
vn 0.41964337760708059 0.22815549365396182 0.77184450634603807
vn 0.35220112873895792 0.647798871261043 -1.1914878839531189
vn 0.4196433776070812 -0.22815549365396165 -0.77184450634603818
vn -0.35220112873895759 0.64779887126104241 1.1914878839531189
vn -0.4196433776070807 -0.22815549365396184 0.77184450634603829
vn -0.352201128738958 -0.647798871261043 -1.1914878839531187
vn -0.41964337760708109 0.22815549365396168 -0.77184450634603818
vn 1.1914878839531187 -0.35220112873895776 0.6477988712610423
vn 0.77184450634603829 -0.41964337760708065 -0.22815549365396182
vn 1.191487883953118 0.35220112873895776 -0.6477988712610423
vn 0.77184450634603852 0.41964337760708065 0.22815549365396193
vn -1.1914878839531187 0.35220112873895787 0.64779887126104241
vn -0.77184450634603852 0.4196433776070807 -0.22815549365396209
vn -1.191487883953118 -0.35220112873895787 -0.64779887126104241
vn -0.77184450634603829 -0.4196433776070807 0.228155493653962
vn 0.64779887126104274 -1.1914878839531184 0.35220112873895781
vn -0.22815549365396179 -0.77184450634603807 0.41964337760708093
vn 0.64779887126104185 1.1914878839531184 -0.35220112873895737
vn -0.22815549365396184 0.77184450634603763 -0.41964337760708015
vn -0.64779887126104185 1.1914878839531187 0.35220112873895743
vn 0.22815549365396196 0.77184450634603807 0.4196433776070802
vn -0.64779887126104274 -1.1914878839531187 -0.35220112873895787
vn 0.22815549365396165 -0.77184450634603763 -0.41964337760708093
vn 0 0 1.9999999999999996
vn 0 0 -1.9999999999999996
vn 1.9999999999999998 0 0
vn -1.9999999999999996 0 0
vn 0 -1.9999999999999998 0
vn 0 1.9999999999999998 0
vn 0.49999999999999989 -0.49999999999999994 0.5
vn 0.49999999999999989 0.49999999999999967 -0.50000000000000011
vn -0.50000000000000011 0.49999999999999989 0.50000000000000022
vn -0.49999999999999967 -0.49999999999999967 -0.50000000000000022
vn 0.50000000000000011 0.49999999999999989 0.50000000000000022
vn 0.49999999999999967 -0.49999999999999967 -0.5
vn -0.49999999999999994 -0.5 0.5
vn -0.49999999999999978 0.49999999999999978 -0.50000000000000022
vn 0.50000000000000011 -0.14779887126104241 0.69148788395311866
vn 0.50000000000000044 0.14779887126104255 -0.69148788395311866
vn -0.5 0.14779887126104255 0.69148788395311866
vn -0.50000000000000056 -0.14779887126104266 -0.69148788395311878
vn 0.69148788395311889 -0.5 0.14779887126104238
vn 0.69148788395311911 0.5 -0.14779887126104249
vn -0.69148788395311911 0.50000000000000011 0.14779887126104255
vn -0.69148788395311889 -0.50000000000000011 -0.14779887126104241
vn 0.14779887126104249 -0.69148788395311866 0.50000000000000033
vn 0.14779887126104219 0.69148788395311822 -0.49999999999999967
vn -0.1477988712610423 0.69148788395311866 0.49999999999999967
vn -0.14779887126104238 -0.69148788395311822 -0.50000000000000033
vn 0.14779887126104255 0.50000000000000011 0.691487883953119
vn 0.14779887126104255 -0.50000000000000056 -0.69148788395311866
vn -0.14779887126104241 -0.50000000000000011 0.69148788395311878
vn -0.14779887126104266 0.50000000000000056 -0.691487883953119
vn 0.69148788395311855 0.14779887126104238 0.49999999999999994
vn 0.69148788395311822 -0.14779887126104227 -0.5
vn -0.69148788395311866 -0.14779887126104241 0.50000000000000011
vn -0.69148788395311822 0.1477988712610423 -0.5
vn 0.49999999999999972 0.69148788395311889 0.1477988712610423
vn 0.50000000000000033 -0.69148788395311889 -0.14779887126104249
vn -0.50000000000000033 -0.69148788395311889 0.1477988712610426
vn -0.49999999999999972 0.69148788395311889 -0.14779887126104241
g Rectified Snub Cube (laevo)
f 1//1 2//1 3//1 4//1 5//1
f 1//2 6//2 7//2 8//2 9//2
f 10//3 11//3 12//3 13//3 14//3
f 10//4 15//4 16//4 17//4 18//4
f 19//5 9//5 20//5 21//5 22//5
f 19//6 23//6 24//6 25//6 2//6
f 26//7 18//7 27//7 28//7 29//7
f 26//8 30//8 31//8 32//8 11//8
f 33//9 34//9 6//9 5//9 35//9
f 33//10 36//10 37//10 16//10 38//10
f 39//11 38//11 15//11 14//11 40//11
f 39//12 41//12 42//12 7//12 34//12
f 43//13 44//13 23//13 22//13 45//13
f 43//14 46//14 47//14 31//14 48//14
f 49//15 48//15 30//15 29//15 50//15
f 49//16 51//16 52//16 24//16 44//16
f 53//17 54//17 36//17 35//17 4//17
f 53//18 3//18 25//18 52//18 55//18
f 56//19 57//19 41//19 40//19 13//19
f 56//20 12//20 32//20 47//20 58//20
f 59//21 58//21 46//21 45//21 21//21
f 59//22 20//22 8//22 42//22 57//22
f 60//23 55//23 51//23 50//23 28//23
f 60//24 27//24 17//24 37//24 54//24
f 1//25 9//25 19//25 2//25
f 10//26 18//26 26//26 11//26
f 33//27 38//27 39//27 34//27
f 43//28 48//28 49//28 44//28
f 53//29 55//29 60//29 54//29
f 56//30 58//30 59//30 57//30
f 5//31 4//31 35//31
f 14//32 13//32 40//32
f 22//33 21//33 45//33
f 29//34 28//34 50//34
f 8//35 7//35 42//35
f 17//36 16//36 37//36
f 25//37 24//37 52//37
f 32//38 31//38 47//38
f 1//39 5//39 6//39
f 10//40 14//40 15//40
f 19//41 22//41 23//41
f 26//42 29//42 30//42
f 33//43 35//43 36//43
f 39//44 40//44 41//44
f 43//45 45//45 46//45
f 49//46 50//46 51//46
f 53//47 4//47 3//47
f 56//48 13//48 12//48
f 59//49 21//49 20//49
f 60//50 28//50 27//50
f 9//51 8//51 20//51
f 18//52 17//52 27//52
f 2//53 25//53 3//53
f 11//54 32//54 12//54
f 34//55 7//55 6//55
f 38//56 16//56 15//56
f 44//57 24//57 23//57
f 48//58 31//58 30//58
f 57//59 42//59 41//59
f 54//60 37//60 36//60
f 55//61 52//61 51//61
f 58//62 47//62 46//62
