o Rectified Rhombicuboctahedron
v 0 0 0
v -1 1 0
v -2 0 0
v -1 -1 0
v 0 0 -4.82842712474619
v -1 -1 -4.82842712474619
v -2 0 -4.82842712474619
v -1 1 -4.82842712474619
v 1.4142135623730949 1 -2.4142135623730949
v 1.4142135623730949 0 -1.4142135623730949
v 1.4142135623730949 -1 -2.4142135623730949
v 1.4142135623730949 0 -3.4142135623730949
v -3.4142135623730949 1 -2.4142135623730949
v -3.4142135623730949 0 -3.4142135623730949
v -3.4142135623730949 -1 -2.4142135623730949
v -3.4142135623730949 0 -1.4142135623730949
v -1 2.4142135623730949 -1.4142135623730949
v 0 2.4142135623730949 -2.4142135623730949
v -1 2.4142135623730949 -3.4142135623730949
v -2 2.4142135623730949 -2.4142135623730949
v -1 -2.4142135623730949 -1.4142135623730949
v -2 -2.4142135623730949 -2.4142135623730949
v -1 -2.4142135623730949 -3.4142135623730949
v 0 -2.4142135623730949 -2.4142135623730949
v 0.70710678118654746 -1 -0.70710678118654746
v 0.70710678118654746 1 -0.70710678118654746
v 0.70710678118654746 1 -4.1213203435596419
v 0.70710678118654746 -1 -4.1213203435596419
v -2.7071067811865475 1 -0.70710678118654746
v -2.7071067811865475 -1 -0.70710678118654746
v -2.7071067811865475 -1 -4.1213203435596419
v -2.7071067811865475 1 -4.1213203435596419
v 0.70710678118654746 1.7071067811865475 -3.4142135623730949
v 0.70710678118654746 1.7071067811865475 -1.4142135623730949
v 0.70710678118654746 -1.7071067811865475 -1.4142135623730949
v 0.70710678118654746 -1.7071067811865475 -3.4142135623730949
v -2.7071067811865475 1.7071067811865475 -1.4142135623730949
v -2.7071067811865475 1.7071067811865475 -3.4142135623730949
v -2.7071067811865475 -1.7071067811865475 -3.4142135623730949
v -2.7071067811865475 -1.7071067811865475 -1.4142135623730949
v -2 1.7071067811865475 -0.70710678118654746
v 0 1.7071067811865475 -0.70710678118654746
v 0 1.7071067811865475 -4.1213203435596419
v -2 1.7071067811865475 -4.1213203435596419
v 0 -1.7071067811865475 -0.70710678118654746
v -2 -1.7071067811865475 -0.70710678118654746
v -2 -1.7071067811865475 -4.1213203435596419
v 0 -1.7071067811865475 -4.1213203435596419
vn 0 0 2
vn 0 0 -2
vn 2 0 0
vn -2 0 0
vn 0 2 0
vn 0 -2 0
vn 1.4142135623730949 0 1.4142135623730949
vn 1.4142135623730949 6.106226635438361E-16 -1.4142135623730949
vn -1.4142135623730949 0 1.4142135623730949
vn -1.4142135623730949 -6.106226635438361E-16 -1.4142135623730949
vn 1.4142135623730949 1.4142135623730949 0
vn 1.4142135623730949 -1.4142135623730949 0
vn -1.4142135623730949 1.4142135623730949 0
vn -1.4142135623730949 -1.4142135623730949 0
vn 0 1.4142135623730949 1.4142135623730949
vn 6.106226635438361E-16 1.4142135623730949 -1.4142135623730949
vn 0 -1.4142135623730949 1.4142135623730949
vn -6.106226635438361E-16 -1.4142135623730949 -1.4142135623730949
vn 0.70710678118654746 -0.70710678118654746 1.7071067811865475
vn 0.49999999999999989 0.49999999999999989 1.2071067811865475
vn 0.70710678118654791 0.70710678118654791 -1.7071067811865475
vn 0.50000000000000022 -0.50000000000000022 -1.2071067811865475
vn -0.70710678118654746 0.70710678118654746 1.7071067811865475
vn -0.49999999999999989 -0.49999999999999989 1.2071067811865475
vn -0.70710678118654791 -0.70710678118654791 -1.7071067811865475
vn -0.50000000000000022 0.50000000000000022 -1.2071067811865475
vn 1.707106781186547 0.70710678118654746 -0.70710678118654746
vn 1.2071067811865475 0.49999999999999989 0.49999999999999989
vn 1.7071067811865475 -0.70710678118654746 0.70710678118654746
vn 1.207106781186547 -0.49999999999999961 -0.49999999999999989
vn -1.7071067811865475 0.70710678118654746 0.70710678118654746
vn -1.207106781186547 0.49999999999999961 -0.49999999999999989
vn -1.707106781186547 -0.70710678118654746 -0.70710678118654746
vn -1.2071067811865475 -0.49999999999999989 0.49999999999999989
vn -0.70710678118654746 1.7071067811865475 0.70710678118654746
vn 0.49999999999999989 1.2071067811865475 0.49999999999999989
vn 0.70710678118654746 1.7071067811865475 -0.70710678118654746
vn -0.49999999999999961 1.2071067811865466 -0.49999999999999989
vn 0.70710678118654746 -1.7071067811865475 0.70710678118654746
vn -0.49999999999999989 -1.2071067811865475 0.49999999999999989
vn -0.70710678118654746 -1.7071067811865475 -0.70710678118654746
vn 0.49999999999999961 -1.2071067811865466 -0.49999999999999989
vn 0.49999999999999989 0.49999999999999989 0.49999999999999989
vn 0.49999999999999961 0.49999999999999961 -0.49999999999999989
vn 0.49999999999999989 -0.49999999999999989 0.49999999999999989
vn 0.49999999999999961 -0.49999999999999961 -0.49999999999999989
vn -0.49999999999999989 0.49999999999999989 0.49999999999999989
vn -0.49999999999999961 0.49999999999999961 -0.49999999999999989
vn -0.49999999999999989 -0.49999999999999989 0.49999999999999989
vn -0.49999999999999961 -0.49999999999999961 -0.49999999999999989
g Rectified Rhombicuboctahedron
f 1//1 2//1 3//1 4//1
f 5//2 6//2 7//2 8//2
f 9//3 10//3 11//3 12//3
f 13//4 14//4 15//4 16//4
f 17//5 18//5 19//5 20//5
f 21//6 22//6 23//6 24//6
f 1//7 25//7 10//7 26//7
f 5//8 27//8 12//8 28//8
f 3//9 29//9 16//9 30//9
f 7//10 31//10 14//10 32//10
f 9//11 33//11 18//11 34//11
f 11//12 35//12 24//12 36//12
f 13//13 37//13 20//13 38//13
f 15//14 39//14 22//14 40//14
f 17//15 41//15 2//15 42//15
f 19//16 43//16 8//16 44//16
f 21//17 45//17 4//17 46//17
f 23//18 47//18 6//18 48//18
f 1//19 4//19 45//19 25//19
f 1//20 26//20 42//20 2//20
f 5//21 8//21 43//21 27//21
f 5//22 28//22 48//22 6//22
f 3//23 2//23 41//23 29//23
f 3//24 30//24 46//24 4//24
f 7//25 6//25 47//25 31//25
f 7//26 32//26 44//26 8//26
f 9//27 12//27 27//27 33//27
f 9//28 34//28 26//28 10//28
f 11//29 10//29 25//29 35//29
f 11//30 36//30 28//30 12//30
f 13//31 16//31 29//31 37//31
f 13//32 38//32 32//32 14//32
f 15//33 14//33 31//33 39//33
f 15//34 40//34 30//34 16//34
f 17//35 20//35 37//35 41//35
f 17//36 42//36 34//36 18//36
f 19//37 18//37 33//37 43//37
f 19//38 44//38 38//38 20//38
f 21//39 24//39 35//39 45//39
f 21//40 46//40 40//40 22//40
f 23//41 22//41 39//41 47//41
f 23//42 48//42 36//42 24//42
f 26//43 34//43 42//43
f 27//44 43//44 33//44
f 25//45 45//45 35//45
f 28//46 36//46 48//46
f 29//47 41//47 37//47
f 32//48 38//48 44//48
f 30//49 40//49 46//49
f 31//50 47//50 39//50
