o Rectified Truncated Icosahedron
v 0 0 0
v 0.11803398874989479 -0.80901699437494745 0.69098300562505277
v 0.92705098312484213 -1.5 0.57294901687515787
v 1.6180339887498949 -1.3819660112501051 -0.23606797749978958
v 1.5 -0.57294901687515787 -0.92705098312484213
v 0.69098300562505255 0.1180339887498949 -0.80901699437494734
v 0 0 -3.4721359549995792
v 0.69098300562505255 0.1180339887498949 -2.6631189606246317
v 1.5 -0.57294901687515787 -2.5450849718747373
v 1.6180339887498949 -1.3819660112501051 -3.23606797749979
v 0.92705098312484213 -1.5 -4.0450849718747373
v 0.11803398874989479 -0.80901699437494745 -4.1631189606246322
v 0 -4.6180339887498949 0
v 0.69098300562505255 -4.73606797749979 -0.80901699437494734
v 1.5 -4.0450849718747373 -0.92705098312484213
v 1.6180339887498949 -3.23606797749979 -0.23606797749978958
v 0.92705098312484213 -3.1180339887498949 0.57294901687515787
v 0.11803398874989479 -3.8090169943749475 0.69098300562505277
v 0 -4.6180339887498949 -3.4721359549995792
v 0.11803398874989479 -3.8090169943749475 -4.1631189606246322
v 0.92705098312484213 -3.1180339887498949 -4.0450849718747373
v 1.6180339887498949 -3.23606797749979 -3.23606797749979
v 1.5 -4.0450849718747373 -2.5450849718747373
v 0.69098300562505255 -4.73606797749979 -2.6631189606246317
v -1.6180339887498949 0 0
v -2.3090169943749475 0.1180339887498949 -0.80901699437494734
v -3.1180339887498949 -0.57294901687515787 -0.92705098312484213
v -3.23606797749979 -1.3819660112501051 -0.23606797749978958
v -2.5450849718747373 -1.5 0.57294901687515787
v -1.7360679774997898 -0.80901699437494745 0.69098300562505277
v -1.6180339887498949 0 -3.4721359549995792
v -1.7360679774997898 -0.80901699437494745 -4.1631189606246322
v -2.5450849718747373 -1.5 -4.0450849718747373
v -3.23606797749979 -1.3819660112501051 -3.23606797749979
v -3.1180339887498949 -0.57294901687515787 -2.5450849718747373
v -2.3090169943749475 0.1180339887498949 -2.6631189606246317
v -1.6180339887498949 -4.6180339887498949 0
v -1.7360679774997898 -3.8090169943749475 0.69098300562505277
v -2.5450849718747373 -3.1180339887498949 0.57294901687515787
v -3.23606797749979 -3.23606797749979 -0.23606797749978958
v -3.1180339887498949 -4.0450849718747373 -0.92705098312484213
v -2.3090169943749475 -4.73606797749979 -0.80901699437494734
v -1.6180339887498949 -4.6180339887498949 -3.4721359549995792
v -2.3090169943749475 -4.73606797749979 -2.6631189606246317
v -3.1180339887498949 -4.0450849718747373 -2.5450849718747373
v -3.23606797749979 -3.23606797749979 -3.23606797749979
v -2.5450849718747373 -3.1180339887498949 -4.0450849718747373
v -1.7360679774997898 -3.8090169943749475 -4.1631189606246322
v -0.80901699437494745 -0.30901699437494745 0.50000000000000022
v -1.7360679774997898 -1.8090169943749475 1.0729490168751579
v -0.80901699437494745 -2.3090169943749475 1.2639320225002104
v 0.11803398874989479 -1.8090169943749475 1.0729490168751579
v -0.80901699437494745 -0.30901699437494745 -3.9721359549995796
v 0.11803398874989479 -1.8090169943749475 -4.5450849718747373
v -0.80901699437494745 -2.3090169943749475 -4.73606797749979
v -1.7360679774997898 -1.8090169943749475 -4.5450849718747373
v -0.80901699437494745 -4.3090169943749475 0.50000000000000022
v 0.11803398874989479 -2.8090169943749475 1.0729490168751579
v -1.7360679774997898 -2.8090169943749475 1.0729490168751579
v -0.80901699437494745 -4.3090169943749475 -3.9721359549995796
v -1.7360679774997898 -2.8090169943749475 -4.5450849718747373
v 0.11803398874989479 -2.8090169943749475 -4.5450849718747373
v 1.4270509831248424 -2.3090169943749475 0.26393202250021042
v 2 -3.23606797749979 -1.2360679774997896
v 2.1909830056250525 -2.3090169943749475 -1.7360679774997896
v 2 -1.3819660112501051 -1.2360679774997896
v 1.4270509831248424 -2.3090169943749475 -3.73606797749979
v 2 -1.3819660112501051 -2.23606797749979
v 2 -3.23606797749979 -2.23606797749979
v -3.0450849718747373 -2.3090169943749475 0.26393202250021042
v -3.6180339887498949 -1.3819660112501051 -1.2360679774997896
v -3.8090169943749475 -2.3090169943749475 -1.7360679774997896
v -3.6180339887498949 -3.23606797749979 -1.2360679774997896
v -3.0450849718747373 -2.3090169943749475 -3.73606797749979
v -3.6180339887498949 -3.23606797749979 -2.23606797749979
v -3.6180339887498949 -1.3819660112501051 -2.23606797749979
v 1.1909830056250526 -0.072949016875157646 -1.7360679774997896
v -0.30901699437494745 0.5 -2.6631189606246317
v -0.80901699437494745 0.69098300562505255 -1.7360679774997896
v -0.30901699437494745 0.5 -0.80901699437494734
v 1.1909830056250526 -4.5450849718747373 -1.7360679774997896
v -0.30901699437494745 -5.1180339887498949 -0.80901699437494734
v -0.80901699437494745 -5.3090169943749475 -1.7360679774997896
v -0.30901699437494745 -5.1180339887498949 -2.6631189606246317
v -2.8090169943749475 -0.072949016875157646 -1.7360679774997896
v -1.3090169943749475 0.5 -0.80901699437494734
v -1.3090169943749475 0.5 -2.6631189606246317
v -2.8090169943749475 -4.5450849718747373 -1.7360679774997896
v -1.3090169943749475 -5.1180339887498949 -2.6631189606246317
v -1.3090169943749475 -5.1180339887498949 -0.80901699437494734
vn 0.57294901687515787 0.57294901687515787 0.57294901687515765
vn 0.57294901687515787 0.572949016875158 -0.57294901687515787
vn 0.57294901687515765 -0.57294901687515765 0.57294901687515776
vn 0.57294901687515809 -0.572949016875158 -0.57294901687515765
vn -0.57294901687515787 0.57294901687515765 0.57294901687515787
vn -0.57294901687515809 0.57294901687515809 -0.57294901687515765
vn -0.57294901687515787 -0.57294901687515787 0.57294901687515765
vn -0.57294901687515776 -0.572949016875158 -0.57294901687515776
vn 0 0.35410196624968454 0.92705098312484235
vn 0 0.35410196624968449 -0.92705098312484224
vn 0 -0.35410196624968449 0.92705098312484224
vn 0 -0.35410196624968454 -0.92705098312484235
vn 0.92705098312484235 0 0.35410196624968454
vn 0.92705098312484235 0 -0.35410196624968454
vn -0.92705098312484235 0 0.35410196624968454
vn -0.92705098312484235 0 -0.35410196624968454
vn 0.35410196624968443 0.92705098312484213 0
vn 0.35410196624968449 -0.92705098312484224 0
vn -0.35410196624968449 0.92705098312484224 0
vn -0.35410196624968443 -0.92705098312484213 0
vn 1.1102230246251565E-16 0.80901699437494745 0.5
vn -1.6653345369377348E-16 0.80901699437494756 -0.5
vn -1.1102230246251565E-16 -0.80901699437494745 0.5
vn 1.6653345369377348E-16 -0.80901699437494756 -0.5
vn 0.5 1.1102230246251565E-16 0.80901699437494745
vn 0.5 -1.1102230246251565E-16 -0.80901699437494745
vn -0.5 5.5511151231257827E-17 0.80901699437494745
vn -0.5 -5.5511151231257827E-17 -0.80901699437494745
vn 0.80901699437494745 0.5 1.3877787807814457E-16
vn 0.80901699437494767 -0.50000000000000011 5.5511151231257827E-17
vn -0.80901699437494745 0.50000000000000011 -1.3877787807814457E-16
vn -0.80901699437494745 -0.5 -5.5511151231257827E-17
vn 0.19098300562505255 0 0.92705098312484224
vn -0.19098300562505255 0 0.92705098312484235
vn 0.19098300562505255 0 -0.92705098312484224
vn -0.19098300562505255 0 -0.92705098312484235
vn 0.92705098312484258 0.1909830056250526 0
vn 0.92705098312484258 -0.1909830056250526 0
vn -0.92705098312484258 0.1909830056250526 0
vn -0.92705098312484258 -0.1909830056250526 0
vn 0 0.92705098312484213 -0.19098300562505255
vn 0 0.92705098312484224 0.19098300562505255
vn 0 -0.92705098312484224 0.19098300562505255
vn 0 -0.92705098312484213 -0.19098300562505255
vn 0.38196601125010515 0.30901699437494734 0.80901699437494734
vn 0.19098300562505269 0.618033988749895 0.69098300562505255
vn 0.38196601125010515 0.30901699437494734 -0.80901699437494734
vn 0.1909830056250528 0.61803398874989524 -0.69098300562505255
vn 0.38196601125010515 -0.30901699437494734 0.80901699437494734
vn 0.19098300562505269 -0.618033988749895 0.69098300562505255
vn 0.38196601125010515 -0.30901699437494734 -0.80901699437494734
vn 0.19098300562505277 -0.61803398874989524 -0.69098300562505255
vn -0.38196601125010515 0.3090169943749474 0.80901699437494745
vn -0.19098300562505269 0.61803398874989512 0.69098300562505266
vn -0.38196601125010515 0.3090169943749474 -0.80901699437494745
vn -0.19098300562505277 0.61803398874989535 -0.69098300562505266
vn -0.38196601125010515 -0.3090169943749474 0.80901699437494745
vn -0.19098300562505269 -0.618033988749895 0.69098300562505266
vn -0.38196601125010515 -0.3090169943749474 -0.80901699437494745
vn -0.1909830056250528 -0.61803398874989524 -0.69098300562505266
vn 0.80901699437494723 0.38196601125010515 0.30901699437494728
vn 0.69098300562505266 0.19098300562505269 0.618033988749895
vn 0.80901699437494723 0.38196601125010515 -0.30901699437494734
vn 0.69098300562505266 0.19098300562505269 -0.61803398874989512
vn 0.80901699437494745 -0.38196601125010515 0.3090169943749474
vn 0.69098300562505266 -0.19098300562505269 0.61803398874989512
vn 0.80901699437494745 -0.38196601125010515 -0.3090169943749474
vn 0.69098300562505266 -0.19098300562505269 -0.618033988749895
vn -0.80901699437494723 0.38196601125010515 0.30901699437494734
vn -0.69098300562505266 0.19098300562505258 0.6180339887498949
vn -0.80901699437494723 0.38196601125010515 -0.30901699437494728
vn -0.69098300562505266 0.19098300562505258 -0.6180339887498949
vn -0.80901699437494745 -0.38196601125010515 0.3090169943749474
vn -0.69098300562505266 -0.19098300562505258 0.6180339887498949
vn -0.80901699437494745 -0.38196601125010515 -0.3090169943749474
vn -0.69098300562505266 -0.19098300562505258 -0.6180339887498949
vn 0.30901699437494734 0.80901699437494734 0.38196601125010515
vn 0.618033988749895 0.69098300562505255 0.19098300562505269
vn 0.3090169943749474 0.80901699437494745 -0.38196601125010515
vn 0.618033988749895 0.69098300562505266 -0.19098300562505269
vn 0.30901699437494734 -0.80901699437494734 0.38196601125010515
vn 0.61803398874989479 -0.69098300562505255 0.19098300562505258
vn 0.3090169943749474 -0.80901699437494745 -0.38196601125010515
vn 0.61803398874989479 -0.69098300562505266 -0.19098300562505258
vn -0.30901699437494734 0.80901699437494734 0.38196601125010515
vn -0.618033988749895 0.69098300562505255 0.19098300562505269
vn -0.3090169943749474 0.80901699437494745 -0.38196601125010515
vn -0.618033988749895 0.69098300562505266 -0.19098300562505269
vn -0.30901699437494734 -0.80901699437494734 0.38196601125010515
vn -0.6180339887498949 -0.69098300562505255 0.19098300562505258
vn -0.3090169943749474 -0.80901699437494745 -0.38196601125010515
vn -0.61803398874989479 -0.69098300562505266 -0.19098300562505258
g Rectified Truncated Icosahedron
f 1//1 2//1 3//1 4//1 5//1 6//1
f 7//2 8//2 9//2 10//2 11//2 12//2
f 13//3 14//3 15//3 16//3 17//3 18//3
f 19//4 20//4 21//4 22//4 23//4 24//4
f 25//5 26//5 27//5 28//5 29//5 30//5
f 31//6 32//6 33//6 34//6 35//6 36//6
f 37//7 38//7 39//7 40//7 41//7 42//7
f 43//8 44//8 45//8 46//8 47//8 48//8
f 49//9 30//9 50//9 51//9 52//9 2//9
f 53//10 12//10 54//10 55//10 56//10 32//10
f 57//11 18//11 58//11 51//11 59//11 38//11
f 60//12 48//12 61//12 55//12 62//12 20//12
f 63//13 16//13 64//13 65//13 66//13 4//13
f 67//14 10//14 68//14 65//14 69//14 22//14
f 70//15 28//15 71//15 72//15 73//15 40//15
f 74//16 46//16 75//16 72//16 76//16 34//16
f 77//17 8//17 78//17 79//17 80//17 6//17
f 81//18 14//18 82//18 83//18 84//18 24//18
f 85//19 26//19 86//19 79//19 87//19 36//19
f 88//20 44//20 89//20 83//20 90//20 42//20
f 49//21 1//21 80//21 86//21 25//21
f 53//22 31//22 87//22 78//22 7//22
f 57//23 37//23 90//23 82//23 13//23
f 60//24 19//24 84//24 89//24 43//24
f 63//25 3//25 52//25 58//25 17//25
f 67//26 21//26 62//26 54//26 11//26
f 70//27 39//27 59//27 50//27 29//27
f 74//28 33//28 56//28 61//28 47//28
f 77//29 5//29 66//29 68//29 9//29
f 81//30 23//30 69//30 64//30 15//30
f 85//31 35//31 76//31 71//31 27//31
f 88//32 41//32 73//32 75//32 45//32
f 51//33 58//33 52//33
f 51//34 50//34 59//34
f 55//35 54//35 62//35
f 55//36 61//36 56//36
f 65//37 68//37 66//37
f 65//38 64//38 69//38
f 72//39 71//39 76//39
f 72//40 75//40 73//40
f 79//41 78//41 87//41
f 79//42 86//42 80//42
f 83//43 82//43 90//43
f 83//44 89//44 84//44
f 2//45 52//45 3//45
f 2//46 1//46 49//46
f 12//47 11//47 54//47
f 12//48 53//48 7//48
f 18//49 17//49 58//49
f 18//50 57//50 13//50
f 20//51 62//51 21//51
f 20//52 19//52 60//52
f 30//53 29//53 50//53
f 30//54 49//54 25//54
f 32//55 56//55 33//55
f 32//56 31//56 53//56
f 38//57 59//57 39//57
f 38//58 37//58 57//58
f 48//59 47//59 61//59
f 48//60 60//60 43//60
f 4//61 66//61 5//61
f 4//62 3//62 63//62
f 10//63 9//63 68//63
f 10//64 67//64 11//64
f 16//65 15//65 64//65
f 16//66 63//66 17//66
f 22//67 69//67 23//67
f 22//68 21//68 67//68
f 28//69 27//69 71//69
f 28//70 70//70 29//70
f 34//71 76//71 35//71
f 34//72 33//72 74//72
f 40//73 73//73 41//73
f 40//74 39//74 70//74
f 46//75 45//75 75//75
f 46//76 74//76 47//76
f 6//77 80//77 1//77
f 6//78 5//78 77//78
f 8//79 7//79 78//79
f 8//80 77//80 9//80
f 14//81 13//81 82//81
f 14//82 81//82 15//82
f 24//83 84//83 19//83
f 24//84 23//84 81//84
f 26//85 25//85 86//85
f 26//86 85//86 27//86
f 36//87 87//87 31//87
f 36//88 35//88 85//88
f 42//89 90//89 37//89
f 42//90 41//90 88//90
f 44//91 43//91 89//91
f 44//92 88//92 45//92
