o Rectified Truncated Tetrahedron
v 0 0 0
v 1.4142135623730952 -0.70710678118654757 -0.70710678118654724
v 2.1213203435596424 0 -2.1213203435596424
v 1.4142135623730952 1.4142135623730952 -2.82842712474619
v 0 2.1213203435596424 -2.1213203435596424
v -0.70710678118654757 1.4142135623730952 -0.70710678118654724
v -1.4142135623730952 0.70710678118654757 -0.70710678118654724
v -2.1213203435596424 0 -2.1213203435596424
v -1.4142135623730952 -1.4142135623730952 -2.82842712474619
v 0 -2.1213203435596424 -2.1213203435596424
v 0.70710678118654757 -1.4142135623730952 -0.70710678118654724
v 0 0 -4.2426406871192848
v 1.4142135623730952 0.70710678118654757 -3.5355339059327378
v 1.4142135623730952 -1.4142135623730952 -1.4142135623730949
v -0.70710678118654757 -1.4142135623730952 -3.5355339059327378
v -1.4142135623730952 -0.70710678118654757 -3.5355339059327378
v -1.4142135623730952 1.4142135623730952 -1.4142135623730949
v 0.70710678118654757 1.4142135623730952 -3.5355339059327378
vn 1.5 1.5000000000000009 1.5
vn -1.5 -1.5000000000000009 1.5
vn 1.5 -1.5000000000000009 -1.5
vn -1.5 1.5000000000000009 -1.5
vn 0.50000000000000011 -0.50000000000000011 0.50000000000000011
vn 0.50000000000000033 0.50000000000000033 -0.50000000000000011
vn -0.50000000000000011 0.50000000000000011 0.50000000000000011
vn -0.50000000000000033 -0.50000000000000033 -0.50000000000000011
vn 0.49999999999999983 -0.49999999999999983 1.5000000000000004
vn -0.49999999999999983 0.49999999999999983 1.5000000000000004
vn 0.49999999999999967 0.49999999999999967 -1.5000000000000004
vn -0.49999999999999967 -0.49999999999999967 -1.5000000000000004
vn 1.5000000000000004 -0.49999999999999989 0.49999999999999983
vn 1.5000000000000004 0.50000000000000011 -0.49999999999999983
vn -1.5000000000000004 0.49999999999999989 0.49999999999999983
vn -1.5000000000000004 -0.50000000000000011 -0.49999999999999983
vn 0.50000000000000011 1.5000000000000007 -0.49999999999999983
vn -0.49999999999999989 1.5000000000000002 0.49999999999999983
vn 0.49999999999999989 -1.5000000000000002 0.49999999999999983
vn -0.50000000000000011 -1.5000000000000007 -0.49999999999999983
g Rectified Truncated Tetrahedron
f 1//1 2//1 3//1 4//1 5//1 6//1
f 1//2 7//2 8//2 9//2 10//2 11//2
f 12//3 13//3 3//3 14//3 10//3 15//3
f 12//4 16//4 8//4 17//4 5//4 18//4
f 2//5 11//5 14//5
f 13//6 18//6 4//6
f 7//7 6//7 17//7
f 16//8 15//8 9//8
f 1//9 11//9 2//9
f 1//10 6//10 7//10
f 12//11 18//11 13//11
f 12//12 15//12 16//12
f 3//13 2//13 14//13
f 3//14 13//14 4//14
f 8//15 7//15 17//15
f 8//16 16//16 9//16
f 5//17 4//17 18//17
f 5//18 17//18 6//18
f 10//19 14//19 11//19
f 10//20 9//20 15//20
