o Hexpropello Dodecahedron (dextro)
v 0 0 0
v 0.091983194761030618 -0.2560658583782725 0.056848740756118232
v 0.34319353022244059 -0.31240296171957704 0.003057939325588066
v 0.50270194995137285 -0.150010442665025 -0.095523685558676408
v 0.43929672802072295 0.097527510947472973 -0.15780282755118869
v 0.17873726072917187 0.18196904005472825 -0.11046570218667995
v 0.082087495232357865 0.37571619223669606 -0.25978018917588652
v -0.15950841972893232 0.40528835395394813 -0.3076289519552089
v -0.34731353325969233 0.24635944646462182 -0.21465156830730692
v -0.27072045549020252 0.0331371045375794 -0.053616961430561827
v -0.42528102545479846 -0.17958260438227711 -0.047674922779354034
v -0.34319353022244059 -0.40810048727822179 0.003057939325588066
v -0.091983194761030618 -0.46443759061952633 0.056848740756118232
v 0 0 -1.8863025184877635
v -0.091983194761030618 -0.2560658583782725 -1.9431512592438818
v -0.34319353022244059 -0.31240296171957704 -1.8893604578133516
v -0.50270194995137285 -0.150010442665025 -1.790778832929087
v -0.43929672802072295 0.097527510947472973 -1.7284996909365749
v -0.17873726072917187 0.18196904005472825 -1.7758368163010836
v -0.082087495232357865 0.37571619223669606 -1.6265223293118769
v 0.15950841972893232 0.40528835395394813 -1.5786735665325546
v 0.34731353325969233 0.24635944646462182 -1.6716509501804566
v 0.27072045549020252 0.0331371045375794 -1.8326855570572018
v 0.42528102545479846 -0.17958260438227711 -1.8386275957084095
v 0.34319353022244059 -0.40810048727822179 -1.8893604578133516
v 0.091983194761030618 -0.46443759061952633 -1.9431512592438818
v 0 -0.72050344899779883 0
v -0.50270194995137285 -0.57049300633277378 -0.095523685558676408
v -0.43929672802072295 -0.81803095994527175 -0.15780282755118869
v -0.17873726072917187 -0.90247248905252708 -0.11046570218667995
v -0.082087495232357865 -1.0962196412344949 -0.25978018917588652
v 0.15950841972893232 -1.1257918029517469 -0.3076289519552089
v 0.34731353325969233 -0.96686289546242066 -0.21465156830730692
v 0.27072045549020252 -0.75364055353537829 -0.053616961430561827
v 0.42528102545479846 -0.5409208446155217 -0.047674922779354034
v 0 -0.72050344899779883 -1.8863025184877635
v 0.50270194995137285 -0.57049300633277378 -1.790778832929087
v 0.43929672802072295 -0.81803095994527175 -1.7284996909365749
v 0.17873726072917187 -0.90247248905252708 -1.7758368163010836
v 0.082087495232357865 -1.0962196412344949 -1.6265223293118769
v -0.15950841972893232 -1.1257918029517469 -1.5786735665325546
v -0.34731353325969233 -0.96686289546242066 -1.6716509501804566
v -0.27072045549020252 -0.75364055353537829 -1.8326855570572018
v -0.42528102545479846 -0.5409208446155217 -1.8386275957084095
v 0.94315125924388177 -0.36025172449889942 -0.58289953474498235
v 1 -0.2682685297378688 -0.83896539312325491
v 0.94620919856946983 -0.017058194276458827 -0.89530249646455939
v 0.84762757368520536 0.14245022545247343 -0.73290997741000741
v 0.78534843169269308 0.079045003521823531 -0.48537202379750938
v 0.83268555705720182 -0.18151446376972755 -0.4009304946902541
v 0.68337107006799525 -0.27816422926654155 -0.20718334250828629
v 0.63552230728867287 -0.51976014422783168 -0.17761118079103422
v 0.72849969093657485 -0.7075652577585918 -0.33654008828036053
v 0.88953429781331994 -0.63097217998910193 -0.5497624302074029
v 0.89547633646452773 -0.78553274995369793 -0.76248213912725948
v 0.94620919856946983 -0.70344525472134 -0.99100002202320414
v 1 -0.45223491925993003 -1.0473371253645087
v 0.94315125924388177 -0.36025172449889942 -1.3034029837427812
v 0.84762757368520536 -0.86295367445027227 -1.1533925410777561
v 0.78534843169269308 -0.79954845251962237 -1.4009304946902541
v 0.83268555705720182 -0.53898898522807126 -1.4853720237975094
v 0.68337107006799525 -0.44233921973125728 -1.6791191759794772
v 0.63552230728867287 -0.2007433047699671 -1.7086913376967292
v 0.72849969093657485 -0.012938191239207086 -1.5497624302074029
v 0.88953429781331994 -0.0895312690086969 -1.3365400882803606
v 0.89547633646452773 0.065029300955899039 -1.1238203793605042
v -0.94315125924388177 -0.36025172449889942 -0.58289953474498235
v -1 -0.45223491925993003 -0.83896539312325491
v -0.94620919856946983 -0.70344525472134 -0.89530249646455939
v -0.84762757368520536 -0.86295367445027227 -0.73290997741000741
v -0.78534843169269308 -0.79954845251962237 -0.48537202379750938
v -0.83268555705720182 -0.53898898522807126 -0.4009304946902541
v -0.68337107006799525 -0.44233921973125728 -0.20718334250828629
v -0.63552230728867287 -0.2007433047699671 -0.17761118079103422
v -0.72849969093657485 -0.012938191239207086 -0.33654008828036053
v -0.88953429781331994 -0.0895312690086969 -0.5497624302074029
v -0.89547633646452773 0.065029300955899039 -0.76248213912725948
v -0.94620919856946983 -0.017058194276458827 -0.99100002202320414
v -1 -0.2682685297378688 -1.0473371253645087
v -0.94315125924388177 -0.36025172449889942 -1.3034029837427812
v -0.84762757368520536 0.14245022545247343 -1.1533925410777561
v -0.78534843169269308 0.079045003521823531 -1.4009304946902541
v -0.83268555705720182 -0.18151446376972755 -1.4853720237975094
v -0.68337107006799525 -0.27816422926654155 -1.6791191759794772
v -0.63552230728867287 -0.51976014422783168 -1.7086913376967292
v -0.72849969093657485 -0.7075652577585918 -1.5497624302074029
v -0.88953429781331994 -0.63097217998910193 -1.3365400882803606
v -0.89547633646452773 -0.78553274995369793 -1.1238203793605042
v 0.36025172449889942 0.58289953474498235 -0.94315125924388177
v 0.1041858661206269 0.63974827550110058 -0.85116806448285121
v 0.04784876277932236 0.58595747407057042 -0.59995772902144118
v 0.21024128183387442 0.48737584918630594 -0.44044930929250892
v 0.45777923544637239 0.42509670719379367 -0.50385453122315882
v 0.54222076455362767 0.4724338325583024 -0.76441399851470992
v 0.73596791673559547 0.32311934556909583 -0.861063764011524
v 0.76554007845284755 0.27527058278977345 -1.102659678972814
v 0.60661117096352124 0.36824796643767543 -1.2904647925035742
v 0.39338882903647882 0.52928257331442052 -1.2138717147340843
v 0.18066912011662231 0.53522461196562832 -1.3684322846986803
v -0.04784876277932236 0.58595747407057042 -1.2863447894663223
v -0.1041858661206269 0.63974827550110058 -1.0351344540049123
v 0.36025172449889942 -1.3034029837427812 -0.94315125924388177
v 0.1041858661206269 -1.3602517244988994 -1.0351344540049123
v 0.04784876277932236 -1.3064609230683693 -1.2863447894663223
v 0.21024128183387442 -1.2078792981841047 -1.4458532091952545
v 0.45777923544637239 -1.1456001561915925 -1.3824479872646047
v 0.54222076455362767 -1.1929372815561012 -1.1218885199730537
v 0.73596791673559547 -1.0436227945668946 -1.0252387544762396
v 0.76554007845284755 -0.99577403178757229 -0.78364283951494951
v 0.60661117096352124 -1.0887514154354743 -0.59583772598418938
v 0.39338882903647882 -1.2497860223122195 -0.67243080375367925
v 0.18066912011662231 -1.2557280609634272 -0.51787023378908326
v -0.04784876277932236 -1.3064609230683693 -0.59995772902144118
v -0.1041858661206269 -1.3602517244988994 -0.85116806448285121
v -0.36025172449889942 0.58289953474498235 -0.94315125924388177
v -0.21024128183387442 0.48737584918630594 -1.4458532091952545
v -0.45777923544637239 0.42509670719379367 -1.3824479872646047
v -0.54222076455362767 0.4724338325583024 -1.1218885199730537
v -0.73596791673559547 0.32311934556909583 -1.0252387544762396
v -0.76554007845284755 0.27527058278977345 -0.78364283951494951
v -0.60661117096352124 0.36824796643767543 -0.59583772598418938
v -0.39338882903647882 0.52928257331442052 -0.67243080375367925
v -0.18066912011662231 0.53522461196562832 -0.51787023378908326
v -0.36025172449889942 -1.3034029837427812 -0.94315125924388177
v -0.21024128183387442 -1.2078792981841047 -0.44044930929250892
v -0.45777923544637239 -1.1456001561915925 -0.50385453122315882
v -0.54222076455362767 -1.1929372815561012 -0.76441399851470992
v -0.73596791673559547 -1.0436227945668946 -0.861063764011524
v -0.76554007845284755 -0.99577403178757229 -1.102659678972814
v -0.60661117096352124 -1.0887514154354743 -1.2904647925035742
v -0.39338882903647882 -1.2497860223122195 -1.2138717147340843
v -0.18066912011662231 -1.2557280609634272 -1.3684322846986803
v 0.58289953474498246 0.22264781024608304 -0.36025172449889931
v 0.58289953474498246 0.22264781024608304 -1.5260507939888641
v 0.58289953474498246 -0.94315125924388188 -0.36025172449889931
v 0.58289953474498246 -0.94315125924388188 -1.5260507939888641
v -0.58289953474498246 0.22264781024608304 -0.36025172449889931
v -0.58289953474498246 0.22264781024608304 -1.5260507939888641
v -0.58289953474498246 -0.94315125924388188 -0.36025172449889931
v -0.58289953474498246 -0.94315125924388188 -1.5260507939888641
vn 0.016976681123964381 0.019228841000239572 0.059144323434504209
vn -0.0057681986512395159 0.037364546603415871 0.052217100304052758
vn -0.011208482472724875 0.0098956995286727557 0.062709266254831517
vn -0.016976681123964381 0.019228841000239572 -0.059144323434504209
vn 0.0057681986512395367 0.037364546603415885 -0.052217100304052758
vn 0.011208482472724855 0.0098956995286727072 -0.062709266254831517
vn -0.016976681123964381 -0.019228841000239572 0.059144323434504209
vn 0.0057681986512395159 -0.037364546603415871 0.052217100304052758
vn 0.011208482472724879 -0.0098956995286727557 0.062709266254831544
vn 0.016976681123964381 -0.019228841000239572 -0.059144323434504209
vn -0.0057681986512395367 -0.037364546603415885 -0.052217100304052758
vn -0.01120848247272486 -0.0098956995286727072 -0.062709266254831544
vn 0.05914432343450423 0.016976681123964381 0.019228841000239572
vn 0.052217100304052758 -0.0057681986512395159 0.037364546603415871
vn 0.062709266254831558 -0.011208482472724879 0.00989569952867276
vn 0.059144323434504195 -0.016976681123964381 -0.019228841000239572
vn 0.052217100304052758 0.0057681986512395159 -0.037364546603415857
vn 0.062709266254831517 0.011208482472724872 -0.0098956995286727557
vn -0.05914432343450423 -0.016976681123964381 0.019228841000239572
vn -0.052217100304052758 0.0057681986512395159 0.037364546603415857
vn -0.062709266254831544 0.011208482472724879 0.0098956995286727557
vn -0.059144323434504195 0.016976681123964381 -0.019228841000239572
vn -0.052217100304052758 -0.0057681986512395159 -0.037364546603415871
vn -0.06270926625483153 -0.011208482472724872 -0.00989569952867276
vn 0.019228841000239572 0.05914432343450423 0.016976681123964381
vn 0.037364546603415871 0.052217100304052758 -0.0057681986512395159
vn 0.00989569952867276 0.062709266254831517 -0.011208482472724875
vn 0.019228841000239565 -0.0591443234345042 -0.016976681123964381
vn 0.037364546603415913 -0.0522171003040528 0.0057681986512395367
vn 0.00989569952867271 -0.062709266254831517 0.011208482472724855
vn -0.019228841000239565 0.0591443234345042 -0.016976681123964381
vn -0.037364546603415892 0.0522171003040528 0.0057681986512395159
vn -0.00989569952867276 0.062709266254831517 0.011208482472724875
vn -0.019228841000239572 -0.05914432343450423 0.016976681123964381
vn -0.037364546603415885 -0.052217100304052758 -0.0057681986512395367
vn -0.00989569952867271 -0.062709266254831517 -0.011208482472724855
vn 0.04232140077538 0.021779776831088317 0.043480425254591976
vn 0.043480425254591983 0.042321400775380012 0.021779776831088317
vn 0.021779776831088317 0.043480425254591976 0.04232140077538
vn 0.025344719651415631 0.049248623905831443 -0.03298825930381321
vn 0.049248623905831429 0.032988259303813182 -0.025344719651415614
vn 0.03298825930381321 0.025344719651415614 -0.049248623905831429
vn 0.0253447196514156 -0.049248623905831429 0.032988259303813189
vn 0.049248623905831436 -0.032988259303813196 0.025344719651415614
vn 0.032988259303813196 -0.025344719651415614 0.049248623905831436
vn 0.04232140077538004 -0.02177977683108831 -0.043480425254591976
vn 0.043480425254591969 -0.042321400775380005 -0.021779776831088317
vn 0.021779776831088275 -0.043480425254591934 -0.042321400775380012
vn -0.025344719651415614 0.049248623905831429 0.03298825930381321
vn -0.049248623905831436 0.032988259303813196 0.025344719651415614
vn -0.03298825930381321 0.025344719651415614 0.049248623905831429
vn -0.04232140077538004 0.02177977683108831 -0.043480425254591976
vn -0.043480425254591969 0.042321400775380005 -0.021779776831088317
vn -0.021779776831088289 0.043480425254591934 -0.04232140077538
vn -0.04232140077538 -0.021779776831088317 0.043480425254591976
vn -0.043480425254591983 -0.042321400775380012 0.021779776831088317
vn -0.021779776831088303 -0.043480425254591976 0.042321400775380012
vn -0.025344719651415618 -0.049248623905831443 -0.032988259303813189
vn -0.049248623905831429 -0.032988259303813182 -0.025344719651415614
vn -0.032988259303813196 -0.025344719651415614 -0.049248623905831436
vn 0.030766301487063056 -1.7347234759768071E-18 0.049780921514194471
vn 0.030766301487063084 -6.9388939039072284E-18 -0.049780921514194471
vn -0.030766301487063059 1.7347234759768071E-18 0.049780921514194471
vn -0.03076630148706308 6.9388939039072284E-18 -0.049780921514194471
vn 0.0497809215141945 0.030766301487063077 -1.7347234759768071E-18
vn 0.049780921514194457 -0.030766301487063056 -8.6736173798840355E-18
vn -0.049780921514194491 -0.030766301487063077 8.6736173798840355E-18
vn -0.049780921514194471 0.030766301487063056 1.7347234759768071E-18
vn 8.6736173798840355E-18 0.049780921514194457 0.030766301487063056
vn 3.2959746043559335E-17 -0.049780921514194457 -0.03076630148706308
vn -1.9081958235744878E-17 -0.049780921514194457 0.03076630148706308
vn -2.42861286636753E-17 0.049780921514194457 -0.030766301487063056
g Hexpropello Dodecahedron (dextro)
f 1//1 2//1 3//1 4//1 5//1 6//1
f 1//2 6//2 7//2 8//2 9//2 10//2
f 1//3 10//3 11//3 12//3 13//3 2//3
f 14//4 15//4 16//4 17//4 18//4 19//4
f 14//5 19//5 20//5 21//5 22//5 23//5
f 14//6 23//6 24//6 25//6 26//6 15//6
f 27//7 13//7 12//7 28//7 29//7 30//7
f 27//8 30//8 31//8 32//8 33//8 34//8
f 27//9 34//9 35//9 3//9 2//9 13//9
f 36//10 26//10 25//10 37//10 38//10 39//10
f 36//11 39//11 40//11 41//11 42//11 43//11
f 36//12 43//12 44//12 16//12 15//12 26//12
f 45//13 46//13 47//13 48//13 49//13 50//13
f 45//14 50//14 51//14 52//14 53//14 54//14
f 45//15 54//15 55//15 56//15 57//15 46//15
f 58//16 57//16 56//16 59//16 60//16 61//16
f 58//17 61//17 62//17 63//17 64//17 65//17
f 58//18 65//18 66//18 47//18 46//18 57//18
f 67//19 68//19 69//19 70//19 71//19 72//19
f 67//20 72//20 73//20 74//20 75//20 76//20
f 67//21 76//21 77//21 78//21 79//21 68//21
f 80//22 79//22 78//22 81//22 82//22 83//22
f 80//23 83//23 84//23 85//23 86//23 87//23
f 80//24 87//24 88//24 69//24 68//24 79//24
f 89//25 90//25 91//25 92//25 93//25 94//25
f 89//26 94//26 95//26 96//26 97//26 98//26
f 89//27 98//27 99//27 100//27 101//27 90//27
f 102//28 103//28 104//28 105//28 106//28 107//28
f 102//29 107//29 108//29 109//29 110//29 111//29
f 102//30 111//30 112//30 113//30 114//30 103//30
f 115//31 101//31 100//31 116//31 117//31 118//31
f 115//32 118//32 119//32 120//32 121//32 122//32
f 115//33 122//33 123//33 91//33 90//33 101//33
f 124//34 114//34 113//34 125//34 126//34 127//34
f 124//35 127//35 128//35 129//35 130//35 131//35
f 124//36 131//36 132//36 104//36 103//36 114//36
f 133//37 5//37 4//37 51//37 50//37 49//37
f 133//38 49//38 48//38 95//38 94//38 93//38
f 133//39 93//39 92//39 7//39 6//39 5//39
f 134//40 22//40 21//40 99//40 98//40 97//40
f 134//41 97//41 96//41 66//41 65//41 64//41
f 134//42 64//42 63//42 24//42 23//42 22//42
f 135//43 33//43 32//43 112//43 111//43 110//43
f 135//44 110//44 109//44 55//44 54//44 53//44
f 135//45 53//45 52//45 35//45 34//45 33//45
f 136//46 38//46 37//46 62//46 61//46 60//46
f 136//47 60//47 59//47 108//47 107//47 106//47
f 136//48 106//48 105//48 40//48 39//48 38//48
f 137//49 9//49 8//49 123//49 122//49 121//49
f 137//50 121//50 120//50 77//50 76//50 75//50
f 137//51 75//51 74//51 11//51 10//51 9//51
f 138//52 18//52 17//52 84//52 83//52 82//52
f 138//53 82//53 81//53 119//53 118//53 117//53
f 138//54 117//54 116//54 20//54 19//54 18//54
f 139//55 29//55 28//55 73//55 72//55 71//55
f 139//56 71//56 70//56 128//56 127//56 126//56
f 139//57 126//57 125//57 31//57 30//57 29//57
f 140//58 42//58 41//58 132//58 131//58 130//58
f 140//59 130//59 129//59 88//59 87//59 86//59
f 140//60 86//60 85//60 44//60 43//60 42//60
f 3//61 35//61 52//61 51//61 4//61
f 25//62 24//62 63//62 62//62 37//62
f 12//63 11//63 74//63 73//63 28//63
f 16//64 44//64 85//64 84//64 17//64
f 47//65 66//65 96//65 95//65 48//65
f 56//66 55//66 109//66 108//66 59//66
f 69//67 88//67 129//67 128//67 70//67
f 78//68 77//68 120//68 119//68 81//68
f 91//69 123//69 8//69 7//69 92//69
f 104//70 132//70 41//70 40//70 105//70
f 113//71 112//71 32//71 31//71 125//71
f 100//72 99//72 21//72 20//72 116//72
