o Hexpropello Cube (dextro)
v 0 0 0
v -0.41803833648160249 0 0.22728285042912033
v -0.524499763631466 -0.36015642826470373 0.39162618579588271
v -0.36015642826470373 -0.66243094831250871 0.39162618579588271
v 0 -0.76889237546237221 0.22728285042912033
v 0.22728285042912033 -0.41803833648160249 0
v 0.39162618579588271 -0.524499763631466 -0.36015642826470373
v 0.39162618579588271 -0.36015642826470373 -0.66243094831250871
v 0.22728285042912033 0 -0.76889237546237221
v 0 0.22728285042912033 -0.41803833648160249
v -0.36015642826470373 0.39162618579588271 -0.524499763631466
v -0.66243094831250871 0.39162618579588271 -0.36015642826470373
v -0.76889237546237221 0.22728285042912033 0
v 0 0 -1.1869307119439747
v 0 -0.41803833648160249 -1.4142135623730949
v -0.36015642826470373 -0.524499763631466 -1.5785568977398574
v -0.66243094831250871 -0.36015642826470373 -1.5785568977398574
v -0.76889237546237221 0 -1.4142135623730949
v -0.41803833648160249 0.22728285042912033 -1.1869307119439747
v -0.524499763631466 0.39162618579588271 -0.826774283679271
v 0.39162618579588271 -0.66243094831250871 -0.826774283679271
v 0.22728285042912033 -0.76889237546237221 -1.1869307119439747
v 0 -1.1869307119439747 0
v -0.66243094831250871 -0.826774283679271 0.39162618579588271
v -0.76889237546237221 -1.1869307119439747 0.22728285042912033
v -0.41803833648160249 -1.4142135623730949 0
v -0.524499763631466 -1.5785568977398574 -0.36015642826470373
v -0.36015642826470373 -1.5785568977398574 -0.66243094831250871
v 0 -1.4142135623730949 -0.76889237546237221
v 0.22728285042912033 -1.1869307119439747 -0.41803833648160249
v 0.39162618579588271 -0.826774283679271 -0.524499763631466
v 0 -1.1869307119439747 -1.1869307119439747
v -0.41803833648160249 -1.1869307119439747 -1.4142135623730949
v -0.524499763631466 -0.826774283679271 -1.5785568977398574
v -0.66243094831250871 -1.5785568977398574 -0.826774283679271
v -0.76889237546237221 -1.4142135623730949 -1.1869307119439747
v -1.1869307119439747 0 0
v -1.1869307119439747 -0.41803833648160249 0.22728285042912033
v -0.826774283679271 -0.524499763631466 0.39162618579588271
v -0.826774283679271 0.39162618579588271 -0.66243094831250871
v -1.1869307119439747 0.22728285042912033 -0.76889237546237221
v -1.4142135623730949 0 -0.41803833648160249
v -1.5785568977398574 -0.36015642826470373 -0.524499763631466
v -1.5785568977398574 -0.66243094831250871 -0.36015642826470373
v -1.4142135623730949 -0.76889237546237221 0
v -1.1869307119439747 0 -1.1869307119439747
v -0.826774283679271 -0.66243094831250871 -1.5785568977398574
v -1.1869307119439747 -0.76889237546237221 -1.4142135623730949
v -1.4142135623730949 -0.41803833648160249 -1.1869307119439747
v -1.5785568977398574 -0.524499763631466 -0.826774283679271
v -1.1869307119439747 -1.1869307119439747 0
v -1.5785568977398574 -0.826774283679271 -0.66243094831250871
v -1.4142135623730949 -1.1869307119439747 -0.76889237546237221
v -1.1869307119439747 -1.4142135623730949 -0.41803833648160249
v -0.826774283679271 -1.5785568977398574 -0.524499763631466
v -1.1869307119439747 -1.1869307119439747 -1.1869307119439747
vn 0.081857379616372863 0.04450495790518634 0.15055919414493235
vn 0.15055919414493235 0.081857379616372863 0.04450495790518634
vn 0.04450495790518634 0.15055919414493235 0.081857379616372863
vn 0.044504957905186396 0.081857379616372822 -0.15055919414493235
vn 0.081857379616372863 0.15055919414493235 -0.04450495790518634
vn 0.15055919414493235 0.04450495790518634 -0.081857379616372863
vn 0.04450495790518634 -0.081857379616372863 0.15055919414493235
vn 0.081857379616372822 -0.15055919414493235 0.044504957905186396
vn 0.15055919414493235 -0.04450495790518634 0.081857379616372863
vn 0.081857379616372822 -0.044504957905186396 -0.15055919414493235
vn 0.15055919414493235 -0.081857379616372863 -0.04450495790518634
vn 0.044504957905186396 -0.15055919414493235 -0.081857379616372822
vn -0.04450495790518634 0.081857379616372863 0.15055919414493235
vn -0.081857379616372863 0.15055919414493235 0.04450495790518634
vn -0.15055919414493235 0.044504957905186396 0.081857379616372822
vn -0.081857379616372822 0.044504957905186396 -0.15055919414493235
vn -0.15055919414493235 0.081857379616372822 -0.044504957905186396
vn -0.04450495790518634 0.15055919414493235 -0.081857379616372863
vn -0.081857379616372863 -0.04450495790518634 0.15055919414493235
vn -0.15055919414493235 -0.081857379616372822 0.044504957905186396
vn -0.044504957905186396 -0.15055919414493235 0.081857379616372822
vn -0.044504957905186396 -0.081857379616372822 -0.15055919414493235
vn -0.081857379616372822 -0.15055919414493235 -0.044504957905186396
vn -0.15055919414493235 -0.044504957905186396 -0.081857379616372822
vn 0 0 0.11837861734960295
vn 0 0 -0.11837861734960295
vn 0.11837861734960295 0 0
vn -0.11837861734960295 0 0
vn 0 -0.11837861734960295 0
vn 0 0.11837861734960295 0
g Hexpropello Cube (dextro)
f 1//1 2//1 3//1 4//1 5//1 6//1
f 1//2 6//2 7//2 8//2 9//2 10//2
f 1//3 10//3 11//3 12//3 13//3 2//3
f 14//4 15//4 16//4 17//4 18//4 19//4
f 14//5 19//5 20//5 11//5 10//5 9//5
f 14//6 9//6 8//6 21//6 22//6 15//6
f 23//7 5//7 4//7 24//7 25//7 26//7
f 23//8 26//8 27//8 28//8 29//8 30//8
f 23//9 30//9 31//9 7//9 6//9 5//9
f 32//10 33//10 34//10 16//10 15//10 22//10
f 32//11 22//11 21//11 31//11 30//11 29//11
f 32//12 29//12 28//12 35//12 36//12 33//12
f 37//13 38//13 39//13 3//13 2//13 13//13
f 37//14 13//14 12//14 40//14 41//14 42//14
f 37//15 42//15 43//15 44//15 45//15 38//15
f 46//16 18//16 17//16 47//16 48//16 49//16
f 46//17 49//17 50//17 43//17 42//17 41//17
f 46//18 41//18 40//18 20//18 19//18 18//18
f 51//19 25//19 24//19 39//19 38//19 45//19
f 51//20 45//20 44//20 52//20 53//20 54//20
f 51//21 54//21 55//21 27//21 26//21 25//21
f 56//22 48//22 47//22 34//22 33//22 36//22
f 56//23 36//23 35//23 55//23 54//23 53//23
f 56//24 53//24 52//24 50//24 49//24 48//24
f 39//25 24//25 4//25 3//25
f 47//26 17//26 16//26 34//26
f 31//27 21//27 8//27 7//27
f 52//28 44//28 43//28 50//28
f 27//29 55//29 35//29 28//29
f 20//30 40//30 12//30 11//30
