o Rhombic Triacontahedron
v 0 0 0
v -0.90450849718747373 0.55901699437494745 0
v -1.8090169943749475 0 0
v -0.90450849718747373 -0.55901699437494745 0
v -0.90450849718747373 -1.4635254915624212 -0.55901699437494745
v 0 -0.90450849718747373 -0.55901699437494745
v 0.55901699437494745 -0.90450849718747373 -1.4635254915624212
v 0.55901699437494745 0 -0.90450849718747373
v 0 0 -2.9270509831248424
v -0.90450849718747373 0.55901699437494745 -2.9270509831248424
v -0.90450849718747373 1.4635254915624212 -2.3680339887498949
v 0 0.90450849718747373 -2.3680339887498949
v 0.55901699437494745 0.90450849718747373 -1.4635254915624212
v 0.55901699437494745 0 -2.0225424859373686
v 0 -0.90450849718747373 -2.3680339887498949
v -1.8090169943749475 0.90450849718747373 -0.55901699437494745
v -2.3680339887498949 0.90450849718747373 -1.4635254915624212
v -2.3680339887498949 0 -0.90450849718747373
v -2.3680339887498949 -0.90450849718747373 -1.4635254915624212
v -1.8090169943749475 -0.90450849718747373 -0.55901699437494745
v -1.8090169943749475 0 -2.9270509831248424
v -2.3680339887498949 0 -2.0225424859373686
v -1.8090169943749475 0.90450849718747373 -2.3680339887498949
v -0.90450849718747373 -0.55901699437494745 -2.9270509831248424
v -0.34549150281252627 1.4635254915624212 -1.4635254915624212
v -0.90450849718747373 1.4635254915624212 -0.55901699437494745
v 0 0.90450849718747373 -0.55901699437494745
v -1.8090169943749475 -0.90450849718747373 -2.3680339887498949
v -0.90450849718747373 -1.4635254915624212 -2.3680339887498949
v -1.4635254915624212 -1.4635254915624212 -1.4635254915624212
v -1.4635254915624212 1.4635254915624212 -1.4635254915624212
v -0.34549150281252627 -1.4635254915624212 -1.4635254915624212
vn 0 0 1.0112712429686843
vn 0.31250000000000006 -0.50563562148434216 0.81813562148434216
vn 0.81813562148434216 -0.31250000000000006 0.50563562148434216
vn 0.31250000000000006 0.50563562148434216 -0.81813562148434216
vn 0.81813562148434216 0.31250000000000006 -0.50563562148434216
vn 0.81813562148434216 -0.31250000000000006 -0.50563562148434216
vn -0.81813562148434216 0.31250000000000006 0.50563562148434216
vn -0.81813562148434216 -0.31250000000000006 0.50563562148434216
vn -0.31250000000000006 -0.50563562148434216 0.81813562148434216
vn -0.81813562148434216 0.31250000000000006 -0.50563562148434216
vn -0.31250000000000006 0.50563562148434216 -0.81813562148434216
vn 0 0 -1.0112712429686843
vn 0.50563562148434216 0.81813562148434216 0.31250000000000006
vn 0.81813562148434216 0.31250000000000006 0.50563562148434216
vn 1.0112712429686843 0 0
vn -1.0112712429686843 0 0
vn -0.81813562148434216 -0.31250000000000006 -0.50563562148434216
vn -0.50563562148434216 -0.81813562148434216 -0.31250000000000006
vn -0.50563562148434216 0.81813562148434216 0.31250000000000006
vn -0.31250000000000006 0.50563562148434216 0.81813562148434216
vn 0.31250000000000006 0.50563562148434216 0.81813562148434216
vn -0.50563562148434216 0.81813562148434216 -0.31250000000000006
vn 0 1.0112712429686843 0
vn 0.50563562148434216 0.81813562148434216 -0.31250000000000006
vn -0.50563562148434216 -0.81813562148434216 0.31250000000000006
vn 0 -1.0112712429686843 0
vn 0.50563562148434216 -0.81813562148434216 0.31250000000000006
vn -0.31250000000000006 -0.50563562148434216 -0.81813562148434216
vn 0.31250000000000006 -0.50563562148434216 -0.81813562148434216
vn 0.50563562148434216 -0.81813562148434216 -0.31250000000000006
g Rhombic Triacontahedron
f 1//1 2//1 3//1 4//1
f 1//2 4//2 5//2 6//2
f 1//3 6//3 7//3 8//3
f 9//4 10//4 11//4 12//4
f 9//5 12//5 13//5 14//5
f 9//6 14//6 7//6 15//6
f 3//7 16//7 17//7 18//7
f 3//8 18//8 19//8 20//8
f 3//9 20//9 5//9 4//9
f 21//10 22//10 17//10 23//10
f 21//11 23//11 11//11 10//11
f 21//12 10//12 9//12 24//12
f 13//13 25//13 26//13 27//13
f 13//14 27//14 1//14 8//14
f 13//15 8//15 7//15 14//15
f 19//16 18//16 17//16 22//16
f 19//17 22//17 21//17 28//17
f 19//18 28//18 29//18 30//18
f 26//19 31//19 17//19 16//19
f 26//20 16//20 3//20 2//20
f 26//21 2//21 1//21 27//21
f 11//22 23//22 17//22 31//22
f 11//23 31//23 26//23 25//23
f 11//24 25//24 13//24 12//24
f 5//25 20//25 19//25 30//25
f 5//26 30//26 29//26 32//26
f 5//27 32//27 7//27 6//27
f 29//28 28//28 21//28 24//28
f 29//29 24//29 9//29 15//29
f 29//30 15//30 7//30 32//30
