o Rhombicuboctahedron
v 0 0 0
v -1 0 0
v -1 -1 0
v 0 -1 0
v 0 0 -2.4142135623730949
v 0 -1 -2.4142135623730949
v -1 -1 -2.4142135623730949
v -1 0 -2.4142135623730949
v 0.70710678118654746 0 -0.70710678118654746
v 0.70710678118654746 -1 -0.70710678118654746
v 0.70710678118654746 -1 -1.7071067811865475
v 0.70710678118654746 0 -1.7071067811865475
v -1.7071067811865475 0 -0.70710678118654746
v -1.7071067811865475 0 -1.7071067811865475
v -1.7071067811865475 -1 -1.7071067811865475
v -1.7071067811865475 -1 -0.70710678118654746
v 0 0.70710678118654746 -0.70710678118654746
v 0 0.70710678118654746 -1.7071067811865475
v -1 0.70710678118654746 -1.7071067811865475
v -1 0.70710678118654746 -0.70710678118654746
v 0 -1.7071067811865475 -0.70710678118654746
v -1 -1.7071067811865475 -0.70710678118654746
v -1 -1.7071067811865475 -1.7071067811865475
v 0 -1.7071067811865475 -1.7071067811865475
vn 0 0 1
vn 0 0 -1
vn 1 0 0
vn -1 0 0
vn 0 1 0
vn 0 -1 0
vn 0.70710678118654746 0 0.70710678118654746
vn 0 0.70710678118654746 0.70710678118654746
vn 0 -0.70710678118654746 -0.70710678118654746
vn -0.70710678118654746 0 -0.70710678118654746
vn 0.70710678118654746 0 -0.70710678118654746
vn 0.70710678118654746 -0.70710678118654746 0
vn -0.70710678118654746 0 0.70710678118654746
vn -0.70710678118654746 0.70710678118654746 0
vn 0 0.70710678118654746 -0.70710678118654746
vn 0.70710678118654746 0.70710678118654746 0
vn -0.70710678118654746 -0.70710678118654746 0
vn 0 -0.70710678118654746 0.70710678118654746
vn 0.49999999999999989 0.49999999999999989 0.49999999999999989
vn 0.49999999999999989 0.49999999999999989 -0.49999999999999989
vn 0.49999999999999989 -0.49999999999999989 0.49999999999999989
vn 0.49999999999999989 -0.49999999999999989 -0.49999999999999989
vn -0.49999999999999989 0.49999999999999989 0.49999999999999989
vn -0.49999999999999989 0.49999999999999989 -0.49999999999999989
vn -0.49999999999999989 -0.49999999999999989 0.49999999999999989
vn -0.49999999999999989 -0.49999999999999989 -0.49999999999999989
g Rhombicuboctahedron
f 1//1 2//1 3//1 4//1
f 5//2 6//2 7//2 8//2
f 9//3 10//3 11//3 12//3
f 13//4 14//4 15//4 16//4
f 17//5 18//5 19//5 20//5
f 21//6 22//6 23//6 24//6
f 1//7 4//7 10//7 9//7
f 1//8 17//8 20//8 2//8
f 7//9 6//9 24//9 23//9
f 7//10 15//10 14//10 8//10
f 11//11 6//11 5//11 12//11
f 11//12 10//12 21//12 24//12
f 13//13 16//13 3//13 2//13
f 13//14 20//14 19//14 14//14
f 18//15 5//15 8//15 19//15
f 18//16 17//16 9//16 12//16
f 22//17 16//17 15//17 23//17
f 22//18 21//18 4//18 3//18
f 1//19 9//19 17//19
f 5//20 18//20 12//20
f 4//21 21//21 10//21
f 6//22 11//22 24//22
f 2//23 20//23 13//23
f 8//24 14//24 19//24
f 3//25 16//25 22//25
f 7//26 23//26 15//26
