o Triakis Tetrahedron
v 0 0 0
v 0.42426406871192845 1.6970562748477138 0.42426406871192845
v -1.6970562748477138 -0.42426406871192845 0.42426406871192845
v 0.42426406871192845 -0.42426406871192845 -1.6970562748477138
v 0 1.2727922061357855 -1.2727922061357855
v -1.6970562748477138 1.6970562748477138 -1.6970562748477138
v -1.2727922061357855 1.2727922061357855 0
v -1.2727922061357855 0 -1.2727922061357855
vn 0.8999999999999998 -0.8999999999999998 2.6999999999999993
vn 0.8999999999999998 -2.6999999999999993 0.8999999999999998
vn 2.6999999999999993 -0.8999999999999998 0.8999999999999998
vn 2.6999999999999997 0.8999999999999998 -0.8999999999999998
vn 0.89999999999999958 0.89999999999999958 -2.6999999999999993
vn 0.89999999999999958 2.6999999999999997 -0.89999999999999958
vn -0.89999999999999958 2.6999999999999993 0.89999999999999958
vn -2.6999999999999997 0.89999999999999958 0.89999999999999958
vn -0.8999999999999998 0.8999999999999998 2.6999999999999997
vn -0.8999999999999998 -2.6999999999999997 -0.8999999999999998
vn -2.6999999999999993 -0.89999999999999958 -0.89999999999999958
vn -0.89999999999999958 -0.89999999999999958 -2.6999999999999997
g Triakis Tetrahedron
f 1//1 2//1 3//1
f 1//2 3//2 4//2
f 1//3 4//3 2//3
f 5//4 2//4 4//4
f 5//5 4//5 6//5
f 5//6 6//6 2//6
f 7//7 2//7 6//7
f 7//8 6//8 3//8
f 7//9 3//9 2//9
f 8//10 4//10 3//10
f 8//11 3//11 6//11
f 8//12 6//12 4//12
