o Triakis Octahedron
v 0 0 0
v -1 -1 1.4142135623730949
v 1.4142135623730949 -1 -1
v -1 1.4142135623730949 -1
v 0 0 -2
v -1 -1 -3.4142135623730949
v 0 -2 0
v -1 -3.4142135623730949 -1
v 0 -2 -2
v -2 0 0
v -3.4142135623730949 -1 -1
v -2 0 -2
v -2 -2 0
v -2 -2 -2
vn 2.4142135623730949 0.99999999999999956 2.4142135623730949
vn 2.4142135623730949 2.4142135623730949 0.99999999999999956
vn 0.99999999999999956 2.4142135623730949 2.4142135623730949
vn 0.99999999999999956 2.4142135623730949 -2.4142135623730949
vn 2.4142135623730949 2.4142135623730949 -0.99999999999999956
vn 2.4142135623730949 0.99999999999999956 -2.4142135623730949
vn 0.99999999999999956 -2.4142135623730949 2.4142135623730949
vn 2.4142135623730949 -2.4142135623730949 0.99999999999999956
vn 2.4142135623730949 -0.99999999999999956 2.4142135623730949
vn 2.4142135623730949 -0.99999999999999956 -2.4142135623730949
vn 2.4142135623730949 -2.4142135623730949 -0.99999999999999956
vn 0.99999999999999956 -2.4142135623730949 -2.4142135623730949
vn -0.99999999999999956 2.4142135623730949 2.4142135623730949
vn -2.4142135623730949 2.4142135623730949 0.99999999999999956
vn -2.4142135623730949 0.99999999999999956 2.4142135623730949
vn -2.4142135623730949 0.99999999999999956 -2.4142135623730949
vn -2.4142135623730949 2.4142135623730949 -0.99999999999999956
vn -0.99999999999999956 2.4142135623730949 -2.4142135623730949
vn -2.4142135623730949 -0.99999999999999956 2.4142135623730949
vn -2.4142135623730949 -2.4142135623730949 0.99999999999999956
vn -0.99999999999999956 -2.4142135623730949 2.4142135623730949
vn -0.99999999999999956 -2.4142135623730949 -2.4142135623730949
vn -2.4142135623730949 -2.4142135623730949 -0.99999999999999956
vn -2.4142135623730949 -0.99999999999999956 -2.4142135623730949
g Triakis Octahedron
f 1//1 2//1 3//1
f 1//2 3//2 4//2
f 1//3 4//3 2//3
f 5//4 6//4 4//4
f 5//5 4//5 3//5
f 5//6 3//6 6//6
f 7//7 2//7 8//7
f 7//8 8//8 3//8
f 7//9 3//9 2//9
f 9//10 6//10 3//10
f 9//11 3//11 8//11
f 9//12 8//12 6//12
f 10//13 2//13 4//13
f 10//14 4//14 11//14
f 10//15 11//15 2//15
f 12//16 6//16 11//16
f 12//17 11//17 4//17
f 12//18 4//18 6//18
f 13//19 2//19 11//19
f 13//20 11//20 8//20
f 13//21 8//21 2//21
f 14//22 6//22 8//22
f 14//23 8//23 11//23
f 14//24 11//24 6//24
