o Truncated Disdyakis Dodecahedron
v 0 0 0
v -0.38268343236508984 0.92387953251128674 0
v -1.3065629648763766 1.3065629648763766 0
v -2.2304424973876635 0.92387953251128674 0
v -2.6131259297527532 0 0
v -2.2304424973876635 -0.92387953251128674 0
v -1.3065629648763766 -1.3065629648763766 0
v -0.38268343236508984 -0.92387953251128674 0
v 0 0 -7.3716537451370261
v -0.38268343236508984 -0.92387953251128674 -7.3716537451370261
v -1.3065629648763766 -1.3065629648763766 -7.3716537451370261
v -2.2304424973876635 -0.92387953251128674 -7.3716537451370261
v -2.6131259297527532 0 -7.3716537451370261
v -2.2304424973876635 0.92387953251128674 -7.3716537451370261
v -1.3065629648763766 1.3065629648763766 -7.3716537451370261
v -0.38268343236508984 0.92387953251128674 -7.3716537451370261
v 2.3792639076921365 1.3065629648763766 -3.685826872568513
v 2.3792639076921365 0.92387953251128674 -2.7619473400572261
v 2.3792639076921365 0 -2.3792639076921365
v 2.3792639076921365 -0.92387953251128674 -2.7619473400572261
v 2.3792639076921365 -1.3065629648763766 -3.685826872568513
v 2.3792639076921365 -0.92387953251128674 -4.6097064050798
v 2.3792639076921365 0 -4.99238983744489
v 2.3792639076921365 0.92387953251128674 -4.6097064050798
v -4.99238983744489 1.3065629648763766 -3.685826872568513
v -4.99238983744489 0.92387953251128674 -4.6097064050798
v -4.99238983744489 0 -4.99238983744489
v -4.99238983744489 -0.92387953251128674 -4.6097064050798
v -4.99238983744489 -1.3065629648763766 -3.685826872568513
v -4.99238983744489 -0.92387953251128674 -2.7619473400572261
v -4.99238983744489 0 -2.3792639076921365
v -4.99238983744489 0.92387953251128674 -2.7619473400572261
v -1.3065629648763766 3.685826872568513 -2.3792639076921365
v -0.38268343236508984 3.685826872568513 -2.7619473400572261
v 0 3.685826872568513 -3.685826872568513
v -0.38268343236508984 3.685826872568513 -4.6097064050798
v -1.3065629648763766 3.685826872568513 -4.99238983744489
v -2.2304424973876635 3.685826872568513 -4.6097064050798
v -2.6131259297527532 3.685826872568513 -3.685826872568513
v -2.2304424973876635 3.685826872568513 -2.7619473400572261
v -1.3065629648763766 -3.685826872568513 -2.3792639076921365
v -2.2304424973876635 -3.685826872568513 -2.7619473400572261
v -2.6131259297527532 -3.685826872568513 -3.685826872568513
v -2.2304424973876635 -3.685826872568513 -4.6097064050798
v -1.3065629648763766 -3.685826872568513 -4.99238983744489
v -0.38268343236508984 -3.685826872568513 -4.6097064050798
v 0 -3.685826872568513 -3.685826872568513
v -0.38268343236508984 -3.685826872568513 -2.7619473400572261
v 0.42987484320043179 1.7364378080768084 -0.72464419310011552
v 1.2463714241281578 1.3281895176129455 -1.1328924835639787
v 1.654619714592021 1.7364378080768084 -1.9493890644917047
v 1.2463714241281578 2.5529343890045344 -2.3576373549555676
v 0.42987484320043179 2.9611826794683975 -1.9493890644917047
v 0.021626552736568883 2.5529343890045344 -1.1328924835639787
v 0.42987484320043179 1.7364378080768084 -6.647009552036911
v 0.021626552736568883 2.5529343890045344 -6.2387612615730479
v 0.42987484320043179 2.9611826794683975 -5.4222646806453216
v 1.2463714241281578 2.5529343890045344 -5.0140163901814585
v 1.654619714592021 1.7364378080768084 -5.4222646806453216
v 1.2463714241281578 1.3281895176129455 -6.2387612615730479
v 0.42987484320043179 -1.7364378080768084 -0.72464419310011552
v 0.021626552736568883 -2.5529343890045344 -1.1328924835639787
v 0.42987484320043179 -2.9611826794683975 -1.9493890644917047
v 1.2463714241281578 -2.5529343890045344 -2.3576373549555676
v 1.654619714592021 -1.7364378080768084 -1.9493890644917047
v 1.2463714241281578 -1.3281895176129455 -1.1328924835639787
v 0.42987484320043179 -1.7364378080768084 -6.647009552036911
v 1.2463714241281578 -1.3281895176129455 -6.2387612615730479
v 1.654619714592021 -1.7364378080768084 -5.4222646806453216
v 1.2463714241281578 -2.5529343890045344 -5.0140163901814585
v 0.42987484320043179 -2.9611826794683975 -5.4222646806453216
v 0.021626552736568883 -2.5529343890045344 -6.2387612615730479
v -3.0430007729531852 1.7364378080768084 -0.72464419310011552
v -2.634752482489322 2.5529343890045344 -1.1328924835639787
v -3.0430007729531852 2.9611826794683975 -1.9493890644917047
v -3.859497353880911 2.5529343890045344 -2.3576373549555676
v -4.2677456443447745 1.7364378080768084 -1.9493890644917047
v -3.859497353880911 1.3281895176129455 -1.1328924835639787
v -3.0430007729531852 1.7364378080768084 -6.647009552036911
v -3.859497353880911 1.3281895176129455 -6.2387612615730479
v -4.2677456443447745 1.7364378080768084 -5.4222646806453216
v -3.859497353880911 2.5529343890045344 -5.0140163901814585
v -3.0430007729531852 2.9611826794683975 -5.4222646806453216
v -2.634752482489322 2.5529343890045344 -6.2387612615730479
v -3.0430007729531852 -1.7364378080768084 -0.72464419310011552
v -3.859497353880911 -1.3281895176129455 -1.1328924835639787
v -4.2677456443447745 -1.7364378080768084 -1.9493890644917047
v -3.859497353880911 -2.5529343890045344 -2.3576373549555676
v -3.0430007729531852 -2.9611826794683975 -1.9493890644917047
v -2.634752482489322 -2.5529343890045344 -1.1328924835639787
v -3.0430007729531852 -1.7364378080768084 -6.647009552036911
v -2.634752482489322 -2.5529343890045344 -6.2387612615730479
v -3.0430007729531852 -2.9611826794683975 -5.4222646806453216
v -3.859497353880911 -2.5529343890045344 -5.0140163901814585
v -4.2677456443447745 -1.7364378080768084 -5.4222646806453216
v -3.859497353880911 -1.3281895176129455 -6.2387612615730479
v 1.3458618108979596 -0.70710678118654757 -1.0334020967941768
v 0.84586181089795964 0 -0.53340209679417683
v 1.3458618108979596 0.70710678118654757 -6.3382516483428493
v 0.84586181089795964 0 -6.8382516483428493
v -3.9589877406507128 0.70710678118654757 -1.0334020967941768
v -3.4589877406507128 0 -0.53340209679417683
v -3.9589877406507128 -0.70710678118654757 -6.3382516483428493
v -3.4589877406507128 0 -6.8382516483428493
v 1.3458618108979596 2.6524247757743362 -4.392933653755061
v 1.8458618108979596 2.1524247757743362 -3.685826872568513
v 1.3458618108979596 -2.6524247757743362 -2.9787200913819656
v 1.8458618108979596 -2.1524247757743362 -3.685826872568513
v -3.9589877406507128 2.6524247757743362 -2.9787200913819656
v -4.4589877406507128 2.1524247757743362 -3.685826872568513
v -3.9589877406507128 -2.6524247757743362 -4.392933653755061
v -4.4589877406507128 -2.1524247757743362 -3.685826872568513
v -2.013669746062924 2.6524247757743362 -1.0334020967941768
v -1.3065629648763766 3.1524247757743362 -1.5334020967941768
v -0.599456183689829 2.6524247757743362 -6.3382516483428493
v -1.3065629648763766 3.1524247757743362 -5.8382516483428493
v -0.599456183689829 -2.6524247757743362 -1.0334020967941768
v -1.3065629648763766 -3.1524247757743362 -1.5334020967941768
v -2.013669746062924 -2.6524247757743362 -6.3382516483428493
v -1.3065629648763766 -3.1524247757743362 -5.8382516483428493
v -0.599456183689829 2.6524247757743362 -1.0334020967941768
v -1.3065629648763766 2.1524247757743362 -0.53340209679417683
v -2.013669746062924 2.6524247757743362 -6.3382516483428493
v -1.3065629648763766 2.1524247757743362 -6.8382516483428493
v -2.013669746062924 -2.6524247757743362 -1.0334020967941768
v -1.3065629648763766 -2.1524247757743362 -0.53340209679417683
v -0.599456183689829 -2.6524247757743362 -6.3382516483428493
v -1.3065629648763766 -2.1524247757743362 -6.8382516483428493
v 1.3458618108979596 0.70710678118654757 -1.0334020967941768
v 1.8458618108979596 0 -1.5334020967941768
v 1.3458618108979596 -0.70710678118654757 -6.3382516483428493
v 1.8458618108979596 0 -5.8382516483428493
v -3.9589877406507128 -0.70710678118654757 -1.0334020967941768
v -4.4589877406507128 0 -1.5334020967941768
v -3.9589877406507128 0.70710678118654757 -6.3382516483428493
v -4.4589877406507128 0 -5.8382516483428493
v 1.3458618108979596 2.6524247757743362 -2.9787200913819656
v 0.84586181089795964 3.1524247757743362 -3.685826872568513
v 1.3458618108979596 -2.6524247757743362 -4.392933653755061
v 0.84586181089795964 -3.1524247757743362 -3.685826872568513
v -3.9589877406507128 2.6524247757743362 -4.392933653755061
v -3.4589877406507128 3.1524247757743362 -3.685826872568513
v -3.9589877406507128 -2.6524247757743362 -2.9787200913819656
v -3.4589877406507128 -3.1524247757743362 -3.685826872568513
vn 0 0 0.70710678118654746
vn 0 0 -0.70710678118654746
vn 0.70710678118654768 0 0
vn -0.70710678118654768 0 0
vn 0 0.70710678118654768 0
vn 0 -0.707106781186548 0
vn 0.49999999999999989 0.49999999999999989 0.49999999999999989
vn 0.50000000000000011 0.5 -0.49999999999999989
vn 0.49999999999999989 -0.49999999999999989 0.49999999999999989
vn 0.5 -0.50000000000000011 -0.49999999999999989
vn -0.49999999999999989 0.50000000000000022 0.50000000000000022
vn -0.5 0.49999999999999967 -0.5
vn -0.49999999999999989 -0.49999999999999956 0.5
vn -0.50000000000000011 -0.50000000000000033 -0.50000000000000022
vn 0.66948393835835329 -0.27730932705898315 1.0616585496577238
vn 0.669483938358353 0.277309327058983 -1.0616585496577238
vn -0.66948393835835329 0.277309327058983 1.0616585496577236
vn -0.669483938358353 -0.27730932705898281 -1.0616585496577236
vn 1.061658549657724 0.66948393835835351 -0.27730932705898315
vn 1.0616585496577238 -0.66948393835835351 0.27730932705898315
vn -1.0616585496577238 0.66948393835835307 0.277309327058983
vn -1.061658549657724 -0.66948393835835307 -0.277309327058983
vn -0.277309327058983 1.0616585496577236 0.66948393835835351
vn 0.277309327058983 1.0616585496577236 -0.66948393835835329
vn 0.277309327058983 -1.0616585496577233 0.66948393835835329
vn -0.277309327058983 -1.0616585496577238 -0.66948393835835351
vn 0.27730932705898315 0.66948393835835329 1.0616585496577238
vn -0.277309327058983 0.66948393835835307 -1.061658549657724
vn -0.27730932705898315 -0.66948393835835351 1.061658549657724
vn 0.277309327058983 -0.669483938358353 -1.0616585496577238
vn 1.0616585496577233 0.277309327058983 0.66948393835835329
vn 1.0616585496577236 -0.277309327058983 -0.66948393835835329
vn -1.0616585496577233 -0.27730932705898281 0.669483938358353
vn -1.0616585496577236 0.27730932705898281 -0.669483938358353
vn 0.66948393835835351 1.0616585496577238 0.27730932705898315
vn 0.66948393835835351 -1.061658549657724 -0.27730932705898315
vn -0.66948393835835351 1.0616585496577238 -0.277309327058983
vn -0.66948393835835351 -1.0616585496577238 0.277309327058983
vn 0.37717223974228564 0.15622985705189141 0.59811462243268043
vn 0.37717223974228564 -0.15622985705189141 -0.59811462243268043
vn -0.37717223974228564 -0.15622985705189141 0.59811462243268043
vn -0.37717223974228564 0.15622985705189141 -0.59811462243268043
vn 0.59811462243268032 0.37717223974228559 0.15622985705189141
vn 0.59811462243268076 -0.37717223974228586 -0.15622985705189141
vn -0.59811462243268076 0.37717223974228586 -0.15622985705189141
vn -0.59811462243268032 -0.37717223974228559 0.15622985705189141
vn 0.15622985705189141 0.59811462243268043 0.37717223974228564
vn -0.15622985705189141 0.59811462243268032 -0.37717223974228559
vn -0.15622985705189141 -0.59811462243268032 0.37717223974228559
vn 0.15622985705189141 -0.59811462243268043 -0.37717223974228564
vn -0.15622985705189141 0.37717223974228559 0.59811462243268032
vn 0.15622985705189141 0.37717223974228564 -0.59811462243268043
vn 0.15622985705189141 -0.37717223974228564 0.59811462243268043
vn -0.15622985705189141 -0.37717223974228559 -0.59811462243268032
vn 0.59811462243268043 -0.15622985705189141 0.37717223974228564
vn 0.59811462243268043 0.15622985705189141 -0.37717223974228564
vn -0.59811462243268043 0.15622985705189141 0.37717223974228564
vn -0.59811462243268043 -0.15622985705189141 -0.37717223974228564
vn 0.37717223974228586 0.59811462243268076 -0.15622985705189141
vn 0.37717223974228559 -0.59811462243268032 0.15622985705189141
vn -0.37717223974228559 0.59811462243268032 0.15622985705189141
vn -0.37717223974228586 -0.59811462243268076 -0.15622985705189141
vn 0.70710678118654757 0 0.70710678118654757
vn 0.70710678118654757 0 -0.70710678118654757
vn -0.70710678118654757 0 0.70710678118654757
vn -0.70710678118654757 0 -0.70710678118654757
vn 0.70710678118654791 0.70710678118654791 0
vn 0.70710678118654746 -0.70710678118654746 0
vn -0.70710678118654746 0.70710678118654746 0
vn -0.70710678118654791 -0.70710678118654791 0
vn 0 0.70710678118654746 0.70710678118654746
vn 0 0.70710678118654757 -0.70710678118654757
vn 0 -0.70710678118654757 0.70710678118654757
vn 0 -0.70710678118654746 -0.70710678118654746
g Truncated Disdyakis Dodecahedron
f 1//1 2//1 3//1 4//1 5//1 6//1 7//1 8//1
f 9//2 10//2 11//2 12//2 13//2 14//2 15//2 16//2
f 17//3 18//3 19//3 20//3 21//3 22//3 23//3 24//3
f 25//4 26//4 27//4 28//4 29//4 30//4 31//4 32//4
f 33//5 34//5 35//5 36//5 37//5 38//5 39//5 40//5
f 41//6 42//6 43//6 44//6 45//6 46//6 47//6 48//6
f 49//7 50//7 51//7 52//7 53//7 54//7
f 55//8 56//8 57//8 58//8 59//8 60//8
f 61//9 62//9 63//9 64//9 65//9 66//9
f 67//10 68//10 69//10 70//10 71//10 72//10
f 73//11 74//11 75//11 76//11 77//11 78//11
f 79//12 80//12 81//12 82//12 83//12 84//12
f 85//13 86//13 87//13 88//13 89//13 90//13
f 91//14 92//14 93//14 94//14 95//14 96//14
f 1//15 8//15 61//15 66//15 97//15 98//15
f 9//16 16//16 55//16 60//16 99//16 100//16
f 5//17 4//17 73//17 78//17 101//17 102//17
f 13//18 12//18 91//18 96//18 103//18 104//18
f 17//19 24//19 59//19 58//19 105//19 106//19
f 21//20 20//20 65//20 64//20 107//20 108//20
f 25//21 32//21 77//21 76//21 109//21 110//21
f 29//22 28//22 95//22 94//22 111//22 112//22
f 33//23 40//23 75//23 74//23 113//23 114//23
f 37//24 36//24 57//24 56//24 115//24 116//24
f 41//25 48//25 63//25 62//25 117//25 118//25
f 45//26 44//26 93//26 92//26 119//26 120//26
f 3//27 2//27 49//27 54//27 121//27 122//27
f 15//28 14//28 79//28 84//28 123//28 124//28
f 7//29 6//29 85//29 90//29 125//29 126//29
f 11//30 10//30 67//30 72//30 127//30 128//30
f 19//31 18//31 51//31 50//31 129//31 130//31
f 23//32 22//32 69//32 68//32 131//32 132//32
f 31//33 30//33 87//33 86//33 133//33 134//33
f 27//34 26//34 81//34 80//34 135//34 136//34
f 35//35 34//35 53//35 52//35 137//35 138//35
f 47//36 46//36 71//36 70//36 139//36 140//36
f 39//37 38//37 83//37 82//37 141//37 142//37
f 43//38 42//38 89//38 88//38 143//38 144//38
f 1//39 98//39 129//39 50//39 49//39 2//39
f 9//40 100//40 131//40 68//40 67//40 10//40
f 5//41 102//41 133//41 86//41 85//41 6//41
f 13//42 104//42 135//42 80//42 79//42 14//42
f 17//43 106//43 137//43 52//43 51//43 18//43
f 21//44 108//44 139//44 70//44 69//44 22//44
f 25//45 110//45 141//45 82//45 81//45 26//45
f 29//46 112//46 143//46 88//46 87//46 30//46
f 33//47 114//47 121//47 54//47 53//47 34//47
f 37//48 116//48 123//48 84//48 83//48 38//48
f 41//49 118//49 125//49 90//49 89//49 42//49
f 45//50 120//50 127//50 72//50 71//50 46//50
f 3//51 122//51 113//51 74//51 73//51 4//51
f 15//52 124//52 115//52 56//52 55//52 16//52
f 7//53 126//53 117//53 62//53 61//53 8//53
f 11//54 128//54 119//54 92//54 91//54 12//54
f 19//55 130//55 97//55 66//55 65//55 20//55
f 23//56 132//56 99//56 60//56 59//56 24//56
f 31//57 134//57 101//57 78//57 77//57 32//57
f 27//58 136//58 103//58 96//58 95//58 28//58
f 35//59 138//59 105//59 58//59 57//59 36//59
f 47//60 140//60 107//60 64//60 63//60 48//60
f 39//61 142//61 109//61 76//61 75//61 40//61
f 43//62 144//62 111//62 94//62 93//62 44//62
f 98//63 97//63 130//63 129//63
f 100//64 99//64 132//64 131//64
f 102//65 101//65 134//65 133//65
f 104//66 103//66 136//66 135//66
f 106//67 105//67 138//67 137//67
f 108//68 107//68 140//68 139//68
f 110//69 109//69 142//69 141//69
f 112//70 111//70 144//70 143//70
f 114//71 113//71 122//71 121//71
f 116//72 115//72 124//72 123//72
f 118//73 117//73 126//73 125//73
f 120//74 119//74 128//74 127//74
