o Truncated Icosidodecahedron
v 0 0 0
v 0 -1 0
v 0.5 -1.8090169943749475 -0.30901699437494745
v 1.3090169943749475 -2.1180339887498949 -0.80901699437494745
v 2.1180339887498949 -1.8090169943749475 -1.3090169943749475
v 2.6180339887498949 -1 -1.6180339887498949
v 2.6180339887498949 0 -1.6180339887498949
v 2.1180339887498949 0.80901699437494745 -1.3090169943749475
v 1.3090169943749475 1.1180339887498949 -0.80901699437494745
v 0.5 0.80901699437494745 -0.30901699437494745
v 0 0 -7.47213595499958
v 0.5 0.80901699437494745 -7.1631189606246322
v 1.3090169943749475 1.1180339887498949 -6.6631189606246322
v 2.1180339887498949 0.80901699437494745 -6.1631189606246322
v 2.6180339887498949 0 -5.8541019662496847
v 2.6180339887498949 -1 -5.8541019662496847
v 2.1180339887498949 -1.8090169943749475 -6.1631189606246322
v 1.3090169943749475 -2.1180339887498949 -6.6631189606246322
v 0.5 -1.8090169943749475 -7.1631189606246322
v 0 -1 -7.47213595499958
v -1 0 0
v -1.5 0.80901699437494745 -0.30901699437494745
v -2.3090169943749475 1.1180339887498949 -0.80901699437494745
v -3.1180339887498949 0.80901699437494745 -1.3090169943749475
v -3.6180339887498949 0 -1.6180339887498949
v -3.6180339887498949 -1 -1.6180339887498949
v -3.1180339887498949 -1.8090169943749475 -1.3090169943749475
v -2.3090169943749475 -2.1180339887498949 -0.80901699437494745
v -1.5 -1.8090169943749475 -0.30901699437494745
v -1 -1 0
v -1 0 -7.47213595499958
v -1 -1 -7.47213595499958
v -1.5 -1.8090169943749475 -7.1631189606246322
v -2.3090169943749475 -2.1180339887498949 -6.6631189606246322
v -3.1180339887498949 -1.8090169943749475 -6.1631189606246322
v -3.6180339887498949 -1 -5.8541019662496847
v -3.6180339887498949 0 -5.8541019662496847
v -3.1180339887498949 0.80901699437494745 -6.1631189606246322
v -2.3090169943749475 1.1180339887498949 -6.6631189606246322
v -1.5 0.80901699437494745 -7.1631189606246322
v 3.23606797749979 0 -3.23606797749979
v 3.23606797749979 0 -4.23606797749979
v 2.9270509831248424 0.5 -5.0450849718747373
v 2.4270509831248424 1.3090169943749475 -5.3541019662496847
v 1.9270509831248424 2.1180339887498949 -5.0450849718747373
v 1.6180339887498949 2.6180339887498949 -4.23606797749979
v 1.6180339887498949 2.6180339887498949 -3.23606797749979
v 1.9270509831248424 2.1180339887498949 -2.4270509831248424
v 2.4270509831248424 1.3090169943749475 -2.1180339887498949
v 2.9270509831248424 0.5 -2.4270509831248424
v 3.23606797749979 -1 -3.23606797749979
v 2.9270509831248424 -1.5 -2.4270509831248424
v 2.4270509831248424 -2.3090169943749475 -2.1180339887498949
v 1.9270509831248424 -3.1180339887498949 -2.4270509831248424
v 1.6180339887498949 -3.6180339887498949 -3.23606797749979
v 1.6180339887498949 -3.6180339887498949 -4.23606797749979
v 1.9270509831248424 -3.1180339887498949 -5.0450849718747373
v 2.4270509831248424 -2.3090169943749475 -5.3541019662496847
v 2.9270509831248424 -1.5 -5.0450849718747373
v 3.23606797749979 -1 -4.23606797749979
v -4.23606797749979 0 -3.23606797749979
v -3.9270509831248424 0.5 -2.4270509831248424
v -3.4270509831248424 1.3090169943749475 -2.1180339887498949
v -2.9270509831248424 2.1180339887498949 -2.4270509831248424
v -2.6180339887498949 2.6180339887498949 -3.23606797749979
v -2.6180339887498949 2.6180339887498949 -4.23606797749979
v -2.9270509831248424 2.1180339887498949 -5.0450849718747373
v -3.4270509831248424 1.3090169943749475 -5.3541019662496847
v -3.9270509831248424 0.5 -5.0450849718747373
v -4.23606797749979 0 -4.23606797749979
v -4.23606797749979 -1 -3.23606797749979
v -4.23606797749979 -1 -4.23606797749979
v -3.9270509831248424 -1.5 -5.0450849718747373
v -3.4270509831248424 -2.3090169943749475 -5.3541019662496847
v -2.9270509831248424 -3.1180339887498949 -5.0450849718747373
v -2.6180339887498949 -3.6180339887498949 -4.23606797749979
v -2.6180339887498949 -3.6180339887498949 -3.23606797749979
v -2.9270509831248424 -3.1180339887498949 -2.4270509831248424
v -3.4270509831248424 -2.3090169943749475 -2.1180339887498949
v -3.9270509831248424 -1.5 -2.4270509831248424
v 0 3.23606797749979 -3.23606797749979
v -1 3.23606797749979 -3.23606797749979
v -1.8090169943749475 2.9270509831248424 -2.73606797749979
v -2.1180339887498949 2.4270509831248424 -1.9270509831248424
v -1.8090169943749475 1.9270509831248424 -1.1180339887498949
v -1 1.6180339887498949 -0.6180339887498949
v 0 1.6180339887498949 -0.6180339887498949
v 0.80901699437494745 1.9270509831248424 -1.1180339887498949
v 1.1180339887498949 2.4270509831248424 -1.9270509831248424
v 0.80901699437494745 2.9270509831248424 -2.73606797749979
v 0 3.23606797749979 -4.23606797749979
v 0.80901699437494745 2.9270509831248424 -4.73606797749979
v 1.1180339887498949 2.4270509831248424 -5.5450849718747373
v 0.80901699437494745 1.9270509831248424 -6.3541019662496847
v 0 1.6180339887498949 -6.8541019662496847
v -1 1.6180339887498949 -6.8541019662496847
v -1.8090169943749475 1.9270509831248424 -6.3541019662496847
v -2.1180339887498949 2.4270509831248424 -5.5450849718747373
v -1.8090169943749475 2.9270509831248424 -4.73606797749979
v -1 3.23606797749979 -4.23606797749979
v 0 -4.23606797749979 -3.23606797749979
v 0.80901699437494745 -3.9270509831248424 -2.73606797749979
v 1.1180339887498949 -3.4270509831248424 -1.9270509831248424
v 0.80901699437494745 -2.9270509831248424 -1.1180339887498949
v 0 -2.6180339887498949 -0.6180339887498949
v -1 -2.6180339887498949 -0.6180339887498949
v -1.8090169943749475 -2.9270509831248424 -1.1180339887498949
v -2.1180339887498949 -3.4270509831248424 -1.9270509831248424
v -1.8090169943749475 -3.9270509831248424 -2.73606797749979
v -1 -4.23606797749979 -3.23606797749979
v 0 -4.23606797749979 -4.23606797749979
v -1 -4.23606797749979 -4.23606797749979
v -1.8090169943749475 -3.9270509831248424 -4.73606797749979
v -2.1180339887498949 -3.4270509831248424 -5.5450849718747373
v -1.8090169943749475 -2.9270509831248424 -6.3541019662496847
v -1 -2.6180339887498949 -6.8541019662496847
v 0 -2.6180339887498949 -6.8541019662496847
v 0.80901699437494745 -2.9270509831248424 -6.3541019662496847
v 1.1180339887498949 -3.4270509831248424 -5.5450849718747373
v 0.80901699437494745 -3.9270509831248424 -4.73606797749979
vn 0.30901699437494745 0 0.5
vn 0.30901699437494745 5.5511151231257827E-17 -0.5
vn -0.30901699437494745 5.5511151231257827E-17 0.5
vn -0.30901699437494745 0 -0.5
vn 0.5 0.30901699437494745 0
vn 0.5 -0.30901699437494745 5.5511151231257827E-17
vn -0.5 0.30901699437494745 5.5511151231257827E-17
vn -0.5 -0.30901699437494745 0
vn 0 0.5 0.30901699437494745
vn 5.5511151231257827E-17 0.5 -0.30901699437494745
vn 5.5511151231257827E-17 -0.5 0.30901699437494745
vn 0 -0.5 -0.30901699437494745
vn 0 0.30901699437494745 0.80901699437494745
vn 0 0.30901699437494745 -0.80901699437494745
vn 0 -0.30901699437494745 0.80901699437494745
vn 0 -0.30901699437494745 -0.80901699437494745
vn 0.80901699437494745 0 0.30901699437494745
vn 0.80901699437494745 0 -0.30901699437494745
vn -0.80901699437494745 0 0.30901699437494745
vn -0.80901699437494745 0 -0.30901699437494745
vn 0.30901699437494745 0.80901699437494745 0
vn 0.30901699437494745 -0.80901699437494745 0
vn -0.30901699437494745 0.80901699437494745 0
vn -0.30901699437494745 -0.80901699437494745 0
vn 0.5 0.5 0.5
vn 0.5 0.5 -0.5
vn 0.5 -0.5 0.5
vn 0.5 -0.5 -0.5
vn -0.5 0.5 0.5
vn -0.5 0.5 -0.5
vn -0.5 -0.5 0.5
vn -0.5 -0.5 -0.5
vn 0 0 1
vn 0 0 -1
vn 1 0 0
vn -1 0 0
vn 0 1 0
vn 0 -1 0
vn 0.30901699437494745 0.5 0.80901699437494745
vn 0.30901699437494745 0.5 -0.80901699437494745
vn 0.30901699437494745 -0.5 0.80901699437494745
vn 0.30901699437494745 -0.5 -0.80901699437494745
vn -0.30901699437494745 0.5 0.80901699437494745
vn -0.30901699437494745 0.5 -0.80901699437494745
vn -0.30901699437494745 -0.5 0.80901699437494745
vn -0.30901699437494745 -0.5 -0.80901699437494745
vn 0.80901699437494745 0.30901699437494745 0.5
vn 0.80901699437494745 0.30901699437494745 -0.5
vn 0.80901699437494745 -0.30901699437494745 0.5
vn 0.80901699437494745 -0.30901699437494745 -0.5
vn -0.80901699437494745 0.30901699437494745 0.5
vn -0.80901699437494745 0.30901699437494745 -0.5
vn -0.80901699437494745 -0.30901699437494745 0.5
vn -0.80901699437494745 -0.30901699437494745 -0.5
vn 0.5 0.80901699437494745 0.30901699437494745
vn 0.5 0.80901699437494745 -0.30901699437494745
vn 0.5 -0.80901699437494745 0.30901699437494745
vn 0.5 -0.80901699437494745 -0.30901699437494745
vn -0.5 0.80901699437494745 0.30901699437494745
vn -0.5 0.80901699437494745 -0.30901699437494745
vn -0.5 -0.80901699437494745 0.30901699437494745
vn -0.5 -0.80901699437494745 -0.30901699437494745
g Truncated Icosidodecahedron
f 1//1 2//1 3//1 4//1 5//1 6//1 7//1 8//1 9//1 10//1
f 11//2 12//2 13//2 14//2 15//2 16//2 17//2 18//2 19//2 20//2
f 21//3 22//3 23//3 24//3 25//3 26//3 27//3 28//3 29//3 30//3
f 31//4 32//4 33//4 34//4 35//4 36//4 37//4 38//4 39//4 40//4
f 41//5 42//5 43//5 44//5 45//5 46//5 47//5 48//5 49//5 50//5
f 51//6 52//6 53//6 54//6 55//6 56//6 57//6 58//6 59//6 60//6
f 61//7 62//7 63//7 64//7 65//7 66//7 67//7 68//7 69//7 70//7
f 71//8 72//8 73//8 74//8 75//8 76//8 77//8 78//8 79//8 80//8
f 81//9 82//9 83//9 84//9 85//9 86//9 87//9 88//9 89//9 90//9
f 91//10 92//10 93//10 94//10 95//10 96//10 97//10 98//10 99//10 100//10
f 101//11 102//11 103//11 104//11 105//11 106//11 107//11 108//11 109//11 110//11
f 111//12 112//12 113//12 114//12 115//12 116//12 117//12 118//12 119//12 120//12
f 1//13 10//13 87//13 86//13 22//13 21//13
f 11//14 31//14 40//14 96//14 95//14 12//14
f 2//15 30//15 29//15 106//15 105//15 3//15
f 20//16 19//16 117//16 116//16 33//16 32//16
f 41//17 50//17 7//17 6//17 52//17 51//17
f 42//18 60//18 59//18 16//18 15//18 43//18
f 61//19 71//19 80//19 26//19 25//19 62//19
f 70//20 69//20 37//20 36//20 73//20 72//20
f 81//21 90//21 47//21 46//21 92//21 91//21
f 101//22 111//22 120//22 56//22 55//22 102//22
f 82//23 100//23 99//23 66//23 65//23 83//23
f 110//24 109//24 77//24 76//24 113//24 112//24
f 9//25 8//25 49//25 48//25 89//25 88//25
f 13//26 94//26 93//26 45//26 44//26 14//26
f 4//27 104//27 103//27 54//27 53//27 5//27
f 18//28 17//28 58//28 57//28 119//28 118//28
f 23//29 85//29 84//29 64//29 63//29 24//29
f 39//30 38//30 68//30 67//30 98//30 97//30
f 28//31 27//31 79//31 78//31 108//31 107//31
f 34//32 115//32 114//32 75//32 74//32 35//32
f 1//33 21//33 30//33 2//33
f 11//34 20//34 32//34 31//34
f 41//35 51//35 60//35 42//35
f 61//36 70//36 72//36 71//36
f 81//37 91//37 100//37 82//37
f 101//38 110//38 112//38 111//38
f 10//39 9//39 88//39 87//39
f 12//40 95//40 94//40 13//40
f 3//41 105//41 104//41 4//41
f 19//42 18//42 118//42 117//42
f 22//43 86//43 85//43 23//43
f 40//44 39//44 97//44 96//44
f 29//45 28//45 107//45 106//45
f 33//46 116//46 115//46 34//46
f 50//47 49//47 8//47 7//47
f 43//48 15//48 14//48 44//48
f 52//49 6//49 5//49 53//49
f 59//50 58//50 17//50 16//50
f 62//51 25//51 24//51 63//51
f 69//52 68//52 38//52 37//52
f 80//53 79//53 27//53 26//53
f 73//54 36//54 35//54 74//54
f 90//55 89//55 48//55 47//55
f 92//56 46//56 45//56 93//56
f 102//57 55//57 54//57 103//57
f 120//58 119//58 57//58 56//58
f 83//59 65//59 64//59 84//59
f 99//60 98//60 67//60 66//60
f 109//61 108//61 78//61 77//61
f 113//62 76//62 75//62 114//62
