o Truncated Cuboctahedron
v 0 0 0
v -0.70710678118654746 0.70710678118654746 0
v -1.7071067811865475 0.70710678118654746 0
v -2.4142135623730949 0 0
v -2.4142135623730949 -1 0
v -1.7071067811865475 -1.7071067811865475 0
v -0.70710678118654746 -1.7071067811865475 0
v 0 -1 0
v 0 0 -3.8284271247461903
v 0 -1 -3.8284271247461903
v -0.70710678118654746 -1.7071067811865475 -3.8284271247461903
v -1.7071067811865475 -1.7071067811865475 -3.8284271247461903
v -2.4142135623730949 -1 -3.8284271247461903
v -2.4142135623730949 0 -3.8284271247461903
v -1.7071067811865475 0.70710678118654746 -3.8284271247461903
v -0.70710678118654746 0.70710678118654746 -3.8284271247461903
v 0.70710678118654768 0.70710678118654746 -1.4142135623730952
v 0.70710678118654768 0 -0.70710678118654768
v 0.70710678118654768 -1 -0.70710678118654768
v 0.70710678118654768 -1.7071067811865475 -1.4142135623730952
v 0.70710678118654768 -1.7071067811865475 -2.4142135623730949
v 0.70710678118654768 -1 -3.1213203435596428
v 0.70710678118654768 0 -3.1213203435596428
v 0.70710678118654768 0.70710678118654746 -2.4142135623730949
v -3.1213203435596428 0.70710678118654746 -1.4142135623730952
v -3.1213203435596428 0.70710678118654746 -2.4142135623730949
v -3.1213203435596428 0 -3.1213203435596428
v -3.1213203435596428 -1 -3.1213203435596428
v -3.1213203435596428 -1.7071067811865475 -2.4142135623730949
v -3.1213203435596428 -1.7071067811865475 -1.4142135623730952
v -3.1213203435596428 -1 -0.70710678118654768
v -3.1213203435596428 0 -0.70710678118654768
v -0.70710678118654746 1.4142135623730952 -0.70710678118654768
v 0 1.4142135623730952 -1.4142135623730952
v 0 1.4142135623730952 -2.4142135623730949
v -0.70710678118654746 1.4142135623730952 -3.1213203435596428
v -1.7071067811865475 1.4142135623730952 -3.1213203435596428
v -2.4142135623730949 1.4142135623730952 -2.4142135623730949
v -2.4142135623730949 1.4142135623730952 -1.4142135623730952
v -1.7071067811865475 1.4142135623730952 -0.70710678118654768
v -0.70710678118654746 -2.4142135623730949 -0.70710678118654768
v -1.7071067811865475 -2.4142135623730949 -0.70710678118654768
v -2.4142135623730949 -2.4142135623730949 -1.4142135623730952
v -2.4142135623730949 -2.4142135623730949 -2.4142135623730949
v -1.7071067811865475 -2.4142135623730949 -3.1213203435596428
v -0.70710678118654746 -2.4142135623730949 -3.1213203435596428
v 0 -2.4142135623730949 -2.4142135623730949
v 0 -2.4142135623730949 -1.4142135623730952
vn 0 0 0.70710678118654746
vn 0 0 -0.70710678118654746
vn 0.70710678118654746 0 0
vn -0.70710678118654735 0 0
vn 0 0.70710678118654735 0
vn 0 -0.70710678118654746 0
vn 0.50000000000000011 0.50000000000000011 0.50000000000000011
vn 0.49999999999999989 0.49999999999999989 -0.50000000000000011
vn 0.50000000000000011 -0.50000000000000011 0.49999999999999989
vn 0.49999999999999989 -0.50000000000000033 -0.50000000000000011
vn -0.50000000000000011 0.50000000000000011 0.50000000000000011
vn -0.49999999999999989 0.50000000000000056 -0.50000000000000022
vn -0.50000000000000011 -0.50000000000000022 0.50000000000000022
vn -0.49999999999999989 -0.49999999999999989 -0.49999999999999989
vn 0.70710678118654768 0 0.70710678118654768
vn 0.70710678118654746 0 -0.70710678118654768
vn -0.70710678118654768 0 0.70710678118654791
vn -0.70710678118654746 0 -0.70710678118654791
vn 0.70710678118654757 0.70710678118654757 0
vn 0.70710678118654735 -0.70710678118654757 0
vn -0.70710678118654757 0.70710678118654779 0
vn -0.70710678118654735 -0.70710678118654779 0
vn 0 0.70710678118654768 0.70710678118654768
vn 0 0.70710678118654746 -0.70710678118654768
vn 0 -0.70710678118654768 0.70710678118654746
vn 0 -0.70710678118654746 -0.70710678118654746
g Truncated Cuboctahedron
f 1//1 2//1 3//1 4//1 5//1 6//1 7//1 8//1
f 9//2 10//2 11//2 12//2 13//2 14//2 15//2 16//2
f 17//3 18//3 19//3 20//3 21//3 22//3 23//3 24//3
f 25//4 26//4 27//4 28//4 29//4 30//4 31//4 32//4
f 33//5 34//5 35//5 36//5 37//5 38//5 39//5 40//5
f 41//6 42//6 43//6 44//6 45//6 46//6 47//6 48//6
f 1//7 18//7 17//7 34//7 33//7 2//7
f 9//8 16//8 36//8 35//8 24//8 23//8
f 8//9 7//9 41//9 48//9 20//9 19//9
f 10//10 22//10 21//10 47//10 46//10 11//10
f 4//11 3//11 40//11 39//11 25//11 32//11
f 14//12 27//12 26//12 38//12 37//12 15//12
f 5//13 31//13 30//13 43//13 42//13 6//13
f 13//14 12//14 45//14 44//14 29//14 28//14
f 1//15 8//15 19//15 18//15
f 9//16 23//16 22//16 10//16
f 4//17 32//17 31//17 5//17
f 14//18 13//18 28//18 27//18
f 17//19 24//19 35//19 34//19
f 20//20 48//20 47//20 21//20
f 25//21 39//21 38//21 26//21
f 30//22 29//22 44//22 43//22
f 33//23 40//23 3//23 2//23
f 36//24 16//24 15//24 37//24
f 41//25 7//25 6//25 42//25
f 46//26 45//26 12//26 11//26
