o Truncated Tetrakis Hexahedron
v 0 0 0
v 1.183503419072274 -0.591751709536137 -0.59175170953613687
v 1.7752551286084108 0 -1.7752551286084108
v 1.183503419072274 1.183503419072274 -2.3670068381445479
v 0 1.7752551286084108 -1.7752551286084108
v -0.591751709536137 1.183503419072274 -0.59175170953613687
v 0 0 -6.1835034190722737
v -0.591751709536137 1.183503419072274 -5.5917517095361369
v 0 1.7752551286084108 -4.4082482904638631
v 1.183503419072274 1.183503419072274 -3.8164965809277258
v 1.7752551286084108 0 -4.4082482904638631
v 1.183503419072274 -0.591751709536137 -5.5917517095361369
v 0 -2.6329931618554521 0
v -0.591751709536137 -3.8164965809277263 -0.59175170953613687
v 0 -4.4082482904638631 -1.7752551286084108
v 1.183503419072274 -3.8164965809277263 -2.3670068381445479
v 1.7752551286084108 -2.6329931618554521 -1.7752551286084108
v 1.183503419072274 -2.0412414523193152 -0.59175170953613687
v 0 -2.6329931618554521 -6.1835034190722737
v 1.183503419072274 -2.0412414523193152 -5.5917517095361369
v 1.7752551286084108 -2.6329931618554521 -4.4082482904638631
v 1.183503419072274 -3.8164965809277263 -3.8164965809277258
v 0 -4.4082482904638631 -4.4082482904638631
v -0.591751709536137 -3.8164965809277263 -5.5917517095361369
v -2.6329931618554521 0 0
v -2.0412414523193152 1.183503419072274 -0.59175170953613687
v -2.6329931618554521 1.7752551286084108 -1.7752551286084108
v -3.8164965809277263 1.183503419072274 -2.3670068381445479
v -4.4082482904638631 0 -1.7752551286084108
v -3.8164965809277263 -0.591751709536137 -0.59175170953613687
v -2.6329931618554521 0 -6.1835034190722737
v -3.8164965809277263 -0.591751709536137 -5.5917517095361369
v -4.4082482904638631 0 -4.4082482904638631
v -3.8164965809277263 1.183503419072274 -3.8164965809277258
v -2.6329931618554521 1.7752551286084108 -4.4082482904638631
v -2.0412414523193152 1.183503419072274 -5.5917517095361369
v -2.6329931618554521 -2.6329931618554521 0
v -3.8164965809277263 -2.0412414523193152 -0.59175170953613687
v -4.4082482904638631 -2.6329931618554521 -1.7752551286084108
v -3.8164965809277263 -3.8164965809277263 -2.3670068381445479
v -2.6329931618554521 -4.4082482904638631 -1.7752551286084108
v -2.0412414523193152 -3.8164965809277263 -0.59175170953613687
v -2.6329931618554521 -2.6329931618554521 -6.1835034190722737
v -2.0412414523193152 -3.8164965809277263 -5.5917517095361369
v -2.6329931618554521 -4.4082482904638631 -4.4082482904638631
v -3.8164965809277263 -3.8164965809277263 -3.8164965809277258
v -4.4082482904638631 -2.6329931618554521 -4.4082482904638631
v -3.8164965809277263 -2.0412414523193152 -5.5917517095361369
v -0.816496580927726 -0.816496580927726 0.40824829046386313
v -1.816496580927726 -0.816496580927726 0.40824829046386313
v -0.816496580927726 -0.816496580927726 -6.5917517095361369
v -0.816496580927726 -1.816496580927726 -6.5917517095361369
v -0.816496580927726 -1.816496580927726 0.40824829046386313
v -1.816496580927726 -1.816496580927726 -6.5917517095361369
v -1.816496580927726 -1.816496580927726 0.40824829046386313
v -1.816496580927726 -0.816496580927726 -6.5917517095361369
v 2.1835034190722737 -0.816496580927726 -2.5917517095361369
v 2.1835034190722737 -1.816496580927726 -2.5917517095361369
v 2.1835034190722737 -0.816496580927726 -3.5917517095361369
v 2.1835034190722737 -1.816496580927726 -3.5917517095361369
v -4.8164965809277263 -0.816496580927726 -2.5917517095361369
v -4.8164965809277263 -0.816496580927726 -3.5917517095361369
v -4.8164965809277263 -1.816496580927726 -3.5917517095361369
v -4.8164965809277263 -1.816496580927726 -2.5917517095361369
v -0.816496580927726 2.1835034190722737 -2.5917517095361369
v -0.816496580927726 2.1835034190722737 -3.5917517095361369
v -1.816496580927726 2.1835034190722737 -3.5917517095361369
v -0.816496580927726 -4.8164965809277263 -2.5917517095361369
v -1.816496580927726 -4.8164965809277263 -2.5917517095361369
v -0.816496580927726 -4.8164965809277263 -3.5917517095361369
v -1.816496580927726 2.1835034190722737 -2.5917517095361369
v -1.816496580927726 -4.8164965809277263 -3.5917517095361369
vn 1.0505102572168219 1.0505102572168221 1.0505102572168219
vn 1.0505102572168217 1.0505102572168217 -1.0505102572168219
vn 1.0505102572168223 -1.0505102572168219 1.0505102572168219
vn 1.0505102572168215 -1.0505102572168217 -1.0505102572168217
vn -1.0505102572168221 1.0505102572168217 1.0505102572168217
vn -1.0505102572168217 1.0505102572168221 -1.0505102572168219
vn -1.0505102572168217 -1.0505102572168223 1.0505102572168217
vn -1.0505102572168221 -1.0505102572168215 -1.0505102572168217
vn 2.2204460492503131E-16 0.724744871391589 1.4494897427831781
vn 0.724744871391589 2.2204460492503131E-16 -1.4494897427831781
vn 0.72474487139158894 -2.2204460492503131E-16 1.4494897427831781
vn 3.3306690738754696E-16 -0.724744871391589 -1.4494897427831783
vn -0.724744871391589 3.3306690738754696E-16 1.4494897427831783
vn -2.2204460492503131E-16 0.72474487139158894 -1.4494897427831781
vn -3.3306690738754696E-16 -0.72474487139158894 1.4494897427831781
vn -0.72474487139158894 -3.3306690738754696E-16 -1.4494897427831781
vn 1.4494897427831781 -5.5511151231257827E-17 0.72474487139158894
vn 1.4494897427831788 0.72474487139158916 5.5511151231257827E-17
vn 1.4494897427831783 -0.72474487139158894 5.5511151231257827E-17
vn 1.4494897427831779 2.2204460492503131E-16 -0.72474487139158883
vn -1.4494897427831783 0.724744871391589 2.2204460492503131E-16
vn -1.4494897427831781 0 -0.724744871391589
vn -1.4494897427831781 -2.2204460492503131E-16 0.72474487139158894
vn -1.4494897427831788 -0.72474487139158927 -3.3306690738754696E-16
vn 0.72474487139158894 1.4494897427831783 -5.5511151231257827E-17
vn -2.2204460492503131E-16 1.4494897427831781 -0.72474487139158894
vn 2.2204460492503131E-16 -1.4494897427831781 0.724744871391589
vn 0.72474487139158927 -1.4494897427831788 -2.2204460492503131E-16
vn 5.5511151231257827E-17 1.4494897427831781 0.72474487139158883
vn -0.72474487139158916 1.4494897427831788 -5.5511151231257827E-17
vn -0.724744871391589 -1.4494897427831783 3.3306690738754696E-16
vn 0 -1.4494897427831779 -0.72474487139158894
vn 0 0 1
vn 0 0 -1
vn 1 0 0
vn -1 0 0
vn 0 1 0
vn 0 -1 0
g Truncated Tetrakis Hexahedron
f 1//1 2//1 3//1 4//1 5//1 6//1
f 7//2 8//2 9//2 10//2 11//2 12//2
f 13//3 14//3 15//3 16//3 17//3 18//3
f 19//4 20//4 21//4 22//4 23//4 24//4
f 25//5 26//5 27//5 28//5 29//5 30//5
f 31//6 32//6 33//6 34//6 35//6 36//6
f 37//7 38//7 39//7 40//7 41//7 42//7
f 43//8 44//8 45//8 46//8 47//8 48//8
f 49//9 1//9 6//9 26//9 25//9 50//9
f 51//10 7//10 12//10 20//10 19//10 52//10
f 53//11 13//11 18//11 2//11 1//11 49//11
f 52//12 19//12 24//12 44//12 43//12 54//12
f 50//13 25//13 30//13 38//13 37//13 55//13
f 56//14 31//14 36//14 8//14 7//14 51//14
f 55//15 37//15 42//15 14//15 13//15 53//15
f 54//16 43//16 48//16 32//16 31//16 56//16
f 57//17 3//17 2//17 18//17 17//17 58//17
f 59//18 11//18 10//18 4//18 3//18 57//18
f 58//19 17//19 16//19 22//19 21//19 60//19
f 60//20 21//20 20//20 12//20 11//20 59//20
f 61//21 29//21 28//21 34//21 33//21 62//21
f 62//22 33//22 32//22 48//22 47//22 63//22
f 64//23 39//23 38//23 30//23 29//23 61//23
f 63//24 47//24 46//24 40//24 39//24 64//24
f 65//25 5//25 4//25 10//25 9//25 66//25
f 66//26 9//26 8//26 36//26 35//26 67//26
f 68//27 15//27 14//27 42//27 41//27 69//27
f 70//28 23//28 22//28 16//28 15//28 68//28
f 71//29 27//29 26//29 6//29 5//29 65//29
f 67//30 35//30 34//30 28//30 27//30 71//30
f 69//31 41//31 40//31 46//31 45//31 72//31
f 72//32 45//32 44//32 24//32 23//32 70//32
f 49//33 50//33 55//33 53//33
f 51//34 52//34 54//34 56//34
f 57//35 58//35 60//35 59//35
f 61//36 62//36 63//36 64//36
f 65//37 66//37 67//37 71//37
f 68//38 69//38 72//38 70//38
