o Truncated Pentakis Dodecahedron
v 0 0 0
v 0.98807656246524589 0.53291382051864222 -0.2035549663635603
v 0.98807656246524589 1.5987414615559268 -0.61066489909068089
v 0 2.1316552820745689 -0.81421986545424074
v -0.98807656246524589 1.5987414615559268 -0.61066489909068089
v -0.98807656246524589 0.53291382051864222 -0.2035549663635603
v 0 0 -9.3819660112501051
v -0.98807656246524589 0.53291382051864222 -9.1784110448865448
v -0.98807656246524589 1.5987414615559268 -8.7713011121594242
v 0 2.1316552820745689 -8.5677461457958639
v 0.98807656246524589 1.5987414615559268 -8.7713011121594242
v 0.98807656246524589 0.53291382051864222 -9.1784110448865448
v 0 -1.1409325386385396 0
v -0.98807656246524589 -1.6738463591571819 -0.2035549663635603
v -0.98807656246524589 -2.7396740001944662 -0.61066489909068089
v 0 -3.2725878207131083 -0.81421986545424074
v 0.98807656246524589 -2.7396740001944662 -0.61066489909068089
v 0.98807656246524589 -1.6738463591571819 -0.2035549663635603
v 0 -1.1409325386385396 -9.3819660112501051
v 0.98807656246524589 -1.6738463591571819 -9.1784110448865448
v 0.98807656246524589 -2.7396740001944662 -8.7713011121594242
v 0 -3.2725878207131083 -8.5677461457958639
v -0.98807656246524589 -2.7396740001944662 -8.7713011121594242
v -0.98807656246524589 -1.6738463591571819 -9.1784110448865448
v 4.6909830056250525 -0.5704662693192698 -4.1205167363057829
v 4.4874280392614923 0.41761029314597609 -3.5876029157871407
v 4.0803181065343717 0.41761029314597609 -2.5217752747498561
v 3.8767631401708118 -0.5704662693192698 -1.988861454231214
v 4.0803181065343717 -1.5585428317845156 -2.5217752747498561
v 4.4874280392614923 -1.5585428317845156 -3.5876029157871407
v 4.6909830056250525 -0.5704662693192698 -5.2614492749443222
v 4.4874280392614923 -1.5585428317845156 -5.7943630954629644
v 4.0803181065343717 -1.5585428317845156 -6.8601907365002486
v 3.8767631401708118 -0.5704662693192698 -7.3931045570188907
v 4.0803181065343717 0.41761029314597609 -6.8601907365002486
v 4.4874280392614923 0.41761029314597609 -5.7943630954629644
v -4.6909830056250525 -0.5704662693192698 -4.1205167363057829
v -4.4874280392614923 -1.5585428317845156 -3.5876029157871407
v -4.0803181065343717 -1.5585428317845156 -2.5217752747498561
v -3.8767631401708118 -0.5704662693192698 -1.988861454231214
v -4.0803181065343717 0.41761029314597609 -2.5217752747498561
v -4.4874280392614923 0.41761029314597609 -3.5876029157871407
v -4.6909830056250525 -0.5704662693192698 -5.2614492749443222
v -4.4874280392614923 0.41761029314597609 -5.7943630954629644
v -4.0803181065343717 0.41761029314597609 -6.8601907365002486
v -3.8767631401708118 -0.5704662693192698 -7.3931045570188907
v -4.0803181065343717 -1.5585428317845156 -6.8601907365002486
v -4.4874280392614923 -1.5585428317845156 -5.7943630954629644
v 0.5704662693192698 4.1205167363057829 -4.6909830056250525
v 1.103380089837912 3.9169617699422226 -3.7029064431598067
v 2.1692077308751965 3.509851837215102 -3.7029064431598067
v 2.7021215513938386 3.3062968708515421 -4.6909830056250525
v 2.1692077308751965 3.509851837215102 -5.6790595680902989
v 1.103380089837912 3.9169617699422226 -5.6790595680902989
v 0.5704662693192698 -5.2614492749443222 -4.6909830056250525
v 1.103380089837912 -5.0578943085807619 -5.6790595680902989
v 2.1692077308751965 -4.6507843758536414 -5.6790595680902989
v 2.7021215513938386 -4.4472294094900819 -4.6909830056250525
v 2.1692077308751965 -4.6507843758536414 -3.7029064431598067
v 1.103380089837912 -5.0578943085807619 -3.7029064431598067
v -0.5704662693192698 4.1205167363057829 -4.6909830056250525
v -1.103380089837912 3.9169617699422226 -5.6790595680902989
v -2.1692077308751965 3.509851837215102 -5.6790595680902989
v -2.7021215513938386 3.3062968708515421 -4.6909830056250525
v -2.1692077308751965 3.509851837215102 -3.7029064431598067
v -1.103380089837912 3.9169617699422226 -3.7029064431598067
v -0.5704662693192698 -5.2614492749443222 -4.6909830056250525
v -1.103380089837912 -5.0578943085807619 -3.7029064431598067
v -2.1692077308751965 -4.6507843758536414 -3.7029064431598067
v -2.7021215513938386 -4.4472294094900819 -4.6909830056250525
v -2.1692077308751965 -4.6507843758536414 -5.6790595680902989
v -1.103380089837912 -5.0578943085807619 -5.6790595680902989
v 1.9111103756591759 1.9513090054305868 -1.1811311684099501
v 2.7733830503329 1.214840218548384 -1.3069350562014721
v 3.5098518372151024 1.3406441063399059 -2.169207730875196
v 3.3840479494235804 2.2029167810136303 -2.9056765177573984
v 2.5217752747498565 2.9393855678958327 -2.7798726299658769
v 1.7853064878676539 2.8135816801043108 -1.9175999552921526
v 1.9111103756591759 1.9513090054305868 -8.2008348428401554
v 1.7853064878676539 2.8135816801043108 -7.464366055957953
v 2.5217752747498565 2.9393855678958327 -6.6020933812842282
v 3.3840479494235804 2.2029167810136303 -6.4762894934927067
v 3.5098518372151024 1.3406441063399059 -7.2127582803749091
v 2.7733830503329 1.214840218548384 -8.0750309550486321
v 1.9111103756591759 -3.0922415440691262 -1.1811311684099501
v 1.7853064878676539 -3.95451421874285 -1.9175999552921526
v 2.5217752747498565 -4.0803181065343725 -2.7798726299658769
v 3.3840479494235804 -3.3438493196521697 -2.9056765177573984
v 3.5098518372151024 -2.4815766449784458 -2.169207730875196
v 2.7733830503329 -2.3557727571869238 -1.3069350562014721
v 1.9111103756591759 -3.0922415440691262 -8.2008348428401554
v 2.7733830503329 -2.3557727571869238 -8.0750309550486321
v 3.5098518372151024 -2.4815766449784458 -7.2127582803749091
v 3.3840479494235804 -3.3438493196521697 -6.4762894934927067
v 2.5217752747498565 -4.0803181065343725 -6.6020933812842282
v 1.7853064878676539 -3.95451421874285 -7.464366055957953
v -1.9111103756591759 1.9513090054305868 -1.1811311684099501
v -1.7853064878676539 2.8135816801043108 -1.9175999552921526
v -2.5217752747498565 2.9393855678958327 -2.7798726299658769
v -3.3840479494235804 2.2029167810136303 -2.9056765177573984
v -3.5098518372151024 1.3406441063399059 -2.169207730875196
v -2.7733830503329 1.214840218548384 -1.3069350562014721
v -1.9111103756591759 1.9513090054305868 -8.2008348428401554
v -2.7733830503329 1.214840218548384 -8.0750309550486321
v -3.5098518372151024 1.3406441063399059 -7.2127582803749091
v -3.3840479494235804 2.2029167810136303 -6.4762894934927067
v -2.5217752747498565 2.9393855678958327 -6.6020933812842282
v -1.7853064878676539 2.8135816801043108 -7.464366055957953
v -1.9111103756591759 -3.0922415440691262 -1.1811311684099501
v -2.7733830503329 -2.3557727571869238 -1.3069350562014721
v -3.5098518372151024 -2.4815766449784458 -2.169207730875196
v -3.3840479494235804 -3.3438493196521697 -2.9056765177573984
v -2.5217752747498565 -4.0803181065343725 -2.7798726299658769
v -1.7853064878676539 -3.95451421874285 -1.9175999552921526
v -1.9111103756591759 -3.0922415440691262 -8.2008348428401554
v -1.7853064878676539 -3.95451421874285 -7.464366055957953
v -2.5217752747498565 -4.0803181065343725 -6.6020933812842282
v -3.3840479494235804 -3.3438493196521697 -6.4762894934927067
v -3.5098518372151024 -2.4815766449784458 -7.2127582803749091
v -2.7733830503329 -2.3557727571869238 -8.0750309550486321
v 1.8541019662496845 -1.0704662693192697 -0.3819660112501051
v 1.8541019662496845 -0.0704662693192698 -0.3819660112501051
v -1.8541019662496845 -1.0704662693192697 -9
v -1.8541019662496845 -0.0704662693192698 -9
v -1.8541019662496845 -0.0704662693192698 -0.3819660112501051
v -1.8541019662496845 -1.0704662693192697 -0.3819660112501051
v 1.8541019662496845 -0.0704662693192698 -9
v 1.8541019662496845 -1.0704662693192697 -9
v 4.3090169943749475 1.2836356969304146 -5.1909830056250525
v 4.3090169943749475 1.2836356969304146 -4.1909830056250525
v 4.3090169943749475 -2.4245682355689544 -4.1909830056250525
v 4.3090169943749475 -2.4245682355689544 -5.1909830056250525
v -4.3090169943749475 -2.4245682355689544 -5.1909830056250525
v -4.3090169943749475 -2.4245682355689544 -4.1909830056250525
v -4.3090169943749475 1.2836356969304146 -4.1909830056250525
v -4.3090169943749475 1.2836356969304146 -5.1909830056250525
v -0.5 3.7385507250556778 -2.8368810393753678
v 0.5 3.7385507250556778 -2.8368810393753678
v -0.5 -4.8794832636942171 -6.5450849718747373
v 0.5 -4.8794832636942171 -6.5450849718747373
v 0.5 3.7385507250556778 -6.5450849718747373
v -0.5 3.7385507250556778 -6.5450849718747373
v 0.5 -4.8794832636942171 -2.8368810393753678
v -0.5 -4.8794832636942171 -2.8368810393753678
v 2.6631189606246322 0.23855072505567765 -0.8819660112501051
v 2.6631189606246322 0.23855072505567765 -8.5
v 2.6631189606246322 -1.3794832636942171 -0.8819660112501051
v 2.6631189606246322 -1.3794832636942171 -8.5
v -2.6631189606246322 0.23855072505567765 -0.8819660112501051
v -2.6631189606246322 0.23855072505567765 -8.5
v -2.6631189606246322 -1.3794832636942171 -0.8819660112501051
v -2.6631189606246322 -1.3794832636942171 -8.5
v 3.8090169943749475 2.0926526913053625 -3.8819660112501051
v 3.8090169943749475 2.0926526913053625 -5.5
v 3.8090169943749475 -3.2335852299439019 -3.8819660112501051
v 3.8090169943749475 -3.2335852299439019 -5.5
v -3.8090169943749475 2.0926526913053625 -3.8819660112501051
v -3.8090169943749475 2.0926526913053625 -5.5
v -3.8090169943749475 -3.2335852299439019 -3.8819660112501051
v -3.8090169943749475 -3.2335852299439019 -5.5
v 0.80901699437494745 3.2385507250556778 -2.0278640450004204
v 0.80901699437494745 3.2385507250556778 -7.3541019662496847
v 0.80901699437494745 -4.3794832636942171 -2.0278640450004204
v 0.80901699437494745 -4.3794832636942171 -7.3541019662496847
v -0.80901699437494745 3.2385507250556778 -2.0278640450004204
v -0.80901699437494745 3.2385507250556778 -7.3541019662496847
v -0.80901699437494745 -4.3794832636942171 -2.0278640450004204
v -0.80901699437494745 -4.3794832636942171 -7.3541019662496847
v 0 2.9295337306807303 -1.5278640450004204
v 0 2.9295337306807303 -7.8541019662496847
v 0 -4.07046626931927 -1.5278640450004204
v 0 -4.07046626931927 -7.8541019662496847
v 3.1631189606246322 -0.5704662693192698 -1.1909830056250526
v 3.1631189606246322 -0.5704662693192698 -8.1909830056250534
v -3.1631189606246322 -0.5704662693192698 -1.1909830056250526
v -3.1631189606246322 -0.5704662693192698 -8.1909830056250534
v 3.5 2.5926526913053625 -4.6909830056250525
v 3.5 -3.7335852299439019 -4.6909830056250525
v -3.5 2.5926526913053625 -4.6909830056250525
v -3.5 -3.7335852299439019 -4.6909830056250525
vn 2.7755575615628914E-17 0.40225578287447084 1.0531193117365623
vn -2.7755575615628914E-17 0.40225578287447084 -1.0531193117365623
vn 8.3266726846886741E-17 -0.40225578287447084 1.0531193117365618
vn -8.3266726846886741E-17 -0.40225578287447084 -1.0531193117365618
vn 1.0531193117365623 8.3266726846886741E-17 0.40225578287447084
vn 1.0531193117365618 0 -0.40225578287447078
vn -1.0531193117365623 -8.3266726846886741E-17 0.40225578287447078
vn -1.0531193117365618 0 -0.40225578287447084
vn 0.40225578287447084 1.053119311736562 0
vn 0.402255782874471 -1.0531193117365625 0
vn -0.402255782874471 1.0531193117365625 0
vn -0.40225578287447084 -1.053119311736562 0
vn 0.65086352886209164 0.65086352886209109 0.650863528862092
vn 0.65086352886209164 0.65086352886209176 -0.65086352886209153
vn 0.65086352886209087 -0.65086352886209176 0.65086352886209153
vn 0.65086352886209076 -0.65086352886208931 -0.65086352886209164
vn -0.6508635288620912 0.65086352886209176 0.65086352886209153
vn -0.6508635288620912 0.65086352886208931 -0.650863528862092
vn -0.65086352886209131 -0.65086352886209109 0.65086352886209164
vn -0.65086352886209131 -0.65086352886209176 -0.65086352886209153
vn 0.23224248452565938 0 1.1273287007827146
vn -0.23224248452565938 0 -1.1273287007827146
vn -0.23224248452565938 0 1.1273287007827146
vn 0.23224248452565938 0 -1.1273287007827146
vn 1.1273287007827144 0.23224248452565935 0
vn 1.1273287007827142 -0.23224248452565935 0
vn -1.1273287007827142 -0.23224248452565935 0
vn -1.1273287007827144 0.23224248452565935 0
vn 0 1.1273287007827146 0.23224248452565938
vn 0 -1.1273287007827151 -0.23224248452565938
vn 0 1.1273287007827151 -0.23224248452565938
vn 0 -1.1273287007827146 0.23224248452565938
vn 0.35682208977308993 0.288675134594813 0.755761314076171
vn 0.46448496905131764 0.37577623359423845 -0.98379495171413611
vn 0.46448496905131786 -0.37577623359423845 0.98379495171413567
vn 0.35682208977309005 -0.288675134594813 -0.7557613140761712
vn -0.46448496905131809 0.37577623359423845 0.98379495171413611
vn -0.35682208977308993 0.288675134594813 -0.755761314076171
vn -0.35682208977309005 -0.288675134594813 0.7557613140761712
vn -0.46448496905131742 -0.37577623359423845 -0.98379495171413567
vn 0.75576131407617086 0.35682208977308982 0.28867513459481287
vn 0.98379495171413556 0.46448496905131764 -0.3757762335942384
vn 0.98379495171413633 -0.46448496905131809 0.37577623359423851
vn 0.75576131407617075 -0.35682208977308982 -0.28867513459481309
vn -0.98379495171413589 0.46448496905131809 0.3757762335942384
vn -0.75576131407617086 0.35682208977308982 -0.28867513459481287
vn -0.75576131407617075 -0.35682208977308982 0.28867513459481309
vn -0.98379495171413589 -0.46448496905131764 -0.37577623359423851
vn 0.28867513459481309 0.755761314076171 0.35682208977308993
vn 0.37577623359423817 0.98379495171413511 -0.464484969051318
vn 0.37577623359423834 -0.98379495171413567 0.46448496905131753
vn 0.28867513459481287 -0.75576131407617075 -0.35682208977308993
vn -0.37577623359423834 0.98379495171413567 0.464484969051318
vn -0.28867513459481287 0.75576131407617075 -0.35682208977308993
vn -0.28867513459481309 -0.755761314076171 0.35682208977308993
vn -0.37577623359423817 -0.98379495171413511 -0.46448496905131753
vn 0.23224248452565866 0.75155246718847657 0.84026120264555659
vn 0.21789872544460931 0.70513508774931943 -0.78836499476387933
vn 0.21789872544460989 -0.70513508774931988 0.78836499476387933
vn 0.23224248452565827 -0.75155246718847646 -0.84026120264555659
vn -0.21789872544460989 0.70513508774931988 0.78836499476387933
vn -0.23224248452565827 0.75155246718847646 -0.84026120264555659
vn -0.23224248452565866 -0.75155246718847657 0.84026120264555659
vn -0.21789872544460931 -0.70513508774931943 -0.78836499476387933
vn 0.84026120264555648 0.23224248452565866 0.75155246718847646
vn 0.78836499476388067 0.21789872544460961 -0.70513508774931988
vn 0.78836499476387922 -0.21789872544460989 0.70513508774931988
vn 0.84026120264555615 -0.23224248452565782 -0.75155246718847679
vn -0.78836499476387933 0.21789872544460989 0.70513508774931988
vn -0.84026120264555582 0.23224248452565782 -0.75155246718847646
vn -0.84026120264555682 -0.23224248452565866 0.75155246718847679
vn -0.78836499476388056 -0.21789872544460961 -0.70513508774931988
vn 0.75155246718847613 0.84026120264555626 0.23224248452565866
vn 0.70513508774932021 0.78836499476387967 -0.21789872544460989
vn 0.70513508774932032 -0.78836499476387933 0.21789872544461045
vn 0.75155246718847613 -0.84026120264555593 -0.2322424845256581
vn -0.70513508774931988 0.78836499476387933 0.21789872544460989
vn -0.75155246718847579 0.84026120264555593 -0.23224248452565866
vn -0.75155246718847646 -0.84026120264555626 0.2322424845256581
vn -0.70513508774932065 -0.78836499476387967 -0.21789872544461045
vn 0.5 -1.1102230246251565E-16 0.80901699437494767
vn 0.49999999999999967 -6.106226635438361E-16 -0.80901699437494756
vn -0.5 1.1102230246251565E-16 0.80901699437494756
vn -0.49999999999999978 6.106226635438361E-16 -0.80901699437494767
vn 0.8090169943749479 0.5 -1.6653345369377348E-16
vn 0.80901699437494745 -0.5 5.5511151231257827E-17
vn -0.8090169943749479 0.5 1.6653345369377348E-16
vn -0.80901699437494745 -0.5 -5.5511151231257827E-17
vn -5.5511151231257827E-17 0.80901699437494745 0.5
vn 5.5511151231257827E-17 0.80901699437494745 -0.5
vn 5.5511151231257827E-17 -0.80901699437494745 0.5
vn -5.5511151231257827E-17 -0.80901699437494745 -0.5
g Truncated Pentakis Dodecahedron
f 1//1 2//1 3//1 4//1 5//1 6//1
f 7//2 8//2 9//2 10//2 11//2 12//2
f 13//3 14//3 15//3 16//3 17//3 18//3
f 19//4 20//4 21//4 22//4 23//4 24//4
f 25//5 26//5 27//5 28//5 29//5 30//5
f 31//6 32//6 33//6 34//6 35//6 36//6
f 37//7 38//7 39//7 40//7 41//7 42//7
f 43//8 44//8 45//8 46//8 47//8 48//8
f 49//9 50//9 51//9 52//9 53//9 54//9
f 55//10 56//10 57//10 58//10 59//10 60//10
f 61//11 62//11 63//11 64//11 65//11 66//11
f 67//12 68//12 69//12 70//12 71//12 72//12
f 73//13 74//13 75//13 76//13 77//13 78//13
f 79//14 80//14 81//14 82//14 83//14 84//14
f 85//15 86//15 87//15 88//15 89//15 90//15
f 91//16 92//16 93//16 94//16 95//16 96//16
f 97//17 98//17 99//17 100//17 101//17 102//17
f 103//18 104//18 105//18 106//18 107//18 108//18
f 109//19 110//19 111//19 112//19 113//19 114//19
f 115//20 116//20 117//20 118//20 119//20 120//20
f 1//21 13//21 18//21 121//21 122//21 2//21
f 7//22 19//22 24//22 123//22 124//22 8//22
f 13//23 1//23 6//23 125//23 126//23 14//23
f 19//24 7//24 12//24 127//24 128//24 20//24
f 25//25 31//25 36//25 129//25 130//25 26//25
f 31//26 25//26 30//26 131//26 132//26 32//26
f 37//27 43//27 48//27 133//27 134//27 38//27
f 43//28 37//28 42//28 135//28 136//28 44//28
f 49//29 61//29 66//29 137//29 138//29 50//29
f 55//30 67//30 72//30 139//30 140//30 56//30
f 61//31 49//31 54//31 141//31 142//31 62//31
f 67//32 55//32 60//32 143//32 144//32 68//32
f 2//33 122//33 145//33 74//33 73//33 3//33
f 12//34 11//34 79//34 84//34 146//34 127//34
f 18//35 17//35 85//35 90//35 147//35 121//35
f 20//36 128//36 148//36 92//36 91//36 21//36
f 6//37 5//37 97//37 102//37 149//37 125//37
f 8//38 124//38 150//38 104//38 103//38 9//38
f 14//39 126//39 151//39 110//39 109//39 15//39
f 24//40 23//40 115//40 120//40 152//40 123//40
f 26//41 130//41 153//41 76//41 75//41 27//41
f 36//42 35//42 83//42 82//42 154//42 129//42
f 30//43 29//43 89//43 88//43 155//43 131//43
f 32//44 132//44 156//44 94//44 93//44 33//44
f 42//45 41//45 101//45 100//45 157//45 135//45
f 44//46 136//46 158//46 106//46 105//46 45//46
f 38//47 134//47 159//47 112//47 111//47 39//47
f 48//48 47//48 119//48 118//48 160//48 133//48
f 50//49 138//49 161//49 78//49 77//49 51//49
f 54//50 53//50 81//50 80//50 162//50 141//50
f 60//51 59//51 87//51 86//51 163//51 143//51
f 56//52 140//52 164//52 96//52 95//52 57//52
f 66//53 65//53 99//53 98//53 165//53 137//53
f 62//54 142//54 166//54 108//54 107//54 63//54
f 68//55 144//55 167//55 114//55 113//55 69//55
f 72//56 71//56 117//56 116//56 168//56 139//56
f 3//57 73//57 78//57 161//57 169//57 4//57
f 11//58 10//58 170//58 162//58 80//58 79//58
f 17//59 16//59 171//59 163//59 86//59 85//59
f 21//60 91//60 96//60 164//60 172//60 22//60
f 5//61 4//61 169//61 165//61 98//61 97//61
f 9//62 103//62 108//62 166//62 170//62 10//62
f 15//63 109//63 114//63 167//63 171//63 16//63
f 23//64 22//64 172//64 168//64 116//64 115//64
f 27//65 75//65 74//65 145//65 173//65 28//65
f 35//66 34//66 174//66 146//66 84//66 83//66
f 29//67 28//67 173//67 147//67 90//67 89//67
f 33//68 93//68 92//68 148//68 174//68 34//68
f 41//69 40//69 175//69 149//69 102//69 101//69
f 45//70 105//70 104//70 150//70 176//70 46//70
f 39//71 111//71 110//71 151//71 175//71 40//71
f 47//72 46//72 176//72 152//72 120//72 119//72
f 51//73 77//73 76//73 153//73 177//73 52//73
f 53//74 52//74 177//74 154//74 82//74 81//74
f 59//75 58//75 178//75 155//75 88//75 87//75
f 57//76 95//76 94//76 156//76 178//76 58//76
f 65//77 64//77 179//77 157//77 100//77 99//77
f 63//78 107//78 106//78 158//78 179//78 64//78
f 69//79 113//79 112//79 159//79 180//79 70//79
f 71//80 70//80 180//80 160//80 118//80 117//80
f 173//81 145//81 122//81 121//81 147//81
f 174//82 148//82 128//82 127//82 146//82
f 175//83 151//83 126//83 125//83 149//83
f 176//84 150//84 124//84 123//84 152//84
f 177//85 153//85 130//85 129//85 154//85
f 178//86 156//86 132//86 131//86 155//86
f 179//87 158//87 136//87 135//87 157//87
f 180//88 159//88 134//88 133//88 160//88
f 169//89 161//89 138//89 137//89 165//89
f 170//90 166//90 142//90 141//90 162//90
f 171//91 167//91 144//91 143//91 163//91
f 172//92 164//92 140//92 139//92 168//92
